G75*
G70*
%OFA0B0*%
%FSLAX24Y24*%
%IPPOS*%
%LPD*%
%AMOC8*
5,1,8,0,0,1.08239X$1,22.5*
%
%ADD10C,0.1320*%
%ADD11R,0.0611X0.0690*%
%ADD12R,0.0532X0.0532*%
%ADD13R,0.0257X0.0316*%
%ADD14C,0.0092*%
%ADD15R,0.0540X0.0940*%
%ADD16R,0.1477X0.0926*%
%ADD17C,0.0860*%
%ADD18C,0.0460*%
%ADD19C,0.0620*%
%ADD20C,0.1241*%
%ADD21C,0.0560*%
%ADD22C,0.0760*%
%ADD23R,0.0198X0.0375*%
%ADD24R,0.0454X0.0493*%
%ADD25R,0.0572X0.0690*%
%ADD26R,0.0690X0.0572*%
%ADD27R,0.0572X0.0651*%
%ADD28R,0.0651X0.0572*%
%ADD29R,0.0690X0.0651*%
%ADD30R,0.0217X0.0493*%
%ADD31OC8,0.0620*%
%ADD32R,0.0532X0.0178*%
%ADD33R,0.0454X0.0611*%
%ADD34C,0.0800*%
%ADD35R,0.1241X0.0454*%
%ADD36C,0.0611*%
%ADD37R,0.0800X0.0800*%
%ADD38C,0.0800*%
%ADD39R,0.0375X0.0414*%
%ADD40C,0.0320*%
%ADD41C,0.0300*%
D10*
X028717Y002754D03*
X028717Y018004D03*
D11*
X016518Y018254D03*
X015415Y018254D03*
X013606Y018204D03*
X012504Y018204D03*
X012504Y012886D03*
X013606Y012886D03*
D12*
X002967Y002340D03*
X002967Y003167D03*
X004217Y003167D03*
X005467Y003167D03*
X005467Y002340D03*
X004217Y002340D03*
X006717Y002340D03*
X007967Y002340D03*
X007967Y003167D03*
X006717Y003167D03*
X009217Y003167D03*
X010467Y003167D03*
X010467Y002340D03*
X009217Y002340D03*
X011717Y002340D03*
X011717Y003167D03*
X019498Y007610D03*
X019498Y008397D03*
D13*
X010439Y005269D03*
X010124Y005269D03*
X009809Y005269D03*
X009494Y005269D03*
X009494Y004738D03*
X009809Y004738D03*
X010124Y004738D03*
X010439Y004738D03*
X005189Y004738D03*
X004874Y004738D03*
X004559Y004738D03*
X004244Y004738D03*
X004244Y005269D03*
X004559Y005269D03*
X004874Y005269D03*
X005189Y005269D03*
D14*
X018714Y004030D02*
X019312Y004030D01*
X018714Y004030D02*
X018714Y004548D01*
X019312Y004548D01*
X019312Y004030D01*
X019312Y004121D02*
X018714Y004121D01*
X018714Y004212D02*
X019312Y004212D01*
X019312Y004303D02*
X018714Y004303D01*
X018714Y004394D02*
X019312Y004394D01*
X019312Y004485D02*
X018714Y004485D01*
X018714Y003145D02*
X019312Y003145D01*
X018714Y003145D02*
X018714Y003663D01*
X019312Y003663D01*
X019312Y003145D01*
X019312Y003236D02*
X018714Y003236D01*
X018714Y003327D02*
X019312Y003327D01*
X019312Y003418D02*
X018714Y003418D01*
X018714Y003509D02*
X019312Y003509D01*
X019312Y003600D02*
X018714Y003600D01*
X018714Y002259D02*
X019312Y002259D01*
X018714Y002259D02*
X018714Y002777D01*
X019312Y002777D01*
X019312Y002259D01*
X019312Y002350D02*
X018714Y002350D01*
X018714Y002441D02*
X019312Y002441D01*
X019312Y002532D02*
X018714Y002532D01*
X018714Y002623D02*
X019312Y002623D01*
X019312Y002714D02*
X018714Y002714D01*
X022021Y002259D02*
X022619Y002259D01*
X022021Y002259D02*
X022021Y002777D01*
X022619Y002777D01*
X022619Y002259D01*
X022619Y002350D02*
X022021Y002350D01*
X022021Y002441D02*
X022619Y002441D01*
X022619Y002532D02*
X022021Y002532D01*
X022021Y002623D02*
X022619Y002623D01*
X022619Y002714D02*
X022021Y002714D01*
X022021Y004030D02*
X022619Y004030D01*
X022021Y004030D02*
X022021Y004548D01*
X022619Y004548D01*
X022619Y004030D01*
X022619Y004121D02*
X022021Y004121D01*
X022021Y004212D02*
X022619Y004212D01*
X022619Y004303D02*
X022021Y004303D01*
X022021Y004394D02*
X022619Y004394D01*
X022619Y004485D02*
X022021Y004485D01*
D15*
X016877Y016724D03*
X015967Y016724D03*
X015057Y016724D03*
X013877Y016724D03*
X012967Y016724D03*
X012057Y016724D03*
D16*
X012967Y014284D03*
X015967Y014284D03*
D17*
X020770Y011004D02*
X020772Y011031D01*
X020778Y011058D01*
X020787Y011084D01*
X020800Y011108D01*
X020816Y011131D01*
X020835Y011150D01*
X020857Y011167D01*
X020881Y011181D01*
X020906Y011191D01*
X020933Y011198D01*
X020960Y011201D01*
X020988Y011200D01*
X021015Y011195D01*
X021041Y011187D01*
X021065Y011175D01*
X021088Y011159D01*
X021109Y011141D01*
X021126Y011120D01*
X021141Y011096D01*
X021152Y011071D01*
X021160Y011045D01*
X021164Y011018D01*
X021164Y010990D01*
X021160Y010963D01*
X021152Y010937D01*
X021141Y010912D01*
X021126Y010888D01*
X021109Y010867D01*
X021088Y010849D01*
X021066Y010833D01*
X021041Y010821D01*
X021015Y010813D01*
X020988Y010808D01*
X020960Y010807D01*
X020933Y010810D01*
X020906Y010817D01*
X020881Y010827D01*
X020857Y010841D01*
X020835Y010858D01*
X020816Y010877D01*
X020800Y010900D01*
X020787Y010924D01*
X020778Y010950D01*
X020772Y010977D01*
X020770Y011004D01*
X002970Y005904D02*
X002972Y005931D01*
X002978Y005958D01*
X002987Y005984D01*
X003000Y006008D01*
X003016Y006031D01*
X003035Y006050D01*
X003057Y006067D01*
X003081Y006081D01*
X003106Y006091D01*
X003133Y006098D01*
X003160Y006101D01*
X003188Y006100D01*
X003215Y006095D01*
X003241Y006087D01*
X003265Y006075D01*
X003288Y006059D01*
X003309Y006041D01*
X003326Y006020D01*
X003341Y005996D01*
X003352Y005971D01*
X003360Y005945D01*
X003364Y005918D01*
X003364Y005890D01*
X003360Y005863D01*
X003352Y005837D01*
X003341Y005812D01*
X003326Y005788D01*
X003309Y005767D01*
X003288Y005749D01*
X003266Y005733D01*
X003241Y005721D01*
X003215Y005713D01*
X003188Y005708D01*
X003160Y005707D01*
X003133Y005710D01*
X003106Y005717D01*
X003081Y005727D01*
X003057Y005741D01*
X003035Y005758D01*
X003016Y005777D01*
X003000Y005800D01*
X002987Y005824D01*
X002978Y005850D01*
X002972Y005877D01*
X002970Y005904D01*
D18*
X003167Y005904D03*
X020967Y011004D03*
D19*
X020967Y013634D03*
X019648Y014185D03*
X022286Y014185D03*
X022286Y016823D03*
X020967Y017374D03*
X019648Y016823D03*
D20*
X020967Y015504D03*
D21*
X009810Y016084D03*
X009023Y016084D03*
X008235Y016084D03*
X007448Y016084D03*
X006660Y016084D03*
X005873Y016084D03*
X005086Y016084D03*
X004298Y016084D03*
X003511Y016084D03*
X002723Y016084D03*
X002723Y007423D03*
X003511Y007423D03*
X004298Y007423D03*
X005086Y007423D03*
X005873Y007423D03*
X006660Y007423D03*
X007448Y007423D03*
X008235Y007423D03*
X009023Y007423D03*
X009810Y007423D03*
D22*
X015205Y002716D03*
X016228Y002716D03*
D23*
X016961Y007669D03*
X017217Y007669D03*
X017473Y007669D03*
X017473Y008338D03*
X016961Y008338D03*
D24*
X016467Y009419D03*
X016467Y010088D03*
X017717Y010088D03*
X017717Y009419D03*
D25*
X013360Y011754D03*
X012573Y011754D03*
X010110Y013254D03*
X009323Y013254D03*
X015323Y013004D03*
X016110Y013004D03*
X009860Y009004D03*
X009073Y009004D03*
X014823Y006004D03*
X015610Y006004D03*
X015573Y006754D03*
X016360Y006754D03*
X017073Y006754D03*
X017860Y006754D03*
X026073Y002754D03*
X026860Y002754D03*
X026110Y013254D03*
X025323Y013254D03*
X027823Y013254D03*
X028610Y013254D03*
D26*
X026117Y012597D03*
X026117Y011810D03*
X025217Y014860D03*
X025217Y015647D03*
X018467Y008397D03*
X018467Y007610D03*
X023717Y003647D03*
X023717Y002860D03*
D27*
X020926Y006754D03*
X020257Y006754D03*
X019301Y006754D03*
X018632Y006754D03*
X017051Y006004D03*
X016382Y006004D03*
X015051Y007504D03*
X014382Y007504D03*
X014382Y008754D03*
X015051Y008754D03*
X017843Y011754D03*
X018591Y011754D03*
X022593Y009004D03*
X023341Y009004D03*
X025343Y014004D03*
X026091Y014004D03*
X010341Y018004D03*
X009593Y018004D03*
X008591Y018004D03*
X007843Y018004D03*
D28*
X015967Y008338D03*
X015967Y007669D03*
X023467Y006338D03*
X023467Y005669D03*
X029467Y012380D03*
X029467Y013128D03*
X027217Y014880D03*
X027217Y015628D03*
D29*
X020807Y008004D03*
D30*
X026705Y013236D03*
X026961Y013236D03*
X027217Y013236D03*
X027217Y014004D03*
X026961Y014004D03*
X026705Y014004D03*
D31*
X030217Y013254D03*
X030217Y012004D03*
D32*
X027108Y007155D03*
X027108Y006899D03*
X027108Y006643D03*
X027108Y006388D03*
X027108Y006132D03*
X027108Y005876D03*
X027108Y005620D03*
X027108Y005364D03*
X027108Y005108D03*
X027108Y004852D03*
X024825Y004852D03*
X024825Y005108D03*
X024825Y005364D03*
X024825Y005620D03*
X024825Y005876D03*
X024825Y006132D03*
X024825Y006388D03*
X024825Y006643D03*
X024825Y006899D03*
X024825Y007155D03*
D33*
X010091Y010571D03*
X009343Y010571D03*
X009717Y011437D03*
D34*
X004967Y017954D03*
X005967Y018054D03*
X003967Y018054D03*
X029217Y010004D03*
X029217Y009004D03*
X029217Y008004D03*
D35*
X029998Y008004D03*
X029998Y009004D03*
X029998Y010004D03*
X029998Y007004D03*
D36*
X031967Y007504D03*
X031967Y009504D03*
D37*
X029217Y007004D03*
D38*
X025717Y018134D02*
X025717Y018874D01*
X024717Y018874D02*
X024717Y018134D01*
D39*
X022967Y011687D03*
X023341Y010860D03*
X022593Y010860D03*
D40*
X024217Y009654D03*
X025517Y008954D03*
X026317Y007754D03*
X026192Y006854D03*
X026492Y006554D03*
X025442Y006754D03*
X024717Y007454D03*
X024217Y007954D03*
X022617Y008254D03*
X022917Y006654D03*
X022217Y006154D03*
X026092Y005654D03*
X027617Y006154D03*
X028317Y005754D03*
X027717Y005154D03*
X026317Y004254D03*
X025917Y003854D03*
X015217Y004754D03*
X015017Y006654D03*
X011617Y006054D03*
X010817Y006054D03*
X010717Y005554D03*
X010117Y006054D03*
X009217Y005554D03*
X010417Y007054D03*
X010817Y007254D03*
X010117Y009654D03*
X004517Y006354D03*
X003717Y006454D03*
X004217Y005654D03*
X005617Y005154D03*
X003017Y007854D03*
X011617Y013654D03*
X010417Y014254D03*
X016017Y017454D03*
X015417Y018954D03*
X024717Y012154D03*
X025317Y011554D03*
X026817Y012154D03*
X027617Y013854D03*
D41*
X028217Y014104D03*
X028617Y014104D03*
X028967Y014004D03*
X029467Y014004D03*
X029967Y014004D03*
X030467Y014004D03*
X028717Y012504D03*
X028917Y012254D03*
X028217Y012504D03*
X027717Y012504D03*
X027367Y012504D03*
X026967Y012804D03*
X025617Y012504D03*
X025317Y012754D03*
X025617Y011804D03*
X026117Y011104D03*
X026617Y011804D03*
X026967Y014404D03*
X025767Y015504D03*
X026717Y015604D03*
X018717Y010254D03*
X019217Y009254D03*
X021367Y008004D03*
X017217Y011754D03*
X013367Y012254D03*
X013867Y017454D03*
X011717Y001904D03*
X010467Y001904D03*
X009217Y001904D03*
X007967Y001904D03*
X005467Y001904D03*
M02*
