%
M48
M72
T01C0.0120
T02C0.0140
T03C0.0236
T04C0.0315
T05C0.0320
T06C0.0400
T07C0.0551
T08C0.1181
T09C0.1260
%
T01
X5467Y1904
X7967Y1904
X9217Y1904
X10467Y1904
X11717Y1904
X21367Y8004
X19217Y9254
X18717Y10254
X17217Y11754
X13367Y12254
X13867Y17454
X25317Y12754
X25617Y12504
X25617Y11804
X26117Y11104
X26617Y11804
X27367Y12504
X27717Y12504
X28217Y12504
X28717Y12504
X28917Y12254
X26967Y12804
X28967Y14004
X28617Y14104
X28217Y14104
X26967Y14404
X25767Y15504
X26717Y15604
X29467Y14004
X29967Y14004
X30467Y14004
T02
X27617Y13854
X26817Y12154
X25317Y11554
X24717Y12154
X24217Y9654
X25517Y8954
X26317Y7754
X26192Y6854
X26492Y6554
X25442Y6754
X24717Y7454
X24217Y7954
X22617Y8254
X22917Y6654
X22217Y6154
X26092Y5654
X27617Y6154
X28317Y5754
X27717Y5154
X26317Y4254
X25917Y3854
X15217Y4754
X15017Y6654
X11617Y6054
X10817Y6054
X10717Y5554
X10117Y6054
X9217Y5554
X10417Y7054
X10817Y7254
X10117Y9654
X4517Y6354
X3717Y6454
X4217Y5654
X5617Y5154
X3017Y7854
X11617Y13654
X10417Y14254
X16017Y17454
X15417Y18954
T03
X15205Y2716
X16228Y2716
T04
X9810Y7423
X9023Y7423
X8235Y7423
X7448Y7423
X6660Y7423
X5873Y7423
X5086Y7423
X4298Y7423
X3511Y7423
X2723Y7423
X2723Y16084
X3511Y16084
X4298Y16084
X5086Y16084
X5873Y16084
X6660Y16084
X7448Y16084
X8235Y16084
X9023Y16084
X9810Y16084
T05
X30217Y13254
X30217Y12004
T06
X29217Y10004
X29217Y9004
X29217Y8004
X29217Y7004
X20967Y13634
X19648Y14185
X22286Y14185
X22286Y16823
X20967Y17374
X19648Y16823
X24717Y18504
X25717Y18504
X5967Y18054
X4967Y17954
X3967Y18054
T07
X31967Y9504
X31967Y7504
T08
X20967Y15504
T09
X28717Y18004
X28717Y2754
M30
