G75*
G70*
%OFA0B0*%
%FSLAX24Y24*%
%IPPOS*%
%LPD*%
%AMOC8*
5,1,8,0,0,1.08239X$1,22.5*
%
%ADD10R,0.0551X0.0630*%
%ADD11R,0.0472X0.0472*%
%ADD12R,0.0197X0.0256*%
%ADD13C,0.0083*%
%ADD14R,0.0480X0.0880*%
%ADD15R,0.1417X0.0866*%
%ADD16C,0.0400*%
%ADD17C,0.0560*%
%ADD18C,0.0500*%
%ADD19C,0.0700*%
%ADD20R,0.0138X0.0315*%
%ADD21R,0.0394X0.0433*%
%ADD22R,0.0512X0.0630*%
%ADD23R,0.0630X0.0512*%
%ADD24R,0.0512X0.0591*%
%ADD25R,0.0591X0.0512*%
%ADD26R,0.0630X0.0591*%
%ADD27C,0.0000*%
%ADD28R,0.0157X0.0433*%
%ADD29OC8,0.0560*%
%ADD30R,0.0472X0.0118*%
%ADD31R,0.0394X0.0551*%
%ADD32C,0.0740*%
%ADD33R,0.1181X0.0394*%
%ADD34R,0.0740X0.0740*%
%ADD35C,0.0740*%
%ADD36R,0.0315X0.0354*%
%ADD37C,0.0300*%
%ADD38C,0.0160*%
%ADD39C,0.0080*%
%ADD40C,0.0260*%
%ADD41C,0.0240*%
%ADD42C,0.0140*%
%ADD43C,0.0500*%
%ADD44C,0.0100*%
D10*
X012504Y012886D03*
X013606Y012886D03*
X013606Y018204D03*
X012504Y018204D03*
X015415Y018254D03*
X016518Y018254D03*
D11*
X019498Y008397D03*
X019498Y007610D03*
X011717Y003167D03*
X011717Y002340D03*
X010467Y002340D03*
X009217Y002340D03*
X009217Y003167D03*
X010467Y003167D03*
X007967Y003167D03*
X006717Y003167D03*
X006717Y002340D03*
X007967Y002340D03*
X005467Y002340D03*
X004217Y002340D03*
X004217Y003167D03*
X005467Y003167D03*
X002967Y003167D03*
X002967Y002340D03*
D12*
X004244Y004738D03*
X004559Y004738D03*
X004874Y004738D03*
X005189Y004738D03*
X005189Y005269D03*
X004874Y005269D03*
X004559Y005269D03*
X004244Y005269D03*
X009494Y005269D03*
X009809Y005269D03*
X010124Y005269D03*
X010439Y005269D03*
X010439Y004738D03*
X010124Y004738D03*
X009809Y004738D03*
X009494Y004738D03*
D13*
X018739Y004055D02*
X019287Y004055D01*
X018739Y004055D02*
X018739Y004523D01*
X019287Y004523D01*
X019287Y004055D01*
X019287Y004137D02*
X018739Y004137D01*
X018739Y004219D02*
X019287Y004219D01*
X019287Y004301D02*
X018739Y004301D01*
X018739Y004383D02*
X019287Y004383D01*
X019287Y004465D02*
X018739Y004465D01*
X018739Y003170D02*
X019287Y003170D01*
X018739Y003170D02*
X018739Y003638D01*
X019287Y003638D01*
X019287Y003170D01*
X019287Y003252D02*
X018739Y003252D01*
X018739Y003334D02*
X019287Y003334D01*
X019287Y003416D02*
X018739Y003416D01*
X018739Y003498D02*
X019287Y003498D01*
X019287Y003580D02*
X018739Y003580D01*
X018739Y002284D02*
X019287Y002284D01*
X018739Y002284D02*
X018739Y002752D01*
X019287Y002752D01*
X019287Y002284D01*
X019287Y002366D02*
X018739Y002366D01*
X018739Y002448D02*
X019287Y002448D01*
X019287Y002530D02*
X018739Y002530D01*
X018739Y002612D02*
X019287Y002612D01*
X019287Y002694D02*
X018739Y002694D01*
X022046Y002284D02*
X022594Y002284D01*
X022046Y002284D02*
X022046Y002752D01*
X022594Y002752D01*
X022594Y002284D01*
X022594Y002366D02*
X022046Y002366D01*
X022046Y002448D02*
X022594Y002448D01*
X022594Y002530D02*
X022046Y002530D01*
X022046Y002612D02*
X022594Y002612D01*
X022594Y002694D02*
X022046Y002694D01*
X022046Y004055D02*
X022594Y004055D01*
X022046Y004055D02*
X022046Y004523D01*
X022594Y004523D01*
X022594Y004055D01*
X022594Y004137D02*
X022046Y004137D01*
X022046Y004219D02*
X022594Y004219D01*
X022594Y004301D02*
X022046Y004301D01*
X022046Y004383D02*
X022594Y004383D01*
X022594Y004465D02*
X022046Y004465D01*
D14*
X016877Y016724D03*
X015967Y016724D03*
X015057Y016724D03*
X013877Y016724D03*
X012967Y016724D03*
X012057Y016724D03*
D15*
X012967Y014284D03*
X015967Y014284D03*
D16*
X020967Y011004D03*
X003167Y005904D03*
D17*
X019648Y014185D03*
X020967Y013634D03*
X022286Y014185D03*
X022286Y016823D03*
X020967Y017374D03*
X019648Y016823D03*
D18*
X009810Y016084D03*
X009023Y016084D03*
X008235Y016084D03*
X007448Y016084D03*
X006660Y016084D03*
X005873Y016084D03*
X005086Y016084D03*
X004298Y016084D03*
X003511Y016084D03*
X002723Y016084D03*
X002723Y007423D03*
X003511Y007423D03*
X004298Y007423D03*
X005086Y007423D03*
X005873Y007423D03*
X006660Y007423D03*
X007448Y007423D03*
X008235Y007423D03*
X009023Y007423D03*
X009810Y007423D03*
D19*
X015205Y002716D03*
X016228Y002716D03*
D20*
X016961Y007669D03*
X017217Y007669D03*
X017473Y007669D03*
X017473Y008338D03*
X016961Y008338D03*
D21*
X016467Y009419D03*
X016467Y010088D03*
X017717Y010088D03*
X017717Y009419D03*
D22*
X013360Y011754D03*
X012573Y011754D03*
X010110Y013254D03*
X009323Y013254D03*
X015323Y013004D03*
X016110Y013004D03*
X009860Y009004D03*
X009073Y009004D03*
X014823Y006004D03*
X015610Y006004D03*
X015573Y006754D03*
X016360Y006754D03*
X017073Y006754D03*
X017860Y006754D03*
X026073Y002754D03*
X026860Y002754D03*
X026110Y013254D03*
X025323Y013254D03*
X027823Y013254D03*
X028610Y013254D03*
D23*
X026117Y012597D03*
X026117Y011810D03*
X025217Y014860D03*
X025217Y015647D03*
X018467Y008397D03*
X018467Y007610D03*
X023717Y003647D03*
X023717Y002860D03*
D24*
X020926Y006754D03*
X020257Y006754D03*
X019301Y006754D03*
X018632Y006754D03*
X017051Y006004D03*
X016382Y006004D03*
X015051Y007504D03*
X014382Y007504D03*
X014382Y008754D03*
X015051Y008754D03*
X017843Y011754D03*
X018591Y011754D03*
X022593Y009004D03*
X023341Y009004D03*
X025343Y014004D03*
X026091Y014004D03*
X010341Y018004D03*
X009593Y018004D03*
X008591Y018004D03*
X007843Y018004D03*
D25*
X015967Y008338D03*
X015967Y007669D03*
X023467Y006338D03*
X023467Y005669D03*
X029467Y012380D03*
X029467Y013128D03*
X027217Y014880D03*
X027217Y015628D03*
D26*
X020807Y008004D03*
D27*
X027335Y013393D02*
X027335Y013413D01*
D28*
X027217Y013236D03*
X026961Y013236D03*
X026705Y013236D03*
X026705Y014004D03*
X026961Y014004D03*
X027217Y014004D03*
D29*
X030217Y013254D03*
X030217Y012004D03*
D30*
X027108Y007155D03*
X027108Y006899D03*
X027108Y006643D03*
X027108Y006388D03*
X027108Y006132D03*
X027108Y005876D03*
X027108Y005620D03*
X027108Y005364D03*
X027108Y005108D03*
X027108Y004852D03*
X024825Y004852D03*
X024825Y005108D03*
X024825Y005364D03*
X024825Y005620D03*
X024825Y005876D03*
X024825Y006132D03*
X024825Y006388D03*
X024825Y006643D03*
X024825Y006899D03*
X024825Y007155D03*
D31*
X010091Y010571D03*
X009343Y010571D03*
X009717Y011437D03*
D32*
X004967Y017954D03*
X005967Y018054D03*
X003967Y018054D03*
X029217Y010004D03*
X029217Y009004D03*
X029217Y008004D03*
D33*
X029998Y008004D03*
X029998Y009004D03*
X029998Y010004D03*
X029998Y007004D03*
D34*
X029217Y007004D03*
D35*
X025717Y018134D02*
X025717Y018874D01*
X024717Y018874D02*
X024717Y018134D01*
D36*
X022967Y011687D03*
X023341Y010860D03*
X022593Y010860D03*
D37*
X024634Y011521D02*
X025617Y012504D01*
X026023Y012504D01*
X026117Y012597D01*
X017717Y010754D02*
X017717Y010088D01*
X014382Y007504D02*
X014632Y006195D01*
X014823Y006004D01*
X014823Y003098D01*
X015205Y002716D01*
X012573Y011754D02*
X012573Y012817D01*
X012504Y012886D01*
X011967Y016634D02*
X012057Y016724D01*
X013867Y016734D02*
X013877Y016724D01*
X013867Y016734D02*
X013867Y017454D01*
X013867Y017944D01*
X013606Y018204D01*
D38*
X012517Y018254D02*
X012517Y018754D01*
X013017Y019254D01*
X015917Y019254D01*
X015917Y017654D01*
X016017Y017554D01*
X016017Y017454D01*
X016017Y016754D01*
X016017Y016654D02*
X016017Y014354D01*
X016117Y014254D02*
X016117Y013054D01*
X013617Y013701D02*
X012967Y013701D01*
X012967Y014284D01*
X015017Y016754D02*
X015017Y017254D01*
X015417Y017654D01*
X015417Y018254D01*
X015417Y018954D01*
X012517Y018154D02*
X012517Y017654D01*
X012017Y017154D01*
X009593Y018004D02*
X008591Y018004D01*
X020967Y013634D02*
X021017Y013554D01*
X021017Y013054D01*
X021617Y013054D01*
X022917Y011754D01*
X022617Y010854D02*
X022617Y009054D01*
X027217Y013129D02*
X027805Y013111D01*
X027823Y013254D01*
X027217Y013236D02*
X027217Y013129D01*
X025767Y015504D02*
X025260Y015504D01*
X025217Y015647D01*
X010439Y004738D02*
X010439Y004445D01*
X011717Y003167D01*
X011717Y002340D02*
X011717Y001904D01*
X010467Y001904D02*
X010467Y002340D01*
X009217Y002340D02*
X009217Y001904D01*
X007967Y001904D02*
X007967Y002340D01*
X007967Y003167D02*
X009494Y004695D01*
X009494Y004738D01*
X009809Y004738D02*
X009809Y003760D01*
X009217Y003167D01*
X010124Y003510D02*
X010467Y003167D01*
X010124Y003510D02*
X010124Y004738D01*
X006717Y003167D02*
X005189Y004695D01*
X005189Y004738D01*
X004874Y004738D02*
X004874Y003760D01*
X005467Y003167D01*
X005467Y002340D02*
X005467Y001904D01*
D39*
X004517Y003154D02*
X004217Y003154D01*
X004217Y003167D01*
X004517Y003154D02*
X004517Y004654D01*
X004559Y004738D01*
X004244Y004738D02*
X004217Y004654D01*
X004217Y004154D01*
X003617Y003554D01*
X003617Y003254D01*
X003517Y003154D01*
X003017Y003154D01*
X002967Y003167D01*
X004244Y005269D02*
X004217Y005354D01*
X004217Y005654D01*
X004517Y005354D02*
X004559Y005269D01*
X004517Y005354D02*
X004517Y006354D01*
X003717Y006454D02*
X003417Y006754D01*
X003417Y006954D01*
X003117Y007254D01*
X003117Y007554D01*
X003317Y007754D01*
X003317Y011954D01*
X006617Y015254D01*
X006617Y016054D01*
X006660Y016084D01*
X007617Y016954D02*
X008217Y016354D01*
X008217Y016154D01*
X008235Y016084D01*
X008617Y015954D02*
X008617Y016254D01*
X007817Y017054D01*
X007817Y017254D01*
X004217Y017254D01*
X004017Y017454D01*
X004017Y018054D01*
X003967Y018054D01*
X004017Y017454D02*
X003517Y017454D01*
X002217Y016154D01*
X002217Y008754D01*
X002717Y008254D01*
X002717Y007454D01*
X002723Y007423D01*
X003017Y007854D02*
X003017Y007954D01*
X003117Y008054D01*
X003117Y012054D01*
X003717Y012654D01*
X003717Y015754D01*
X003917Y015954D01*
X003917Y016254D01*
X004717Y017054D01*
X007617Y017054D01*
X007617Y016954D01*
X007817Y017254D02*
X007817Y017954D01*
X007843Y018004D01*
X008591Y018004D02*
X008617Y018054D01*
X008617Y018554D01*
X007917Y019254D01*
X005703Y019254D01*
X005017Y018567D01*
X005017Y017954D01*
X004967Y017954D01*
X008617Y015954D02*
X009317Y015254D01*
X009317Y013954D01*
X012017Y013954D01*
X012217Y013754D01*
X012217Y013706D01*
X011617Y013654D02*
X011617Y006054D01*
X010817Y006054D02*
X010817Y007254D01*
X010417Y007054D02*
X010417Y006754D01*
X009817Y006154D01*
X009817Y005354D01*
X009809Y005269D01*
X009494Y005269D02*
X009417Y005354D01*
X009217Y005554D01*
X010117Y005354D02*
X010124Y005269D01*
X010117Y005354D02*
X010117Y006054D01*
X010717Y005554D02*
X010517Y005354D01*
X010439Y005269D01*
X006617Y006754D02*
X006617Y007354D01*
X006660Y007423D01*
X006617Y006754D02*
X006217Y006754D01*
X004917Y005454D01*
X004917Y005354D01*
X004874Y005269D01*
X005189Y005269D02*
X005217Y005254D01*
X005517Y005254D01*
X005617Y005154D01*
X009073Y009004D02*
X009117Y009054D01*
X009117Y009554D01*
X009317Y009754D01*
X009317Y010554D01*
X009343Y010571D01*
X009317Y010654D01*
X009117Y010854D01*
X009117Y012154D01*
X009317Y012354D01*
X009317Y013254D01*
X009323Y013254D01*
X009317Y013254D01*
X009317Y013954D01*
X010417Y014254D02*
X010417Y017054D01*
X010317Y017154D01*
X010317Y017954D01*
X010341Y018004D01*
X012017Y017154D02*
X012017Y016854D01*
X012057Y016724D01*
X012517Y018154D02*
X012504Y018204D01*
X012517Y018254D01*
X015017Y016754D02*
X015057Y016724D01*
X015967Y016724D02*
X016017Y016754D01*
X015967Y016724D02*
X016017Y016654D01*
X015417Y018254D02*
X015415Y018254D01*
X015417Y018254D01*
X016017Y014354D02*
X015967Y014284D01*
X016017Y014354D01*
X016117Y014254D01*
X016117Y013054D02*
X016110Y013004D01*
X014217Y013054D02*
X014217Y012454D01*
X016517Y010654D01*
X016917Y011054D01*
X019017Y011054D01*
X022017Y008054D01*
X022017Y006354D01*
X021917Y006254D01*
X021917Y005854D01*
X022317Y005854D01*
X022517Y006054D01*
X022517Y006354D01*
X023417Y006354D01*
X023467Y006338D01*
X023517Y006354D01*
X023917Y006354D01*
X023917Y010854D01*
X024517Y011454D01*
X024634Y011521D01*
X024317Y011554D02*
X024317Y011654D01*
X024717Y012054D01*
X024717Y012154D01*
X024717Y014754D01*
X024817Y014854D01*
X025217Y014854D01*
X025217Y014860D01*
X025217Y014954D01*
X025317Y014854D01*
X025317Y014054D01*
X025343Y014004D01*
X026110Y013254D02*
X026117Y013254D01*
X026117Y012654D01*
X026117Y012597D01*
X026217Y012554D01*
X026817Y012554D01*
X028017Y011354D01*
X028017Y004854D01*
X027117Y004854D01*
X027108Y004852D01*
X027017Y004854D01*
X026817Y004854D01*
X026817Y002754D01*
X026860Y002754D01*
X025917Y003854D02*
X025917Y004254D01*
X026117Y004454D01*
X026117Y004954D01*
X026817Y005654D01*
X027017Y005654D01*
X027108Y005620D01*
X027117Y005854D02*
X027108Y005876D01*
X027117Y005854D02*
X027717Y005854D01*
X027717Y005154D01*
X028017Y004854D02*
X028492Y004854D01*
X029217Y005579D01*
X029217Y006954D01*
X029217Y007004D01*
X029217Y007054D01*
X029917Y007054D01*
X029998Y007004D01*
X029217Y007754D02*
X028617Y007754D01*
X028217Y007354D01*
X028217Y005854D01*
X028317Y005754D01*
X027617Y006154D02*
X027117Y006154D01*
X027108Y006132D01*
X027017Y006354D02*
X026817Y006354D01*
X026492Y006554D01*
X026192Y006854D02*
X027017Y006854D01*
X027108Y006899D01*
X027117Y006654D02*
X027108Y006643D01*
X027117Y006654D02*
X027817Y006654D01*
X027817Y011254D01*
X026917Y012154D01*
X026817Y012154D01*
X025317Y011554D02*
X025317Y011354D01*
X025817Y010854D01*
X024317Y011554D02*
X023717Y010954D01*
X023717Y007454D01*
X022917Y006654D01*
X022217Y006154D02*
X022217Y008154D01*
X020217Y010154D01*
X020217Y011054D01*
X020317Y011154D01*
X020317Y013882D01*
X020688Y014254D01*
X022217Y014254D01*
X022286Y014185D01*
X026110Y013254D02*
X026117Y013254D01*
X026717Y013254D01*
X026705Y013236D01*
X027617Y013854D02*
X027617Y014754D01*
X027517Y014854D01*
X027317Y014854D01*
X027217Y014880D01*
X027217Y014854D01*
X027317Y014854D01*
X027317Y014354D01*
X027217Y014254D01*
X027217Y014054D01*
X027217Y014004D01*
X028367Y013534D02*
X028367Y012974D01*
X030387Y012974D01*
X030517Y013104D01*
X030517Y013404D01*
X030387Y013534D01*
X028367Y013534D01*
X028367Y013529D02*
X030392Y013529D01*
X030470Y013450D02*
X028367Y013450D01*
X028367Y013372D02*
X030517Y013372D01*
X030517Y013293D02*
X028367Y013293D01*
X028367Y013215D02*
X030517Y013215D01*
X030517Y013136D02*
X028367Y013136D01*
X028367Y013058D02*
X030471Y013058D01*
X030392Y012979D02*
X028367Y012979D01*
X029167Y012604D02*
X030367Y012604D01*
X030567Y012404D01*
X030567Y012104D01*
X030367Y011904D01*
X029167Y011904D01*
X029167Y012604D01*
X029167Y012587D02*
X030384Y012587D01*
X030462Y012508D02*
X029167Y012508D01*
X029167Y012430D02*
X030541Y012430D01*
X030567Y012351D02*
X029167Y012351D01*
X029167Y012273D02*
X030567Y012273D01*
X030567Y012194D02*
X029167Y012194D01*
X029167Y012116D02*
X030567Y012116D01*
X030500Y012037D02*
X029167Y012037D01*
X029167Y011959D02*
X030422Y011959D01*
X029950Y010052D02*
X029917Y010054D01*
X029998Y010004D01*
X029917Y009054D02*
X029217Y009054D01*
X029217Y009004D01*
X029917Y009054D02*
X029998Y009004D01*
X029917Y008054D02*
X029217Y008054D01*
X029217Y008004D01*
X029217Y007954D01*
X029217Y007754D01*
X029917Y008054D02*
X029998Y008004D01*
X027108Y007155D02*
X027017Y007154D01*
X026417Y007154D01*
X026317Y007254D01*
X026317Y007754D01*
X025717Y006879D02*
X025717Y008754D01*
X025592Y008879D01*
X025617Y008854D01*
X025517Y008954D01*
X024517Y009354D02*
X024217Y009654D01*
X024517Y009354D02*
X024517Y007854D01*
X024417Y007754D01*
X024417Y006354D01*
X024817Y006354D01*
X024825Y006388D01*
X024817Y006154D02*
X024825Y006132D01*
X024817Y006154D02*
X024217Y006154D01*
X024217Y007954D01*
X024717Y007454D02*
X024717Y007154D01*
X024817Y007154D01*
X024825Y007155D01*
X025217Y006654D02*
X025442Y006754D01*
X025217Y006654D02*
X024917Y006654D01*
X024825Y006643D01*
X025717Y006879D02*
X025867Y006729D01*
X025867Y006204D01*
X025517Y005854D01*
X024917Y005854D01*
X024825Y005876D01*
X024817Y005854D01*
X024117Y005854D01*
X024117Y005754D01*
X024017Y005654D01*
X023717Y005654D01*
X023467Y005669D01*
X023517Y005654D01*
X023717Y005654D01*
X023717Y003654D01*
X023717Y003647D01*
X023717Y003654D01*
X023017Y003654D01*
X022917Y003754D01*
X022917Y004254D01*
X022417Y004254D01*
X022320Y004289D01*
X022317Y004254D01*
X019017Y004254D01*
X019013Y004289D01*
X017367Y004266D02*
X016817Y004266D01*
X016817Y004344D02*
X017367Y004344D01*
X017367Y004423D02*
X016817Y004423D01*
X016817Y004501D02*
X017367Y004501D01*
X017367Y004580D02*
X016817Y004580D01*
X016817Y004658D02*
X017367Y004658D01*
X017367Y004737D02*
X016817Y004737D01*
X016817Y004815D02*
X017367Y004815D01*
X017367Y004894D02*
X016817Y004894D01*
X016817Y004972D02*
X017367Y004972D01*
X017367Y005051D02*
X016817Y005051D01*
X016817Y005129D02*
X017367Y005129D01*
X017367Y005208D02*
X016817Y005208D01*
X016817Y005286D02*
X017367Y005286D01*
X017367Y005365D02*
X016817Y005365D01*
X016817Y005443D02*
X017367Y005443D01*
X017367Y005522D02*
X016817Y005522D01*
X016817Y005600D02*
X017367Y005600D01*
X017367Y005679D02*
X016817Y005679D01*
X016817Y005757D02*
X017367Y005757D01*
X017367Y005836D02*
X016817Y005836D01*
X016817Y005914D02*
X017367Y005914D01*
X017367Y005993D02*
X016817Y005993D01*
X016817Y006071D02*
X017367Y006071D01*
X017367Y006150D02*
X016817Y006150D01*
X016817Y006228D02*
X017367Y006228D01*
X017367Y006307D02*
X016817Y006307D01*
X016817Y006385D02*
X017367Y006385D01*
X017367Y006464D02*
X016177Y006464D01*
X016177Y006459D02*
X016177Y007054D01*
X017067Y007054D01*
X017067Y007352D01*
X017096Y007352D01*
X017190Y007445D01*
X017190Y007893D01*
X017096Y007987D01*
X017067Y007987D01*
X017067Y008021D01*
X017096Y008021D01*
X017190Y008115D01*
X017190Y008562D01*
X017096Y008656D01*
X017067Y008656D01*
X017067Y009354D01*
X017367Y009354D01*
X017417Y009354D01*
X017717Y009354D01*
X017717Y009419D01*
X017367Y009354D02*
X017367Y008656D01*
X017337Y008656D01*
X017244Y008562D01*
X017244Y008115D01*
X017337Y008021D01*
X017367Y008021D01*
X017367Y007987D01*
X017337Y007987D01*
X017244Y007893D01*
X017244Y007445D01*
X017337Y007352D01*
X017367Y007352D01*
X017367Y003137D01*
X016484Y002254D01*
X015717Y002254D01*
X015717Y003004D01*
X016817Y004104D01*
X016817Y006454D01*
X016709Y006454D01*
X016704Y006459D01*
X016177Y006459D01*
X016177Y006542D02*
X017367Y006542D01*
X017367Y006621D02*
X016177Y006621D01*
X016177Y006699D02*
X017367Y006699D01*
X017367Y006778D02*
X016177Y006778D01*
X016177Y006856D02*
X017367Y006856D01*
X017367Y006935D02*
X016177Y006935D01*
X016177Y007013D02*
X017367Y007013D01*
X017367Y007092D02*
X017067Y007092D01*
X017067Y007170D02*
X017367Y007170D01*
X017367Y007249D02*
X017067Y007249D01*
X017067Y007327D02*
X017367Y007327D01*
X017283Y007406D02*
X017150Y007406D01*
X017190Y007484D02*
X017244Y007484D01*
X017244Y007563D02*
X017190Y007563D01*
X017190Y007641D02*
X017244Y007641D01*
X017244Y007720D02*
X017190Y007720D01*
X017190Y007798D02*
X017244Y007798D01*
X017244Y007877D02*
X017190Y007877D01*
X017127Y007955D02*
X017306Y007955D01*
X017325Y008034D02*
X017109Y008034D01*
X017187Y008112D02*
X017246Y008112D01*
X017244Y008191D02*
X017190Y008191D01*
X017190Y008269D02*
X017244Y008269D01*
X017244Y008348D02*
X017190Y008348D01*
X017190Y008426D02*
X017244Y008426D01*
X017244Y008505D02*
X017190Y008505D01*
X017169Y008583D02*
X017265Y008583D01*
X017367Y008662D02*
X017067Y008662D01*
X017067Y008740D02*
X017367Y008740D01*
X017367Y008819D02*
X017067Y008819D01*
X017067Y008897D02*
X017367Y008897D01*
X017367Y008976D02*
X017067Y008976D01*
X017067Y009054D02*
X017367Y009054D01*
X017367Y009133D02*
X017067Y009133D01*
X017067Y009211D02*
X017367Y009211D01*
X017367Y009290D02*
X017067Y009290D01*
X016867Y009290D02*
X015534Y009290D01*
X015598Y009354D02*
X016867Y009354D01*
X016867Y008104D01*
X015067Y008104D01*
X015067Y008822D01*
X015598Y009354D01*
X015456Y009211D02*
X016867Y009211D01*
X016867Y009133D02*
X015377Y009133D01*
X015299Y009054D02*
X016867Y009054D01*
X016867Y008976D02*
X015220Y008976D01*
X015142Y008897D02*
X016867Y008897D01*
X016867Y008819D02*
X015067Y008819D01*
X015067Y008740D02*
X016867Y008740D01*
X016867Y008662D02*
X015067Y008662D01*
X015067Y008583D02*
X016867Y008583D01*
X016867Y008505D02*
X015067Y008505D01*
X015067Y008426D02*
X016867Y008426D01*
X016867Y008348D02*
X015067Y008348D01*
X015067Y008269D02*
X016867Y008269D01*
X016867Y008191D02*
X015067Y008191D01*
X015067Y008112D02*
X016867Y008112D01*
X015017Y006654D02*
X015017Y006554D01*
X015217Y006354D01*
X015217Y004754D01*
X016665Y003952D02*
X017367Y003952D01*
X017367Y004030D02*
X016743Y004030D01*
X016817Y004109D02*
X017367Y004109D01*
X017367Y004187D02*
X016817Y004187D01*
X016586Y003873D02*
X017367Y003873D01*
X017367Y003795D02*
X016508Y003795D01*
X016429Y003716D02*
X017367Y003716D01*
X017367Y003638D02*
X016351Y003638D01*
X016272Y003559D02*
X017367Y003559D01*
X017367Y003481D02*
X016194Y003481D01*
X016115Y003402D02*
X017367Y003402D01*
X017367Y003324D02*
X016037Y003324D01*
X015958Y003245D02*
X017367Y003245D01*
X017367Y003167D02*
X015880Y003167D01*
X015801Y003088D02*
X017318Y003088D01*
X017239Y003010D02*
X015723Y003010D01*
X015717Y002931D02*
X017161Y002931D01*
X017083Y002853D02*
X015717Y002853D01*
X015717Y002774D02*
X017004Y002774D01*
X016926Y002696D02*
X015717Y002696D01*
X015717Y002617D02*
X016847Y002617D01*
X016769Y002539D02*
X015717Y002539D01*
X015717Y002460D02*
X016690Y002460D01*
X016612Y002382D02*
X015717Y002382D01*
X015717Y002303D02*
X016533Y002303D01*
X024825Y005620D02*
X024917Y005654D01*
X026092Y005654D01*
X026817Y005354D02*
X026317Y004854D01*
X026317Y004254D01*
X026817Y005354D02*
X027017Y005354D01*
X027108Y005364D01*
X027017Y006354D02*
X027108Y006388D01*
X027017Y006354D01*
X022617Y008254D02*
X022617Y008954D01*
X022593Y009004D01*
X022617Y009054D01*
X020217Y010154D02*
X019117Y011254D01*
X018617Y011254D01*
X018617Y011754D01*
X018591Y011754D01*
X016517Y010654D02*
X016517Y010154D01*
X016467Y010088D01*
X014217Y013054D02*
X013617Y013654D01*
X013617Y013701D01*
X010117Y010554D02*
X010091Y010571D01*
X010117Y010554D02*
X010117Y009654D01*
X022593Y010860D02*
X022617Y010854D01*
X022967Y011687D02*
X022917Y011754D01*
X026717Y015604D02*
X027193Y015604D01*
X027217Y015628D01*
D40*
X027617Y013854D03*
X026817Y012154D03*
X025317Y011554D03*
X024717Y012154D03*
X024217Y009654D03*
X025517Y008954D03*
X026317Y007754D03*
X026192Y006854D03*
X026492Y006554D03*
X025442Y006754D03*
X024717Y007454D03*
X024217Y007954D03*
X022617Y008254D03*
X022917Y006654D03*
X022217Y006154D03*
X026092Y005654D03*
X027617Y006154D03*
X028317Y005754D03*
X027717Y005154D03*
X026317Y004254D03*
X025917Y003854D03*
X015217Y004754D03*
X015017Y006654D03*
X011617Y006054D03*
X010817Y006054D03*
X010717Y005554D03*
X010117Y006054D03*
X009217Y005554D03*
X010417Y007054D03*
X010817Y007254D03*
X010117Y009654D03*
X004517Y006354D03*
X003717Y006454D03*
X004217Y005654D03*
X005617Y005154D03*
X003017Y007854D03*
X011617Y013654D03*
X010417Y014254D03*
X016017Y017454D03*
X015417Y018954D03*
D41*
X013867Y017454D03*
X013367Y012254D03*
X017217Y011754D03*
X018717Y010254D03*
X019217Y009254D03*
X021367Y008004D03*
X026117Y011104D03*
X026617Y011804D03*
X025617Y011804D03*
X025617Y012504D03*
X025317Y012754D03*
X026967Y012804D03*
X027367Y012504D03*
X027717Y012504D03*
X028217Y012504D03*
X028717Y012504D03*
X028917Y012254D03*
X028967Y014004D03*
X028617Y014104D03*
X028217Y014104D03*
X026967Y014404D03*
X025767Y015504D03*
X026717Y015604D03*
X029467Y014004D03*
X029967Y014004D03*
X030467Y014004D03*
X011717Y001904D03*
X010467Y001904D03*
X009217Y001904D03*
X007967Y001904D03*
X005467Y001904D03*
D42*
X025317Y012754D02*
X025317Y013247D01*
X025323Y013254D01*
X026091Y014004D02*
X026705Y014004D01*
X026961Y014004D02*
X026967Y014010D01*
X026967Y014404D01*
X026961Y013236D02*
X026961Y012810D01*
X026967Y012804D01*
X026610Y011810D02*
X026117Y011810D01*
X025917Y011804D02*
X025617Y011804D01*
X025917Y011804D02*
X026117Y011604D01*
X026117Y011104D01*
X026617Y011804D02*
X026610Y011810D01*
D43*
X013606Y012886D02*
X013367Y012646D01*
X013367Y012254D01*
X013367Y011760D01*
X013360Y011754D01*
X012504Y012886D02*
X012504Y013821D01*
X012967Y014284D01*
X012967Y016724D01*
D44*
X002217Y008457D02*
X002217Y001754D01*
X030717Y001754D01*
X002217Y001754D01*
X002217Y001852D02*
X030717Y001852D01*
X030717Y001754D02*
X030717Y006694D01*
X030659Y006637D01*
X029757Y006637D01*
X029757Y006563D01*
X029657Y006464D01*
X029427Y006464D01*
X029427Y005492D01*
X028702Y004767D01*
X028579Y004644D01*
X027436Y004644D01*
X027415Y004623D01*
X027027Y004623D01*
X027027Y003239D01*
X027187Y003239D01*
X027286Y003139D01*
X027286Y002368D01*
X027187Y002269D01*
X026534Y002269D01*
X026437Y002366D01*
X026433Y002359D01*
X026409Y002335D01*
X026379Y002318D01*
X026346Y002309D01*
X026123Y002309D01*
X026123Y002704D01*
X026023Y002704D01*
X025687Y002704D01*
X025687Y002422D01*
X025696Y002389D01*
X025713Y002359D01*
X025737Y002335D01*
X025767Y002318D01*
X025800Y002309D01*
X026023Y002309D01*
X026023Y002704D01*
X026023Y002804D01*
X026023Y003199D01*
X025800Y003199D01*
X025767Y003190D01*
X025737Y003173D01*
X025713Y003148D01*
X025696Y003119D01*
X025687Y003086D01*
X025687Y002804D01*
X026023Y002804D01*
X026123Y002804D01*
X026123Y003199D01*
X026346Y003199D01*
X026379Y003190D01*
X026409Y003173D01*
X026433Y003148D01*
X026437Y003141D01*
X026534Y003239D01*
X026607Y003239D01*
X026607Y004170D01*
X026571Y004084D01*
X026487Y003999D01*
X026376Y003954D01*
X026257Y003954D01*
X026188Y003982D01*
X026217Y003913D01*
X026217Y003794D01*
X026171Y003684D01*
X026087Y003599D01*
X025976Y003554D01*
X025857Y003554D01*
X025747Y003599D01*
X025662Y003684D01*
X025617Y003794D01*
X025617Y003913D01*
X025662Y004024D01*
X025707Y004068D01*
X025707Y004341D01*
X025830Y004464D01*
X025907Y004541D01*
X025907Y005041D01*
X026030Y005164D01*
X026702Y005836D01*
X026702Y006171D01*
X026686Y006188D01*
X026568Y006260D01*
X026551Y006254D01*
X026432Y006254D01*
X026322Y006299D01*
X026237Y006384D01*
X026192Y006494D01*
X026192Y006554D01*
X026132Y006554D01*
X026077Y006577D01*
X026077Y006117D01*
X025824Y005864D01*
X025877Y005864D01*
X025922Y005908D01*
X026032Y005954D01*
X026151Y005954D01*
X026262Y005908D01*
X026346Y005824D01*
X026392Y005713D01*
X026392Y005594D01*
X026346Y005484D01*
X026262Y005399D01*
X026151Y005354D01*
X026032Y005354D01*
X025922Y005399D01*
X025877Y005444D01*
X025231Y005444D01*
X025231Y004979D01*
X025189Y004936D01*
X025191Y004928D01*
X025191Y004852D01*
X024825Y004852D01*
X024825Y004663D01*
X025078Y004663D01*
X025111Y004672D01*
X025141Y004689D01*
X025165Y004713D01*
X025182Y004743D01*
X025191Y004776D01*
X025191Y004852D01*
X024825Y004852D01*
X024825Y004852D01*
X024825Y004852D01*
X024825Y004663D01*
X024572Y004663D01*
X024539Y004672D01*
X024509Y004689D01*
X024485Y004713D01*
X024468Y004743D01*
X024459Y004776D01*
X024459Y004852D01*
X024825Y004852D01*
X024825Y004852D01*
X024459Y004852D01*
X024459Y004928D01*
X024461Y004936D01*
X024419Y004979D01*
X024419Y005644D01*
X024304Y005644D01*
X024227Y005567D01*
X024104Y005444D01*
X023932Y005444D01*
X023932Y005343D01*
X023927Y005337D01*
X023927Y004073D01*
X024102Y004073D01*
X024202Y003974D01*
X024202Y003321D01*
X024104Y003224D01*
X024111Y003220D01*
X024136Y003196D01*
X024153Y003166D01*
X024162Y003133D01*
X024162Y002910D01*
X023767Y002910D01*
X023767Y002810D01*
X024162Y002810D01*
X024162Y002587D01*
X024153Y002554D01*
X024136Y002524D01*
X024111Y002500D01*
X024082Y002483D01*
X024049Y002474D01*
X023767Y002474D01*
X023767Y002810D01*
X023667Y002810D01*
X023667Y002474D01*
X023385Y002474D01*
X023352Y002483D01*
X023322Y002500D01*
X023298Y002524D01*
X023281Y002554D01*
X023272Y002587D01*
X023272Y002810D01*
X023667Y002810D01*
X023667Y002910D01*
X023272Y002910D01*
X023272Y003133D01*
X023281Y003166D01*
X023298Y003196D01*
X023322Y003220D01*
X023329Y003224D01*
X023232Y003321D01*
X023232Y003444D01*
X022930Y003444D01*
X022807Y003567D01*
X022707Y003667D01*
X022707Y003869D01*
X022681Y003844D01*
X021959Y003844D01*
X021835Y003968D01*
X021835Y004044D01*
X019498Y004044D01*
X019498Y003968D01*
X019377Y003847D01*
X019498Y003725D01*
X019498Y003082D01*
X019374Y002958D01*
X018652Y002958D01*
X018528Y003082D01*
X018528Y003725D01*
X018649Y003847D01*
X018528Y003968D01*
X018528Y004611D01*
X018652Y004735D01*
X019374Y004735D01*
X019498Y004611D01*
X019498Y004464D01*
X021835Y004464D01*
X021835Y004611D01*
X021959Y004735D01*
X022681Y004735D01*
X022805Y004611D01*
X022805Y004464D01*
X023004Y004464D01*
X023127Y004341D01*
X023127Y003864D01*
X023232Y003864D01*
X023232Y003974D01*
X023331Y004073D01*
X023507Y004073D01*
X023507Y005243D01*
X023101Y005243D01*
X023001Y005343D01*
X023001Y005995D01*
X023010Y006004D01*
X023001Y006012D01*
X023001Y006144D01*
X022727Y006144D01*
X022727Y005967D01*
X022527Y005767D01*
X022404Y005644D01*
X021830Y005644D01*
X021707Y005767D01*
X021707Y006341D01*
X021807Y006441D01*
X021807Y007967D01*
X021618Y008156D01*
X021657Y008061D01*
X021657Y007946D01*
X021613Y007839D01*
X021531Y007758D01*
X021424Y007714D01*
X021309Y007714D01*
X021292Y007721D01*
X021292Y007638D01*
X021193Y007538D01*
X020732Y007538D01*
X020829Y007514D01*
X020892Y007514D01*
X020914Y007492D01*
X020944Y007485D01*
X020976Y007430D01*
X021021Y007385D01*
X021021Y007355D01*
X021037Y007328D01*
X021021Y007267D01*
X021021Y007219D01*
X021253Y007219D01*
X021352Y007119D01*
X021352Y006388D01*
X021253Y006288D01*
X020600Y006288D01*
X020592Y006297D01*
X020583Y006288D01*
X019931Y006288D01*
X019831Y006388D01*
X019831Y006534D01*
X019727Y006534D01*
X019727Y006388D01*
X019628Y006288D01*
X018975Y006288D01*
X018967Y006297D01*
X018958Y006288D01*
X018306Y006288D01*
X018256Y006338D01*
X018187Y006269D01*
X017577Y006269D01*
X017577Y003137D01*
X017577Y003050D01*
X017577Y003050D01*
X017577Y003050D01*
X017515Y002988D01*
X016694Y002167D01*
X016694Y002167D01*
X016633Y002105D01*
X016571Y002044D01*
X016571Y002044D01*
X016571Y002044D01*
X016484Y002044D01*
X016397Y002044D01*
X016397Y002044D01*
X015630Y002044D01*
X015507Y002167D01*
X015507Y002283D01*
X015499Y002275D01*
X015308Y002196D01*
X015101Y002196D01*
X014910Y002275D01*
X014764Y002422D01*
X014685Y002613D01*
X014685Y002784D01*
X014552Y002917D01*
X014503Y003035D01*
X014503Y005519D01*
X014497Y005519D01*
X014397Y005618D01*
X014397Y005969D01*
X014383Y005992D01*
X014361Y006013D01*
X014348Y006044D01*
X014330Y006072D01*
X014324Y006102D01*
X014312Y006131D01*
X014312Y006164D01*
X014145Y007038D01*
X014056Y007038D01*
X013956Y007138D01*
X013956Y007869D01*
X014056Y007969D01*
X014590Y007969D01*
X014512Y008047D01*
X014474Y008060D01*
X014450Y008109D01*
X014412Y008147D01*
X014412Y008188D01*
X014363Y008288D01*
X014056Y008288D01*
X013956Y008388D01*
X013956Y009119D01*
X014056Y009219D01*
X014708Y009219D01*
X014717Y009211D01*
X014725Y009219D01*
X015166Y009219D01*
X015388Y009441D01*
X015511Y009564D01*
X016100Y009564D01*
X016100Y009706D01*
X016148Y009754D01*
X016100Y009801D01*
X016100Y010375D01*
X016199Y010475D01*
X016307Y010475D01*
X016307Y010551D01*
X014144Y012244D01*
X014130Y012244D01*
X014077Y012296D01*
X014019Y012342D01*
X014017Y012356D01*
X014007Y012367D01*
X014007Y012441D01*
X013998Y012512D01*
X013986Y012491D01*
X013962Y012467D01*
X013932Y012449D01*
X013899Y012441D01*
X013656Y012441D01*
X013656Y012836D01*
X013556Y012836D01*
X013201Y012836D01*
X013201Y012553D01*
X013210Y012520D01*
X013227Y012491D01*
X013251Y012467D01*
X013281Y012449D01*
X013314Y012441D01*
X013556Y012441D01*
X013556Y012836D01*
X013556Y012936D01*
X013201Y012936D01*
X013201Y013218D01*
X013210Y013251D01*
X013227Y013280D01*
X013230Y013284D01*
X013208Y013284D01*
X013087Y013163D01*
X013087Y012198D01*
X013087Y012199D01*
X013310Y012199D01*
X013310Y011804D01*
X013410Y011804D01*
X013410Y012199D01*
X013633Y012199D01*
X013666Y012190D01*
X013696Y012173D01*
X013720Y012148D01*
X013737Y012119D01*
X013746Y012086D01*
X013746Y011804D01*
X013410Y011804D01*
X013410Y011704D01*
X013410Y011309D01*
X013633Y011309D01*
X013666Y011318D01*
X013696Y011335D01*
X013720Y011359D01*
X013737Y011389D01*
X013746Y011422D01*
X013746Y011704D01*
X013410Y011704D01*
X013310Y011704D01*
X013310Y011309D01*
X013087Y011309D01*
X013054Y011318D01*
X013046Y011322D01*
X012958Y011234D01*
X012126Y011234D01*
X011997Y011363D01*
X011997Y013677D01*
X011930Y013744D01*
X011904Y013744D01*
X011917Y013713D01*
X011917Y013594D01*
X011871Y013484D01*
X011827Y013439D01*
X011827Y006268D01*
X011871Y006224D01*
X011917Y006113D01*
X011917Y005994D01*
X011871Y005884D01*
X011787Y005799D01*
X011676Y005754D01*
X011557Y005754D01*
X011447Y005799D01*
X011362Y005884D01*
X011317Y005994D01*
X011317Y006113D01*
X011362Y006224D01*
X011407Y006268D01*
X011407Y013439D01*
X011362Y013484D01*
X011317Y013594D01*
X011317Y013713D01*
X011329Y013744D01*
X009527Y013744D01*
X009527Y013739D01*
X009649Y013739D01*
X009746Y013641D01*
X009750Y013648D01*
X009775Y013673D01*
X009804Y013690D01*
X009837Y013699D01*
X010060Y013699D01*
X010060Y013304D01*
X010160Y013304D01*
X010160Y013699D01*
X010383Y013699D01*
X010416Y013690D01*
X010446Y013673D01*
X010470Y013648D01*
X010487Y013619D01*
X010496Y013586D01*
X010496Y013304D01*
X010160Y013304D01*
X010160Y013204D01*
X010160Y012809D01*
X010383Y012809D01*
X010416Y012818D01*
X010446Y012835D01*
X010470Y012859D01*
X010487Y012889D01*
X010496Y012922D01*
X010496Y013204D01*
X010160Y013204D01*
X010060Y013204D01*
X010060Y012809D01*
X009837Y012809D01*
X009804Y012818D01*
X009775Y012835D01*
X009750Y012859D01*
X009746Y012866D01*
X009649Y012769D01*
X009527Y012769D01*
X009527Y012267D01*
X009404Y012144D01*
X009327Y012067D01*
X009327Y011016D01*
X009610Y011016D01*
X009709Y010917D01*
X009709Y010225D01*
X009724Y010225D01*
X009823Y010125D01*
X009907Y010125D01*
X009907Y009868D01*
X009862Y009824D01*
X009817Y009713D01*
X009817Y009594D01*
X009862Y009484D01*
X009910Y009436D01*
X009910Y009054D01*
X009810Y009054D01*
X009810Y009449D01*
X009587Y009449D01*
X009554Y009440D01*
X009525Y009423D01*
X009500Y009398D01*
X009496Y009391D01*
X009399Y009489D01*
X009349Y009489D01*
X009527Y009667D01*
X009527Y010125D01*
X009610Y010125D01*
X009709Y010225D01*
X009724Y010225D02*
X009724Y010917D01*
X009823Y011016D01*
X010358Y011016D01*
X010458Y010917D01*
X010458Y010225D01*
X011407Y010225D01*
X011407Y010323D02*
X010458Y010323D01*
X010458Y010225D02*
X010358Y010125D01*
X010327Y010125D01*
X010327Y009868D01*
X010371Y009824D01*
X010417Y009713D01*
X010417Y009594D01*
X010371Y009484D01*
X010287Y009399D01*
X010233Y009377D01*
X010237Y009369D01*
X010246Y009336D01*
X010246Y009054D01*
X009910Y009054D01*
X009910Y008954D01*
X009910Y008559D01*
X010133Y008559D01*
X010166Y008568D01*
X010196Y008585D01*
X010220Y008609D01*
X010237Y008639D01*
X010246Y008672D01*
X010246Y008954D01*
X009910Y008954D01*
X009810Y008954D01*
X009810Y008559D01*
X009587Y008559D01*
X009554Y008568D01*
X009525Y008585D01*
X009500Y008609D01*
X009496Y008616D01*
X009399Y008519D01*
X008747Y008519D01*
X008647Y008618D01*
X008647Y009389D01*
X008747Y009489D01*
X008907Y009489D01*
X008907Y009641D01*
X009030Y009764D01*
X009107Y009841D01*
X009107Y010125D01*
X009075Y010125D01*
X008976Y010225D01*
X003527Y010225D01*
X003527Y010323D02*
X008976Y010323D01*
X008976Y010225D02*
X008976Y010698D01*
X008907Y010767D01*
X008907Y012241D01*
X009107Y012441D01*
X009107Y012769D01*
X008997Y012769D01*
X008897Y012868D01*
X008897Y013639D01*
X008997Y013739D01*
X009107Y013739D01*
X009107Y015167D01*
X008509Y015764D01*
X008473Y015728D01*
X008319Y015664D01*
X008152Y015664D01*
X007997Y015728D01*
X007879Y015846D01*
X007841Y015937D01*
X007804Y015846D01*
X007686Y015728D01*
X007531Y015664D01*
X007364Y015664D01*
X007210Y015728D01*
X007092Y015846D01*
X007054Y015937D01*
X007016Y015846D01*
X006898Y015728D01*
X006827Y015699D01*
X006827Y015167D01*
X006704Y015044D01*
X003527Y011867D01*
X003527Y007843D01*
X003594Y007843D01*
X003749Y007779D01*
X003867Y007661D01*
X003904Y007570D01*
X003942Y007661D01*
X004060Y007779D01*
X004215Y007843D01*
X004382Y007843D01*
X004536Y007779D01*
X004654Y007661D01*
X004692Y007570D01*
X004730Y007661D01*
X004848Y007779D01*
X005002Y007843D01*
X005169Y007843D01*
X005323Y007779D01*
X005442Y007661D01*
X005479Y007570D01*
X005517Y007661D01*
X005635Y007779D01*
X005789Y007843D01*
X005957Y007843D01*
X006111Y007779D01*
X006229Y007661D01*
X006267Y007570D01*
X006304Y007661D01*
X006422Y007779D01*
X006577Y007843D01*
X006744Y007843D01*
X006898Y007779D01*
X007016Y007661D01*
X007054Y007570D01*
X007092Y007661D01*
X007210Y007779D01*
X007364Y007843D01*
X007531Y007843D01*
X007686Y007779D01*
X007804Y007661D01*
X007841Y007570D01*
X007879Y007661D01*
X007997Y007779D01*
X008152Y007843D01*
X008319Y007843D01*
X008473Y007779D01*
X008591Y007661D01*
X008629Y007570D01*
X008667Y007661D01*
X008785Y007779D01*
X008939Y007843D01*
X009106Y007843D01*
X009260Y007779D01*
X009379Y007661D01*
X009440Y007512D01*
X009445Y007534D01*
X009473Y007603D01*
X009515Y007665D01*
X009568Y007718D01*
X009630Y007760D01*
X009699Y007788D01*
X009773Y007803D01*
X009781Y007803D01*
X009781Y007452D01*
X009839Y007452D01*
X009839Y007803D01*
X009847Y007803D01*
X009921Y007788D01*
X009990Y007760D01*
X010052Y007718D01*
X010105Y007665D01*
X010147Y007603D01*
X010175Y007534D01*
X010190Y007460D01*
X010190Y007452D01*
X009839Y007452D01*
X009839Y007394D01*
X010190Y007394D01*
X010190Y007386D01*
X010175Y007312D01*
X010147Y007243D01*
X010105Y007181D01*
X010052Y007128D01*
X009990Y007086D01*
X009921Y007058D01*
X009847Y007043D01*
X009839Y007043D01*
X009839Y007394D01*
X009781Y007394D01*
X009781Y007043D01*
X009773Y007043D01*
X009699Y007058D01*
X009630Y007086D01*
X009568Y007128D01*
X009515Y007181D01*
X009473Y007243D01*
X009445Y007312D01*
X009440Y007334D01*
X009379Y007185D01*
X009260Y007067D01*
X009106Y007003D01*
X008939Y007003D01*
X008785Y007067D01*
X008667Y007185D01*
X008629Y007276D01*
X008591Y007185D01*
X008473Y007067D01*
X008319Y007003D01*
X008152Y007003D01*
X007997Y007067D01*
X007879Y007185D01*
X007841Y007276D01*
X007804Y007185D01*
X007686Y007067D01*
X007531Y007003D01*
X007364Y007003D01*
X007210Y007067D01*
X007092Y007185D01*
X007054Y007276D01*
X007016Y007185D01*
X006898Y007067D01*
X006827Y007037D01*
X006827Y006667D01*
X006704Y006544D01*
X006304Y006544D01*
X005327Y005567D01*
X005358Y005567D01*
X005458Y005468D01*
X005458Y005464D01*
X005604Y005464D01*
X005614Y005454D01*
X005676Y005454D01*
X005787Y005408D01*
X005871Y005324D01*
X005917Y005213D01*
X005917Y005094D01*
X005871Y004984D01*
X005787Y004899D01*
X005676Y004854D01*
X005557Y004854D01*
X005458Y004895D01*
X005458Y004780D01*
X006664Y003573D01*
X007023Y003573D01*
X007123Y003474D01*
X007123Y002860D01*
X007023Y002761D01*
X006410Y002761D01*
X006310Y002860D01*
X006310Y003220D01*
X005124Y004406D01*
X005124Y003863D01*
X005414Y003573D01*
X005773Y003573D01*
X005873Y003474D01*
X005873Y002860D01*
X005773Y002761D01*
X005160Y002761D01*
X005060Y002860D01*
X005060Y003220D01*
X004727Y003554D01*
X004727Y003067D01*
X004623Y002963D01*
X004623Y002860D01*
X004523Y002761D01*
X003910Y002761D01*
X003810Y002860D01*
X003810Y003150D01*
X003727Y003067D01*
X003604Y002944D01*
X003373Y002944D01*
X003373Y002860D01*
X003273Y002761D01*
X002660Y002761D01*
X002560Y002860D01*
X002560Y003474D01*
X002660Y003573D01*
X003273Y003573D01*
X003373Y003474D01*
X003373Y003364D01*
X003407Y003364D01*
X003407Y003641D01*
X003530Y003764D01*
X004007Y004241D01*
X004007Y004509D01*
X003976Y004540D01*
X003976Y004936D01*
X004043Y005004D01*
X002217Y005004D01*
X002217Y004906D02*
X003976Y004906D01*
X003976Y004807D02*
X002217Y004807D01*
X002217Y004709D02*
X003976Y004709D01*
X003976Y004610D02*
X002217Y004610D01*
X002217Y004512D02*
X004004Y004512D01*
X004007Y004413D02*
X002217Y004413D01*
X002217Y004315D02*
X004007Y004315D01*
X003982Y004216D02*
X002217Y004216D01*
X002217Y004118D02*
X003884Y004118D01*
X003785Y004019D02*
X002217Y004019D01*
X002217Y003921D02*
X003687Y003921D01*
X003588Y003822D02*
X002217Y003822D01*
X002217Y003724D02*
X003490Y003724D01*
X003407Y003625D02*
X002217Y003625D01*
X002217Y003527D02*
X002613Y003527D01*
X002560Y003428D02*
X002217Y003428D01*
X002217Y003330D02*
X002560Y003330D01*
X002560Y003231D02*
X002217Y003231D01*
X002217Y003133D02*
X002560Y003133D01*
X002560Y003034D02*
X002217Y003034D01*
X002217Y002936D02*
X002560Y002936D01*
X002584Y002837D02*
X002217Y002837D01*
X002217Y002739D02*
X014685Y002739D01*
X014685Y002640D02*
X012066Y002640D01*
X012074Y002627D02*
X012057Y002656D01*
X012033Y002681D01*
X012003Y002698D01*
X011970Y002707D01*
X011767Y002707D01*
X011767Y002390D01*
X012083Y002390D01*
X012083Y002594D01*
X012074Y002627D01*
X012083Y002542D02*
X014714Y002542D01*
X014755Y002443D02*
X012083Y002443D01*
X012083Y002290D02*
X011767Y002290D01*
X011767Y002390D01*
X011667Y002390D01*
X011667Y002290D01*
X011767Y002290D01*
X011767Y001974D01*
X011970Y001974D01*
X012003Y001983D01*
X012033Y002000D01*
X012057Y002024D01*
X012074Y002054D01*
X012083Y002087D01*
X012083Y002290D01*
X012083Y002246D02*
X014981Y002246D01*
X014841Y002345D02*
X011767Y002345D01*
X011767Y002443D02*
X011667Y002443D01*
X011667Y002390D02*
X011667Y002707D01*
X011463Y002707D01*
X011430Y002698D01*
X011401Y002681D01*
X011376Y002656D01*
X011359Y002627D01*
X011350Y002594D01*
X011350Y002390D01*
X011667Y002390D01*
X011667Y002345D02*
X010517Y002345D01*
X010517Y002390D02*
X010833Y002390D01*
X010833Y002594D01*
X010824Y002627D01*
X010807Y002656D01*
X010783Y002681D01*
X010753Y002698D01*
X010720Y002707D01*
X010517Y002707D01*
X010517Y002390D01*
X010517Y002290D01*
X010833Y002290D01*
X010833Y002087D01*
X010824Y002054D01*
X010807Y002024D01*
X010783Y002000D01*
X010753Y001983D01*
X010720Y001974D01*
X010517Y001974D01*
X010517Y002290D01*
X010417Y002290D01*
X010417Y001974D01*
X010213Y001974D01*
X010180Y001983D01*
X010151Y002000D01*
X010126Y002024D01*
X010109Y002054D01*
X010100Y002087D01*
X010100Y002290D01*
X010417Y002290D01*
X010417Y002390D01*
X010100Y002390D01*
X010100Y002594D01*
X010109Y002627D01*
X010126Y002656D01*
X010151Y002681D01*
X010180Y002698D01*
X010213Y002707D01*
X010417Y002707D01*
X010417Y002390D01*
X010517Y002390D01*
X010517Y002443D02*
X010417Y002443D01*
X010417Y002345D02*
X009267Y002345D01*
X009267Y002390D02*
X009583Y002390D01*
X009583Y002594D01*
X009574Y002627D01*
X009557Y002656D01*
X009533Y002681D01*
X009503Y002698D01*
X009470Y002707D01*
X009267Y002707D01*
X009267Y002390D01*
X009267Y002290D01*
X009583Y002290D01*
X009583Y002087D01*
X009574Y002054D01*
X009557Y002024D01*
X009533Y002000D01*
X009503Y001983D01*
X009470Y001974D01*
X009267Y001974D01*
X009267Y002290D01*
X009167Y002290D01*
X009167Y001974D01*
X008963Y001974D01*
X008930Y001983D01*
X008901Y002000D01*
X008876Y002024D01*
X008859Y002054D01*
X008850Y002087D01*
X008850Y002290D01*
X009167Y002290D01*
X009167Y002390D01*
X008850Y002390D01*
X008850Y002594D01*
X008859Y002627D01*
X008876Y002656D01*
X008901Y002681D01*
X008930Y002698D01*
X008963Y002707D01*
X009167Y002707D01*
X009167Y002390D01*
X009267Y002390D01*
X009267Y002443D02*
X009167Y002443D01*
X009167Y002345D02*
X008017Y002345D01*
X008017Y002390D02*
X008333Y002390D01*
X008333Y002594D01*
X008324Y002627D01*
X008307Y002656D01*
X008283Y002681D01*
X008253Y002698D01*
X008220Y002707D01*
X008017Y002707D01*
X008017Y002390D01*
X008017Y002290D01*
X008333Y002290D01*
X008333Y002087D01*
X008324Y002054D01*
X008307Y002024D01*
X008283Y002000D01*
X008253Y001983D01*
X008220Y001974D01*
X008017Y001974D01*
X008017Y002290D01*
X007917Y002290D01*
X007917Y001974D01*
X007713Y001974D01*
X007680Y001983D01*
X007651Y002000D01*
X007626Y002024D01*
X007609Y002054D01*
X007600Y002087D01*
X007600Y002290D01*
X007917Y002290D01*
X007917Y002390D01*
X007600Y002390D01*
X007600Y002594D01*
X007609Y002627D01*
X007626Y002656D01*
X007651Y002681D01*
X007680Y002698D01*
X007713Y002707D01*
X007917Y002707D01*
X007917Y002390D01*
X008017Y002390D01*
X008017Y002443D02*
X007917Y002443D01*
X007917Y002345D02*
X006767Y002345D01*
X006767Y002390D02*
X007083Y002390D01*
X007083Y002594D01*
X007074Y002627D01*
X007057Y002656D01*
X007033Y002681D01*
X007003Y002698D01*
X006970Y002707D01*
X006767Y002707D01*
X006767Y002390D01*
X006767Y002290D01*
X007083Y002290D01*
X007083Y002087D01*
X007074Y002054D01*
X007057Y002024D01*
X007033Y002000D01*
X007003Y001983D01*
X006970Y001974D01*
X006767Y001974D01*
X006767Y002290D01*
X006667Y002290D01*
X006667Y001974D01*
X006463Y001974D01*
X006430Y001983D01*
X006401Y002000D01*
X006376Y002024D01*
X006359Y002054D01*
X006350Y002087D01*
X006350Y002290D01*
X006667Y002290D01*
X006667Y002390D01*
X006350Y002390D01*
X006350Y002594D01*
X006359Y002627D01*
X006376Y002656D01*
X006401Y002681D01*
X006430Y002698D01*
X006463Y002707D01*
X006667Y002707D01*
X006667Y002390D01*
X006767Y002390D01*
X006767Y002443D02*
X006667Y002443D01*
X006667Y002345D02*
X005517Y002345D01*
X005517Y002390D02*
X005833Y002390D01*
X005833Y002594D01*
X005824Y002627D01*
X005807Y002656D01*
X005783Y002681D01*
X005753Y002698D01*
X005720Y002707D01*
X005517Y002707D01*
X005517Y002390D01*
X005517Y002290D01*
X005833Y002290D01*
X005833Y002087D01*
X005824Y002054D01*
X005807Y002024D01*
X005783Y002000D01*
X005753Y001983D01*
X005720Y001974D01*
X005517Y001974D01*
X005517Y002290D01*
X005417Y002290D01*
X005417Y001974D01*
X005213Y001974D01*
X005180Y001983D01*
X005151Y002000D01*
X005126Y002024D01*
X005109Y002054D01*
X005100Y002087D01*
X005100Y002290D01*
X005417Y002290D01*
X005417Y002390D01*
X005100Y002390D01*
X005100Y002594D01*
X005109Y002627D01*
X005126Y002656D01*
X005151Y002681D01*
X005180Y002698D01*
X005213Y002707D01*
X005417Y002707D01*
X005417Y002390D01*
X005517Y002390D01*
X005517Y002443D02*
X005417Y002443D01*
X005417Y002345D02*
X004267Y002345D01*
X004267Y002390D02*
X004583Y002390D01*
X004583Y002594D01*
X004574Y002627D01*
X004557Y002656D01*
X004533Y002681D01*
X004503Y002698D01*
X004470Y002707D01*
X004267Y002707D01*
X004267Y002390D01*
X004267Y002290D01*
X004583Y002290D01*
X004583Y002087D01*
X004574Y002054D01*
X004557Y002024D01*
X004533Y002000D01*
X004503Y001983D01*
X004470Y001974D01*
X004267Y001974D01*
X004267Y002290D01*
X004167Y002290D01*
X004167Y001974D01*
X003963Y001974D01*
X003930Y001983D01*
X003901Y002000D01*
X003876Y002024D01*
X003859Y002054D01*
X003850Y002087D01*
X003850Y002290D01*
X004167Y002290D01*
X004167Y002390D01*
X003850Y002390D01*
X003850Y002594D01*
X003859Y002627D01*
X003876Y002656D01*
X003901Y002681D01*
X003930Y002698D01*
X003963Y002707D01*
X004167Y002707D01*
X004167Y002390D01*
X004267Y002390D01*
X004267Y002443D02*
X004167Y002443D01*
X004167Y002345D02*
X003017Y002345D01*
X003017Y002390D02*
X003333Y002390D01*
X003333Y002594D01*
X003324Y002627D01*
X003307Y002656D01*
X003283Y002681D01*
X003253Y002698D01*
X003220Y002707D01*
X003017Y002707D01*
X003017Y002390D01*
X003017Y002290D01*
X003333Y002290D01*
X003333Y002087D01*
X003324Y002054D01*
X003307Y002024D01*
X003283Y002000D01*
X003253Y001983D01*
X003220Y001974D01*
X003017Y001974D01*
X003017Y002290D01*
X002917Y002290D01*
X002917Y001974D01*
X002713Y001974D01*
X002680Y001983D01*
X002651Y002000D01*
X002626Y002024D01*
X002609Y002054D01*
X002600Y002087D01*
X002600Y002290D01*
X002917Y002290D01*
X002917Y002390D01*
X002600Y002390D01*
X002600Y002594D01*
X002609Y002627D01*
X002626Y002656D01*
X002651Y002681D01*
X002680Y002698D01*
X002713Y002707D01*
X002917Y002707D01*
X002917Y002390D01*
X003017Y002390D01*
X003017Y002443D02*
X002917Y002443D01*
X002917Y002345D02*
X002217Y002345D01*
X002217Y002443D02*
X002600Y002443D01*
X002600Y002542D02*
X002217Y002542D01*
X002217Y002640D02*
X002617Y002640D01*
X002917Y002640D02*
X003017Y002640D01*
X003017Y002542D02*
X002917Y002542D01*
X002917Y002246D02*
X003017Y002246D01*
X003017Y002148D02*
X002917Y002148D01*
X002917Y002049D02*
X003017Y002049D01*
X003321Y002049D02*
X003862Y002049D01*
X003850Y002148D02*
X003333Y002148D01*
X003333Y002246D02*
X003850Y002246D01*
X003850Y002443D02*
X003333Y002443D01*
X003333Y002542D02*
X003850Y002542D01*
X003867Y002640D02*
X003316Y002640D01*
X003350Y002837D02*
X003834Y002837D01*
X003810Y002936D02*
X003373Y002936D01*
X003694Y003034D02*
X003810Y003034D01*
X003810Y003133D02*
X003793Y003133D01*
X003407Y003428D02*
X003373Y003428D01*
X003407Y003527D02*
X003320Y003527D01*
X004727Y003527D02*
X004753Y003527D01*
X004727Y003428D02*
X004852Y003428D01*
X004950Y003330D02*
X004727Y003330D01*
X004727Y003231D02*
X005049Y003231D01*
X005060Y003133D02*
X004727Y003133D01*
X004694Y003034D02*
X005060Y003034D01*
X005060Y002936D02*
X004623Y002936D01*
X004600Y002837D02*
X005084Y002837D01*
X005117Y002640D02*
X004566Y002640D01*
X004583Y002542D02*
X005100Y002542D01*
X005100Y002443D02*
X004583Y002443D01*
X004583Y002246D02*
X005100Y002246D01*
X005100Y002148D02*
X004583Y002148D01*
X004571Y002049D02*
X005112Y002049D01*
X005417Y002049D02*
X005517Y002049D01*
X005517Y002148D02*
X005417Y002148D01*
X005417Y002246D02*
X005517Y002246D01*
X005517Y002542D02*
X005417Y002542D01*
X005417Y002640D02*
X005517Y002640D01*
X005816Y002640D02*
X006367Y002640D01*
X006350Y002542D02*
X005833Y002542D01*
X005833Y002443D02*
X006350Y002443D01*
X006350Y002246D02*
X005833Y002246D01*
X005833Y002148D02*
X006350Y002148D01*
X006362Y002049D02*
X005821Y002049D01*
X005850Y002837D02*
X006334Y002837D01*
X006310Y002936D02*
X005873Y002936D01*
X005873Y003034D02*
X006310Y003034D01*
X006310Y003133D02*
X005873Y003133D01*
X005873Y003231D02*
X006299Y003231D01*
X006200Y003330D02*
X005873Y003330D01*
X005873Y003428D02*
X006102Y003428D01*
X006003Y003527D02*
X005820Y003527D01*
X005905Y003625D02*
X005362Y003625D01*
X005264Y003724D02*
X005806Y003724D01*
X005708Y003822D02*
X005165Y003822D01*
X005124Y003921D02*
X005609Y003921D01*
X005511Y004019D02*
X005124Y004019D01*
X005124Y004118D02*
X005412Y004118D01*
X005314Y004216D02*
X005124Y004216D01*
X005124Y004315D02*
X005215Y004315D01*
X005529Y004709D02*
X009155Y004709D01*
X009226Y004780D02*
X008019Y003573D01*
X007660Y003573D01*
X007560Y003474D01*
X007560Y002860D01*
X007660Y002761D01*
X008273Y002761D01*
X008373Y002860D01*
X008373Y003220D01*
X009559Y004406D01*
X009559Y003863D01*
X009269Y003573D01*
X008910Y003573D01*
X008810Y003474D01*
X008810Y002860D01*
X008910Y002761D01*
X009523Y002761D01*
X009623Y002860D01*
X009623Y003220D01*
X009874Y003471D01*
X009874Y003460D01*
X009912Y003368D01*
X010060Y003220D01*
X010060Y002860D01*
X010160Y002761D01*
X010773Y002761D01*
X010873Y002860D01*
X010873Y003474D01*
X010773Y003573D01*
X010414Y003573D01*
X010374Y003613D01*
X010374Y004156D01*
X011310Y003220D01*
X011310Y002860D01*
X011410Y002761D01*
X012023Y002761D01*
X012123Y002860D01*
X012123Y003474D01*
X012023Y003573D01*
X011664Y003573D01*
X010703Y004535D01*
X010708Y004540D01*
X010708Y004936D01*
X010640Y005004D01*
X010708Y005071D01*
X010708Y005248D01*
X010714Y005254D01*
X010776Y005254D01*
X010887Y005299D01*
X010971Y005384D01*
X011017Y005494D01*
X011017Y005613D01*
X010971Y005724D01*
X010922Y005773D01*
X010987Y005799D01*
X011071Y005884D01*
X011117Y005994D01*
X011117Y006113D01*
X011071Y006224D01*
X011027Y006268D01*
X011027Y007039D01*
X011071Y007084D01*
X011117Y007194D01*
X011117Y007313D01*
X011071Y007424D01*
X010987Y007508D01*
X010876Y007554D01*
X010757Y007554D01*
X010647Y007508D01*
X010562Y007424D01*
X010525Y007334D01*
X010476Y007354D01*
X010357Y007354D01*
X010247Y007308D01*
X010162Y007224D01*
X010117Y007113D01*
X010117Y006994D01*
X010162Y006884D01*
X010206Y006840D01*
X009730Y006364D01*
X009607Y006241D01*
X009607Y005567D01*
X009517Y005567D01*
X009517Y005613D01*
X009471Y005724D01*
X009387Y005808D01*
X009276Y005854D01*
X009157Y005854D01*
X009047Y005808D01*
X008962Y005724D01*
X008917Y005613D01*
X008917Y005494D01*
X008962Y005384D01*
X009047Y005299D01*
X009157Y005254D01*
X009220Y005254D01*
X009226Y005248D01*
X009226Y005071D01*
X009293Y005004D01*
X009226Y004936D01*
X009226Y004780D01*
X009226Y004807D02*
X005458Y004807D01*
X005627Y004610D02*
X009056Y004610D01*
X008958Y004512D02*
X005726Y004512D01*
X005824Y004413D02*
X008859Y004413D01*
X008761Y004315D02*
X005923Y004315D01*
X006021Y004216D02*
X008662Y004216D01*
X008564Y004118D02*
X006120Y004118D01*
X006218Y004019D02*
X008465Y004019D01*
X008367Y003921D02*
X006317Y003921D01*
X006415Y003822D02*
X008268Y003822D01*
X008170Y003724D02*
X006514Y003724D01*
X006612Y003625D02*
X008071Y003625D01*
X008483Y003330D02*
X008810Y003330D01*
X008810Y003428D02*
X008581Y003428D01*
X008680Y003527D02*
X008863Y003527D01*
X008778Y003625D02*
X009321Y003625D01*
X009420Y003724D02*
X008877Y003724D01*
X008975Y003822D02*
X009518Y003822D01*
X009559Y003921D02*
X009074Y003921D01*
X009172Y004019D02*
X009559Y004019D01*
X009559Y004118D02*
X009271Y004118D01*
X009369Y004216D02*
X009559Y004216D01*
X009559Y004315D02*
X009468Y004315D01*
X010374Y004118D02*
X010412Y004118D01*
X010374Y004019D02*
X010511Y004019D01*
X010609Y003921D02*
X010374Y003921D01*
X010374Y003822D02*
X010708Y003822D01*
X010806Y003724D02*
X010374Y003724D01*
X010374Y003625D02*
X010905Y003625D01*
X010820Y003527D02*
X011003Y003527D01*
X011102Y003428D02*
X010873Y003428D01*
X010873Y003330D02*
X011200Y003330D01*
X011299Y003231D02*
X010873Y003231D01*
X010873Y003133D02*
X011310Y003133D01*
X011310Y003034D02*
X010873Y003034D01*
X010873Y002936D02*
X011310Y002936D01*
X011334Y002837D02*
X010850Y002837D01*
X010816Y002640D02*
X011367Y002640D01*
X011350Y002542D02*
X010833Y002542D01*
X010833Y002443D02*
X011350Y002443D01*
X011350Y002290D02*
X011350Y002087D01*
X011359Y002054D01*
X011376Y002024D01*
X011401Y002000D01*
X011430Y001983D01*
X011463Y001974D01*
X011667Y001974D01*
X011667Y002290D01*
X011350Y002290D01*
X011350Y002246D02*
X010833Y002246D01*
X010833Y002148D02*
X011350Y002148D01*
X011362Y002049D02*
X010821Y002049D01*
X010517Y002049D02*
X010417Y002049D01*
X010417Y002148D02*
X010517Y002148D01*
X010517Y002246D02*
X010417Y002246D01*
X010417Y002542D02*
X010517Y002542D01*
X010517Y002640D02*
X010417Y002640D01*
X010117Y002640D02*
X009566Y002640D01*
X009583Y002542D02*
X010100Y002542D01*
X010100Y002443D02*
X009583Y002443D01*
X009583Y002246D02*
X010100Y002246D01*
X010100Y002148D02*
X009583Y002148D01*
X009571Y002049D02*
X010112Y002049D01*
X009267Y002049D02*
X009167Y002049D01*
X009167Y002148D02*
X009267Y002148D01*
X009267Y002246D02*
X009167Y002246D01*
X009167Y002542D02*
X009267Y002542D01*
X009267Y002640D02*
X009167Y002640D01*
X008867Y002640D02*
X008316Y002640D01*
X008333Y002542D02*
X008850Y002542D01*
X008850Y002443D02*
X008333Y002443D01*
X008333Y002246D02*
X008850Y002246D01*
X008850Y002148D02*
X008333Y002148D01*
X008321Y002049D02*
X008862Y002049D01*
X008834Y002837D02*
X008350Y002837D01*
X008373Y002936D02*
X008810Y002936D01*
X008810Y003034D02*
X008373Y003034D01*
X008373Y003133D02*
X008810Y003133D01*
X008810Y003231D02*
X008384Y003231D01*
X007560Y003231D02*
X007123Y003231D01*
X007123Y003133D02*
X007560Y003133D01*
X007560Y003034D02*
X007123Y003034D01*
X007123Y002936D02*
X007560Y002936D01*
X007584Y002837D02*
X007100Y002837D01*
X007066Y002640D02*
X007617Y002640D01*
X007600Y002542D02*
X007083Y002542D01*
X007083Y002443D02*
X007600Y002443D01*
X007600Y002246D02*
X007083Y002246D01*
X007083Y002148D02*
X007600Y002148D01*
X007612Y002049D02*
X007071Y002049D01*
X006767Y002049D02*
X006667Y002049D01*
X006667Y002148D02*
X006767Y002148D01*
X006767Y002246D02*
X006667Y002246D01*
X006667Y002542D02*
X006767Y002542D01*
X006767Y002640D02*
X006667Y002640D01*
X007917Y002640D02*
X008017Y002640D01*
X008017Y002542D02*
X007917Y002542D01*
X007917Y002246D02*
X008017Y002246D01*
X008017Y002148D02*
X007917Y002148D01*
X007917Y002049D02*
X008017Y002049D01*
X009600Y002837D02*
X010084Y002837D01*
X010060Y002936D02*
X009623Y002936D01*
X009623Y003034D02*
X010060Y003034D01*
X010060Y003133D02*
X009623Y003133D01*
X009634Y003231D02*
X010049Y003231D01*
X009950Y003330D02*
X009733Y003330D01*
X009831Y003428D02*
X009887Y003428D01*
X011021Y004216D02*
X014503Y004216D01*
X014503Y004118D02*
X011120Y004118D01*
X011218Y004019D02*
X014503Y004019D01*
X014503Y003921D02*
X011317Y003921D01*
X011415Y003822D02*
X014503Y003822D01*
X014503Y003724D02*
X011514Y003724D01*
X011612Y003625D02*
X014503Y003625D01*
X014503Y003527D02*
X012070Y003527D01*
X012123Y003428D02*
X014503Y003428D01*
X014503Y003330D02*
X012123Y003330D01*
X012123Y003231D02*
X014503Y003231D01*
X014503Y003133D02*
X012123Y003133D01*
X012123Y003034D02*
X014503Y003034D01*
X014544Y002936D02*
X012123Y002936D01*
X012100Y002837D02*
X014631Y002837D01*
X015429Y002246D02*
X015507Y002246D01*
X015526Y002148D02*
X012083Y002148D01*
X012071Y002049D02*
X015624Y002049D01*
X016577Y002049D02*
X028177Y002049D01*
X028218Y002008D02*
X028542Y001874D01*
X028892Y001874D01*
X029215Y002008D01*
X029463Y002255D01*
X029597Y002579D01*
X029597Y002929D01*
X029463Y003252D01*
X029215Y003500D01*
X028892Y003634D01*
X028542Y003634D01*
X028218Y003500D01*
X027971Y003252D01*
X027837Y002929D01*
X027837Y002579D01*
X027971Y002255D01*
X028218Y002008D01*
X028356Y001951D02*
X002217Y001951D01*
X002217Y002049D02*
X002612Y002049D01*
X002600Y002148D02*
X002217Y002148D01*
X002217Y002246D02*
X002600Y002246D01*
X004167Y002246D02*
X004267Y002246D01*
X004267Y002148D02*
X004167Y002148D01*
X004167Y002049D02*
X004267Y002049D01*
X004267Y002542D02*
X004167Y002542D01*
X004167Y002640D02*
X004267Y002640D01*
X007123Y003330D02*
X007560Y003330D01*
X007560Y003428D02*
X007123Y003428D01*
X007070Y003527D02*
X007613Y003527D01*
X009226Y004906D02*
X005793Y004906D01*
X005879Y005004D02*
X009293Y005004D01*
X009226Y005103D02*
X005917Y005103D01*
X005917Y005201D02*
X009226Y005201D01*
X009046Y005300D02*
X005881Y005300D01*
X005796Y005398D02*
X008956Y005398D01*
X008917Y005497D02*
X005429Y005497D01*
X005355Y005595D02*
X008917Y005595D01*
X008950Y005694D02*
X005454Y005694D01*
X005552Y005792D02*
X009031Y005792D01*
X009402Y005792D02*
X009607Y005792D01*
X009607Y005694D02*
X009483Y005694D01*
X009517Y005595D02*
X009607Y005595D01*
X009607Y005891D02*
X005651Y005891D01*
X005749Y005989D02*
X009607Y005989D01*
X009607Y006088D02*
X005848Y006088D01*
X005946Y006186D02*
X009607Y006186D01*
X009651Y006285D02*
X006045Y006285D01*
X006143Y006383D02*
X009749Y006383D01*
X009848Y006482D02*
X006242Y006482D01*
X005845Y006679D02*
X003916Y006679D01*
X003887Y006708D02*
X003776Y006754D01*
X003714Y006754D01*
X003627Y006841D01*
X003627Y007016D01*
X003749Y007067D01*
X003867Y007185D01*
X003904Y007276D01*
X003942Y007185D01*
X004060Y007067D01*
X004215Y007003D01*
X004382Y007003D01*
X004536Y007067D01*
X004654Y007185D01*
X004692Y007276D01*
X004730Y007185D01*
X004848Y007067D01*
X005002Y007003D01*
X005169Y007003D01*
X005323Y007067D01*
X005442Y007185D01*
X005479Y007276D01*
X005517Y007185D01*
X005635Y007067D01*
X005789Y007003D01*
X005957Y007003D01*
X006111Y007067D01*
X006229Y007185D01*
X006267Y007276D01*
X006304Y007185D01*
X006407Y007083D01*
X006407Y006964D01*
X006130Y006964D01*
X006007Y006841D01*
X004733Y005567D01*
X004727Y005567D01*
X004727Y006139D01*
X004771Y006184D01*
X004817Y006294D01*
X004817Y006413D01*
X004771Y006524D01*
X004687Y006608D01*
X004576Y006654D01*
X004457Y006654D01*
X004347Y006608D01*
X004262Y006524D01*
X004217Y006413D01*
X004217Y006294D01*
X004262Y006184D01*
X004307Y006139D01*
X004307Y005941D01*
X004276Y005954D01*
X004157Y005954D01*
X004047Y005908D01*
X003962Y005824D01*
X003917Y005713D01*
X003917Y005594D01*
X003962Y005484D01*
X003977Y005469D01*
X003976Y005468D01*
X003976Y005071D01*
X004043Y005004D01*
X003976Y005103D02*
X002217Y005103D01*
X002217Y005201D02*
X002842Y005201D01*
X002774Y005223D02*
X003085Y005122D01*
X003409Y005157D01*
X003692Y005320D01*
X003884Y005584D01*
X003884Y005584D01*
X003952Y005904D01*
X003889Y006202D01*
X003971Y006284D01*
X004017Y006394D01*
X004017Y006513D01*
X003971Y006624D01*
X003887Y006708D01*
X003989Y006580D02*
X004319Y006580D01*
X004245Y006482D02*
X004017Y006482D01*
X004012Y006383D02*
X004217Y006383D01*
X004221Y006285D02*
X003971Y006285D01*
X003892Y006186D02*
X004261Y006186D01*
X004307Y006088D02*
X003913Y006088D01*
X003934Y005989D02*
X004307Y005989D01*
X004029Y005891D02*
X003949Y005891D01*
X003949Y005792D02*
X003929Y005792D01*
X003917Y005694D02*
X003908Y005694D01*
X003917Y005595D02*
X003887Y005595D01*
X003821Y005497D02*
X003957Y005497D01*
X003976Y005398D02*
X003749Y005398D01*
X003692Y005320D02*
X003692Y005320D01*
X003657Y005300D02*
X003976Y005300D01*
X003976Y005201D02*
X003487Y005201D01*
X003409Y005157D02*
X003409Y005157D01*
X002774Y005223D02*
X002774Y005223D01*
X002531Y005442D01*
X002531Y005442D01*
X002531Y005442D01*
X002398Y005740D01*
X002398Y006067D01*
X002531Y006365D01*
X002531Y006365D01*
X002774Y006584D01*
X002774Y006584D01*
X003085Y006685D01*
X003085Y006685D01*
X003207Y006672D01*
X003207Y006867D01*
X003030Y007044D01*
X002984Y007089D01*
X002961Y007067D01*
X002807Y007003D01*
X002640Y007003D01*
X002485Y007067D01*
X002367Y007185D01*
X002303Y007339D01*
X002303Y007507D01*
X002367Y007661D01*
X002485Y007779D01*
X002507Y007788D01*
X002507Y008167D01*
X002217Y008457D01*
X002217Y008452D02*
X002222Y008452D01*
X002217Y008353D02*
X002320Y008353D01*
X002419Y008255D02*
X002217Y008255D01*
X002217Y008156D02*
X002507Y008156D01*
X002507Y008058D02*
X002217Y008058D01*
X002217Y007959D02*
X002507Y007959D01*
X002507Y007861D02*
X002217Y007861D01*
X002217Y007762D02*
X002469Y007762D01*
X002370Y007664D02*
X002217Y007664D01*
X002217Y007565D02*
X002328Y007565D01*
X002303Y007467D02*
X002217Y007467D01*
X002217Y007368D02*
X002303Y007368D01*
X002332Y007270D02*
X002217Y007270D01*
X002217Y007171D02*
X002381Y007171D01*
X002480Y007073D02*
X002217Y007073D01*
X002217Y006974D02*
X003099Y006974D01*
X003198Y006876D02*
X002217Y006876D01*
X002217Y006777D02*
X003207Y006777D01*
X003207Y006679D02*
X003144Y006679D01*
X003065Y006679D02*
X002217Y006679D01*
X002217Y006580D02*
X002770Y006580D01*
X002660Y006482D02*
X002217Y006482D01*
X002217Y006383D02*
X002551Y006383D01*
X002495Y006285D02*
X002217Y006285D01*
X002217Y006186D02*
X002451Y006186D01*
X002407Y006088D02*
X002217Y006088D01*
X002217Y005989D02*
X002398Y005989D01*
X002398Y005891D02*
X002217Y005891D01*
X002217Y005792D02*
X002398Y005792D01*
X002419Y005694D02*
X002217Y005694D01*
X002217Y005595D02*
X002463Y005595D01*
X002507Y005497D02*
X002217Y005497D01*
X002217Y005398D02*
X002580Y005398D01*
X002689Y005300D02*
X002217Y005300D01*
X004727Y005595D02*
X004761Y005595D01*
X004727Y005694D02*
X004860Y005694D01*
X004958Y005792D02*
X004727Y005792D01*
X004727Y005891D02*
X005057Y005891D01*
X005155Y005989D02*
X004727Y005989D01*
X004727Y006088D02*
X005254Y006088D01*
X005352Y006186D02*
X004772Y006186D01*
X004813Y006285D02*
X005451Y006285D01*
X005549Y006383D02*
X004817Y006383D01*
X004788Y006482D02*
X005648Y006482D01*
X005746Y006580D02*
X004714Y006580D01*
X004842Y007073D02*
X004542Y007073D01*
X004640Y007171D02*
X004743Y007171D01*
X004694Y007270D02*
X004689Y007270D01*
X004651Y007664D02*
X004732Y007664D01*
X004831Y007762D02*
X004553Y007762D01*
X004043Y007762D02*
X003766Y007762D01*
X003864Y007664D02*
X003945Y007664D01*
X003527Y007861D02*
X011407Y007861D01*
X011407Y007959D02*
X003527Y007959D01*
X003527Y008058D02*
X011407Y008058D01*
X011407Y008156D02*
X003527Y008156D01*
X003527Y008255D02*
X011407Y008255D01*
X011407Y008353D02*
X003527Y008353D01*
X003527Y008452D02*
X011407Y008452D01*
X011407Y008550D02*
X009431Y008550D01*
X009810Y008649D02*
X009910Y008649D01*
X009910Y008747D02*
X009810Y008747D01*
X009810Y008846D02*
X009910Y008846D01*
X009910Y008944D02*
X009810Y008944D01*
X009910Y009043D02*
X011407Y009043D01*
X011407Y009141D02*
X010246Y009141D01*
X010246Y009240D02*
X011407Y009240D01*
X011407Y009338D02*
X010246Y009338D01*
X010324Y009437D02*
X011407Y009437D01*
X011407Y009535D02*
X010392Y009535D01*
X010417Y009634D02*
X011407Y009634D01*
X011407Y009732D02*
X010409Y009732D01*
X010364Y009831D02*
X011407Y009831D01*
X011407Y009929D02*
X010327Y009929D01*
X010327Y010028D02*
X011407Y010028D01*
X011407Y010126D02*
X010359Y010126D01*
X009907Y010028D02*
X009527Y010028D01*
X009527Y009929D02*
X009907Y009929D01*
X009869Y009831D02*
X009527Y009831D01*
X009527Y009732D02*
X009824Y009732D01*
X009817Y009634D02*
X009494Y009634D01*
X009395Y009535D02*
X009841Y009535D01*
X009810Y009437D02*
X009909Y009437D01*
X009910Y009338D02*
X009810Y009338D01*
X009810Y009240D02*
X009910Y009240D01*
X009910Y009141D02*
X009810Y009141D01*
X010246Y008944D02*
X011407Y008944D01*
X011407Y008846D02*
X010246Y008846D01*
X010246Y008747D02*
X011407Y008747D01*
X011407Y008649D02*
X010240Y008649D01*
X009984Y007762D02*
X011407Y007762D01*
X011407Y007664D02*
X010106Y007664D01*
X010162Y007565D02*
X011407Y007565D01*
X011407Y007467D02*
X011028Y007467D01*
X011094Y007368D02*
X011407Y007368D01*
X011407Y007270D02*
X011117Y007270D01*
X011107Y007171D02*
X011407Y007171D01*
X011407Y007073D02*
X011060Y007073D01*
X011027Y006974D02*
X011407Y006974D01*
X011407Y006876D02*
X011027Y006876D01*
X011027Y006777D02*
X011407Y006777D01*
X011407Y006679D02*
X011027Y006679D01*
X011027Y006580D02*
X011407Y006580D01*
X011407Y006482D02*
X011027Y006482D01*
X011027Y006383D02*
X011407Y006383D01*
X011407Y006285D02*
X011027Y006285D01*
X011086Y006186D02*
X011347Y006186D01*
X011317Y006088D02*
X011117Y006088D01*
X011115Y005989D02*
X011319Y005989D01*
X011359Y005891D02*
X011074Y005891D01*
X010969Y005792D02*
X011464Y005792D01*
X011769Y005792D02*
X014397Y005792D01*
X014397Y005694D02*
X010983Y005694D01*
X011017Y005595D02*
X014420Y005595D01*
X014503Y005497D02*
X011017Y005497D01*
X010977Y005398D02*
X014503Y005398D01*
X014503Y005300D02*
X010887Y005300D01*
X010708Y005201D02*
X014503Y005201D01*
X014503Y005103D02*
X010708Y005103D01*
X010641Y005004D02*
X014503Y005004D01*
X014503Y004906D02*
X010708Y004906D01*
X010708Y004807D02*
X014503Y004807D01*
X014503Y004709D02*
X010708Y004709D01*
X010708Y004610D02*
X014503Y004610D01*
X014503Y004512D02*
X010726Y004512D01*
X010824Y004413D02*
X014503Y004413D01*
X014503Y004315D02*
X010923Y004315D01*
X011874Y005891D02*
X014397Y005891D01*
X014384Y005989D02*
X011915Y005989D01*
X011917Y006088D02*
X014327Y006088D01*
X014308Y006186D02*
X011886Y006186D01*
X011827Y006285D02*
X014289Y006285D01*
X014270Y006383D02*
X011827Y006383D01*
X011827Y006482D02*
X014251Y006482D01*
X014233Y006580D02*
X011827Y006580D01*
X011827Y006679D02*
X014214Y006679D01*
X014195Y006777D02*
X011827Y006777D01*
X011827Y006876D02*
X014176Y006876D01*
X014157Y006974D02*
X011827Y006974D01*
X011827Y007073D02*
X014021Y007073D01*
X013956Y007171D02*
X011827Y007171D01*
X011827Y007270D02*
X013956Y007270D01*
X013956Y007368D02*
X011827Y007368D01*
X011827Y007467D02*
X013956Y007467D01*
X013956Y007565D02*
X011827Y007565D01*
X011827Y007664D02*
X013956Y007664D01*
X013956Y007762D02*
X011827Y007762D01*
X011827Y007861D02*
X013956Y007861D01*
X014046Y007959D02*
X011827Y007959D01*
X011827Y008058D02*
X014481Y008058D01*
X014412Y008156D02*
X011827Y008156D01*
X011827Y008255D02*
X014380Y008255D01*
X014632Y008238D02*
X015301Y007569D01*
X015051Y007504D01*
X015573Y007232D01*
X015573Y006754D01*
X015610Y006004D02*
X015967Y006004D01*
X016382Y006004D01*
X015967Y006004D02*
X015967Y007669D01*
X016144Y007669D01*
X016961Y007669D01*
X017473Y007669D02*
X018349Y007669D01*
X018467Y007610D01*
X018510Y007610D01*
X019301Y006819D01*
X019301Y006754D01*
X020257Y006754D01*
X019831Y006482D02*
X019727Y006482D01*
X019722Y006383D02*
X019836Y006383D01*
X020801Y006819D02*
X020801Y007294D01*
X020467Y007379D01*
X020260Y007610D01*
X019498Y007610D01*
X018360Y008397D02*
X018217Y008338D01*
X017709Y008338D01*
X017473Y008338D01*
X017711Y008558D02*
X017711Y008566D01*
X017612Y008666D01*
X017577Y008666D01*
X017577Y009032D01*
X017984Y009032D01*
X018084Y009132D01*
X018084Y009706D01*
X018008Y009782D01*
X018018Y009792D01*
X018035Y009822D01*
X018044Y009855D01*
X018044Y010040D01*
X017765Y010040D01*
X017765Y010137D01*
X017668Y010137D01*
X017668Y010435D01*
X017503Y010435D01*
X017470Y010426D01*
X017440Y010409D01*
X017416Y010385D01*
X017399Y010355D01*
X017390Y010322D01*
X017390Y010137D01*
X017668Y010137D01*
X017668Y010040D01*
X017390Y010040D01*
X017390Y009855D01*
X017399Y009822D01*
X017416Y009792D01*
X017426Y009782D01*
X017350Y009706D01*
X017350Y009564D01*
X016980Y009564D01*
X016967Y009551D01*
X016954Y009564D01*
X016834Y009564D01*
X016834Y009706D01*
X016786Y009754D01*
X016834Y009801D01*
X016834Y010375D01*
X016734Y010475D01*
X016727Y010475D01*
X016727Y010567D01*
X017004Y010844D01*
X018930Y010844D01*
X021519Y008255D01*
X021518Y008255D01*
X021519Y008255D02*
X021424Y008294D01*
X021309Y008294D01*
X021292Y008287D01*
X021292Y008369D01*
X021193Y008469D01*
X020468Y008469D01*
X020301Y008571D01*
X020255Y008617D01*
X020225Y008617D01*
X020201Y008633D01*
X020137Y008617D01*
X019904Y008617D01*
X019904Y008704D01*
X019805Y008804D01*
X019192Y008804D01*
X019092Y008704D01*
X019092Y008617D01*
X018952Y008617D01*
X018952Y008724D01*
X018852Y008823D01*
X018081Y008823D01*
X017982Y008724D01*
X017982Y008558D01*
X017711Y008558D01*
X017629Y008649D02*
X017982Y008649D01*
X018005Y008747D02*
X017577Y008747D01*
X017577Y008846D02*
X020928Y008846D01*
X021026Y008747D02*
X019861Y008747D01*
X019904Y008649D02*
X021125Y008649D01*
X021223Y008550D02*
X020335Y008550D01*
X020164Y008397D02*
X020807Y008004D01*
X021367Y008004D01*
X021621Y007861D02*
X021807Y007861D01*
X021807Y007959D02*
X021657Y007959D01*
X021657Y008058D02*
X021716Y008058D01*
X021807Y007762D02*
X021535Y007762D01*
X021292Y007664D02*
X021807Y007664D01*
X021807Y007565D02*
X021219Y007565D01*
X021021Y007368D02*
X021807Y007368D01*
X021807Y007270D02*
X021022Y007270D01*
X020955Y007467D02*
X021807Y007467D01*
X021807Y007171D02*
X021300Y007171D01*
X021352Y007073D02*
X021807Y007073D01*
X021807Y006974D02*
X021352Y006974D01*
X021352Y006876D02*
X021807Y006876D01*
X021807Y006777D02*
X021352Y006777D01*
X021352Y006679D02*
X021807Y006679D01*
X021807Y006580D02*
X021352Y006580D01*
X021352Y006482D02*
X021807Y006482D01*
X021749Y006383D02*
X021347Y006383D01*
X021707Y006285D02*
X018203Y006285D01*
X017577Y006186D02*
X021707Y006186D01*
X021707Y006088D02*
X017577Y006088D01*
X017577Y005989D02*
X021707Y005989D01*
X021707Y005891D02*
X017577Y005891D01*
X017577Y005792D02*
X021707Y005792D01*
X021780Y005694D02*
X017577Y005694D01*
X017577Y005595D02*
X023001Y005595D01*
X023001Y005497D02*
X017577Y005497D01*
X017577Y005398D02*
X023001Y005398D01*
X023044Y005300D02*
X017577Y005300D01*
X017577Y005201D02*
X023507Y005201D01*
X023507Y005103D02*
X017577Y005103D01*
X017577Y005004D02*
X023507Y005004D01*
X023507Y004906D02*
X017577Y004906D01*
X017577Y004807D02*
X023507Y004807D01*
X023507Y004709D02*
X022708Y004709D01*
X022805Y004610D02*
X023507Y004610D01*
X023507Y004512D02*
X022805Y004512D01*
X023054Y004413D02*
X023507Y004413D01*
X023507Y004315D02*
X023127Y004315D01*
X023127Y004216D02*
X023507Y004216D01*
X023507Y004118D02*
X023127Y004118D01*
X023127Y004019D02*
X023277Y004019D01*
X023232Y003921D02*
X023127Y003921D01*
X022707Y003822D02*
X019401Y003822D01*
X019451Y003921D02*
X021882Y003921D01*
X021835Y004019D02*
X019498Y004019D01*
X019498Y003724D02*
X022707Y003724D01*
X022748Y003625D02*
X019498Y003625D01*
X019498Y003527D02*
X022847Y003527D01*
X023232Y003428D02*
X019498Y003428D01*
X019498Y003330D02*
X023232Y003330D01*
X023322Y003231D02*
X019498Y003231D01*
X019498Y003133D02*
X023272Y003133D01*
X023272Y003034D02*
X019450Y003034D01*
X019353Y002912D02*
X019392Y002889D01*
X019424Y002857D01*
X019446Y002818D01*
X019458Y002775D01*
X019458Y002568D01*
X019063Y002568D01*
X018963Y002568D01*
X018963Y002923D01*
X018717Y002923D01*
X018673Y002912D01*
X018634Y002889D01*
X018602Y002857D01*
X018580Y002818D01*
X018568Y002775D01*
X018568Y002568D01*
X018963Y002568D01*
X018963Y002468D01*
X018568Y002468D01*
X018568Y002261D01*
X018580Y002217D01*
X018602Y002178D01*
X018634Y002146D01*
X018673Y002124D01*
X018717Y002112D01*
X018963Y002112D01*
X018963Y002468D01*
X019063Y002468D01*
X019063Y002568D01*
X019063Y002923D01*
X019309Y002923D01*
X019353Y002912D01*
X019435Y002837D02*
X021898Y002837D01*
X021887Y002818D02*
X021875Y002775D01*
X021875Y002568D01*
X022270Y002568D01*
X022270Y002468D01*
X021875Y002468D01*
X021875Y002261D01*
X021887Y002217D01*
X021909Y002178D01*
X021941Y002146D01*
X021980Y002124D01*
X022024Y002112D01*
X022270Y002112D01*
X022270Y002468D01*
X022370Y002468D01*
X022370Y002112D01*
X022616Y002112D01*
X022660Y002124D01*
X022699Y002146D01*
X022731Y002178D01*
X022753Y002217D01*
X022765Y002261D01*
X022765Y002468D01*
X022370Y002468D01*
X022370Y002568D01*
X022270Y002568D01*
X022270Y002923D01*
X022024Y002923D01*
X021980Y002912D01*
X021941Y002889D01*
X021909Y002857D01*
X021887Y002818D01*
X021875Y002739D02*
X019458Y002739D01*
X019458Y002640D02*
X021875Y002640D01*
X021875Y002443D02*
X019458Y002443D01*
X019458Y002468D02*
X019458Y002261D01*
X019446Y002217D01*
X019424Y002178D01*
X019392Y002146D01*
X019353Y002124D01*
X019309Y002112D01*
X019063Y002112D01*
X019063Y002468D01*
X019458Y002468D01*
X019458Y002345D02*
X021875Y002345D01*
X021879Y002246D02*
X019454Y002246D01*
X019393Y002148D02*
X021940Y002148D01*
X022270Y002148D02*
X022370Y002148D01*
X022370Y002246D02*
X022270Y002246D01*
X022270Y002345D02*
X022370Y002345D01*
X022370Y002443D02*
X022270Y002443D01*
X022270Y002542D02*
X019063Y002542D01*
X019063Y002640D02*
X018963Y002640D01*
X018963Y002542D02*
X017069Y002542D01*
X017167Y002640D02*
X018568Y002640D01*
X018568Y002739D02*
X017266Y002739D01*
X017364Y002837D02*
X018591Y002837D01*
X018576Y003034D02*
X017561Y003034D01*
X017577Y003133D02*
X018528Y003133D01*
X018528Y003231D02*
X017577Y003231D01*
X017577Y003330D02*
X018528Y003330D01*
X018528Y003428D02*
X017577Y003428D01*
X017577Y003527D02*
X018528Y003527D01*
X018528Y003625D02*
X017577Y003625D01*
X017577Y003724D02*
X018528Y003724D01*
X018625Y003822D02*
X017577Y003822D01*
X017577Y003921D02*
X018575Y003921D01*
X018528Y004019D02*
X017577Y004019D01*
X017577Y004118D02*
X018528Y004118D01*
X018528Y004216D02*
X017577Y004216D01*
X017577Y004315D02*
X018528Y004315D01*
X018528Y004413D02*
X017577Y004413D01*
X017577Y004512D02*
X018528Y004512D01*
X018528Y004610D02*
X017577Y004610D01*
X017577Y004709D02*
X018626Y004709D01*
X019401Y004709D02*
X021933Y004709D01*
X021835Y004610D02*
X019498Y004610D01*
X019498Y004512D02*
X021835Y004512D01*
X022454Y005694D02*
X023001Y005694D01*
X023001Y005792D02*
X022552Y005792D01*
X022651Y005891D02*
X023001Y005891D01*
X023001Y005989D02*
X022727Y005989D01*
X022727Y006088D02*
X023001Y006088D01*
X022629Y006564D02*
X022430Y006564D01*
X022427Y006561D01*
X022427Y008019D01*
X022447Y007999D01*
X022557Y007954D01*
X022676Y007954D01*
X022787Y007999D01*
X022871Y008084D01*
X022917Y008194D01*
X022917Y008313D01*
X022871Y008424D01*
X022827Y008468D01*
X022827Y008538D01*
X022919Y008538D01*
X022995Y008614D01*
X023005Y008604D01*
X023035Y008587D01*
X023068Y008578D01*
X023291Y008578D01*
X023291Y008954D01*
X023391Y008954D01*
X023391Y008578D01*
X023507Y008578D01*
X023507Y007541D01*
X022920Y006954D01*
X022857Y006954D01*
X022747Y006908D01*
X022662Y006824D01*
X022617Y006713D01*
X022617Y006594D01*
X022629Y006564D01*
X022622Y006580D02*
X022427Y006580D01*
X022427Y006679D02*
X022617Y006679D01*
X022643Y006777D02*
X022427Y006777D01*
X022427Y006876D02*
X022714Y006876D01*
X022940Y006974D02*
X022427Y006974D01*
X022427Y007073D02*
X023039Y007073D01*
X023137Y007171D02*
X022427Y007171D01*
X022427Y007270D02*
X023236Y007270D01*
X023334Y007368D02*
X022427Y007368D01*
X022427Y007467D02*
X023433Y007467D01*
X023507Y007565D02*
X022427Y007565D01*
X022427Y007664D02*
X023507Y007664D01*
X023507Y007762D02*
X022427Y007762D01*
X022427Y007861D02*
X023507Y007861D01*
X023507Y007959D02*
X022690Y007959D01*
X022544Y007959D02*
X022427Y007959D01*
X022328Y008340D02*
X020427Y010241D01*
X020427Y010456D01*
X020574Y010323D01*
X020885Y010222D01*
X021209Y010257D01*
X021209Y010257D01*
X021492Y010420D01*
X021684Y010684D01*
X021684Y010684D01*
X021752Y011004D01*
X021684Y011323D01*
X021492Y011587D01*
X021492Y011587D01*
X021209Y011751D01*
X020885Y011785D01*
X020885Y011785D01*
X020574Y011684D01*
X020574Y011684D01*
X020527Y011641D01*
X020527Y013520D01*
X020585Y013379D01*
X020712Y013252D01*
X020767Y013229D01*
X020767Y013004D01*
X020805Y012912D01*
X020875Y012842D01*
X020967Y012804D01*
X021513Y012804D01*
X022639Y011678D01*
X022639Y011439D01*
X022739Y011340D01*
X023195Y011340D01*
X023294Y011439D01*
X023294Y011934D01*
X023195Y012034D01*
X022990Y012034D01*
X021829Y013195D01*
X021829Y013195D01*
X021758Y013266D01*
X021666Y013304D01*
X021273Y013304D01*
X021348Y013379D01*
X021417Y013544D01*
X021417Y013723D01*
X021348Y013888D01*
X021222Y014015D01*
X021153Y014044D01*
X021857Y014044D01*
X021904Y013930D01*
X022031Y013803D01*
X022196Y013735D01*
X022375Y013735D01*
X022540Y013803D01*
X022667Y013930D01*
X022736Y014095D01*
X022736Y014274D01*
X022667Y014440D01*
X022540Y014566D01*
X022375Y014635D01*
X022196Y014635D01*
X022031Y014566D01*
X021928Y014464D01*
X020601Y014464D01*
X020478Y014341D01*
X020107Y013969D01*
X020107Y011241D01*
X020007Y011141D01*
X020007Y010661D01*
X019327Y011341D01*
X019204Y011464D01*
X019017Y011464D01*
X019017Y012119D01*
X018917Y012219D01*
X018264Y012219D01*
X018188Y012143D01*
X018178Y012153D01*
X018149Y012170D01*
X018116Y012179D01*
X017893Y012179D01*
X017893Y011804D01*
X017793Y011804D01*
X017793Y012179D01*
X017570Y012179D01*
X017537Y012170D01*
X017507Y012153D01*
X017483Y012129D01*
X017466Y012099D01*
X017457Y012066D01*
X017457Y011804D01*
X017793Y011804D01*
X017793Y011704D01*
X017893Y011704D01*
X017893Y011328D01*
X018116Y011328D01*
X018149Y011337D01*
X018178Y011354D01*
X018188Y011364D01*
X018264Y011288D01*
X018407Y011288D01*
X018407Y011264D01*
X016830Y011264D01*
X016707Y011141D01*
X016500Y010934D01*
X014427Y012556D01*
X014427Y013141D01*
X013867Y013701D01*
X013867Y013750D01*
X013866Y013752D01*
X013878Y013772D01*
X013862Y013832D01*
X013862Y014615D01*
X013863Y014616D01*
X013862Y014706D01*
X013862Y014795D01*
X013860Y014796D01*
X013837Y016156D01*
X013837Y016245D01*
X013835Y016246D01*
X013835Y016249D01*
X013827Y016257D01*
X013827Y016674D01*
X013927Y016674D01*
X013927Y016774D01*
X013827Y016774D01*
X013827Y017294D01*
X013620Y017294D01*
X013586Y017285D01*
X013557Y017268D01*
X013535Y017246D01*
X013308Y017474D01*
X012690Y017474D01*
X012729Y017512D01*
X012767Y017604D01*
X012767Y017719D01*
X012850Y017719D01*
X012950Y017819D01*
X012950Y018590D01*
X012850Y018689D01*
X012806Y018689D01*
X013120Y019004D01*
X015117Y019004D01*
X015117Y018894D01*
X015162Y018784D01*
X015167Y018779D01*
X015167Y018739D01*
X015069Y018739D01*
X014970Y018639D01*
X014970Y017868D01*
X015069Y017769D01*
X015167Y017769D01*
X015167Y017757D01*
X014875Y017466D01*
X014805Y017395D01*
X014779Y017334D01*
X014746Y017334D01*
X014647Y017234D01*
X014647Y016213D01*
X014746Y016114D01*
X015367Y016114D01*
X015467Y016213D01*
X015467Y017234D01*
X015409Y017292D01*
X015629Y017512D01*
X015667Y017604D01*
X015705Y017512D01*
X015717Y017500D01*
X015717Y017394D01*
X015742Y017334D01*
X015656Y017334D01*
X015557Y017234D01*
X015557Y016213D01*
X015656Y016114D01*
X015767Y016114D01*
X015767Y014887D01*
X015188Y014887D01*
X015088Y014787D01*
X015088Y013780D01*
X015188Y013681D01*
X015867Y013681D01*
X015867Y013489D01*
X015784Y013489D01*
X015687Y013391D01*
X015683Y013398D01*
X015659Y013423D01*
X015629Y013440D01*
X015596Y013449D01*
X015373Y013449D01*
X015373Y013054D01*
X015273Y013054D01*
X015273Y013449D01*
X015050Y013449D01*
X015017Y013440D01*
X014987Y013423D01*
X014963Y013398D01*
X014946Y013369D01*
X014937Y013336D01*
X014937Y013054D01*
X015273Y013054D01*
X015273Y012954D01*
X014937Y012954D01*
X014937Y012672D01*
X014946Y012639D01*
X014963Y012609D01*
X014987Y012585D01*
X015017Y012568D01*
X015050Y012559D01*
X015273Y012559D01*
X015273Y012954D01*
X015373Y012954D01*
X015373Y012559D01*
X015596Y012559D01*
X015629Y012568D01*
X015659Y012585D01*
X015683Y012609D01*
X015687Y012616D01*
X015784Y012519D01*
X016437Y012519D01*
X016536Y012618D01*
X016536Y013389D01*
X016437Y013489D01*
X016367Y013489D01*
X016367Y013681D01*
X016746Y013681D01*
X016845Y013780D01*
X016845Y014787D01*
X016746Y014887D01*
X016267Y014887D01*
X016267Y016114D01*
X016277Y016114D01*
X016377Y016213D01*
X016377Y017234D01*
X016287Y017323D01*
X016317Y017394D01*
X016317Y017513D01*
X016271Y017624D01*
X016249Y017645D01*
X016229Y017695D01*
X016167Y017757D01*
X016167Y017832D01*
X016192Y017818D01*
X016225Y017809D01*
X016468Y017809D01*
X016568Y017809D01*
X016811Y017809D01*
X016844Y017818D01*
X016873Y017835D01*
X016897Y017859D01*
X016915Y017889D01*
X016923Y017922D01*
X016923Y018204D01*
X016568Y018204D01*
X016568Y018304D01*
X016468Y018304D01*
X016468Y018699D01*
X016225Y018699D01*
X016192Y018690D01*
X016167Y018675D01*
X016167Y019303D01*
X016129Y019395D01*
X016058Y019466D01*
X015966Y019504D01*
X012967Y019504D01*
X012875Y019466D01*
X012805Y019395D01*
X012305Y018895D01*
X012267Y018803D01*
X012267Y018689D01*
X012158Y018689D01*
X012058Y018590D01*
X012058Y017819D01*
X012158Y017719D01*
X012229Y017719D01*
X011843Y017334D01*
X011746Y017334D01*
X011647Y017234D01*
X011647Y016213D01*
X011746Y016114D01*
X012247Y016114D01*
X012247Y016095D01*
X011997Y015845D01*
X011997Y014164D01*
X010704Y014164D01*
X010717Y014194D01*
X010717Y014313D01*
X010671Y014424D01*
X010627Y014468D01*
X010627Y017141D01*
X010527Y017241D01*
X010527Y017538D01*
X010667Y017538D01*
X010767Y017638D01*
X010767Y018369D01*
X010667Y018469D01*
X010014Y018469D01*
X009967Y018421D01*
X009919Y018469D01*
X009266Y018469D01*
X009167Y018369D01*
X009167Y018254D01*
X009017Y018254D01*
X009017Y018369D01*
X008917Y018469D01*
X008827Y018469D01*
X008827Y018641D01*
X008127Y019341D01*
X008004Y019464D01*
X005616Y019464D01*
X005493Y019341D01*
X004807Y018654D01*
X004807Y018472D01*
X004661Y018411D01*
X004509Y018260D01*
X004487Y018208D01*
X004424Y018360D01*
X004273Y018511D01*
X004074Y018594D01*
X003859Y018594D01*
X003661Y018511D01*
X003509Y018360D01*
X003427Y018161D01*
X003427Y017946D01*
X003509Y017748D01*
X003593Y017664D01*
X003430Y017664D01*
X003307Y017541D01*
X002217Y016451D01*
X002217Y019504D01*
X030717Y019504D01*
X030717Y013834D01*
X027917Y013834D01*
X027917Y013913D01*
X027871Y014024D01*
X027827Y014068D01*
X027827Y014841D01*
X027727Y014941D01*
X027682Y014985D01*
X027682Y015206D01*
X027634Y015254D01*
X027682Y015301D01*
X027682Y015954D01*
X027582Y016054D01*
X026851Y016054D01*
X026751Y015954D01*
X026751Y015894D01*
X026659Y015894D01*
X026552Y015850D01*
X026471Y015768D01*
X026427Y015661D01*
X026427Y015546D01*
X026471Y015439D01*
X026552Y015358D01*
X026659Y015314D01*
X026751Y015314D01*
X026751Y015301D01*
X026799Y015254D01*
X026751Y015206D01*
X026751Y014553D01*
X026851Y014454D01*
X027107Y014454D01*
X027107Y014441D01*
X027016Y014350D01*
X026961Y014350D01*
X026961Y014004D01*
X026961Y014004D01*
X026961Y014350D01*
X026894Y014350D01*
X026854Y014390D01*
X026556Y014390D01*
X026517Y014351D01*
X026517Y014369D01*
X026417Y014469D01*
X025764Y014469D01*
X025717Y014421D01*
X025669Y014469D01*
X025637Y014469D01*
X025702Y014534D01*
X025702Y015186D01*
X025604Y015283D01*
X025611Y015287D01*
X025636Y015312D01*
X025653Y015341D01*
X025662Y015374D01*
X025662Y015597D01*
X025267Y015597D01*
X025267Y015286D01*
X025167Y015286D01*
X025167Y015597D01*
X025267Y015597D01*
X025267Y015697D01*
X025662Y015697D01*
X025662Y015920D01*
X025653Y015953D01*
X025636Y015983D01*
X025611Y016007D01*
X025582Y016024D01*
X025549Y016033D01*
X025267Y016033D01*
X025267Y015697D01*
X025167Y015697D01*
X025167Y015597D01*
X024772Y015597D01*
X024772Y015374D01*
X024781Y015341D01*
X024798Y015312D01*
X024822Y015287D01*
X024829Y015283D01*
X024732Y015186D01*
X024732Y015064D01*
X024730Y015064D01*
X024507Y014841D01*
X024507Y012368D01*
X024462Y012324D01*
X024417Y012213D01*
X024417Y012094D01*
X024429Y012063D01*
X024107Y011741D01*
X024107Y011641D01*
X023593Y011127D01*
X023578Y011141D01*
X023548Y011158D01*
X023515Y011167D01*
X023369Y011167D01*
X023369Y010889D01*
X023312Y010889D01*
X023312Y011167D01*
X023166Y011167D01*
X023133Y011158D01*
X023103Y011141D01*
X023079Y011117D01*
X023062Y011087D01*
X023053Y011054D01*
X023053Y010889D01*
X023312Y010889D01*
X023312Y010831D01*
X023369Y010831D01*
X023369Y010553D01*
X023507Y010553D01*
X023507Y009429D01*
X023391Y009429D01*
X023391Y009054D01*
X023291Y009054D01*
X023291Y009429D01*
X023068Y009429D01*
X023035Y009420D01*
X023005Y009403D01*
X022995Y009393D01*
X022919Y009469D01*
X022867Y009469D01*
X022867Y010559D01*
X022920Y010612D01*
X022920Y011108D01*
X022821Y011207D01*
X022365Y011207D01*
X022265Y011108D01*
X022265Y010612D01*
X022365Y010513D01*
X022367Y010513D01*
X022367Y009469D01*
X022266Y009469D01*
X022167Y009369D01*
X022167Y008638D01*
X022266Y008538D01*
X022407Y008538D01*
X022407Y008468D01*
X022362Y008424D01*
X022328Y008340D01*
X022333Y008353D02*
X022314Y008353D01*
X022390Y008452D02*
X022216Y008452D01*
X022255Y008550D02*
X022117Y008550D01*
X022167Y008649D02*
X022019Y008649D01*
X021920Y008747D02*
X022167Y008747D01*
X022167Y008846D02*
X021822Y008846D01*
X021723Y008944D02*
X022167Y008944D01*
X022167Y009043D02*
X021625Y009043D01*
X021526Y009141D02*
X022167Y009141D01*
X022167Y009240D02*
X021428Y009240D01*
X021329Y009338D02*
X022167Y009338D01*
X022234Y009437D02*
X021231Y009437D01*
X021132Y009535D02*
X022367Y009535D01*
X022367Y009634D02*
X021034Y009634D01*
X020935Y009732D02*
X022367Y009732D01*
X022367Y009831D02*
X020837Y009831D01*
X020738Y009929D02*
X022367Y009929D01*
X022367Y010028D02*
X020640Y010028D01*
X020541Y010126D02*
X022367Y010126D01*
X022367Y010225D02*
X020906Y010225D01*
X020885Y010222D02*
X020885Y010222D01*
X020878Y010225D02*
X020443Y010225D01*
X020427Y010323D02*
X020574Y010323D01*
X020574Y010323D01*
X020465Y010422D02*
X020427Y010422D01*
X020007Y010717D02*
X019950Y010717D01*
X020007Y010816D02*
X019852Y010816D01*
X019753Y010914D02*
X020007Y010914D01*
X020007Y011013D02*
X019655Y011013D01*
X019556Y011111D02*
X020007Y011111D01*
X020076Y011210D02*
X019458Y011210D01*
X019359Y011308D02*
X020107Y011308D01*
X020107Y011407D02*
X019261Y011407D01*
X019017Y011505D02*
X020107Y011505D01*
X020107Y011604D02*
X019017Y011604D01*
X019017Y011702D02*
X020107Y011702D01*
X020107Y011801D02*
X019017Y011801D01*
X019017Y011899D02*
X020107Y011899D01*
X020107Y011998D02*
X019017Y011998D01*
X019017Y012096D02*
X020107Y012096D01*
X020107Y012195D02*
X018941Y012195D01*
X018240Y012195D02*
X014888Y012195D01*
X014762Y012293D02*
X020107Y012293D01*
X020107Y012392D02*
X014637Y012392D01*
X014511Y012490D02*
X020107Y012490D01*
X020107Y012589D02*
X016507Y012589D01*
X016536Y012687D02*
X020107Y012687D01*
X020107Y012786D02*
X016536Y012786D01*
X016536Y012884D02*
X020107Y012884D01*
X020107Y012983D02*
X016536Y012983D01*
X016536Y013081D02*
X020107Y013081D01*
X020107Y013180D02*
X016536Y013180D01*
X016536Y013278D02*
X020107Y013278D01*
X020107Y013377D02*
X016536Y013377D01*
X016450Y013475D02*
X020107Y013475D01*
X020107Y013574D02*
X016367Y013574D01*
X016367Y013672D02*
X020107Y013672D01*
X020107Y013771D02*
X019824Y013771D01*
X019903Y013803D02*
X020029Y013930D01*
X020098Y014095D01*
X020098Y014274D01*
X020029Y014440D01*
X019903Y014566D01*
X019737Y014635D01*
X019558Y014635D01*
X019393Y014566D01*
X019266Y014440D01*
X019198Y014274D01*
X019198Y014095D01*
X019266Y013930D01*
X019393Y013803D01*
X019558Y013735D01*
X019737Y013735D01*
X019903Y013803D01*
X019969Y013869D02*
X020107Y013869D01*
X020107Y013968D02*
X020045Y013968D01*
X020086Y014066D02*
X020204Y014066D01*
X020302Y014165D02*
X020098Y014165D01*
X020098Y014263D02*
X020401Y014263D01*
X020499Y014362D02*
X020062Y014362D01*
X020009Y014460D02*
X020598Y014460D01*
X020799Y014663D02*
X021134Y014663D01*
X021443Y014791D01*
X021679Y015028D01*
X021807Y015336D01*
X021807Y015671D01*
X021679Y015980D01*
X021443Y016216D01*
X021134Y016344D01*
X020799Y016344D01*
X020491Y016216D01*
X020254Y015980D01*
X020126Y015671D01*
X020126Y015336D01*
X020254Y015028D01*
X020491Y014791D01*
X020799Y014663D01*
X020576Y014756D02*
X016845Y014756D01*
X016845Y014657D02*
X024507Y014657D01*
X024507Y014559D02*
X022548Y014559D01*
X022647Y014460D02*
X024507Y014460D01*
X024507Y014362D02*
X022699Y014362D01*
X022736Y014263D02*
X024507Y014263D01*
X024507Y014165D02*
X022736Y014165D01*
X022724Y014066D02*
X024507Y014066D01*
X024507Y013968D02*
X022683Y013968D01*
X022606Y013869D02*
X024507Y013869D01*
X024507Y013771D02*
X022462Y013771D01*
X022109Y013771D02*
X021397Y013771D01*
X021417Y013672D02*
X024507Y013672D01*
X024507Y013574D02*
X021417Y013574D01*
X021388Y013475D02*
X024507Y013475D01*
X024507Y013377D02*
X021346Y013377D01*
X021728Y013278D02*
X024507Y013278D01*
X024507Y013180D02*
X021844Y013180D01*
X021943Y013081D02*
X024507Y013081D01*
X024507Y012983D02*
X022041Y012983D01*
X022140Y012884D02*
X024507Y012884D01*
X024507Y012786D02*
X022238Y012786D01*
X022337Y012687D02*
X024507Y012687D01*
X024507Y012589D02*
X022435Y012589D01*
X022534Y012490D02*
X024507Y012490D01*
X024507Y012392D02*
X022632Y012392D01*
X022731Y012293D02*
X024450Y012293D01*
X024417Y012195D02*
X022829Y012195D01*
X022928Y012096D02*
X024417Y012096D01*
X024364Y011998D02*
X023231Y011998D01*
X023294Y011899D02*
X024265Y011899D01*
X024167Y011801D02*
X023294Y011801D01*
X023294Y011702D02*
X024107Y011702D01*
X024070Y011604D02*
X023294Y011604D01*
X023294Y011505D02*
X023971Y011505D01*
X023873Y011407D02*
X023262Y011407D01*
X023312Y011111D02*
X023369Y011111D01*
X023369Y011013D02*
X023312Y011013D01*
X023312Y010914D02*
X023369Y010914D01*
X023369Y010816D02*
X023312Y010816D01*
X023312Y010831D02*
X023312Y010553D01*
X023166Y010553D01*
X023133Y010562D01*
X023103Y010579D01*
X023079Y010603D01*
X023062Y010633D01*
X023053Y010666D01*
X023053Y010831D01*
X023312Y010831D01*
X023312Y010717D02*
X023369Y010717D01*
X023369Y010619D02*
X023312Y010619D01*
X023507Y010520D02*
X022867Y010520D01*
X022867Y010422D02*
X023507Y010422D01*
X023507Y010323D02*
X022867Y010323D01*
X022867Y010225D02*
X023507Y010225D01*
X023507Y010126D02*
X022867Y010126D01*
X022867Y010028D02*
X023507Y010028D01*
X023507Y009929D02*
X022867Y009929D01*
X022867Y009831D02*
X023507Y009831D01*
X023507Y009732D02*
X022867Y009732D01*
X022867Y009634D02*
X023507Y009634D01*
X023507Y009535D02*
X022867Y009535D01*
X022951Y009437D02*
X023507Y009437D01*
X023391Y009338D02*
X023291Y009338D01*
X023291Y009240D02*
X023391Y009240D01*
X023391Y009141D02*
X023291Y009141D01*
X023291Y008944D02*
X023391Y008944D01*
X023391Y008846D02*
X023291Y008846D01*
X023291Y008747D02*
X023391Y008747D01*
X023391Y008649D02*
X023291Y008649D01*
X023507Y008550D02*
X022931Y008550D01*
X022843Y008452D02*
X023507Y008452D01*
X023507Y008353D02*
X022900Y008353D01*
X022917Y008255D02*
X023507Y008255D01*
X023507Y008156D02*
X022901Y008156D01*
X022845Y008058D02*
X023507Y008058D01*
X024727Y008058D02*
X025507Y008058D01*
X025507Y008156D02*
X024727Y008156D01*
X024727Y008255D02*
X025507Y008255D01*
X025507Y008353D02*
X024727Y008353D01*
X024727Y008452D02*
X025507Y008452D01*
X025507Y008550D02*
X024727Y008550D01*
X024727Y008649D02*
X025507Y008649D01*
X025507Y008654D02*
X025507Y007051D01*
X025501Y007054D01*
X025382Y007054D01*
X025272Y007008D01*
X025231Y006967D01*
X025231Y007285D01*
X025132Y007384D01*
X025013Y007384D01*
X025017Y007394D01*
X025017Y007513D01*
X024971Y007624D01*
X024887Y007708D01*
X024776Y007754D01*
X024714Y007754D01*
X024727Y007767D01*
X024727Y009441D01*
X024517Y009651D01*
X024517Y009713D01*
X024471Y009824D01*
X024387Y009908D01*
X024276Y009954D01*
X024157Y009954D01*
X024127Y009941D01*
X024127Y010767D01*
X024564Y011204D01*
X024571Y011201D01*
X024698Y011201D01*
X024816Y011250D01*
X025029Y011464D01*
X025062Y011384D01*
X025107Y011339D01*
X025107Y011267D01*
X025230Y011144D01*
X025730Y010644D01*
X025904Y010644D01*
X026027Y010767D01*
X026027Y010941D01*
X025575Y011393D01*
X025617Y011494D01*
X025617Y011613D01*
X025571Y011724D01*
X025487Y011808D01*
X025407Y011841D01*
X025680Y012115D01*
X025672Y012083D01*
X025672Y011860D01*
X026067Y011860D01*
X026067Y011760D01*
X026167Y011760D01*
X026167Y011860D01*
X026562Y011860D01*
X026562Y011985D01*
X026562Y011984D01*
X026647Y011899D01*
X026562Y011899D01*
X026647Y011899D02*
X026757Y011854D01*
X026876Y011854D01*
X026907Y011866D01*
X027607Y011167D01*
X027607Y006864D01*
X027515Y006864D01*
X027515Y007285D01*
X027415Y007384D01*
X026802Y007384D01*
X026781Y007364D01*
X026527Y007364D01*
X026527Y007539D01*
X026571Y007584D01*
X026617Y007694D01*
X026617Y007813D01*
X026571Y007924D01*
X026487Y008008D01*
X026376Y008054D01*
X026257Y008054D01*
X026147Y008008D01*
X026062Y007924D01*
X026017Y007813D01*
X026017Y007694D01*
X026062Y007584D01*
X026107Y007539D01*
X026107Y007167D01*
X026123Y007150D01*
X026022Y007108D01*
X025937Y007024D01*
X025927Y006998D01*
X025927Y008841D01*
X025827Y008941D01*
X025817Y008951D01*
X025817Y009013D01*
X025771Y009124D01*
X025687Y009208D01*
X025576Y009254D01*
X025457Y009254D01*
X025347Y009208D01*
X025262Y009124D01*
X025217Y009013D01*
X025217Y008894D01*
X025262Y008784D01*
X025347Y008699D01*
X025457Y008654D01*
X025507Y008654D01*
X025299Y008747D02*
X024727Y008747D01*
X024727Y008846D02*
X025237Y008846D01*
X025217Y008944D02*
X024727Y008944D01*
X024727Y009043D02*
X025229Y009043D01*
X025280Y009141D02*
X024727Y009141D01*
X024727Y009240D02*
X025423Y009240D01*
X025610Y009240D02*
X027607Y009240D01*
X027607Y009338D02*
X024727Y009338D01*
X024727Y009437D02*
X027607Y009437D01*
X027607Y009535D02*
X024632Y009535D01*
X024534Y009634D02*
X027607Y009634D01*
X027607Y009732D02*
X024509Y009732D01*
X024464Y009831D02*
X027607Y009831D01*
X027607Y009929D02*
X024335Y009929D01*
X024127Y010028D02*
X027607Y010028D01*
X027607Y010126D02*
X024127Y010126D01*
X024127Y010225D02*
X027607Y010225D01*
X027607Y010323D02*
X024127Y010323D01*
X024127Y010422D02*
X027607Y010422D01*
X027607Y010520D02*
X024127Y010520D01*
X024127Y010619D02*
X027607Y010619D01*
X027607Y010717D02*
X025977Y010717D01*
X026027Y010816D02*
X027607Y010816D01*
X027607Y010914D02*
X026027Y010914D01*
X025955Y011013D02*
X027607Y011013D01*
X027607Y011111D02*
X025856Y011111D01*
X025758Y011210D02*
X027564Y011210D01*
X027465Y011308D02*
X025659Y011308D01*
X025581Y011407D02*
X027367Y011407D01*
X027268Y011505D02*
X026553Y011505D01*
X026553Y011504D02*
X026562Y011537D01*
X026562Y011760D01*
X026167Y011760D01*
X026167Y011424D01*
X026449Y011424D01*
X026482Y011433D01*
X026511Y011450D01*
X026536Y011474D01*
X026553Y011504D01*
X026562Y011604D02*
X027170Y011604D01*
X027071Y011702D02*
X026562Y011702D01*
X026167Y011801D02*
X026973Y011801D01*
X027473Y012195D02*
X029041Y012195D01*
X029041Y012107D02*
X029050Y012074D01*
X029067Y012044D01*
X029092Y012020D01*
X029121Y012003D01*
X029154Y011994D01*
X029417Y011994D01*
X029417Y012330D01*
X029517Y012330D01*
X029517Y012430D01*
X029892Y012430D01*
X029892Y012653D01*
X029886Y012674D01*
X030717Y012674D01*
X030717Y010225D01*
X030710Y010251D01*
X030693Y010280D01*
X030669Y010305D01*
X030639Y010322D01*
X030606Y010331D01*
X030047Y010331D01*
X030047Y010052D01*
X029950Y010052D01*
X029950Y010331D01*
X029597Y010331D01*
X029542Y010385D01*
X029479Y010431D01*
X029409Y010467D01*
X029334Y010491D01*
X029267Y010502D01*
X029267Y010054D01*
X029167Y010054D01*
X029167Y010502D01*
X029100Y010491D01*
X029025Y010467D01*
X028955Y010431D01*
X028891Y010385D01*
X028835Y010329D01*
X028789Y010266D01*
X028753Y010196D01*
X028729Y010121D01*
X028718Y010054D01*
X029167Y010054D01*
X029167Y009954D01*
X028718Y009954D01*
X028729Y009887D01*
X028753Y009812D01*
X028789Y009742D01*
X028835Y009678D01*
X028891Y009622D01*
X028955Y009576D01*
X029025Y009540D01*
X029068Y009526D01*
X028911Y009461D01*
X028759Y009310D01*
X028677Y009111D01*
X028677Y008896D01*
X028759Y008698D01*
X028911Y008546D01*
X029013Y008504D01*
X028911Y008461D01*
X028759Y008310D01*
X028677Y008111D01*
X028677Y007964D01*
X028530Y007964D01*
X028407Y007841D01*
X028227Y007661D01*
X028227Y011441D01*
X026977Y012691D01*
X026977Y012889D01*
X027028Y012889D01*
X027037Y012880D01*
X027037Y012721D01*
X027084Y012674D01*
X029047Y012674D01*
X029041Y012653D01*
X029041Y012430D01*
X029417Y012430D01*
X029417Y012330D01*
X029041Y012330D01*
X029041Y012107D01*
X029044Y012096D02*
X027571Y012096D01*
X027670Y011998D02*
X029140Y011998D01*
X029417Y011998D02*
X029517Y011998D01*
X029517Y011994D02*
X029779Y011994D01*
X029812Y012003D01*
X029842Y012020D01*
X029856Y012034D01*
X030187Y012034D01*
X030187Y012414D01*
X030047Y012414D01*
X029892Y012259D01*
X029892Y012330D01*
X029517Y012330D01*
X029517Y011994D01*
X029517Y012096D02*
X029417Y012096D01*
X029417Y012195D02*
X029517Y012195D01*
X029517Y012293D02*
X029417Y012293D01*
X029417Y012392D02*
X027276Y012392D01*
X027374Y012293D02*
X029041Y012293D01*
X029041Y012490D02*
X027177Y012490D01*
X027079Y012589D02*
X029041Y012589D01*
X029517Y012392D02*
X030025Y012392D01*
X029926Y012293D02*
X029892Y012293D01*
X029892Y012490D02*
X030717Y012490D01*
X030717Y012392D02*
X030408Y012392D01*
X030386Y012414D02*
X030627Y012173D01*
X030627Y012034D01*
X030247Y012034D01*
X030187Y012034D01*
X030187Y011974D01*
X030247Y011974D01*
X030247Y012034D01*
X030247Y012414D01*
X030386Y012414D01*
X030247Y012392D02*
X030187Y012392D01*
X030187Y012293D02*
X030247Y012293D01*
X030247Y012195D02*
X030187Y012195D01*
X030187Y012096D02*
X030247Y012096D01*
X030247Y011998D02*
X030717Y011998D01*
X030627Y011974D02*
X030247Y011974D01*
X030247Y011594D01*
X030386Y011594D01*
X030627Y011834D01*
X030627Y011974D01*
X030627Y011899D02*
X030717Y011899D01*
X030717Y011801D02*
X030594Y011801D01*
X030495Y011702D02*
X030717Y011702D01*
X030717Y011604D02*
X030397Y011604D01*
X030247Y011604D02*
X030187Y011604D01*
X030187Y011594D02*
X030187Y011974D01*
X029807Y011974D01*
X029807Y011834D01*
X030047Y011594D01*
X030187Y011594D01*
X030187Y011702D02*
X030247Y011702D01*
X030247Y011801D02*
X030187Y011801D01*
X030187Y011899D02*
X030247Y011899D01*
X030187Y011998D02*
X029794Y011998D01*
X029807Y011899D02*
X027768Y011899D01*
X027867Y011801D02*
X029840Y011801D01*
X029938Y011702D02*
X027965Y011702D01*
X028064Y011604D02*
X030037Y011604D01*
X030717Y011505D02*
X028162Y011505D01*
X028227Y011407D02*
X030717Y011407D01*
X030717Y011308D02*
X028227Y011308D01*
X028227Y011210D02*
X030717Y011210D01*
X030717Y011111D02*
X028227Y011111D01*
X028227Y011013D02*
X030717Y011013D01*
X030717Y010914D02*
X028227Y010914D01*
X028227Y010816D02*
X030717Y010816D01*
X030717Y010717D02*
X028227Y010717D01*
X028227Y010619D02*
X030717Y010619D01*
X030717Y010520D02*
X028227Y010520D01*
X028227Y010422D02*
X028941Y010422D01*
X028831Y010323D02*
X028227Y010323D01*
X028227Y010225D02*
X028768Y010225D01*
X028731Y010126D02*
X028227Y010126D01*
X028227Y010028D02*
X029167Y010028D01*
X029167Y010126D02*
X029267Y010126D01*
X029267Y010054D02*
X029278Y010054D01*
X029278Y010052D01*
X029950Y010052D01*
X029950Y009955D01*
X030047Y009955D01*
X030047Y009677D01*
X030606Y009677D01*
X030639Y009686D01*
X030669Y009703D01*
X030693Y009727D01*
X030710Y009757D01*
X030717Y009782D01*
X030717Y009313D01*
X030659Y009371D01*
X029613Y009371D01*
X029523Y009461D01*
X029366Y009526D01*
X029409Y009540D01*
X029479Y009576D01*
X029542Y009622D01*
X029597Y009677D01*
X029950Y009677D01*
X029950Y009955D01*
X029278Y009955D01*
X029278Y009954D01*
X029267Y009954D01*
X029267Y010054D01*
X029267Y010028D02*
X029950Y010028D01*
X029950Y010126D02*
X030047Y010126D01*
X030047Y010225D02*
X029950Y010225D01*
X029950Y010323D02*
X030047Y010323D01*
X029492Y010422D02*
X030717Y010422D01*
X030717Y010323D02*
X030633Y010323D01*
X030047Y009929D02*
X029950Y009929D01*
X029950Y009831D02*
X030047Y009831D01*
X030047Y009732D02*
X029950Y009732D01*
X029554Y009634D02*
X030717Y009634D01*
X030717Y009732D02*
X030696Y009732D01*
X030717Y009535D02*
X029393Y009535D01*
X029547Y009437D02*
X030717Y009437D01*
X030717Y009338D02*
X030691Y009338D01*
X029040Y009535D02*
X028227Y009535D01*
X028227Y009437D02*
X028886Y009437D01*
X028788Y009338D02*
X028227Y009338D01*
X028227Y009240D02*
X028730Y009240D01*
X028689Y009141D02*
X028227Y009141D01*
X028227Y009043D02*
X028677Y009043D01*
X028677Y008944D02*
X028227Y008944D01*
X028227Y008846D02*
X028698Y008846D01*
X028738Y008747D02*
X028227Y008747D01*
X028227Y008649D02*
X028808Y008649D01*
X028906Y008550D02*
X028227Y008550D01*
X028227Y008452D02*
X028901Y008452D01*
X028803Y008353D02*
X028227Y008353D01*
X028227Y008255D02*
X028736Y008255D01*
X028695Y008156D02*
X028227Y008156D01*
X028227Y008058D02*
X028677Y008058D01*
X028525Y007959D02*
X028227Y007959D01*
X028227Y007861D02*
X028427Y007861D01*
X028328Y007762D02*
X028227Y007762D01*
X028227Y007664D02*
X028230Y007664D01*
X027607Y007664D02*
X026604Y007664D01*
X026617Y007762D02*
X027607Y007762D01*
X027607Y007861D02*
X026597Y007861D01*
X026535Y007959D02*
X027607Y007959D01*
X027607Y008058D02*
X025927Y008058D01*
X025927Y008156D02*
X027607Y008156D01*
X027607Y008255D02*
X025927Y008255D01*
X025927Y008353D02*
X027607Y008353D01*
X027607Y008452D02*
X025927Y008452D01*
X025927Y008550D02*
X027607Y008550D01*
X027607Y008649D02*
X025927Y008649D01*
X025927Y008747D02*
X027607Y008747D01*
X027607Y008846D02*
X025922Y008846D01*
X025823Y008944D02*
X027607Y008944D01*
X027607Y009043D02*
X025805Y009043D01*
X025753Y009141D02*
X027607Y009141D01*
X028227Y009634D02*
X028880Y009634D01*
X028796Y009732D02*
X028227Y009732D01*
X028227Y009831D02*
X028747Y009831D01*
X028722Y009929D02*
X028227Y009929D01*
X029167Y010225D02*
X029267Y010225D01*
X029267Y010323D02*
X029167Y010323D01*
X029167Y010422D02*
X029267Y010422D01*
X030627Y012096D02*
X030717Y012096D01*
X030717Y012195D02*
X030605Y012195D01*
X030507Y012293D02*
X030717Y012293D01*
X030717Y012589D02*
X029892Y012589D01*
X030717Y013869D02*
X027917Y013869D01*
X027894Y013968D02*
X030717Y013968D01*
X030717Y014066D02*
X027828Y014066D01*
X027827Y014165D02*
X030717Y014165D01*
X030717Y014263D02*
X027827Y014263D01*
X027827Y014362D02*
X030717Y014362D01*
X030717Y014460D02*
X027827Y014460D01*
X027827Y014559D02*
X030717Y014559D01*
X030717Y014657D02*
X027827Y014657D01*
X027827Y014756D02*
X030717Y014756D01*
X030717Y014854D02*
X027813Y014854D01*
X027715Y014953D02*
X030717Y014953D01*
X030717Y015051D02*
X027682Y015051D01*
X027682Y015150D02*
X030717Y015150D01*
X030717Y015248D02*
X027640Y015248D01*
X027682Y015347D02*
X030717Y015347D01*
X030717Y015445D02*
X027682Y015445D01*
X027682Y015544D02*
X030717Y015544D01*
X030717Y015642D02*
X027682Y015642D01*
X027682Y015741D02*
X030717Y015741D01*
X030717Y015839D02*
X027682Y015839D01*
X027682Y015938D02*
X030717Y015938D01*
X030717Y016036D02*
X027600Y016036D01*
X026834Y016036D02*
X021623Y016036D01*
X021697Y015938D02*
X024776Y015938D01*
X024781Y015953D02*
X024772Y015920D01*
X024772Y015697D01*
X025167Y015697D01*
X025167Y016033D01*
X024885Y016033D01*
X024852Y016024D01*
X024822Y016007D01*
X024798Y015983D01*
X024781Y015953D01*
X024772Y015839D02*
X021737Y015839D01*
X021778Y015741D02*
X024772Y015741D01*
X024772Y015544D02*
X021807Y015544D01*
X021807Y015642D02*
X025167Y015642D01*
X025197Y015628D02*
X025217Y015647D01*
X025267Y015642D02*
X026427Y015642D01*
X026428Y015544D02*
X025662Y015544D01*
X025662Y015445D02*
X026468Y015445D01*
X026579Y015347D02*
X025654Y015347D01*
X025640Y015248D02*
X026794Y015248D01*
X026751Y015150D02*
X025702Y015150D01*
X025702Y015051D02*
X026751Y015051D01*
X026751Y014953D02*
X025702Y014953D01*
X025702Y014854D02*
X026751Y014854D01*
X026751Y014756D02*
X025702Y014756D01*
X025702Y014657D02*
X026751Y014657D01*
X026751Y014559D02*
X025702Y014559D01*
X025678Y014460D02*
X025756Y014460D01*
X026426Y014460D02*
X026845Y014460D01*
X026883Y014362D02*
X027028Y014362D01*
X026961Y014263D02*
X026961Y014263D01*
X026961Y014165D02*
X026961Y014165D01*
X026961Y014066D02*
X026961Y014066D01*
X026961Y014004D02*
X026961Y013657D01*
X027028Y013657D01*
X027037Y013648D01*
X027037Y013592D01*
X027028Y013582D01*
X026977Y013582D01*
X026977Y013641D01*
X026960Y013657D01*
X026961Y013657D01*
X026961Y014004D01*
X026961Y014004D01*
X026961Y013968D02*
X026961Y013968D01*
X026961Y013869D02*
X026961Y013869D01*
X026961Y013771D02*
X026961Y013771D01*
X026961Y013672D02*
X026961Y013672D01*
X026527Y014362D02*
X026517Y014362D01*
X024944Y013611D02*
X024927Y013628D01*
X024927Y012368D01*
X024971Y012324D01*
X024975Y012314D01*
X025345Y012685D01*
X025435Y012775D01*
X025517Y012809D01*
X025373Y012809D01*
X025373Y013204D01*
X025273Y013204D01*
X024937Y013204D01*
X024937Y012922D01*
X024946Y012889D01*
X024963Y012859D01*
X024987Y012835D01*
X025017Y012818D01*
X025050Y012809D01*
X025273Y012809D01*
X025273Y013204D01*
X025273Y013304D01*
X024937Y013304D01*
X024937Y013586D01*
X024944Y013611D01*
X024937Y013574D02*
X024927Y013574D01*
X024927Y013475D02*
X024937Y013475D01*
X024927Y013377D02*
X024937Y013377D01*
X024927Y013278D02*
X025273Y013278D01*
X025273Y013180D02*
X025373Y013180D01*
X025373Y013081D02*
X025273Y013081D01*
X025273Y012983D02*
X025373Y012983D01*
X025373Y012884D02*
X025273Y012884D01*
X025348Y012687D02*
X024927Y012687D01*
X024927Y012589D02*
X025249Y012589D01*
X025151Y012490D02*
X024927Y012490D01*
X024927Y012392D02*
X025052Y012392D01*
X024927Y012786D02*
X025461Y012786D01*
X024948Y012884D02*
X024927Y012884D01*
X024927Y012983D02*
X024937Y012983D01*
X024927Y013081D02*
X024937Y013081D01*
X024927Y013180D02*
X024937Y013180D01*
X025662Y012096D02*
X025675Y012096D01*
X025672Y011998D02*
X025563Y011998D01*
X025465Y011899D02*
X025672Y011899D01*
X025672Y011760D02*
X025672Y011537D01*
X025681Y011504D01*
X025698Y011474D01*
X025722Y011450D01*
X025752Y011433D01*
X025785Y011424D01*
X026067Y011424D01*
X026067Y011760D01*
X025672Y011760D01*
X025672Y011702D02*
X025580Y011702D01*
X025617Y011604D02*
X025672Y011604D01*
X025680Y011505D02*
X025617Y011505D01*
X025494Y011801D02*
X026067Y011801D01*
X026067Y011702D02*
X026167Y011702D01*
X026167Y011604D02*
X026067Y011604D01*
X026067Y011505D02*
X026167Y011505D01*
X025262Y011111D02*
X024471Y011111D01*
X024373Y011013D02*
X025361Y011013D01*
X025459Y010914D02*
X024274Y010914D01*
X024176Y010816D02*
X025558Y010816D01*
X025656Y010717D02*
X024127Y010717D01*
X023676Y011210D02*
X021708Y011210D01*
X021687Y011308D02*
X023774Y011308D01*
X023076Y011111D02*
X022916Y011111D01*
X022920Y011013D02*
X023053Y011013D01*
X023053Y010914D02*
X022920Y010914D01*
X022920Y010816D02*
X023053Y010816D01*
X023053Y010717D02*
X022920Y010717D01*
X022920Y010619D02*
X023070Y010619D01*
X022367Y010422D02*
X021494Y010422D01*
X021492Y010420D02*
X021492Y010420D01*
X021492Y010420D01*
X021565Y010520D02*
X022357Y010520D01*
X022265Y010619D02*
X021637Y010619D01*
X021691Y010717D02*
X022265Y010717D01*
X022265Y010816D02*
X021712Y010816D01*
X021733Y010914D02*
X022265Y010914D01*
X022265Y011013D02*
X021750Y011013D01*
X021729Y011111D02*
X022269Y011111D01*
X022672Y011407D02*
X021624Y011407D01*
X021684Y011323D02*
X021684Y011323D01*
X021552Y011505D02*
X022639Y011505D01*
X022639Y011604D02*
X021464Y011604D01*
X021492Y011587D02*
X021492Y011587D01*
X021294Y011702D02*
X022615Y011702D01*
X022516Y011801D02*
X020527Y011801D01*
X020527Y011899D02*
X022418Y011899D01*
X022319Y011998D02*
X020527Y011998D01*
X020527Y012096D02*
X022221Y012096D01*
X022122Y012195D02*
X020527Y012195D01*
X020527Y012293D02*
X022024Y012293D01*
X021925Y012392D02*
X020527Y012392D01*
X020527Y012490D02*
X021827Y012490D01*
X021728Y012589D02*
X020527Y012589D01*
X020527Y012687D02*
X021630Y012687D01*
X021531Y012786D02*
X020527Y012786D01*
X020527Y012884D02*
X020833Y012884D01*
X020775Y012983D02*
X020527Y012983D01*
X020527Y013081D02*
X020767Y013081D01*
X020767Y013180D02*
X020527Y013180D01*
X020527Y013278D02*
X020686Y013278D01*
X020587Y013377D02*
X020527Y013377D01*
X020527Y013475D02*
X020545Y013475D01*
X021269Y013968D02*
X021888Y013968D01*
X021965Y013869D02*
X021356Y013869D01*
X022023Y014559D02*
X019910Y014559D01*
X019385Y014559D02*
X016845Y014559D01*
X016845Y014460D02*
X019287Y014460D01*
X019234Y014362D02*
X016845Y014362D01*
X016845Y014263D02*
X019198Y014263D01*
X019198Y014165D02*
X016845Y014165D01*
X016845Y014066D02*
X019210Y014066D01*
X019251Y013968D02*
X016845Y013968D01*
X016845Y013869D02*
X019327Y013869D01*
X019472Y013771D02*
X016836Y013771D01*
X015867Y013672D02*
X013895Y013672D01*
X013877Y013771D02*
X015097Y013771D01*
X015088Y013869D02*
X013862Y013869D01*
X013862Y013968D02*
X015088Y013968D01*
X015088Y014066D02*
X013862Y014066D01*
X013862Y014165D02*
X015088Y014165D01*
X015088Y014263D02*
X013862Y014263D01*
X013862Y014362D02*
X015088Y014362D01*
X015088Y014460D02*
X013862Y014460D01*
X013862Y014559D02*
X015088Y014559D01*
X015088Y014657D02*
X013862Y014657D01*
X013862Y014756D02*
X015088Y014756D01*
X015155Y014854D02*
X013859Y014854D01*
X013857Y014953D02*
X015767Y014953D01*
X015767Y015051D02*
X013856Y015051D01*
X013854Y015150D02*
X015767Y015150D01*
X015767Y015248D02*
X013852Y015248D01*
X013851Y015347D02*
X015767Y015347D01*
X015767Y015445D02*
X013849Y015445D01*
X013847Y015544D02*
X015767Y015544D01*
X015767Y015642D02*
X013846Y015642D01*
X013844Y015741D02*
X015767Y015741D01*
X015767Y015839D02*
X013842Y015839D01*
X013840Y015938D02*
X015767Y015938D01*
X015767Y016036D02*
X013839Y016036D01*
X013837Y016135D02*
X014725Y016135D01*
X014647Y016233D02*
X014238Y016233D01*
X014247Y016267D01*
X014247Y016674D01*
X013927Y016674D01*
X013927Y016154D01*
X014134Y016154D01*
X014167Y016163D01*
X014196Y016180D01*
X014221Y016204D01*
X014238Y016233D01*
X014247Y016332D02*
X014647Y016332D01*
X014647Y016430D02*
X014247Y016430D01*
X014247Y016529D02*
X014647Y016529D01*
X014647Y016627D02*
X014247Y016627D01*
X014247Y016774D02*
X013927Y016774D01*
X013927Y017294D01*
X014134Y017294D01*
X014167Y017285D01*
X014196Y017268D01*
X014221Y017243D01*
X014238Y017214D01*
X014247Y017181D01*
X014247Y016774D01*
X014247Y016824D02*
X014647Y016824D01*
X014647Y016726D02*
X013927Y016726D01*
X013927Y016824D02*
X013827Y016824D01*
X013827Y016923D02*
X013927Y016923D01*
X013927Y017021D02*
X013827Y017021D01*
X013827Y017120D02*
X013927Y017120D01*
X013927Y017218D02*
X013827Y017218D01*
X013465Y017317D02*
X014729Y017317D01*
X014647Y017218D02*
X014235Y017218D01*
X014247Y017120D02*
X014647Y017120D01*
X014647Y017021D02*
X014247Y017021D01*
X014247Y016923D02*
X014647Y016923D01*
X013927Y016627D02*
X013827Y016627D01*
X013827Y016529D02*
X013927Y016529D01*
X013927Y016430D02*
X013827Y016430D01*
X013827Y016332D02*
X013927Y016332D01*
X013927Y016233D02*
X013837Y016233D01*
X013617Y016114D02*
X013639Y014847D01*
X013017Y014847D01*
X013017Y014334D01*
X012917Y014334D01*
X012917Y014847D01*
X012241Y014847D01*
X012217Y014840D01*
X012217Y015754D01*
X012467Y016004D01*
X012467Y017004D01*
X012597Y017134D01*
X012597Y016774D01*
X012917Y016774D01*
X012917Y016674D01*
X012597Y016674D01*
X012597Y016267D01*
X012606Y016233D01*
X012467Y016233D01*
X012467Y016135D02*
X013545Y016135D01*
X013566Y016114D02*
X013467Y016213D01*
X013467Y017004D01*
X013337Y017134D01*
X013337Y016774D01*
X013017Y016774D01*
X013017Y016674D01*
X013337Y016674D01*
X013337Y016267D01*
X013328Y016233D01*
X013467Y016233D01*
X013467Y016332D02*
X013337Y016332D01*
X013337Y016430D02*
X013467Y016430D01*
X013467Y016529D02*
X013337Y016529D01*
X013337Y016627D02*
X013467Y016627D01*
X013467Y016726D02*
X013017Y016726D01*
X013017Y016674D02*
X013017Y016154D01*
X013224Y016154D01*
X013257Y016163D01*
X013286Y016180D01*
X013311Y016204D01*
X013328Y016233D01*
X013566Y016114D02*
X013617Y016114D01*
X013619Y016036D02*
X012467Y016036D01*
X012401Y015938D02*
X013620Y015938D01*
X013622Y015839D02*
X012302Y015839D01*
X012217Y015741D02*
X013624Y015741D01*
X013625Y015642D02*
X012217Y015642D01*
X012217Y015544D02*
X013627Y015544D01*
X013629Y015445D02*
X012217Y015445D01*
X012217Y015347D02*
X013631Y015347D01*
X013632Y015248D02*
X012217Y015248D01*
X012217Y015150D02*
X013634Y015150D01*
X013636Y015051D02*
X012217Y015051D01*
X012217Y014953D02*
X013637Y014953D01*
X013639Y014854D02*
X012217Y014854D01*
X011997Y014854D02*
X010627Y014854D01*
X010627Y014756D02*
X011997Y014756D01*
X011997Y014657D02*
X010627Y014657D01*
X010627Y014559D02*
X011997Y014559D01*
X011997Y014460D02*
X010634Y014460D01*
X010697Y014362D02*
X011997Y014362D01*
X011997Y014263D02*
X010717Y014263D01*
X010705Y014165D02*
X011997Y014165D01*
X012217Y013727D02*
X012241Y013721D01*
X012917Y013721D01*
X012917Y014234D01*
X013017Y014234D01*
X013017Y013721D01*
X013593Y013721D01*
X013467Y013504D01*
X013117Y013504D01*
X012887Y013274D01*
X012884Y013280D01*
X012859Y013305D01*
X012830Y013322D01*
X012797Y013331D01*
X012554Y013331D01*
X012554Y012936D01*
X012454Y012936D01*
X012454Y013331D01*
X012217Y013331D01*
X012217Y013727D01*
X012217Y013672D02*
X013565Y013672D01*
X013508Y013574D02*
X012217Y013574D01*
X012217Y013475D02*
X013088Y013475D01*
X012990Y013377D02*
X012217Y013377D01*
X011997Y013377D02*
X011827Y013377D01*
X011827Y013278D02*
X011997Y013278D01*
X011997Y013180D02*
X011827Y013180D01*
X011827Y013081D02*
X011997Y013081D01*
X011997Y012983D02*
X011827Y012983D01*
X011827Y012884D02*
X011997Y012884D01*
X011997Y012786D02*
X011827Y012786D01*
X011827Y012687D02*
X011997Y012687D01*
X011997Y012589D02*
X011827Y012589D01*
X011827Y012490D02*
X011997Y012490D01*
X011997Y012392D02*
X011827Y012392D01*
X011827Y012293D02*
X011997Y012293D01*
X011997Y012195D02*
X011827Y012195D01*
X011827Y012096D02*
X011997Y012096D01*
X011997Y011998D02*
X011827Y011998D01*
X011827Y011899D02*
X011997Y011899D01*
X011997Y011801D02*
X011827Y011801D01*
X011827Y011702D02*
X011997Y011702D01*
X011997Y011604D02*
X011827Y011604D01*
X011827Y011505D02*
X011997Y011505D01*
X011997Y011407D02*
X011827Y011407D01*
X011827Y011308D02*
X012051Y011308D01*
X011827Y011210D02*
X015465Y011210D01*
X015340Y011308D02*
X013032Y011308D01*
X013310Y011407D02*
X013410Y011407D01*
X013410Y011505D02*
X013310Y011505D01*
X013310Y011604D02*
X013410Y011604D01*
X013410Y011702D02*
X013310Y011702D01*
X013410Y011801D02*
X014710Y011801D01*
X014584Y011899D02*
X013746Y011899D01*
X013746Y011998D02*
X014459Y011998D01*
X014333Y012096D02*
X013743Y012096D01*
X013648Y012195D02*
X014207Y012195D01*
X014080Y012293D02*
X013087Y012293D01*
X013087Y012392D02*
X014007Y012392D01*
X014001Y012490D02*
X013985Y012490D01*
X013656Y012490D02*
X013556Y012490D01*
X013556Y012589D02*
X013656Y012589D01*
X013656Y012687D02*
X013556Y012687D01*
X013556Y012786D02*
X013656Y012786D01*
X013556Y012884D02*
X013087Y012884D01*
X013087Y012786D02*
X013201Y012786D01*
X013201Y012687D02*
X013087Y012687D01*
X013087Y012589D02*
X013201Y012589D01*
X013227Y012490D02*
X013087Y012490D01*
X012867Y012474D02*
X012867Y012193D01*
X012846Y012199D01*
X012623Y012199D01*
X012623Y011804D01*
X012523Y011804D01*
X012523Y012199D01*
X012300Y012199D01*
X012267Y012190D01*
X012237Y012173D01*
X012217Y012152D01*
X012217Y012441D01*
X012454Y012441D01*
X012454Y012836D01*
X012554Y012836D01*
X012554Y012441D01*
X012797Y012441D01*
X012830Y012449D01*
X012859Y012467D01*
X012867Y012474D01*
X012867Y012392D02*
X012217Y012392D01*
X012217Y012293D02*
X012867Y012293D01*
X012861Y012195D02*
X012867Y012195D01*
X012623Y012195D02*
X012523Y012195D01*
X012523Y012096D02*
X012623Y012096D01*
X012623Y011998D02*
X012523Y011998D01*
X012523Y011899D02*
X012623Y011899D01*
X012285Y012195D02*
X012217Y012195D01*
X012454Y012490D02*
X012554Y012490D01*
X012554Y012589D02*
X012454Y012589D01*
X012454Y012687D02*
X012554Y012687D01*
X012554Y012786D02*
X012454Y012786D01*
X012454Y012983D02*
X012554Y012983D01*
X012554Y013081D02*
X012454Y013081D01*
X012454Y013180D02*
X012554Y013180D01*
X012554Y013278D02*
X012454Y013278D01*
X012885Y013278D02*
X012891Y013278D01*
X013104Y013180D02*
X013201Y013180D01*
X013202Y013278D02*
X013226Y013278D01*
X013201Y013081D02*
X013087Y013081D01*
X013087Y012983D02*
X013201Y012983D01*
X013994Y013574D02*
X015867Y013574D01*
X015771Y013475D02*
X014092Y013475D01*
X014191Y013377D02*
X014950Y013377D01*
X014937Y013278D02*
X014289Y013278D01*
X014388Y013180D02*
X014937Y013180D01*
X014937Y013081D02*
X014427Y013081D01*
X014427Y012983D02*
X015273Y012983D01*
X015273Y013081D02*
X015373Y013081D01*
X015373Y013180D02*
X015273Y013180D01*
X015273Y013278D02*
X015373Y013278D01*
X015373Y013377D02*
X015273Y013377D01*
X015273Y012884D02*
X015373Y012884D01*
X015373Y012786D02*
X015273Y012786D01*
X015273Y012687D02*
X015373Y012687D01*
X015373Y012589D02*
X015273Y012589D01*
X014983Y012589D02*
X014427Y012589D01*
X014427Y012687D02*
X014937Y012687D01*
X014937Y012786D02*
X014427Y012786D01*
X014427Y012884D02*
X014937Y012884D01*
X015663Y012589D02*
X015714Y012589D01*
X015014Y012096D02*
X017465Y012096D01*
X017457Y011998D02*
X015140Y011998D01*
X015266Y011899D02*
X017457Y011899D01*
X017457Y011704D02*
X017457Y011441D01*
X017466Y011408D01*
X017483Y011379D01*
X017507Y011354D01*
X017537Y011337D01*
X017570Y011328D01*
X017793Y011328D01*
X017793Y011704D01*
X017457Y011704D01*
X017457Y011702D02*
X015518Y011702D01*
X015643Y011604D02*
X017457Y011604D01*
X017457Y011505D02*
X015769Y011505D01*
X015895Y011407D02*
X017466Y011407D01*
X017793Y011407D02*
X017893Y011407D01*
X017893Y011505D02*
X017793Y011505D01*
X017793Y011604D02*
X017893Y011604D01*
X017893Y011702D02*
X017793Y011702D01*
X017793Y011801D02*
X015392Y011801D01*
X015088Y011505D02*
X013746Y011505D01*
X013742Y011407D02*
X015214Y011407D01*
X014962Y011604D02*
X013746Y011604D01*
X013746Y011702D02*
X014836Y011702D01*
X015591Y011111D02*
X011827Y011111D01*
X011827Y011013D02*
X015717Y011013D01*
X015843Y010914D02*
X011827Y010914D01*
X011827Y010816D02*
X015969Y010816D01*
X016095Y010717D02*
X011827Y010717D01*
X011827Y010619D02*
X016221Y010619D01*
X016307Y010520D02*
X011827Y010520D01*
X011827Y010422D02*
X016146Y010422D01*
X016100Y010323D02*
X011827Y010323D01*
X011827Y010225D02*
X016100Y010225D01*
X016100Y010126D02*
X011827Y010126D01*
X011827Y010028D02*
X016100Y010028D01*
X016100Y009929D02*
X011827Y009929D01*
X011827Y009831D02*
X016100Y009831D01*
X016126Y009732D02*
X011827Y009732D01*
X011827Y009634D02*
X016100Y009634D01*
X015483Y009535D02*
X011827Y009535D01*
X011827Y009437D02*
X015384Y009437D01*
X015286Y009338D02*
X011827Y009338D01*
X011827Y009240D02*
X015187Y009240D01*
X014382Y008754D02*
X014632Y008238D01*
X013991Y008353D02*
X011827Y008353D01*
X011827Y008452D02*
X013956Y008452D01*
X013956Y008550D02*
X011827Y008550D01*
X011827Y008649D02*
X013956Y008649D01*
X013956Y008747D02*
X011827Y008747D01*
X011827Y008846D02*
X013956Y008846D01*
X013956Y008944D02*
X011827Y008944D01*
X011827Y009043D02*
X013956Y009043D01*
X013978Y009141D02*
X011827Y009141D01*
X009822Y010126D02*
X009611Y010126D01*
X009709Y010323D02*
X009724Y010323D01*
X009724Y010422D02*
X009709Y010422D01*
X009709Y010520D02*
X009724Y010520D01*
X009724Y010619D02*
X009709Y010619D01*
X009709Y010717D02*
X009724Y010717D01*
X009724Y010816D02*
X009709Y010816D01*
X009709Y010914D02*
X009724Y010914D01*
X009765Y011031D02*
X009931Y011031D01*
X009964Y011040D01*
X009993Y011057D01*
X010018Y011081D01*
X010035Y011111D01*
X011407Y011111D01*
X011407Y011013D02*
X010361Y011013D01*
X010458Y010914D02*
X011407Y010914D01*
X011407Y010816D02*
X010458Y010816D01*
X010458Y010717D02*
X011407Y010717D01*
X011407Y010619D02*
X010458Y010619D01*
X010458Y010520D02*
X011407Y010520D01*
X011407Y010422D02*
X010458Y010422D01*
X009820Y011013D02*
X009613Y011013D01*
X009668Y011031D02*
X009668Y011388D01*
X009765Y011388D01*
X009765Y011031D01*
X009765Y011111D02*
X009668Y011111D01*
X009668Y011031D02*
X009503Y011031D01*
X009470Y011040D01*
X009440Y011057D01*
X009416Y011081D01*
X009399Y011111D01*
X009390Y011144D01*
X009390Y011388D01*
X009668Y011388D01*
X009668Y011485D01*
X009390Y011485D01*
X009390Y011729D01*
X009399Y011763D01*
X009416Y011792D01*
X009440Y011816D01*
X009470Y011833D01*
X009503Y011842D01*
X009668Y011842D01*
X009668Y011485D01*
X009765Y011485D01*
X010044Y011485D01*
X010044Y011729D01*
X010035Y011763D01*
X010018Y011792D01*
X009993Y011816D01*
X009964Y011833D01*
X009931Y011842D01*
X009765Y011842D01*
X009765Y011485D01*
X009765Y011388D01*
X010044Y011388D01*
X010044Y011144D01*
X010035Y011111D01*
X010044Y011210D02*
X011407Y011210D01*
X011407Y011308D02*
X010044Y011308D01*
X010044Y011505D02*
X011407Y011505D01*
X011407Y011407D02*
X009765Y011407D01*
X009668Y011407D02*
X009327Y011407D01*
X009327Y011505D02*
X009390Y011505D01*
X009390Y011604D02*
X009327Y011604D01*
X009327Y011702D02*
X009390Y011702D01*
X009424Y011801D02*
X009327Y011801D01*
X009327Y011899D02*
X011407Y011899D01*
X011407Y011801D02*
X010009Y011801D01*
X010044Y011702D02*
X011407Y011702D01*
X011407Y011604D02*
X010044Y011604D01*
X009765Y011604D02*
X009668Y011604D01*
X009668Y011702D02*
X009765Y011702D01*
X009765Y011801D02*
X009668Y011801D01*
X009668Y011505D02*
X009765Y011505D01*
X009765Y011308D02*
X009668Y011308D01*
X009668Y011210D02*
X009765Y011210D01*
X009390Y011210D02*
X009327Y011210D01*
X009327Y011308D02*
X009390Y011308D01*
X009399Y011111D02*
X009327Y011111D01*
X008907Y011111D02*
X003527Y011111D01*
X003527Y011013D02*
X008907Y011013D01*
X008907Y010914D02*
X003527Y010914D01*
X003527Y010816D02*
X008907Y010816D01*
X008956Y010717D02*
X003527Y010717D01*
X003527Y010619D02*
X008976Y010619D01*
X008976Y010520D02*
X003527Y010520D01*
X003527Y010422D02*
X008976Y010422D01*
X009074Y010126D02*
X003527Y010126D01*
X003527Y010028D02*
X009107Y010028D01*
X009107Y009929D02*
X003527Y009929D01*
X003527Y009831D02*
X009097Y009831D01*
X008998Y009732D02*
X003527Y009732D01*
X003527Y009634D02*
X008907Y009634D01*
X008907Y009535D02*
X003527Y009535D01*
X003527Y009437D02*
X008695Y009437D01*
X008647Y009338D02*
X003527Y009338D01*
X003527Y009240D02*
X008647Y009240D01*
X008647Y009141D02*
X003527Y009141D01*
X003527Y009043D02*
X008647Y009043D01*
X008647Y008944D02*
X003527Y008944D01*
X003527Y008846D02*
X008647Y008846D01*
X008647Y008747D02*
X003527Y008747D01*
X003527Y008649D02*
X008647Y008649D01*
X008715Y008550D02*
X003527Y008550D01*
X005340Y007762D02*
X005618Y007762D01*
X005520Y007664D02*
X005439Y007664D01*
X005477Y007270D02*
X005482Y007270D01*
X005531Y007171D02*
X005428Y007171D01*
X005329Y007073D02*
X005629Y007073D01*
X005943Y006777D02*
X003690Y006777D01*
X003627Y006876D02*
X006042Y006876D01*
X006117Y007073D02*
X006407Y007073D01*
X006407Y006974D02*
X003627Y006974D01*
X003754Y007073D02*
X004054Y007073D01*
X003956Y007171D02*
X003853Y007171D01*
X003902Y007270D02*
X003907Y007270D01*
X003001Y007073D02*
X002967Y007073D01*
X006128Y007762D02*
X006406Y007762D01*
X006307Y007664D02*
X006226Y007664D01*
X006264Y007270D02*
X006269Y007270D01*
X006318Y007171D02*
X006215Y007171D01*
X006827Y006974D02*
X010125Y006974D01*
X010117Y007073D02*
X009957Y007073D01*
X009839Y007073D02*
X009781Y007073D01*
X009781Y007171D02*
X009839Y007171D01*
X009839Y007270D02*
X009781Y007270D01*
X009781Y007368D02*
X009839Y007368D01*
X009839Y007467D02*
X009781Y007467D01*
X009781Y007565D02*
X009839Y007565D01*
X009839Y007664D02*
X009781Y007664D01*
X009781Y007762D02*
X009839Y007762D01*
X009636Y007762D02*
X009277Y007762D01*
X009376Y007664D02*
X009514Y007664D01*
X009458Y007565D02*
X009418Y007565D01*
X008768Y007762D02*
X008490Y007762D01*
X008588Y007664D02*
X008669Y007664D01*
X008631Y007270D02*
X008626Y007270D01*
X008577Y007171D02*
X008680Y007171D01*
X008779Y007073D02*
X008479Y007073D01*
X007991Y007073D02*
X007691Y007073D01*
X007790Y007171D02*
X007893Y007171D01*
X007844Y007270D02*
X007839Y007270D01*
X007801Y007664D02*
X007882Y007664D01*
X007980Y007762D02*
X007703Y007762D01*
X007193Y007762D02*
X006915Y007762D01*
X007014Y007664D02*
X007095Y007664D01*
X007057Y007270D02*
X007051Y007270D01*
X007003Y007171D02*
X007106Y007171D01*
X007204Y007073D02*
X006904Y007073D01*
X006827Y006876D02*
X010170Y006876D01*
X010143Y006777D02*
X006827Y006777D01*
X006827Y006679D02*
X010045Y006679D01*
X009946Y006580D02*
X006740Y006580D01*
X009266Y007073D02*
X009663Y007073D01*
X009524Y007171D02*
X009365Y007171D01*
X009414Y007270D02*
X009462Y007270D01*
X010096Y007171D02*
X010141Y007171D01*
X010158Y007270D02*
X010208Y007270D01*
X010187Y007368D02*
X010539Y007368D01*
X010605Y007467D02*
X010189Y007467D01*
X009549Y009437D02*
X009451Y009437D01*
X008907Y011210D02*
X003527Y011210D01*
X003527Y011308D02*
X008907Y011308D01*
X008907Y011407D02*
X003527Y011407D01*
X003527Y011505D02*
X008907Y011505D01*
X008907Y011604D02*
X003527Y011604D01*
X003527Y011702D02*
X008907Y011702D01*
X008907Y011801D02*
X003527Y011801D01*
X003559Y011899D02*
X008907Y011899D01*
X008907Y011998D02*
X003658Y011998D01*
X003756Y012096D02*
X008907Y012096D01*
X008907Y012195D02*
X003855Y012195D01*
X003953Y012293D02*
X008959Y012293D01*
X009058Y012392D02*
X004052Y012392D01*
X004150Y012490D02*
X009107Y012490D01*
X009107Y012589D02*
X004249Y012589D01*
X004347Y012687D02*
X009107Y012687D01*
X008980Y012786D02*
X004446Y012786D01*
X004544Y012884D02*
X008897Y012884D01*
X008897Y012983D02*
X004643Y012983D01*
X004741Y013081D02*
X008897Y013081D01*
X008897Y013180D02*
X004840Y013180D01*
X004938Y013278D02*
X008897Y013278D01*
X008897Y013377D02*
X005037Y013377D01*
X005135Y013475D02*
X008897Y013475D01*
X008897Y013574D02*
X005234Y013574D01*
X005332Y013672D02*
X008930Y013672D01*
X009107Y013771D02*
X005431Y013771D01*
X005529Y013869D02*
X009107Y013869D01*
X009107Y013968D02*
X005628Y013968D01*
X005726Y014066D02*
X009107Y014066D01*
X009107Y014165D02*
X005825Y014165D01*
X005923Y014263D02*
X009107Y014263D01*
X009107Y014362D02*
X006022Y014362D01*
X006120Y014460D02*
X009107Y014460D01*
X009107Y014559D02*
X006219Y014559D01*
X006317Y014657D02*
X009107Y014657D01*
X009107Y014756D02*
X006416Y014756D01*
X006514Y014854D02*
X009107Y014854D01*
X009107Y014953D02*
X006613Y014953D01*
X006711Y015051D02*
X009107Y015051D01*
X009107Y015150D02*
X006810Y015150D01*
X006827Y015248D02*
X009025Y015248D01*
X008927Y015347D02*
X006827Y015347D01*
X006827Y015445D02*
X008828Y015445D01*
X008730Y015544D02*
X006827Y015544D01*
X006827Y015642D02*
X008631Y015642D01*
X008533Y015741D02*
X008485Y015741D01*
X007985Y015741D02*
X007698Y015741D01*
X007797Y015839D02*
X007886Y015839D01*
X007197Y015741D02*
X006911Y015741D01*
X007009Y015839D02*
X007099Y015839D01*
X007607Y017464D02*
X005195Y017464D01*
X005273Y017496D01*
X005424Y017648D01*
X005507Y017846D01*
X005507Y017855D01*
X005539Y017792D01*
X005585Y017728D01*
X005641Y017672D01*
X005705Y017626D01*
X005775Y017590D01*
X005850Y017566D01*
X005917Y017555D01*
X005917Y018004D01*
X006017Y018004D01*
X006017Y018104D01*
X005917Y018104D01*
X005917Y018552D01*
X005850Y018541D01*
X005775Y018517D01*
X005705Y018481D01*
X005641Y018435D01*
X005585Y018379D01*
X005539Y018316D01*
X005503Y018246D01*
X005479Y018171D01*
X005474Y018140D01*
X005424Y018260D01*
X005273Y018411D01*
X005227Y018430D01*
X005227Y018480D01*
X005790Y019044D01*
X007830Y019044D01*
X008404Y018469D01*
X008264Y018469D01*
X008217Y018421D01*
X008169Y018469D01*
X007516Y018469D01*
X007417Y018369D01*
X007417Y017638D01*
X007516Y017538D01*
X007607Y017538D01*
X007607Y017464D01*
X007607Y017514D02*
X005290Y017514D01*
X005389Y017612D02*
X005732Y017612D01*
X005603Y017711D02*
X005451Y017711D01*
X005491Y017809D02*
X005530Y017809D01*
X005917Y017809D02*
X006017Y017809D01*
X006017Y017711D02*
X005917Y017711D01*
X005917Y017612D02*
X006017Y017612D01*
X006017Y017555D02*
X006084Y017566D01*
X006159Y017590D01*
X006229Y017626D01*
X006292Y017672D01*
X006348Y017728D01*
X006394Y017792D01*
X006430Y017862D01*
X006454Y017937D01*
X006465Y018004D01*
X006017Y018004D01*
X006017Y017555D01*
X006202Y017612D02*
X007443Y017612D01*
X007417Y017711D02*
X006331Y017711D01*
X006403Y017809D02*
X007417Y017809D01*
X007417Y017908D02*
X006445Y017908D01*
X006465Y018104D02*
X006017Y018104D01*
X006017Y018552D01*
X006084Y018541D01*
X006159Y018517D01*
X006229Y018481D01*
X006292Y018435D01*
X006348Y018379D01*
X006394Y018316D01*
X006430Y018246D01*
X006454Y018171D01*
X006465Y018104D01*
X006465Y018105D02*
X007417Y018105D01*
X007417Y018203D02*
X006444Y018203D01*
X006401Y018302D02*
X007417Y018302D01*
X007448Y018400D02*
X006327Y018400D01*
X006195Y018499D02*
X008375Y018499D01*
X008276Y018597D02*
X005344Y018597D01*
X005442Y018696D02*
X008178Y018696D01*
X008079Y018794D02*
X005541Y018794D01*
X005639Y018893D02*
X007981Y018893D01*
X007882Y018991D02*
X005738Y018991D01*
X005439Y019287D02*
X002217Y019287D01*
X002217Y019385D02*
X005538Y019385D01*
X005341Y019188D02*
X002217Y019188D01*
X002217Y019090D02*
X005242Y019090D01*
X005144Y018991D02*
X002217Y018991D01*
X002217Y018893D02*
X005045Y018893D01*
X004947Y018794D02*
X002217Y018794D01*
X002217Y018696D02*
X004848Y018696D01*
X004807Y018597D02*
X002217Y018597D01*
X002217Y018499D02*
X003648Y018499D01*
X003550Y018400D02*
X002217Y018400D01*
X002217Y018302D02*
X003485Y018302D01*
X003444Y018203D02*
X002217Y018203D01*
X002217Y018105D02*
X003427Y018105D01*
X003427Y018006D02*
X002217Y018006D01*
X002217Y017908D02*
X003443Y017908D01*
X003483Y017809D02*
X002217Y017809D01*
X002217Y017711D02*
X003546Y017711D01*
X003378Y017612D02*
X002217Y017612D01*
X002217Y017514D02*
X003280Y017514D01*
X003181Y017415D02*
X002217Y017415D01*
X002217Y017317D02*
X003083Y017317D01*
X002984Y017218D02*
X002217Y017218D01*
X002217Y017120D02*
X002886Y017120D01*
X002787Y017021D02*
X002217Y017021D01*
X002217Y016923D02*
X002689Y016923D01*
X002590Y016824D02*
X002217Y016824D01*
X002217Y016726D02*
X002492Y016726D01*
X002393Y016627D02*
X002217Y016627D01*
X002217Y016529D02*
X002295Y016529D01*
X004448Y018302D02*
X004551Y018302D01*
X004650Y018400D02*
X004384Y018400D01*
X004285Y018499D02*
X004807Y018499D01*
X005245Y018499D02*
X005739Y018499D01*
X005606Y018400D02*
X005284Y018400D01*
X005382Y018302D02*
X005532Y018302D01*
X005490Y018203D02*
X005448Y018203D01*
X005917Y018203D02*
X006017Y018203D01*
X006017Y018105D02*
X005917Y018105D01*
X006017Y018006D02*
X007417Y018006D01*
X006017Y017908D02*
X005917Y017908D01*
X005917Y018302D02*
X006017Y018302D01*
X006017Y018400D02*
X005917Y018400D01*
X005917Y018499D02*
X006017Y018499D01*
X008082Y019385D02*
X012795Y019385D01*
X012696Y019287D02*
X008181Y019287D01*
X008279Y019188D02*
X012598Y019188D01*
X012499Y019090D02*
X008378Y019090D01*
X008476Y018991D02*
X012401Y018991D01*
X012304Y018893D02*
X008575Y018893D01*
X008673Y018794D02*
X012267Y018794D01*
X012267Y018696D02*
X008772Y018696D01*
X008827Y018597D02*
X012066Y018597D01*
X012058Y018499D02*
X008827Y018499D01*
X008986Y018400D02*
X009198Y018400D01*
X009167Y018302D02*
X009017Y018302D01*
X010527Y017514D02*
X012023Y017514D01*
X012122Y017612D02*
X010741Y017612D01*
X010767Y017711D02*
X012220Y017711D01*
X012068Y017809D02*
X010767Y017809D01*
X010767Y017908D02*
X012058Y017908D01*
X012058Y018006D02*
X010767Y018006D01*
X010767Y018105D02*
X012058Y018105D01*
X012058Y018203D02*
X010767Y018203D01*
X010767Y018302D02*
X012058Y018302D01*
X012058Y018400D02*
X010736Y018400D01*
X010527Y017415D02*
X011925Y017415D01*
X011729Y017317D02*
X010527Y017317D01*
X010549Y017218D02*
X011647Y017218D01*
X011647Y017120D02*
X010627Y017120D01*
X010627Y017021D02*
X011647Y017021D01*
X011647Y016923D02*
X010627Y016923D01*
X010627Y016824D02*
X011647Y016824D01*
X011647Y016726D02*
X010627Y016726D01*
X010627Y016627D02*
X011647Y016627D01*
X011647Y016529D02*
X010627Y016529D01*
X010627Y016430D02*
X011647Y016430D01*
X011647Y016332D02*
X010627Y016332D01*
X010627Y016233D02*
X011647Y016233D01*
X011725Y016135D02*
X010627Y016135D01*
X010627Y016036D02*
X012188Y016036D01*
X012090Y015938D02*
X010627Y015938D01*
X010627Y015839D02*
X011997Y015839D01*
X011997Y015741D02*
X010627Y015741D01*
X010627Y015642D02*
X011997Y015642D01*
X011997Y015544D02*
X010627Y015544D01*
X010627Y015445D02*
X011997Y015445D01*
X011997Y015347D02*
X010627Y015347D01*
X010627Y015248D02*
X011997Y015248D01*
X011997Y015150D02*
X010627Y015150D01*
X010627Y015051D02*
X011997Y015051D01*
X011997Y014953D02*
X010627Y014953D01*
X010447Y013672D02*
X011317Y013672D01*
X011325Y013574D02*
X010496Y013574D01*
X010496Y013475D02*
X011371Y013475D01*
X011407Y013377D02*
X010496Y013377D01*
X010496Y013180D02*
X011407Y013180D01*
X011407Y013278D02*
X010160Y013278D01*
X010160Y013180D02*
X010060Y013180D01*
X010060Y013081D02*
X010160Y013081D01*
X010160Y012983D02*
X010060Y012983D01*
X010060Y012884D02*
X010160Y012884D01*
X010485Y012884D02*
X011407Y012884D01*
X011407Y012786D02*
X009666Y012786D01*
X009527Y012687D02*
X011407Y012687D01*
X011407Y012589D02*
X009527Y012589D01*
X009527Y012490D02*
X011407Y012490D01*
X011407Y012392D02*
X009527Y012392D01*
X009527Y012293D02*
X011407Y012293D01*
X011407Y012195D02*
X009455Y012195D01*
X009356Y012096D02*
X011407Y012096D01*
X011407Y011998D02*
X009327Y011998D01*
X010496Y012983D02*
X011407Y012983D01*
X011407Y013081D02*
X010496Y013081D01*
X010160Y013377D02*
X010060Y013377D01*
X010060Y013475D02*
X010160Y013475D01*
X010160Y013574D02*
X010060Y013574D01*
X010060Y013672D02*
X010160Y013672D01*
X009774Y013672D02*
X009716Y013672D01*
X011862Y013475D02*
X011997Y013475D01*
X011997Y013574D02*
X011908Y013574D01*
X011917Y013672D02*
X011997Y013672D01*
X012917Y013771D02*
X013017Y013771D01*
X013017Y013869D02*
X012917Y013869D01*
X012917Y013968D02*
X013017Y013968D01*
X013017Y014066D02*
X012917Y014066D01*
X012917Y014165D02*
X013017Y014165D01*
X013017Y014362D02*
X012917Y014362D01*
X012917Y014460D02*
X013017Y014460D01*
X013017Y014559D02*
X012917Y014559D01*
X012917Y014657D02*
X013017Y014657D01*
X013017Y014756D02*
X012917Y014756D01*
X012917Y016154D02*
X012710Y016154D01*
X012676Y016163D01*
X012647Y016180D01*
X012623Y016204D01*
X012606Y016233D01*
X012597Y016332D02*
X012467Y016332D01*
X012467Y016430D02*
X012597Y016430D01*
X012597Y016529D02*
X012467Y016529D01*
X012467Y016627D02*
X012597Y016627D01*
X012467Y016726D02*
X012917Y016726D01*
X012917Y016674D02*
X013017Y016674D01*
X013017Y016627D02*
X012917Y016627D01*
X012917Y016674D02*
X012917Y016154D01*
X012917Y016233D02*
X013017Y016233D01*
X013017Y016332D02*
X012917Y016332D01*
X012917Y016430D02*
X013017Y016430D01*
X013017Y016529D02*
X012917Y016529D01*
X012597Y016824D02*
X012467Y016824D01*
X012467Y016923D02*
X012597Y016923D01*
X012597Y017021D02*
X012484Y017021D01*
X012583Y017120D02*
X012597Y017120D01*
X012729Y017514D02*
X014923Y017514D01*
X015022Y017612D02*
X012767Y017612D01*
X012767Y017711D02*
X015120Y017711D01*
X015029Y017809D02*
X013986Y017809D01*
X013986Y017810D02*
X014003Y017839D01*
X014012Y017872D01*
X014012Y018154D01*
X013656Y018154D01*
X013656Y017759D01*
X013899Y017759D01*
X013932Y017768D01*
X013962Y017785D01*
X013986Y017810D01*
X014012Y017908D02*
X014970Y017908D01*
X014970Y018006D02*
X014012Y018006D01*
X014012Y018105D02*
X014970Y018105D01*
X014970Y018203D02*
X013656Y018203D01*
X013656Y018154D02*
X013656Y018254D01*
X013556Y018254D01*
X013556Y018154D01*
X013656Y018154D01*
X013656Y018105D02*
X013556Y018105D01*
X013556Y018154D02*
X013556Y017759D01*
X013314Y017759D01*
X013281Y017768D01*
X013251Y017785D01*
X013227Y017810D01*
X013210Y017839D01*
X013201Y017872D01*
X013201Y018154D01*
X013556Y018154D01*
X013556Y018203D02*
X012950Y018203D01*
X012950Y018105D02*
X013201Y018105D01*
X013201Y018006D02*
X012950Y018006D01*
X012950Y017908D02*
X013201Y017908D01*
X013227Y017809D02*
X012940Y017809D01*
X013556Y017809D02*
X013656Y017809D01*
X013656Y017908D02*
X013556Y017908D01*
X013556Y018006D02*
X013656Y018006D01*
X013656Y018254D02*
X014012Y018254D01*
X014012Y018537D01*
X014003Y018570D01*
X013986Y018599D01*
X013962Y018623D01*
X013932Y018641D01*
X013899Y018649D01*
X013656Y018649D01*
X013656Y018254D01*
X013656Y018302D02*
X013556Y018302D01*
X013556Y018254D02*
X013556Y018649D01*
X013314Y018649D01*
X013281Y018641D01*
X013251Y018623D01*
X013227Y018599D01*
X013210Y018570D01*
X013201Y018537D01*
X013201Y018254D01*
X013556Y018254D01*
X013556Y018400D02*
X013656Y018400D01*
X013656Y018499D02*
X013556Y018499D01*
X013556Y018597D02*
X013656Y018597D01*
X013987Y018597D02*
X014970Y018597D01*
X014970Y018499D02*
X014012Y018499D01*
X014012Y018400D02*
X014970Y018400D01*
X014970Y018302D02*
X014012Y018302D01*
X015027Y018696D02*
X012812Y018696D01*
X012911Y018794D02*
X015158Y018794D01*
X015117Y018893D02*
X013009Y018893D01*
X013108Y018991D02*
X015117Y018991D01*
X016015Y019484D02*
X030717Y019484D01*
X030717Y019385D02*
X024893Y019385D01*
X024824Y019414D02*
X024609Y019414D01*
X024411Y019331D01*
X024259Y019180D01*
X024177Y018981D01*
X024177Y018026D01*
X024259Y017828D01*
X024411Y017676D01*
X024609Y017594D01*
X024824Y017594D01*
X025023Y017676D01*
X025174Y017828D01*
X025239Y017985D01*
X025253Y017942D01*
X025289Y017872D01*
X025335Y017808D01*
X025391Y017752D01*
X025455Y017706D01*
X025525Y017670D01*
X025600Y017646D01*
X025667Y017635D01*
X025667Y018454D01*
X025767Y018454D01*
X025767Y018554D01*
X025667Y018554D01*
X025667Y019372D01*
X025600Y019361D01*
X025525Y019337D01*
X025455Y019301D01*
X025391Y019255D01*
X025335Y019199D01*
X025289Y019136D01*
X025253Y019066D01*
X025239Y019023D01*
X025174Y019180D01*
X025023Y019331D01*
X024824Y019414D01*
X025067Y019287D02*
X025435Y019287D01*
X025327Y019188D02*
X025166Y019188D01*
X025212Y019090D02*
X025266Y019090D01*
X025667Y019090D02*
X025767Y019090D01*
X025767Y019188D02*
X025667Y019188D01*
X025667Y019287D02*
X025767Y019287D01*
X025767Y019372D02*
X025767Y018554D01*
X026217Y018554D01*
X026217Y018913D01*
X026204Y018991D01*
X030717Y018991D01*
X030717Y018893D02*
X026217Y018893D01*
X026204Y018991D02*
X026180Y019066D01*
X026144Y019136D01*
X026098Y019199D01*
X026042Y019255D01*
X025979Y019301D01*
X025909Y019337D01*
X025834Y019361D01*
X025767Y019372D01*
X025999Y019287D02*
X030717Y019287D01*
X030717Y019188D02*
X026106Y019188D01*
X026168Y019090D02*
X030717Y019090D01*
X030717Y018794D02*
X029107Y018794D01*
X029215Y018750D02*
X028892Y018884D01*
X028542Y018884D01*
X028218Y018750D01*
X027971Y018502D01*
X027837Y018179D01*
X027837Y017829D01*
X027971Y017505D01*
X028218Y017258D01*
X028542Y017124D01*
X028892Y017124D01*
X029215Y017258D01*
X029463Y017505D01*
X029597Y017829D01*
X029597Y018179D01*
X029463Y018502D01*
X029215Y018750D01*
X029269Y018696D02*
X030717Y018696D01*
X030717Y018597D02*
X029368Y018597D01*
X029464Y018499D02*
X030717Y018499D01*
X030717Y018400D02*
X029505Y018400D01*
X029546Y018302D02*
X030717Y018302D01*
X030717Y018203D02*
X029586Y018203D01*
X029597Y018105D02*
X030717Y018105D01*
X030717Y018006D02*
X029597Y018006D01*
X029597Y017908D02*
X030717Y017908D01*
X030717Y017809D02*
X029589Y017809D01*
X029548Y017711D02*
X030717Y017711D01*
X030717Y017612D02*
X029507Y017612D01*
X029466Y017514D02*
X030717Y017514D01*
X030717Y017415D02*
X029373Y017415D01*
X029274Y017317D02*
X030717Y017317D01*
X030717Y017218D02*
X029120Y017218D01*
X028314Y017218D02*
X022506Y017218D01*
X022540Y017204D02*
X022375Y017273D01*
X022196Y017273D01*
X022031Y017204D01*
X021904Y017077D01*
X021836Y016912D01*
X021836Y016733D01*
X021904Y016568D01*
X022031Y016441D01*
X022196Y016373D01*
X022375Y016373D01*
X022540Y016441D01*
X022667Y016568D01*
X022736Y016733D01*
X022736Y016912D01*
X022667Y017077D01*
X022540Y017204D01*
X022625Y017120D02*
X030717Y017120D01*
X030717Y017021D02*
X022690Y017021D01*
X022731Y016923D02*
X030717Y016923D01*
X030717Y016824D02*
X022736Y016824D01*
X022733Y016726D02*
X030717Y016726D01*
X030717Y016627D02*
X022692Y016627D01*
X022628Y016529D02*
X030717Y016529D01*
X030717Y016430D02*
X022514Y016430D01*
X022057Y016430D02*
X019876Y016430D01*
X019903Y016441D02*
X020029Y016568D01*
X020098Y016733D01*
X020098Y016912D01*
X020029Y017077D01*
X019903Y017204D01*
X019737Y017273D01*
X019558Y017273D01*
X019393Y017204D01*
X019266Y017077D01*
X019198Y016912D01*
X019198Y016733D01*
X019266Y016568D01*
X019393Y016441D01*
X019558Y016373D01*
X019737Y016373D01*
X019903Y016441D01*
X019990Y016529D02*
X021943Y016529D01*
X021879Y016627D02*
X020054Y016627D01*
X020095Y016726D02*
X021839Y016726D01*
X021836Y016824D02*
X020098Y016824D01*
X020093Y016923D02*
X021840Y016923D01*
X021881Y017021D02*
X021251Y017021D01*
X021222Y016992D02*
X021348Y017119D01*
X021417Y017284D01*
X021417Y017463D01*
X021348Y017629D01*
X021222Y017755D01*
X021056Y017824D01*
X020877Y017824D01*
X020712Y017755D01*
X020585Y017629D01*
X020517Y017463D01*
X020517Y017284D01*
X020585Y017119D01*
X020712Y016992D01*
X020877Y016924D01*
X021056Y016924D01*
X021222Y016992D01*
X021349Y017120D02*
X021946Y017120D01*
X022065Y017218D02*
X021389Y017218D01*
X021417Y017317D02*
X028159Y017317D01*
X028061Y017415D02*
X021417Y017415D01*
X021396Y017514D02*
X027967Y017514D01*
X027926Y017612D02*
X024869Y017612D01*
X025057Y017711D02*
X025448Y017711D01*
X025334Y017809D02*
X025156Y017809D01*
X025208Y017908D02*
X025271Y017908D01*
X025667Y017908D02*
X025767Y017908D01*
X025767Y018006D02*
X025667Y018006D01*
X025667Y018105D02*
X025767Y018105D01*
X025767Y018203D02*
X025667Y018203D01*
X025667Y018302D02*
X025767Y018302D01*
X025767Y018400D02*
X025667Y018400D01*
X025767Y018454D02*
X025767Y017635D01*
X025834Y017646D01*
X025909Y017670D01*
X025979Y017706D01*
X026042Y017752D01*
X026098Y017808D01*
X026144Y017872D01*
X026180Y017942D01*
X026204Y018017D01*
X026217Y018094D01*
X026217Y018454D01*
X025767Y018454D01*
X025767Y018499D02*
X027969Y018499D01*
X027929Y018400D02*
X026217Y018400D01*
X026217Y018302D02*
X027888Y018302D01*
X027847Y018203D02*
X026217Y018203D01*
X026217Y018105D02*
X027837Y018105D01*
X027837Y018006D02*
X026201Y018006D01*
X026163Y017908D02*
X027837Y017908D01*
X027845Y017809D02*
X026099Y017809D01*
X025985Y017711D02*
X027886Y017711D01*
X028066Y018597D02*
X026217Y018597D01*
X026217Y018696D02*
X028164Y018696D01*
X028326Y018794D02*
X026217Y018794D01*
X025767Y018794D02*
X025667Y018794D01*
X025667Y018696D02*
X025767Y018696D01*
X025767Y018597D02*
X025667Y018597D01*
X025667Y018893D02*
X025767Y018893D01*
X025767Y018991D02*
X025667Y018991D01*
X024541Y019385D02*
X016133Y019385D01*
X016167Y019287D02*
X024366Y019287D01*
X024268Y019188D02*
X016167Y019188D01*
X016167Y019090D02*
X024222Y019090D01*
X024181Y018991D02*
X016167Y018991D01*
X016167Y018893D02*
X024177Y018893D01*
X024177Y018794D02*
X016167Y018794D01*
X016167Y018696D02*
X016214Y018696D01*
X016468Y018696D02*
X016568Y018696D01*
X016568Y018699D02*
X016568Y018304D01*
X016923Y018304D01*
X016923Y018586D01*
X016915Y018619D01*
X016897Y018648D01*
X016873Y018673D01*
X016844Y018690D01*
X016811Y018699D01*
X016568Y018699D01*
X016568Y018597D02*
X016468Y018597D01*
X016468Y018499D02*
X016568Y018499D01*
X016568Y018400D02*
X016468Y018400D01*
X016568Y018302D02*
X024177Y018302D01*
X024177Y018400D02*
X016923Y018400D01*
X016923Y018499D02*
X024177Y018499D01*
X024177Y018597D02*
X016920Y018597D01*
X016821Y018696D02*
X024177Y018696D01*
X024177Y018203D02*
X016923Y018203D01*
X016923Y018105D02*
X024177Y018105D01*
X024185Y018006D02*
X016923Y018006D01*
X016920Y017908D02*
X024226Y017908D01*
X024277Y017809D02*
X021091Y017809D01*
X021266Y017711D02*
X024376Y017711D01*
X024564Y017612D02*
X021355Y017612D01*
X020842Y017809D02*
X016812Y017809D01*
X016568Y017809D02*
X016568Y018204D01*
X016468Y018204D01*
X016468Y017809D01*
X016468Y017908D02*
X016568Y017908D01*
X016568Y018006D02*
X016468Y018006D01*
X016468Y018105D02*
X016568Y018105D01*
X016568Y018203D02*
X016468Y018203D01*
X016223Y017809D02*
X016167Y017809D01*
X016213Y017711D02*
X020667Y017711D01*
X020578Y017612D02*
X016276Y017612D01*
X016317Y017514D02*
X020538Y017514D01*
X020517Y017415D02*
X016317Y017415D01*
X016294Y017317D02*
X020517Y017317D01*
X020544Y017218D02*
X019869Y017218D01*
X019987Y017120D02*
X020585Y017120D01*
X020683Y017021D02*
X020053Y017021D01*
X019427Y017218D02*
X017235Y017218D01*
X017238Y017214D02*
X017221Y017243D01*
X017196Y017268D01*
X017167Y017285D01*
X017134Y017294D01*
X016927Y017294D01*
X016927Y016774D01*
X016827Y016774D01*
X016827Y017294D01*
X016620Y017294D01*
X016586Y017285D01*
X016557Y017268D01*
X016533Y017243D01*
X016516Y017214D01*
X016507Y017181D01*
X016507Y016774D01*
X016827Y016774D01*
X016827Y016674D01*
X016507Y016674D01*
X016507Y016267D01*
X016516Y016233D01*
X016377Y016233D01*
X016377Y016332D02*
X016507Y016332D01*
X016507Y016430D02*
X016377Y016430D01*
X016377Y016529D02*
X016507Y016529D01*
X016507Y016627D02*
X016377Y016627D01*
X016377Y016726D02*
X016827Y016726D01*
X016827Y016674D02*
X016927Y016674D01*
X016927Y016774D01*
X017247Y016774D01*
X017247Y017181D01*
X017238Y017214D01*
X017247Y017120D02*
X019309Y017120D01*
X019243Y017021D02*
X017247Y017021D01*
X017247Y016923D02*
X019202Y016923D01*
X019198Y016824D02*
X017247Y016824D01*
X017247Y016674D02*
X016927Y016674D01*
X016927Y016154D01*
X017134Y016154D01*
X017167Y016163D01*
X017196Y016180D01*
X017221Y016204D01*
X017238Y016233D01*
X020531Y016233D01*
X020409Y016135D02*
X016298Y016135D01*
X016267Y016036D02*
X020310Y016036D01*
X020237Y015938D02*
X016267Y015938D01*
X016267Y015839D02*
X020196Y015839D01*
X020155Y015741D02*
X016267Y015741D01*
X016267Y015642D02*
X020126Y015642D01*
X020126Y015544D02*
X016267Y015544D01*
X016267Y015445D02*
X020126Y015445D01*
X020126Y015347D02*
X016267Y015347D01*
X016267Y015248D02*
X020163Y015248D01*
X020203Y015150D02*
X016267Y015150D01*
X016267Y015051D02*
X020244Y015051D01*
X020329Y014953D02*
X016267Y014953D01*
X016778Y014854D02*
X020427Y014854D01*
X021357Y014756D02*
X024507Y014756D01*
X024520Y014854D02*
X021506Y014854D01*
X021604Y014953D02*
X024619Y014953D01*
X024717Y015051D02*
X021689Y015051D01*
X021730Y015150D02*
X024732Y015150D01*
X024794Y015248D02*
X021771Y015248D01*
X021807Y015347D02*
X024779Y015347D01*
X024772Y015445D02*
X021807Y015445D01*
X021524Y016135D02*
X030717Y016135D01*
X030717Y016233D02*
X021402Y016233D01*
X021164Y016332D02*
X030717Y016332D01*
X026751Y015938D02*
X025657Y015938D01*
X025662Y015839D02*
X026542Y015839D01*
X026460Y015741D02*
X025662Y015741D01*
X025267Y015741D02*
X025167Y015741D01*
X025167Y015839D02*
X025267Y015839D01*
X025267Y015938D02*
X025167Y015938D01*
X025167Y015544D02*
X025267Y015544D01*
X025267Y015445D02*
X025167Y015445D01*
X025167Y015347D02*
X025267Y015347D01*
X025667Y017711D02*
X025767Y017711D01*
X025767Y017809D02*
X025667Y017809D01*
X020769Y016332D02*
X017247Y016332D01*
X017247Y016267D02*
X017247Y016674D01*
X017247Y016627D02*
X019242Y016627D01*
X019201Y016726D02*
X016927Y016726D01*
X016927Y016824D02*
X016827Y016824D01*
X016827Y016923D02*
X016927Y016923D01*
X016927Y017021D02*
X016827Y017021D01*
X016827Y017120D02*
X016927Y017120D01*
X016927Y017218D02*
X016827Y017218D01*
X016518Y017218D02*
X016377Y017218D01*
X016377Y017120D02*
X016507Y017120D01*
X016507Y017021D02*
X016377Y017021D01*
X016377Y016923D02*
X016507Y016923D01*
X016507Y016824D02*
X016377Y016824D01*
X016827Y016674D02*
X016827Y016154D01*
X016620Y016154D01*
X016586Y016163D01*
X016557Y016180D01*
X016533Y016204D01*
X016516Y016233D01*
X016827Y016233D02*
X016927Y016233D01*
X016927Y016332D02*
X016827Y016332D01*
X016827Y016430D02*
X016927Y016430D01*
X016927Y016529D02*
X016827Y016529D01*
X016827Y016627D02*
X016927Y016627D01*
X017247Y016529D02*
X019305Y016529D01*
X019419Y016430D02*
X017247Y016430D01*
X017247Y016267D02*
X017238Y016233D01*
X015635Y016135D02*
X015388Y016135D01*
X015467Y016233D02*
X015557Y016233D01*
X015557Y016332D02*
X015467Y016332D01*
X015467Y016430D02*
X015557Y016430D01*
X015557Y016529D02*
X015467Y016529D01*
X015467Y016627D02*
X015557Y016627D01*
X015557Y016726D02*
X015467Y016726D01*
X015467Y016824D02*
X015557Y016824D01*
X015557Y016923D02*
X015467Y016923D01*
X015467Y017021D02*
X015557Y017021D01*
X015557Y017120D02*
X015467Y017120D01*
X015467Y017218D02*
X015557Y017218D01*
X015639Y017317D02*
X015433Y017317D01*
X015532Y017415D02*
X015717Y017415D01*
X015704Y017514D02*
X015629Y017514D01*
X015667Y017604D02*
X015667Y017769D01*
X015667Y017769D01*
X015667Y017604D01*
X015667Y017612D02*
X015667Y017612D01*
X015667Y017711D02*
X015667Y017711D01*
X014825Y017415D02*
X013366Y017415D01*
X013351Y017120D02*
X013337Y017120D01*
X013337Y017021D02*
X013449Y017021D01*
X013467Y016923D02*
X013337Y016923D01*
X013337Y016824D02*
X013467Y016824D01*
X013201Y018302D02*
X012950Y018302D01*
X012950Y018400D02*
X013201Y018400D01*
X013201Y018499D02*
X012950Y018499D01*
X012942Y018597D02*
X013226Y018597D01*
X012919Y019484D02*
X002217Y019484D01*
X013310Y012195D02*
X013410Y012195D01*
X013410Y012096D02*
X013310Y012096D01*
X013310Y011998D02*
X013410Y011998D01*
X013410Y011899D02*
X013310Y011899D01*
X016021Y011308D02*
X018245Y011308D01*
X018958Y010816D02*
X016976Y010816D01*
X016877Y010717D02*
X019056Y010717D01*
X019155Y010619D02*
X016779Y010619D01*
X016727Y010520D02*
X019253Y010520D01*
X019352Y010422D02*
X017971Y010422D01*
X017964Y010426D02*
X017931Y010435D01*
X017765Y010435D01*
X017765Y010137D01*
X018044Y010137D01*
X018044Y010322D01*
X018035Y010355D01*
X018018Y010385D01*
X017993Y010409D01*
X017964Y010426D01*
X018043Y010323D02*
X019450Y010323D01*
X019549Y010225D02*
X018044Y010225D01*
X018044Y010028D02*
X019746Y010028D01*
X019844Y009929D02*
X018044Y009929D01*
X018037Y009831D02*
X019943Y009831D01*
X020041Y009732D02*
X018057Y009732D01*
X018084Y009634D02*
X020140Y009634D01*
X020238Y009535D02*
X018084Y009535D01*
X018084Y009437D02*
X020337Y009437D01*
X020435Y009338D02*
X018084Y009338D01*
X018084Y009240D02*
X020534Y009240D01*
X020632Y009141D02*
X018084Y009141D01*
X017994Y009043D02*
X020731Y009043D01*
X020829Y008944D02*
X017577Y008944D01*
X018360Y008397D02*
X018467Y008397D01*
X019498Y008397D01*
X020164Y008397D01*
X021210Y008452D02*
X021322Y008452D01*
X021292Y008353D02*
X021420Y008353D01*
X020801Y006819D02*
X020926Y006754D01*
X018632Y006754D02*
X017860Y006754D01*
X016961Y008338D02*
X016717Y008338D01*
X016717Y008254D01*
X015967Y008254D01*
X015967Y008338D01*
X016834Y009634D02*
X017350Y009634D01*
X017376Y009732D02*
X016807Y009732D01*
X016834Y009831D02*
X017396Y009831D01*
X017390Y009929D02*
X016834Y009929D01*
X016834Y010028D02*
X017390Y010028D01*
X017390Y010225D02*
X016834Y010225D01*
X016834Y010323D02*
X017390Y010323D01*
X017462Y010422D02*
X016787Y010422D01*
X016834Y010126D02*
X017668Y010126D01*
X017765Y010126D02*
X019647Y010126D01*
X021325Y010323D02*
X022367Y010323D01*
X024718Y011210D02*
X025164Y011210D01*
X025107Y011308D02*
X024874Y011308D01*
X024972Y011407D02*
X025053Y011407D01*
X026980Y012687D02*
X027070Y012687D01*
X027037Y012786D02*
X026977Y012786D01*
X026977Y012884D02*
X027033Y012884D01*
X021209Y011751D02*
X021209Y011751D01*
X020630Y011702D02*
X020527Y011702D01*
X017893Y011899D02*
X017793Y011899D01*
X017793Y011998D02*
X017893Y011998D01*
X017893Y012096D02*
X017793Y012096D01*
X016776Y011210D02*
X016147Y011210D01*
X016273Y011111D02*
X016677Y011111D01*
X016579Y011013D02*
X016399Y011013D01*
X017668Y010422D02*
X017765Y010422D01*
X017765Y010323D02*
X017668Y010323D01*
X017668Y010225D02*
X017765Y010225D01*
X018928Y008747D02*
X019135Y008747D01*
X019092Y008649D02*
X018952Y008649D01*
X024255Y005595D02*
X024419Y005595D01*
X024419Y005497D02*
X024157Y005497D01*
X023932Y005398D02*
X024419Y005398D01*
X024419Y005300D02*
X023927Y005300D01*
X023927Y005201D02*
X024419Y005201D01*
X024419Y005103D02*
X023927Y005103D01*
X023927Y005004D02*
X024419Y005004D01*
X024459Y004906D02*
X023927Y004906D01*
X023927Y004807D02*
X024459Y004807D01*
X024489Y004709D02*
X023927Y004709D01*
X023927Y004610D02*
X025907Y004610D01*
X025907Y004709D02*
X025161Y004709D01*
X025191Y004807D02*
X025907Y004807D01*
X025907Y004906D02*
X025191Y004906D01*
X025231Y005004D02*
X025907Y005004D01*
X025969Y005103D02*
X025231Y005103D01*
X025231Y005201D02*
X026067Y005201D01*
X026166Y005300D02*
X025231Y005300D01*
X025231Y005398D02*
X025925Y005398D01*
X026259Y005398D02*
X026264Y005398D01*
X026351Y005497D02*
X026363Y005497D01*
X026392Y005595D02*
X026461Y005595D01*
X026392Y005694D02*
X026560Y005694D01*
X026658Y005792D02*
X026359Y005792D01*
X026279Y005891D02*
X026702Y005891D01*
X026702Y005989D02*
X025949Y005989D01*
X025904Y005891D02*
X025851Y005891D01*
X026048Y006088D02*
X026702Y006088D01*
X026687Y006186D02*
X026077Y006186D01*
X026077Y006285D02*
X026357Y006285D01*
X026238Y006383D02*
X026077Y006383D01*
X026077Y006482D02*
X026197Y006482D01*
X025986Y007073D02*
X025927Y007073D01*
X025927Y007171D02*
X026107Y007171D01*
X026107Y007270D02*
X025927Y007270D01*
X025927Y007368D02*
X026107Y007368D01*
X026107Y007467D02*
X025927Y007467D01*
X025927Y007565D02*
X026081Y007565D01*
X026029Y007664D02*
X025927Y007664D01*
X025927Y007762D02*
X026017Y007762D01*
X026036Y007861D02*
X025927Y007861D01*
X025927Y007959D02*
X026098Y007959D01*
X025507Y007959D02*
X024727Y007959D01*
X024727Y007861D02*
X025507Y007861D01*
X025507Y007762D02*
X024722Y007762D01*
X024931Y007664D02*
X025507Y007664D01*
X025507Y007565D02*
X024995Y007565D01*
X025017Y007467D02*
X025507Y007467D01*
X025507Y007368D02*
X025148Y007368D01*
X025231Y007270D02*
X025507Y007270D01*
X025507Y007171D02*
X025231Y007171D01*
X025231Y007073D02*
X025507Y007073D01*
X025238Y006974D02*
X025231Y006974D01*
X026527Y007368D02*
X026786Y007368D01*
X026527Y007467D02*
X027607Y007467D01*
X027607Y007565D02*
X026552Y007565D01*
X027431Y007368D02*
X027607Y007368D01*
X027607Y007270D02*
X027515Y007270D01*
X027515Y007171D02*
X027607Y007171D01*
X027607Y007073D02*
X027515Y007073D01*
X027515Y006974D02*
X027607Y006974D01*
X027607Y006876D02*
X027515Y006876D01*
X029427Y006383D02*
X030717Y006383D01*
X030717Y006285D02*
X029427Y006285D01*
X029427Y006186D02*
X030717Y006186D01*
X030717Y006088D02*
X029427Y006088D01*
X029427Y005989D02*
X030717Y005989D01*
X030717Y005891D02*
X029427Y005891D01*
X029427Y005792D02*
X030717Y005792D01*
X030717Y005694D02*
X029427Y005694D01*
X029427Y005595D02*
X030717Y005595D01*
X030717Y005497D02*
X029427Y005497D01*
X029333Y005398D02*
X030717Y005398D01*
X030717Y005300D02*
X029235Y005300D01*
X029136Y005201D02*
X030717Y005201D01*
X030717Y005103D02*
X029038Y005103D01*
X028939Y005004D02*
X030717Y005004D01*
X030717Y004906D02*
X028841Y004906D01*
X028742Y004807D02*
X030717Y004807D01*
X030717Y004709D02*
X028644Y004709D01*
X027027Y004610D02*
X030717Y004610D01*
X030717Y004512D02*
X027027Y004512D01*
X027027Y004413D02*
X030717Y004413D01*
X030717Y004315D02*
X027027Y004315D01*
X027027Y004216D02*
X030717Y004216D01*
X030717Y004118D02*
X027027Y004118D01*
X027027Y004019D02*
X030717Y004019D01*
X030717Y003921D02*
X027027Y003921D01*
X027027Y003822D02*
X030717Y003822D01*
X030717Y003724D02*
X027027Y003724D01*
X027027Y003625D02*
X028521Y003625D01*
X028284Y003527D02*
X027027Y003527D01*
X027027Y003428D02*
X028147Y003428D01*
X028048Y003330D02*
X027027Y003330D01*
X027194Y003231D02*
X027962Y003231D01*
X027921Y003133D02*
X027286Y003133D01*
X027286Y003034D02*
X027880Y003034D01*
X027840Y002936D02*
X027286Y002936D01*
X027286Y002837D02*
X027837Y002837D01*
X027837Y002739D02*
X027286Y002739D01*
X027286Y002640D02*
X027837Y002640D01*
X027852Y002542D02*
X027286Y002542D01*
X027286Y002443D02*
X027893Y002443D01*
X027934Y002345D02*
X027263Y002345D01*
X027980Y002246D02*
X022761Y002246D01*
X022765Y002345D02*
X025727Y002345D01*
X025687Y002443D02*
X022765Y002443D01*
X022765Y002568D02*
X022370Y002568D01*
X022370Y002923D01*
X022616Y002923D01*
X022660Y002912D01*
X022699Y002889D01*
X022731Y002857D01*
X022753Y002818D01*
X022765Y002775D01*
X022765Y002568D01*
X022765Y002640D02*
X023272Y002640D01*
X023272Y002739D02*
X022765Y002739D01*
X022743Y002837D02*
X023667Y002837D01*
X023667Y002739D02*
X023767Y002739D01*
X023767Y002837D02*
X025687Y002837D01*
X025687Y002936D02*
X024162Y002936D01*
X024162Y003034D02*
X025687Y003034D01*
X025704Y003133D02*
X024162Y003133D01*
X024112Y003231D02*
X026527Y003231D01*
X026607Y003330D02*
X024202Y003330D01*
X024202Y003428D02*
X026607Y003428D01*
X026607Y003527D02*
X024202Y003527D01*
X024202Y003625D02*
X025721Y003625D01*
X025646Y003724D02*
X024202Y003724D01*
X024202Y003822D02*
X025617Y003822D01*
X025620Y003921D02*
X024202Y003921D01*
X024156Y004019D02*
X025661Y004019D01*
X025707Y004118D02*
X023927Y004118D01*
X023927Y004216D02*
X025707Y004216D01*
X025707Y004315D02*
X023927Y004315D01*
X023927Y004413D02*
X025779Y004413D01*
X025878Y004512D02*
X023927Y004512D01*
X024825Y004709D02*
X024825Y004709D01*
X024825Y004807D02*
X024825Y004807D01*
X026214Y003921D02*
X026607Y003921D01*
X026607Y004019D02*
X026506Y004019D01*
X026585Y004118D02*
X026607Y004118D01*
X026607Y003822D02*
X026217Y003822D01*
X026188Y003724D02*
X026607Y003724D01*
X026607Y003625D02*
X026112Y003625D01*
X026123Y003133D02*
X026023Y003133D01*
X026023Y003034D02*
X026123Y003034D01*
X026123Y002936D02*
X026023Y002936D01*
X026023Y002837D02*
X026123Y002837D01*
X026023Y002739D02*
X024162Y002739D01*
X024162Y002640D02*
X025687Y002640D01*
X025687Y002542D02*
X024146Y002542D01*
X023767Y002542D02*
X023667Y002542D01*
X023667Y002640D02*
X023767Y002640D01*
X023288Y002542D02*
X022370Y002542D01*
X022370Y002640D02*
X022270Y002640D01*
X022270Y002739D02*
X022370Y002739D01*
X022370Y002837D02*
X022270Y002837D01*
X022700Y002148D02*
X028078Y002148D01*
X029077Y001951D02*
X030717Y001951D01*
X030717Y002049D02*
X029257Y002049D01*
X029355Y002148D02*
X030717Y002148D01*
X030717Y002246D02*
X029454Y002246D01*
X029500Y002345D02*
X030717Y002345D01*
X030717Y002443D02*
X029540Y002443D01*
X029581Y002542D02*
X030717Y002542D01*
X030717Y002640D02*
X029597Y002640D01*
X029597Y002739D02*
X030717Y002739D01*
X030717Y002837D02*
X029597Y002837D01*
X029594Y002936D02*
X030717Y002936D01*
X030717Y003034D02*
X029553Y003034D01*
X029512Y003133D02*
X030717Y003133D01*
X030717Y003231D02*
X029471Y003231D01*
X029385Y003330D02*
X030717Y003330D01*
X030717Y003428D02*
X029287Y003428D01*
X029150Y003527D02*
X030717Y003527D01*
X030717Y003625D02*
X028912Y003625D01*
X026458Y002345D02*
X026419Y002345D01*
X026123Y002345D02*
X026023Y002345D01*
X026023Y002443D02*
X026123Y002443D01*
X026123Y002542D02*
X026023Y002542D01*
X026023Y002640D02*
X026123Y002640D01*
X023272Y002936D02*
X017462Y002936D01*
X016970Y002443D02*
X018568Y002443D01*
X018568Y002345D02*
X016872Y002345D01*
X016773Y002246D02*
X018572Y002246D01*
X018633Y002148D02*
X016675Y002148D01*
X018963Y002148D02*
X019063Y002148D01*
X019063Y002246D02*
X018963Y002246D01*
X018963Y002345D02*
X019063Y002345D01*
X019063Y002443D02*
X018963Y002443D01*
X018963Y002739D02*
X019063Y002739D01*
X019063Y002837D02*
X018963Y002837D01*
X011767Y002640D02*
X011667Y002640D01*
X011667Y002542D02*
X011767Y002542D01*
X011767Y002246D02*
X011667Y002246D01*
X011667Y002148D02*
X011767Y002148D01*
X011767Y002049D02*
X011667Y002049D01*
X029675Y006482D02*
X030717Y006482D01*
X030717Y006580D02*
X029757Y006580D01*
X030701Y006679D02*
X030717Y006679D01*
M02*
