G75*
G70*
%OFA0B0*%
%FSLAX24Y24*%
%IPPOS*%
%LPD*%
%AMOC8*
5,1,8,0,0,1.08239X$1,22.5*
%
%ADD10C,0.0560*%
%ADD11C,0.0500*%
%ADD12C,0.0700*%
%ADD13OC8,0.0560*%
%ADD14C,0.0740*%
%ADD15R,0.0740X0.0740*%
%ADD16C,0.0740*%
%ADD17C,0.0160*%
%ADD18C,0.0080*%
%ADD19C,0.0260*%
%ADD20C,0.0240*%
%ADD21C,0.0100*%
%ADD22C,0.0120*%
D10*
X020967Y013634D03*
X019648Y014185D03*
X022286Y014185D03*
X022286Y016823D03*
X020967Y017374D03*
X019648Y016823D03*
D11*
X009810Y016084D03*
X009023Y016084D03*
X008235Y016084D03*
X007448Y016084D03*
X006660Y016084D03*
X005873Y016084D03*
X005086Y016084D03*
X004298Y016084D03*
X003511Y016084D03*
X002723Y016084D03*
X002723Y007423D03*
X003511Y007423D03*
X004298Y007423D03*
X005086Y007423D03*
X005873Y007423D03*
X006660Y007423D03*
X007448Y007423D03*
X008235Y007423D03*
X009023Y007423D03*
X009810Y007423D03*
D12*
X015205Y002716D03*
X016228Y002716D03*
D13*
X030217Y012004D03*
X030217Y013254D03*
D14*
X029217Y010004D03*
X029217Y009004D03*
X029217Y008004D03*
X005967Y018054D03*
X004967Y017954D03*
X003967Y018054D03*
D15*
X029217Y007004D03*
D16*
X025717Y018134D02*
X025717Y018874D01*
X024717Y018874D02*
X024717Y018134D01*
D17*
X024717Y018554D02*
X024117Y018554D01*
X023417Y019254D01*
X015717Y019254D01*
X015417Y018954D01*
X016017Y017454D02*
X020217Y017454D01*
X020317Y017354D01*
X020917Y017354D01*
X021017Y017354D02*
X021517Y017354D01*
X022017Y016854D01*
X022217Y016854D01*
D18*
X022286Y016823D01*
X021017Y017354D02*
X020967Y017374D01*
X020917Y017354D01*
X024717Y018504D02*
X024717Y018554D01*
X027617Y013854D02*
X026617Y012854D01*
X026617Y012754D01*
X026817Y012554D01*
X026817Y012154D01*
X025317Y011554D02*
X024717Y012154D01*
X024217Y009654D02*
X010117Y009654D01*
X010817Y007254D02*
X010917Y007154D01*
X024017Y007154D01*
X024617Y007754D01*
X026317Y007754D01*
X026117Y007954D02*
X026217Y008054D01*
X026417Y008054D01*
X026617Y007854D01*
X026617Y007454D01*
X026217Y007454D01*
X026117Y007554D01*
X024717Y007554D01*
X024717Y007454D01*
X024217Y006954D01*
X010517Y006954D01*
X010417Y007054D01*
X010317Y006754D02*
X010217Y006654D01*
X005017Y006654D01*
X005117Y006554D01*
X005117Y006154D01*
X004717Y005754D01*
X004317Y005754D01*
X004217Y005654D01*
X004317Y005354D02*
X004517Y005554D01*
X009217Y005554D01*
X009517Y005254D01*
X021517Y005254D01*
X022417Y004354D01*
X026217Y004354D01*
X026317Y004254D01*
X026217Y003954D02*
X026417Y003954D01*
X026817Y004354D01*
X028017Y004354D01*
X028817Y005154D01*
X028817Y005954D01*
X028117Y006654D01*
X027217Y006654D01*
X026717Y007154D01*
X025967Y007154D01*
X025867Y007054D01*
X025617Y007054D01*
X025442Y006754D01*
X026192Y006854D02*
X026717Y006854D01*
X027117Y006454D01*
X028017Y006454D01*
X028617Y005854D01*
X028617Y005254D01*
X027917Y004554D01*
X022517Y004554D01*
X021117Y005954D01*
X012317Y005954D01*
X011817Y005454D01*
X010817Y005454D01*
X010717Y005554D01*
X010817Y006054D02*
X010117Y006054D01*
X009117Y005254D02*
X009017Y005354D01*
X005817Y005354D01*
X005617Y005154D01*
X003917Y005154D01*
X002917Y006154D01*
X002917Y007054D01*
X003117Y007254D01*
X003117Y007554D01*
X002917Y007754D01*
X003017Y007854D01*
X003417Y007354D02*
X003511Y007423D01*
X003417Y007354D02*
X003417Y007154D01*
X003117Y006854D01*
X003117Y006254D01*
X004017Y005354D01*
X004317Y005354D01*
X004517Y006354D02*
X004417Y006454D01*
X003717Y006454D01*
X004217Y007354D02*
X004717Y006854D01*
X004817Y006854D01*
X005017Y006654D01*
X004298Y007423D02*
X004217Y007354D01*
X009117Y005254D02*
X009217Y005254D01*
X009417Y005054D01*
X021417Y005054D01*
X022317Y004154D01*
X026017Y004154D01*
X026217Y003954D01*
X025917Y003854D02*
X025817Y003954D01*
X022217Y003954D01*
X021317Y004854D01*
X015317Y004854D01*
X015217Y004754D01*
X015017Y006654D02*
X014917Y006754D01*
X010317Y006754D01*
X011617Y006054D02*
X011717Y006154D01*
X021517Y006154D01*
X022017Y005654D01*
X022417Y005654D01*
X022517Y005754D01*
X025217Y005754D01*
X025717Y005254D01*
X025917Y005254D01*
X026117Y005054D01*
X027617Y005054D01*
X027717Y005154D01*
X028317Y005754D02*
X026192Y005754D01*
X026092Y005654D01*
X026517Y006454D02*
X023117Y006454D01*
X022917Y006654D01*
X022317Y006254D02*
X022217Y006154D01*
X022317Y006254D02*
X027517Y006254D01*
X027617Y006154D01*
X026517Y006454D02*
X026492Y006554D01*
X026117Y007954D02*
X024617Y007954D01*
X024317Y008254D01*
X024117Y008254D01*
X024017Y008154D01*
X022717Y008154D01*
X022617Y008254D01*
X021417Y007954D02*
X021367Y008004D01*
X021417Y007954D02*
X024217Y007954D01*
X025517Y008954D02*
X028417Y008954D01*
X028517Y009054D01*
X029217Y009054D01*
X029217Y009004D01*
X011617Y013654D02*
X011017Y014254D01*
X010417Y014254D01*
D19*
X010417Y014254D03*
X011617Y013654D03*
X010117Y009654D03*
X010817Y007254D03*
X010417Y007054D03*
X010117Y006054D03*
X010817Y006054D03*
X010717Y005554D03*
X011617Y006054D03*
X009217Y005554D03*
X005617Y005154D03*
X004217Y005654D03*
X004517Y006354D03*
X003717Y006454D03*
X003017Y007854D03*
X015017Y006654D03*
X015217Y004754D03*
X022217Y006154D03*
X022917Y006654D03*
X024717Y007454D03*
X024217Y007954D03*
X022617Y008254D03*
X024217Y009654D03*
X025517Y008954D03*
X026317Y007754D03*
X026192Y006854D03*
X026492Y006554D03*
X025442Y006754D03*
X026092Y005654D03*
X027617Y006154D03*
X028317Y005754D03*
X027717Y005154D03*
X026317Y004254D03*
X025917Y003854D03*
X025317Y011554D03*
X024717Y012154D03*
X026817Y012154D03*
X027617Y013854D03*
X016017Y017454D03*
X015417Y018954D03*
D20*
X013867Y017454D03*
X013367Y012254D03*
X017217Y011754D03*
X018717Y010254D03*
X019217Y009254D03*
X021367Y008004D03*
X026117Y011104D03*
X026617Y011804D03*
X025617Y011804D03*
X025617Y012504D03*
X025317Y012754D03*
X026967Y012804D03*
X027367Y012504D03*
X027717Y012504D03*
X028217Y012504D03*
X028717Y012504D03*
X028917Y012254D03*
X028967Y014004D03*
X028617Y014104D03*
X028217Y014104D03*
X026967Y014404D03*
X025767Y015504D03*
X026717Y015604D03*
X029467Y014004D03*
X029967Y014004D03*
X030467Y014004D03*
X011717Y001904D03*
X010467Y001904D03*
X009217Y001904D03*
X007967Y001904D03*
X005467Y001904D03*
D21*
X002217Y001754D02*
X002217Y019504D01*
X030717Y019504D01*
X030717Y013834D01*
X027917Y013834D01*
X027917Y013913D01*
X027871Y014024D01*
X027787Y014108D01*
X027676Y014154D01*
X027557Y014154D01*
X027447Y014108D01*
X027362Y014024D01*
X027317Y013913D01*
X027317Y013851D01*
X027300Y013834D01*
X027084Y013834D01*
X027037Y013787D01*
X027037Y013571D01*
X026407Y012941D01*
X026407Y012667D01*
X026530Y012544D01*
X026607Y012467D01*
X026607Y012368D01*
X026562Y012324D01*
X026517Y012213D01*
X026517Y012094D01*
X026562Y011984D01*
X026647Y011899D01*
X025268Y011899D01*
X025314Y011854D02*
X025017Y012151D01*
X025017Y012213D01*
X024971Y012324D01*
X024887Y012408D01*
X024776Y012454D01*
X024657Y012454D01*
X024547Y012408D01*
X024462Y012324D01*
X024417Y012213D01*
X024417Y012094D01*
X024462Y011984D01*
X024547Y011899D01*
X002217Y011899D01*
X002217Y011801D02*
X024773Y011801D01*
X024720Y011854D02*
X025017Y011557D01*
X025017Y011494D01*
X025062Y011384D01*
X025147Y011299D01*
X025257Y011254D01*
X025376Y011254D01*
X025487Y011299D01*
X025571Y011384D01*
X025617Y011494D01*
X025617Y011613D01*
X025571Y011724D01*
X025487Y011808D01*
X025376Y011854D01*
X025314Y011854D01*
X025494Y011801D02*
X029840Y011801D01*
X029807Y011834D02*
X030047Y011594D01*
X030187Y011594D01*
X030187Y011974D01*
X029807Y011974D01*
X029807Y011834D01*
X029807Y011899D02*
X026986Y011899D01*
X026987Y011899D02*
X027071Y011984D01*
X027117Y012094D01*
X027117Y012213D01*
X027071Y012324D01*
X027027Y012368D01*
X027027Y012467D01*
X027027Y012641D01*
X026864Y012804D01*
X027037Y012977D01*
X027037Y012721D01*
X027084Y012674D01*
X030717Y012674D01*
X030717Y001754D01*
X002217Y001754D01*
X030717Y001754D01*
X030717Y001852D02*
X002217Y001852D01*
X002217Y001951D02*
X028356Y001951D01*
X028218Y002008D02*
X028542Y001874D01*
X028892Y001874D01*
X029215Y002008D01*
X029463Y002255D01*
X029597Y002579D01*
X029597Y002929D01*
X029463Y003252D01*
X029215Y003500D01*
X028892Y003634D01*
X028542Y003634D01*
X028218Y003500D01*
X027971Y003252D01*
X027837Y002929D01*
X027837Y002579D01*
X027971Y002255D01*
X028218Y002008D01*
X028177Y002049D02*
X002217Y002049D01*
X002217Y002148D02*
X028078Y002148D01*
X027980Y002246D02*
X016452Y002246D01*
X016523Y002275D02*
X016669Y002422D01*
X016748Y002613D01*
X016748Y002820D01*
X016669Y003011D01*
X016523Y003157D01*
X016332Y003236D01*
X016125Y003236D01*
X015934Y003157D01*
X015788Y003011D01*
X015717Y002839D01*
X015646Y003011D01*
X015499Y003157D01*
X015308Y003236D01*
X015101Y003236D01*
X014910Y003157D01*
X014764Y003011D01*
X014685Y002820D01*
X014685Y002613D01*
X014764Y002422D01*
X014910Y002275D01*
X015101Y002196D01*
X015308Y002196D01*
X015499Y002275D01*
X015646Y002422D01*
X015717Y002593D01*
X015788Y002422D01*
X015934Y002275D01*
X016125Y002196D01*
X016332Y002196D01*
X016523Y002275D01*
X016592Y002345D02*
X027934Y002345D01*
X027893Y002443D02*
X016678Y002443D01*
X016719Y002542D02*
X027852Y002542D01*
X027837Y002640D02*
X016748Y002640D01*
X016748Y002739D02*
X027837Y002739D01*
X027837Y002837D02*
X016741Y002837D01*
X016700Y002936D02*
X027840Y002936D01*
X027880Y003034D02*
X016646Y003034D01*
X016547Y003133D02*
X027921Y003133D01*
X027962Y003231D02*
X016344Y003231D01*
X016113Y003231D02*
X015321Y003231D01*
X015524Y003133D02*
X015909Y003133D01*
X015811Y003034D02*
X015622Y003034D01*
X015677Y002936D02*
X015757Y002936D01*
X015738Y002542D02*
X015695Y002542D01*
X015655Y002443D02*
X015779Y002443D01*
X015865Y002345D02*
X015569Y002345D01*
X015429Y002246D02*
X016005Y002246D01*
X014981Y002246D02*
X002217Y002246D01*
X002217Y002345D02*
X014841Y002345D01*
X014755Y002443D02*
X002217Y002443D01*
X002217Y002542D02*
X014714Y002542D01*
X014685Y002640D02*
X002217Y002640D01*
X002217Y002739D02*
X014685Y002739D01*
X014692Y002837D02*
X002217Y002837D01*
X002217Y002936D02*
X014733Y002936D01*
X014787Y003034D02*
X002217Y003034D01*
X002217Y003133D02*
X014886Y003133D01*
X015089Y003231D02*
X002217Y003231D01*
X002217Y003330D02*
X028048Y003330D01*
X028147Y003428D02*
X002217Y003428D01*
X002217Y003527D02*
X028284Y003527D01*
X028521Y003625D02*
X026112Y003625D01*
X026087Y003599D02*
X026171Y003684D01*
X026196Y003744D01*
X026504Y003744D01*
X026627Y003867D01*
X026904Y004144D01*
X028104Y004144D01*
X028227Y004267D01*
X029027Y005067D01*
X029027Y006041D01*
X028904Y006164D01*
X028204Y006864D01*
X027304Y006864D01*
X026814Y007354D01*
X026827Y007367D01*
X026827Y007941D01*
X026704Y008064D01*
X026504Y008264D01*
X026130Y008264D01*
X026030Y008164D01*
X024704Y008164D01*
X024404Y008464D01*
X024030Y008464D01*
X023930Y008364D01*
X022896Y008364D01*
X022871Y008424D01*
X022787Y008508D01*
X022676Y008554D01*
X022557Y008554D01*
X022447Y008508D01*
X022362Y008424D01*
X022317Y008313D01*
X022317Y008194D01*
X022329Y008164D01*
X021614Y008164D01*
X021613Y008168D01*
X021531Y008250D01*
X021424Y008294D01*
X021309Y008294D01*
X021202Y008250D01*
X021121Y008168D01*
X021077Y008061D01*
X021077Y007946D01*
X021121Y007839D01*
X021202Y007758D01*
X021309Y007714D01*
X021424Y007714D01*
X021497Y007744D01*
X024002Y007744D01*
X024047Y007699D01*
X024157Y007654D01*
X024220Y007654D01*
X023930Y007364D01*
X011096Y007364D01*
X011071Y007424D01*
X010987Y007508D01*
X010876Y007554D01*
X010757Y007554D01*
X010647Y007508D01*
X010562Y007424D01*
X010525Y007334D01*
X010476Y007354D01*
X010357Y007354D01*
X010247Y007308D01*
X010162Y007224D01*
X010117Y007113D01*
X010117Y006994D01*
X010159Y006893D01*
X010130Y006864D01*
X005104Y006864D01*
X005027Y006941D01*
X004938Y007030D01*
X005002Y007003D01*
X005169Y007003D01*
X005323Y007067D01*
X005442Y007185D01*
X005479Y007276D01*
X005517Y007185D01*
X005635Y007067D01*
X005789Y007003D01*
X005957Y007003D01*
X006111Y007067D01*
X006229Y007185D01*
X006267Y007276D01*
X006304Y007185D01*
X006422Y007067D01*
X006577Y007003D01*
X006744Y007003D01*
X006898Y007067D01*
X007016Y007185D01*
X007054Y007276D01*
X007092Y007185D01*
X007210Y007067D01*
X007364Y007003D01*
X007531Y007003D01*
X007686Y007067D01*
X007804Y007185D01*
X007841Y007276D01*
X007879Y007185D01*
X007997Y007067D01*
X008152Y007003D01*
X008319Y007003D01*
X008473Y007067D01*
X008591Y007185D01*
X008629Y007276D01*
X008667Y007185D01*
X008785Y007067D01*
X008939Y007003D01*
X009106Y007003D01*
X009260Y007067D01*
X009379Y007185D01*
X009440Y007334D01*
X009445Y007312D01*
X009473Y007243D01*
X009515Y007181D01*
X009568Y007128D01*
X009630Y007086D01*
X009699Y007058D01*
X009773Y007043D01*
X009781Y007043D01*
X009781Y007394D01*
X009839Y007394D01*
X009839Y007452D01*
X009781Y007452D01*
X009781Y007803D01*
X009773Y007803D01*
X009699Y007788D01*
X009630Y007760D01*
X009568Y007718D01*
X009515Y007665D01*
X009473Y007603D01*
X009445Y007534D01*
X009440Y007512D01*
X009379Y007661D01*
X009260Y007779D01*
X009106Y007843D01*
X008939Y007843D01*
X008785Y007779D01*
X008667Y007661D01*
X008629Y007570D01*
X008591Y007661D01*
X008473Y007779D01*
X008319Y007843D01*
X008152Y007843D01*
X007997Y007779D01*
X007879Y007661D01*
X007841Y007570D01*
X007804Y007661D01*
X007686Y007779D01*
X007531Y007843D01*
X007364Y007843D01*
X007210Y007779D01*
X007092Y007661D01*
X007054Y007570D01*
X007016Y007661D01*
X006898Y007779D01*
X006744Y007843D01*
X006577Y007843D01*
X006422Y007779D01*
X006304Y007661D01*
X006267Y007570D01*
X006229Y007661D01*
X006111Y007779D01*
X005957Y007843D01*
X005789Y007843D01*
X005635Y007779D01*
X005517Y007661D01*
X005479Y007570D01*
X005442Y007661D01*
X005323Y007779D01*
X005169Y007843D01*
X005002Y007843D01*
X004848Y007779D01*
X004730Y007661D01*
X004692Y007570D01*
X004654Y007661D01*
X004536Y007779D01*
X004382Y007843D01*
X004215Y007843D01*
X004060Y007779D01*
X003942Y007661D01*
X003904Y007570D01*
X003867Y007661D01*
X003749Y007779D01*
X003594Y007843D01*
X003427Y007843D01*
X003317Y007797D01*
X003317Y007913D01*
X003271Y008024D01*
X003187Y008108D01*
X003076Y008154D01*
X002957Y008154D01*
X002847Y008108D01*
X002762Y008024D01*
X002717Y007913D01*
X002717Y007851D01*
X002709Y007843D01*
X002640Y007843D01*
X002485Y007779D01*
X002367Y007661D01*
X002303Y007507D01*
X002303Y007339D01*
X002367Y007185D01*
X002485Y007067D01*
X002640Y007003D01*
X002707Y007003D01*
X002707Y006067D01*
X002830Y005944D01*
X003830Y004944D01*
X005402Y004944D01*
X005447Y004899D01*
X005557Y004854D01*
X005676Y004854D01*
X005787Y004899D01*
X005871Y004984D01*
X005917Y005094D01*
X005917Y005144D01*
X008930Y005144D01*
X009030Y005044D01*
X009130Y005044D01*
X009330Y004844D01*
X014929Y004844D01*
X014917Y004813D01*
X014917Y004694D01*
X014962Y004584D01*
X015047Y004499D01*
X015157Y004454D01*
X015276Y004454D01*
X015387Y004499D01*
X015471Y004584D01*
X015496Y004644D01*
X021230Y004644D01*
X022130Y003744D01*
X025638Y003744D01*
X025662Y003684D01*
X025747Y003599D01*
X025857Y003554D01*
X025976Y003554D01*
X026087Y003599D01*
X026188Y003724D02*
X030717Y003724D01*
X030717Y003822D02*
X026582Y003822D01*
X026681Y003921D02*
X030717Y003921D01*
X030717Y004019D02*
X026779Y004019D01*
X026878Y004118D02*
X030717Y004118D01*
X030717Y004216D02*
X028176Y004216D01*
X028275Y004315D02*
X030717Y004315D01*
X030717Y004413D02*
X028373Y004413D01*
X028472Y004512D02*
X030717Y004512D01*
X030717Y004610D02*
X028570Y004610D01*
X028669Y004709D02*
X030717Y004709D01*
X030717Y004807D02*
X028767Y004807D01*
X028866Y004906D02*
X030717Y004906D01*
X030717Y005004D02*
X028964Y005004D01*
X029027Y005103D02*
X030717Y005103D01*
X030717Y005201D02*
X029027Y005201D01*
X029027Y005300D02*
X030717Y005300D01*
X030717Y005398D02*
X029027Y005398D01*
X029027Y005497D02*
X030717Y005497D01*
X030717Y005595D02*
X029027Y005595D01*
X029027Y005694D02*
X030717Y005694D01*
X030717Y005792D02*
X029027Y005792D01*
X029027Y005891D02*
X030717Y005891D01*
X030717Y005989D02*
X029027Y005989D01*
X028980Y006088D02*
X030717Y006088D01*
X030717Y006186D02*
X028881Y006186D01*
X028783Y006285D02*
X030717Y006285D01*
X030717Y006383D02*
X028684Y006383D01*
X028776Y006464D02*
X029657Y006464D01*
X029757Y006563D01*
X029757Y007444D01*
X029657Y007544D01*
X029517Y007544D01*
X029523Y007546D01*
X029674Y007698D01*
X029757Y007896D01*
X029757Y008111D01*
X029674Y008310D01*
X029523Y008461D01*
X029421Y008504D01*
X029523Y008546D01*
X029674Y008698D01*
X029757Y008896D01*
X029757Y009111D01*
X029674Y009310D01*
X029523Y009461D01*
X029366Y009526D01*
X029409Y009540D01*
X029479Y009576D01*
X029542Y009622D01*
X029598Y009678D01*
X029644Y009742D01*
X029680Y009812D01*
X029704Y009887D01*
X029715Y009954D01*
X029267Y009954D01*
X029267Y010054D01*
X029715Y010054D01*
X029704Y010121D01*
X029680Y010196D01*
X029644Y010266D01*
X029598Y010329D01*
X029542Y010385D01*
X029479Y010431D01*
X029409Y010467D01*
X029334Y010491D01*
X029267Y010502D01*
X029267Y010054D01*
X029167Y010054D01*
X029167Y010502D01*
X029100Y010491D01*
X029025Y010467D01*
X028955Y010431D01*
X028891Y010385D01*
X028835Y010329D01*
X028789Y010266D01*
X028753Y010196D01*
X028729Y010121D01*
X028718Y010054D01*
X029167Y010054D01*
X029167Y009954D01*
X028718Y009954D01*
X028729Y009887D01*
X028753Y009812D01*
X028789Y009742D01*
X028835Y009678D01*
X028891Y009622D01*
X028955Y009576D01*
X029025Y009540D01*
X029068Y009526D01*
X028911Y009461D01*
X028759Y009310D01*
X028740Y009264D01*
X028430Y009264D01*
X028330Y009164D01*
X025731Y009164D01*
X025687Y009208D01*
X025576Y009254D01*
X025457Y009254D01*
X025347Y009208D01*
X025262Y009124D01*
X025217Y009013D01*
X025217Y008894D01*
X025262Y008784D01*
X025347Y008699D01*
X025457Y008654D01*
X025576Y008654D01*
X025687Y008699D01*
X025731Y008744D01*
X028504Y008744D01*
X028604Y008844D01*
X028698Y008844D01*
X028759Y008698D01*
X028911Y008546D01*
X029013Y008504D01*
X028911Y008461D01*
X028759Y008310D01*
X028677Y008111D01*
X028677Y007896D01*
X028759Y007698D01*
X028911Y007546D01*
X028916Y007544D01*
X028776Y007544D01*
X028677Y007444D01*
X028677Y006563D01*
X028776Y006464D01*
X028758Y006482D02*
X028586Y006482D01*
X028677Y006580D02*
X028487Y006580D01*
X028389Y006679D02*
X028677Y006679D01*
X028677Y006777D02*
X028290Y006777D01*
X028677Y006876D02*
X027292Y006876D01*
X027193Y006974D02*
X028677Y006974D01*
X028677Y007073D02*
X027095Y007073D01*
X026996Y007171D02*
X028677Y007171D01*
X028677Y007270D02*
X026898Y007270D01*
X026827Y007368D02*
X028677Y007368D01*
X028699Y007467D02*
X026827Y007467D01*
X026827Y007565D02*
X028891Y007565D01*
X028793Y007664D02*
X026827Y007664D01*
X026827Y007762D02*
X028732Y007762D01*
X028691Y007861D02*
X026827Y007861D01*
X026808Y007959D02*
X028677Y007959D01*
X028677Y008058D02*
X026710Y008058D01*
X026611Y008156D02*
X028695Y008156D01*
X028736Y008255D02*
X026513Y008255D01*
X026121Y008255D02*
X024613Y008255D01*
X024514Y008353D02*
X028803Y008353D01*
X028901Y008452D02*
X024416Y008452D01*
X024018Y008452D02*
X022843Y008452D01*
X022685Y008550D02*
X028906Y008550D01*
X028808Y008649D02*
X002217Y008649D01*
X002217Y008747D02*
X025299Y008747D01*
X025237Y008846D02*
X002217Y008846D01*
X002217Y008944D02*
X025217Y008944D01*
X025229Y009043D02*
X002217Y009043D01*
X002217Y009141D02*
X025280Y009141D01*
X025423Y009240D02*
X002217Y009240D01*
X002217Y009338D02*
X028788Y009338D01*
X028886Y009437D02*
X024424Y009437D01*
X024387Y009399D02*
X024471Y009484D01*
X024517Y009594D01*
X024517Y009713D01*
X024471Y009824D01*
X024387Y009908D01*
X024276Y009954D01*
X024157Y009954D01*
X024047Y009908D01*
X024002Y009864D01*
X010331Y009864D01*
X010287Y009908D01*
X010176Y009954D01*
X010057Y009954D01*
X009947Y009908D01*
X009862Y009824D01*
X009817Y009713D01*
X009817Y009594D01*
X009862Y009484D01*
X009947Y009399D01*
X010057Y009354D01*
X010176Y009354D01*
X010287Y009399D01*
X010331Y009444D01*
X024002Y009444D01*
X024047Y009399D01*
X024157Y009354D01*
X024276Y009354D01*
X024387Y009399D01*
X024492Y009535D02*
X029040Y009535D01*
X028880Y009634D02*
X024517Y009634D01*
X024509Y009732D02*
X028796Y009732D01*
X028747Y009831D02*
X024464Y009831D01*
X024335Y009929D02*
X028722Y009929D01*
X028731Y010126D02*
X002217Y010126D01*
X002217Y010028D02*
X029167Y010028D01*
X029167Y010126D02*
X029267Y010126D01*
X029267Y010028D02*
X030717Y010028D01*
X030717Y010126D02*
X029703Y010126D01*
X029665Y010225D02*
X030717Y010225D01*
X030717Y010323D02*
X029603Y010323D01*
X029492Y010422D02*
X030717Y010422D01*
X030717Y010520D02*
X002217Y010520D01*
X002217Y010422D02*
X028941Y010422D01*
X028831Y010323D02*
X002217Y010323D01*
X002217Y010225D02*
X028768Y010225D01*
X029167Y010225D02*
X029267Y010225D01*
X029267Y010323D02*
X029167Y010323D01*
X029167Y010422D02*
X029267Y010422D01*
X029711Y009929D02*
X030717Y009929D01*
X030717Y009831D02*
X029686Y009831D01*
X029637Y009732D02*
X030717Y009732D01*
X030717Y009634D02*
X029554Y009634D01*
X029393Y009535D02*
X030717Y009535D01*
X030717Y009437D02*
X029547Y009437D01*
X029646Y009338D02*
X030717Y009338D01*
X030717Y009240D02*
X029703Y009240D01*
X029744Y009141D02*
X030717Y009141D01*
X030717Y009043D02*
X029757Y009043D01*
X029757Y008944D02*
X030717Y008944D01*
X030717Y008846D02*
X029736Y008846D01*
X029695Y008747D02*
X030717Y008747D01*
X030717Y008649D02*
X029625Y008649D01*
X029527Y008550D02*
X030717Y008550D01*
X030717Y008452D02*
X029532Y008452D01*
X029631Y008353D02*
X030717Y008353D01*
X030717Y008255D02*
X029697Y008255D01*
X029738Y008156D02*
X030717Y008156D01*
X030717Y008058D02*
X029757Y008058D01*
X029757Y007959D02*
X030717Y007959D01*
X030717Y007861D02*
X029742Y007861D01*
X029701Y007762D02*
X030717Y007762D01*
X030717Y007664D02*
X029640Y007664D01*
X029542Y007565D02*
X030717Y007565D01*
X030717Y007467D02*
X029734Y007467D01*
X029757Y007368D02*
X030717Y007368D01*
X030717Y007270D02*
X029757Y007270D01*
X029757Y007171D02*
X030717Y007171D01*
X030717Y007073D02*
X029757Y007073D01*
X029757Y006974D02*
X030717Y006974D01*
X030717Y006876D02*
X029757Y006876D01*
X029757Y006777D02*
X030717Y006777D01*
X030717Y006679D02*
X029757Y006679D01*
X029757Y006580D02*
X030717Y006580D01*
X030717Y006482D02*
X029675Y006482D01*
X028738Y008747D02*
X028507Y008747D01*
X028406Y009240D02*
X025610Y009240D01*
X024009Y009437D02*
X010324Y009437D01*
X009909Y009437D02*
X002217Y009437D01*
X002217Y009535D02*
X009841Y009535D01*
X009817Y009634D02*
X002217Y009634D01*
X002217Y009732D02*
X009824Y009732D01*
X009869Y009831D02*
X002217Y009831D01*
X002217Y009929D02*
X009998Y009929D01*
X010235Y009929D02*
X024098Y009929D01*
X025138Y011308D02*
X002217Y011308D01*
X002217Y011210D02*
X030717Y011210D01*
X030717Y011308D02*
X025495Y011308D01*
X025581Y011407D02*
X030717Y011407D01*
X030717Y011505D02*
X025617Y011505D01*
X025617Y011604D02*
X030037Y011604D01*
X029938Y011702D02*
X025580Y011702D01*
X025170Y011998D02*
X026557Y011998D01*
X026517Y012096D02*
X025071Y012096D01*
X025017Y012195D02*
X026517Y012195D01*
X026550Y012293D02*
X025816Y012293D01*
X025781Y012258D02*
X025863Y012339D01*
X025907Y012446D01*
X025907Y012561D01*
X025863Y012668D01*
X025847Y012684D01*
X025847Y014408D01*
X026752Y015314D01*
X026774Y015314D01*
X026881Y015358D01*
X026963Y015439D01*
X027007Y015546D01*
X027007Y015661D01*
X026963Y015768D01*
X026881Y015850D01*
X026774Y015894D01*
X026659Y015894D01*
X026552Y015850D01*
X026471Y015768D01*
X026427Y015661D01*
X026427Y015639D01*
X025521Y014734D01*
X025387Y014599D01*
X025387Y012684D01*
X025371Y012668D01*
X025327Y012561D01*
X025327Y012446D01*
X025371Y012339D01*
X025452Y012258D01*
X025559Y012214D01*
X025674Y012214D01*
X025781Y012258D01*
X025884Y012392D02*
X026607Y012392D01*
X026583Y012490D02*
X025907Y012490D01*
X025895Y012589D02*
X026485Y012589D01*
X026407Y012687D02*
X025847Y012687D01*
X025847Y012786D02*
X026407Y012786D01*
X026407Y012884D02*
X025847Y012884D01*
X025847Y012983D02*
X026449Y012983D01*
X026547Y013081D02*
X025847Y013081D01*
X025847Y013180D02*
X026646Y013180D01*
X026744Y013278D02*
X025847Y013278D01*
X025847Y013377D02*
X026843Y013377D01*
X026941Y013475D02*
X025847Y013475D01*
X025847Y013574D02*
X027037Y013574D01*
X027037Y013672D02*
X025847Y013672D01*
X025847Y013771D02*
X027037Y013771D01*
X027317Y013869D02*
X025847Y013869D01*
X025847Y013968D02*
X027339Y013968D01*
X027405Y014066D02*
X025847Y014066D01*
X025847Y014165D02*
X030717Y014165D01*
X030717Y014263D02*
X025847Y014263D01*
X025847Y014362D02*
X030717Y014362D01*
X030717Y014460D02*
X025898Y014460D01*
X025997Y014559D02*
X030717Y014559D01*
X030717Y014657D02*
X026095Y014657D01*
X026194Y014756D02*
X030717Y014756D01*
X030717Y014854D02*
X026292Y014854D01*
X026391Y014953D02*
X030717Y014953D01*
X030717Y015051D02*
X026489Y015051D01*
X026588Y015150D02*
X030717Y015150D01*
X030717Y015248D02*
X026686Y015248D01*
X026854Y015347D02*
X030717Y015347D01*
X030717Y015445D02*
X026965Y015445D01*
X027006Y015544D02*
X030717Y015544D01*
X030717Y015642D02*
X027007Y015642D01*
X026974Y015741D02*
X030717Y015741D01*
X030717Y015839D02*
X026891Y015839D01*
X026542Y015839D02*
X021737Y015839D01*
X021778Y015741D02*
X026460Y015741D01*
X026427Y015642D02*
X021807Y015642D01*
X021807Y015671D02*
X021679Y015980D01*
X021443Y016216D01*
X021134Y016344D01*
X020799Y016344D01*
X020491Y016216D01*
X020254Y015980D01*
X020126Y015671D01*
X020126Y015336D01*
X020254Y015028D01*
X020491Y014791D01*
X020799Y014663D01*
X021134Y014663D01*
X021443Y014791D01*
X021679Y015028D01*
X021807Y015336D01*
X021807Y015671D01*
X021807Y015544D02*
X026331Y015544D01*
X026233Y015445D02*
X021807Y015445D01*
X021807Y015347D02*
X026134Y015347D01*
X026036Y015248D02*
X021771Y015248D01*
X021730Y015150D02*
X025937Y015150D01*
X025839Y015051D02*
X021689Y015051D01*
X021604Y014953D02*
X025740Y014953D01*
X025642Y014854D02*
X021506Y014854D01*
X021357Y014756D02*
X025543Y014756D01*
X025445Y014657D02*
X002217Y014657D01*
X002217Y014559D02*
X019385Y014559D01*
X019393Y014566D02*
X019266Y014440D01*
X019198Y014274D01*
X019198Y014095D01*
X019266Y013930D01*
X019393Y013803D01*
X019558Y013735D01*
X019737Y013735D01*
X019903Y013803D01*
X020029Y013930D01*
X020098Y014095D01*
X020098Y014274D01*
X020029Y014440D01*
X019903Y014566D01*
X019737Y014635D01*
X019558Y014635D01*
X019393Y014566D01*
X019287Y014460D02*
X011107Y014460D01*
X011104Y014464D02*
X010631Y014464D01*
X010587Y014508D01*
X010476Y014554D01*
X010357Y014554D01*
X010247Y014508D01*
X010162Y014424D01*
X010117Y014313D01*
X010117Y014194D01*
X010162Y014084D01*
X010247Y013999D01*
X010357Y013954D01*
X010476Y013954D01*
X010587Y013999D01*
X010631Y014044D01*
X010930Y014044D01*
X011317Y013657D01*
X011317Y013594D01*
X011362Y013484D01*
X011447Y013399D01*
X011557Y013354D01*
X011676Y013354D01*
X011787Y013399D01*
X011871Y013484D01*
X011917Y013594D01*
X011917Y013713D01*
X011871Y013824D01*
X011787Y013908D01*
X011676Y013954D01*
X011614Y013954D01*
X011227Y014341D01*
X011104Y014464D01*
X011206Y014362D02*
X019234Y014362D01*
X019198Y014263D02*
X011304Y014263D01*
X011403Y014165D02*
X019198Y014165D01*
X019210Y014066D02*
X011501Y014066D01*
X011600Y013968D02*
X019251Y013968D01*
X019327Y013869D02*
X011825Y013869D01*
X011893Y013771D02*
X019472Y013771D01*
X019824Y013771D02*
X020536Y013771D01*
X020517Y013723D02*
X020517Y013544D01*
X020585Y013379D01*
X020712Y013252D01*
X020877Y013184D01*
X021056Y013184D01*
X021222Y013252D01*
X021348Y013379D01*
X021417Y013544D01*
X021417Y013723D01*
X021348Y013888D01*
X021222Y014015D01*
X021056Y014084D01*
X020877Y014084D01*
X020712Y014015D01*
X020585Y013888D01*
X020517Y013723D01*
X020517Y013672D02*
X011917Y013672D01*
X011908Y013574D02*
X020517Y013574D01*
X020545Y013475D02*
X011862Y013475D01*
X011732Y013377D02*
X020587Y013377D01*
X020686Y013278D02*
X002217Y013278D01*
X002217Y013180D02*
X025387Y013180D01*
X025387Y013278D02*
X021248Y013278D01*
X021346Y013377D02*
X025387Y013377D01*
X025387Y013475D02*
X021388Y013475D01*
X021417Y013574D02*
X025387Y013574D01*
X025387Y013672D02*
X021417Y013672D01*
X021397Y013771D02*
X022109Y013771D01*
X022031Y013803D02*
X022196Y013735D01*
X022375Y013735D01*
X022540Y013803D01*
X022667Y013930D01*
X022736Y014095D01*
X022736Y014274D01*
X022667Y014440D01*
X022540Y014566D01*
X022375Y014635D01*
X022196Y014635D01*
X022031Y014566D01*
X021904Y014440D01*
X021836Y014274D01*
X021836Y014095D01*
X021904Y013930D01*
X022031Y013803D01*
X021965Y013869D02*
X021356Y013869D01*
X021269Y013968D02*
X021888Y013968D01*
X021848Y014066D02*
X021098Y014066D01*
X020835Y014066D02*
X020086Y014066D01*
X020098Y014165D02*
X021836Y014165D01*
X021836Y014263D02*
X020098Y014263D01*
X020062Y014362D02*
X021872Y014362D01*
X021925Y014460D02*
X020009Y014460D01*
X019910Y014559D02*
X022023Y014559D01*
X022548Y014559D02*
X025387Y014559D01*
X025387Y014460D02*
X022647Y014460D01*
X022699Y014362D02*
X025387Y014362D01*
X025387Y014263D02*
X022736Y014263D01*
X022736Y014165D02*
X025387Y014165D01*
X025387Y014066D02*
X022724Y014066D01*
X022683Y013968D02*
X025387Y013968D01*
X025387Y013869D02*
X022606Y013869D01*
X022462Y013771D02*
X025387Y013771D01*
X025387Y013081D02*
X002217Y013081D01*
X002217Y012983D02*
X025387Y012983D01*
X025387Y012884D02*
X002217Y012884D01*
X002217Y012786D02*
X025387Y012786D01*
X025387Y012687D02*
X002217Y012687D01*
X002217Y012589D02*
X025338Y012589D01*
X025327Y012490D02*
X002217Y012490D01*
X002217Y012392D02*
X024530Y012392D01*
X024450Y012293D02*
X002217Y012293D01*
X002217Y012195D02*
X024417Y012195D01*
X024417Y012096D02*
X002217Y012096D01*
X002217Y011998D02*
X024457Y011998D01*
X024547Y011899D02*
X024657Y011854D01*
X024720Y011854D01*
X024871Y011702D02*
X002217Y011702D01*
X002217Y011604D02*
X024970Y011604D01*
X025017Y011505D02*
X002217Y011505D01*
X002217Y011407D02*
X025053Y011407D01*
X024984Y012293D02*
X025417Y012293D01*
X025349Y012392D02*
X024903Y012392D01*
X026647Y011899D02*
X026757Y011854D01*
X026876Y011854D01*
X026987Y011899D01*
X027077Y011998D02*
X030187Y011998D01*
X030187Y011974D02*
X030187Y012034D01*
X030187Y012414D01*
X030047Y012414D01*
X029807Y012173D01*
X029807Y012034D01*
X030187Y012034D01*
X030247Y012034D01*
X030247Y012414D01*
X030386Y012414D01*
X030627Y012173D01*
X030627Y012034D01*
X030247Y012034D01*
X030247Y011974D01*
X030627Y011974D01*
X030627Y011834D01*
X030386Y011594D01*
X030247Y011594D01*
X030247Y011974D01*
X030187Y011974D01*
X030247Y011998D02*
X030717Y011998D01*
X030717Y012096D02*
X030627Y012096D01*
X030605Y012195D02*
X030717Y012195D01*
X030717Y012293D02*
X030507Y012293D01*
X030408Y012392D02*
X030717Y012392D01*
X030717Y012490D02*
X027027Y012490D01*
X027027Y012392D02*
X030025Y012392D01*
X029926Y012293D02*
X027084Y012293D01*
X027117Y012195D02*
X029828Y012195D01*
X029807Y012096D02*
X027117Y012096D01*
X027027Y012589D02*
X030717Y012589D01*
X030247Y012392D02*
X030187Y012392D01*
X030187Y012293D02*
X030247Y012293D01*
X030247Y012195D02*
X030187Y012195D01*
X030187Y012096D02*
X030247Y012096D01*
X030247Y011899D02*
X030187Y011899D01*
X030187Y011801D02*
X030247Y011801D01*
X030247Y011702D02*
X030187Y011702D01*
X030187Y011604D02*
X030247Y011604D01*
X030397Y011604D02*
X030717Y011604D01*
X030717Y011702D02*
X030495Y011702D01*
X030594Y011801D02*
X030717Y011801D01*
X030717Y011899D02*
X030627Y011899D01*
X030717Y011111D02*
X002217Y011111D01*
X002217Y011013D02*
X030717Y011013D01*
X030717Y010914D02*
X002217Y010914D01*
X002217Y010816D02*
X030717Y010816D01*
X030717Y010717D02*
X002217Y010717D01*
X002217Y010619D02*
X030717Y010619D01*
X027070Y012687D02*
X026980Y012687D01*
X027037Y012786D02*
X026882Y012786D01*
X026944Y012884D02*
X027037Y012884D01*
X027917Y013869D02*
X030717Y013869D01*
X030717Y013968D02*
X027894Y013968D01*
X027828Y014066D02*
X030717Y014066D01*
X030717Y015938D02*
X021697Y015938D01*
X021623Y016036D02*
X030717Y016036D01*
X030717Y016135D02*
X021524Y016135D01*
X021402Y016233D02*
X030717Y016233D01*
X030717Y016332D02*
X021164Y016332D01*
X020769Y016332D02*
X010157Y016332D01*
X010166Y016322D02*
X010048Y016440D01*
X009894Y016504D01*
X009726Y016504D01*
X009572Y016440D01*
X009454Y016322D01*
X009416Y016231D01*
X009379Y016322D01*
X009260Y016440D01*
X009106Y016504D01*
X008939Y016504D01*
X008785Y016440D01*
X008667Y016322D01*
X008629Y016231D01*
X008591Y016322D01*
X008473Y016440D01*
X008319Y016504D01*
X008152Y016504D01*
X007997Y016440D01*
X007879Y016322D01*
X007841Y016231D01*
X007804Y016322D01*
X007686Y016440D01*
X007531Y016504D01*
X007364Y016504D01*
X007210Y016440D01*
X007092Y016322D01*
X007054Y016231D01*
X007016Y016322D01*
X006898Y016440D01*
X006744Y016504D01*
X006577Y016504D01*
X006422Y016440D01*
X006304Y016322D01*
X006267Y016231D01*
X006229Y016322D01*
X006111Y016440D01*
X005957Y016504D01*
X005789Y016504D01*
X005635Y016440D01*
X005517Y016322D01*
X005479Y016231D01*
X005442Y016322D01*
X005323Y016440D01*
X005169Y016504D01*
X005002Y016504D01*
X004848Y016440D01*
X004730Y016322D01*
X004692Y016231D01*
X004654Y016322D01*
X004536Y016440D01*
X004382Y016504D01*
X004215Y016504D01*
X004060Y016440D01*
X003942Y016322D01*
X003904Y016231D01*
X003867Y016322D01*
X003749Y016440D01*
X003594Y016504D01*
X003427Y016504D01*
X003273Y016440D01*
X003155Y016322D01*
X003117Y016231D01*
X003079Y016322D01*
X002961Y016440D01*
X002807Y016504D01*
X002640Y016504D01*
X002485Y016440D01*
X002367Y016322D01*
X002303Y016168D01*
X002303Y016001D01*
X002367Y015846D01*
X002485Y015728D01*
X002640Y015664D01*
X002807Y015664D01*
X002961Y015728D01*
X003079Y015846D01*
X003117Y015937D01*
X003155Y015846D01*
X003273Y015728D01*
X003427Y015664D01*
X003594Y015664D01*
X003749Y015728D01*
X003867Y015846D01*
X003904Y015937D01*
X003942Y015846D01*
X004060Y015728D01*
X004215Y015664D01*
X004382Y015664D01*
X004536Y015728D01*
X004654Y015846D01*
X004692Y015937D01*
X004730Y015846D01*
X004848Y015728D01*
X005002Y015664D01*
X005169Y015664D01*
X005323Y015728D01*
X005442Y015846D01*
X005479Y015937D01*
X005517Y015846D01*
X005635Y015728D01*
X005789Y015664D01*
X005957Y015664D01*
X006111Y015728D01*
X006229Y015846D01*
X006267Y015937D01*
X006304Y015846D01*
X006422Y015728D01*
X006577Y015664D01*
X006744Y015664D01*
X006898Y015728D01*
X007016Y015846D01*
X007054Y015937D01*
X007092Y015846D01*
X007210Y015728D01*
X007364Y015664D01*
X007531Y015664D01*
X007686Y015728D01*
X007804Y015846D01*
X007841Y015937D01*
X007879Y015846D01*
X007997Y015728D01*
X008152Y015664D01*
X008319Y015664D01*
X008473Y015728D01*
X008591Y015846D01*
X008629Y015937D01*
X008667Y015846D01*
X008785Y015728D01*
X008939Y015664D01*
X009106Y015664D01*
X009260Y015728D01*
X009379Y015846D01*
X009416Y015937D01*
X009454Y015846D01*
X009572Y015728D01*
X009726Y015664D01*
X009894Y015664D01*
X010048Y015728D01*
X010166Y015846D01*
X010230Y016001D01*
X010230Y016168D01*
X010166Y016322D01*
X010203Y016233D02*
X020531Y016233D01*
X020409Y016135D02*
X010230Y016135D01*
X010230Y016036D02*
X020310Y016036D01*
X020237Y015938D02*
X010204Y015938D01*
X010159Y015839D02*
X020196Y015839D01*
X020155Y015741D02*
X010060Y015741D01*
X009560Y015741D02*
X009273Y015741D01*
X009371Y015839D02*
X009461Y015839D01*
X009416Y016233D02*
X009417Y016233D01*
X009463Y016332D02*
X009369Y016332D01*
X009271Y016430D02*
X009562Y016430D01*
X010058Y016430D02*
X019419Y016430D01*
X019393Y016441D02*
X019558Y016373D01*
X019737Y016373D01*
X019903Y016441D01*
X020029Y016568D01*
X020098Y016733D01*
X020098Y016912D01*
X020029Y017077D01*
X019903Y017204D01*
X020113Y017204D01*
X020175Y017142D01*
X020267Y017104D01*
X020600Y017104D01*
X020712Y016992D01*
X020877Y016924D01*
X021056Y016924D01*
X021222Y016992D01*
X021333Y017104D01*
X021413Y017104D01*
X021805Y016712D01*
X021872Y016645D01*
X021904Y016568D01*
X022031Y016441D01*
X022196Y016373D01*
X022375Y016373D01*
X022540Y016441D01*
X022667Y016568D01*
X022736Y016733D01*
X022736Y016912D01*
X022667Y017077D01*
X022540Y017204D01*
X022375Y017273D01*
X022196Y017273D01*
X022031Y017204D01*
X022025Y017199D01*
X021658Y017566D01*
X021566Y017604D01*
X021359Y017604D01*
X021348Y017629D01*
X021222Y017755D01*
X021056Y017824D01*
X020877Y017824D01*
X020712Y017755D01*
X020585Y017629D01*
X020575Y017604D01*
X020420Y017604D01*
X020358Y017666D01*
X020266Y017704D01*
X016191Y017704D01*
X016187Y017708D01*
X016076Y017754D01*
X015957Y017754D01*
X015847Y017708D01*
X015762Y017624D01*
X015717Y017513D01*
X015717Y017394D01*
X015762Y017284D01*
X015847Y017199D01*
X015957Y017154D01*
X016076Y017154D01*
X016187Y017199D01*
X016191Y017204D01*
X019392Y017204D01*
X019266Y017077D01*
X019198Y016912D01*
X019198Y016733D01*
X019266Y016568D01*
X019393Y016441D01*
X019305Y016529D02*
X002217Y016529D01*
X002217Y016627D02*
X019242Y016627D01*
X019201Y016726D02*
X002217Y016726D01*
X002217Y016824D02*
X019198Y016824D01*
X019202Y016923D02*
X002217Y016923D01*
X002217Y017021D02*
X019243Y017021D01*
X019309Y017120D02*
X002217Y017120D01*
X002217Y017218D02*
X015828Y017218D01*
X015749Y017317D02*
X002217Y017317D01*
X002217Y017415D02*
X004856Y017415D01*
X004859Y017414D02*
X005074Y017414D01*
X005273Y017496D01*
X005424Y017648D01*
X005507Y017846D01*
X005507Y017855D01*
X005539Y017792D01*
X005585Y017728D01*
X005641Y017672D01*
X005705Y017626D01*
X005775Y017590D01*
X005850Y017566D01*
X005917Y017555D01*
X005917Y018004D01*
X006017Y018004D01*
X006017Y018104D01*
X005917Y018104D01*
X005917Y018552D01*
X005850Y018541D01*
X005775Y018517D01*
X005705Y018481D01*
X005641Y018435D01*
X005585Y018379D01*
X005539Y018316D01*
X005503Y018246D01*
X005479Y018171D01*
X005474Y018140D01*
X005424Y018260D01*
X005273Y018411D01*
X005074Y018494D01*
X004859Y018494D01*
X004661Y018411D01*
X004509Y018260D01*
X004487Y018208D01*
X004424Y018360D01*
X004273Y018511D01*
X004074Y018594D01*
X003859Y018594D01*
X003661Y018511D01*
X003509Y018360D01*
X003427Y018161D01*
X003427Y017946D01*
X003509Y017748D01*
X003661Y017596D01*
X003859Y017514D01*
X002217Y017514D01*
X002217Y017612D02*
X003644Y017612D01*
X003546Y017711D02*
X002217Y017711D01*
X002217Y017809D02*
X003483Y017809D01*
X003443Y017908D02*
X002217Y017908D01*
X002217Y018006D02*
X003427Y018006D01*
X003427Y018105D02*
X002217Y018105D01*
X002217Y018203D02*
X003444Y018203D01*
X003485Y018302D02*
X002217Y018302D01*
X002217Y018400D02*
X003550Y018400D01*
X003648Y018499D02*
X002217Y018499D01*
X002217Y018597D02*
X023720Y018597D01*
X023818Y018499D02*
X006195Y018499D01*
X006229Y018481D02*
X006159Y018517D01*
X006084Y018541D01*
X006017Y018552D01*
X006017Y018104D01*
X006465Y018104D01*
X006454Y018171D01*
X006430Y018246D01*
X006394Y018316D01*
X006348Y018379D01*
X006292Y018435D01*
X006229Y018481D01*
X006327Y018400D02*
X023917Y018400D01*
X023905Y018412D02*
X023975Y018342D01*
X024067Y018304D01*
X024177Y018304D01*
X024177Y018026D01*
X024259Y017828D01*
X024411Y017676D01*
X024609Y017594D01*
X024824Y017594D01*
X025023Y017676D01*
X025174Y017828D01*
X025239Y017985D01*
X025253Y017942D01*
X025289Y017872D01*
X025335Y017808D01*
X025391Y017752D01*
X025455Y017706D01*
X025525Y017670D01*
X025600Y017646D01*
X025667Y017635D01*
X025667Y018454D01*
X025767Y018454D01*
X025767Y018554D01*
X025667Y018554D01*
X025667Y019372D01*
X025600Y019361D01*
X025525Y019337D01*
X025455Y019301D01*
X025391Y019255D01*
X025335Y019199D01*
X025289Y019136D01*
X025253Y019066D01*
X025239Y019023D01*
X025174Y019180D01*
X025023Y019331D01*
X024824Y019414D01*
X024609Y019414D01*
X024411Y019331D01*
X024259Y019180D01*
X024177Y018981D01*
X024177Y018847D01*
X023558Y019466D01*
X023466Y019504D01*
X015667Y019504D01*
X015575Y019466D01*
X015505Y019395D01*
X015363Y019254D01*
X015357Y019254D01*
X015247Y019208D01*
X015162Y019124D01*
X015117Y019013D01*
X015117Y018894D01*
X015162Y018784D01*
X015247Y018699D01*
X015357Y018654D01*
X015476Y018654D01*
X015587Y018699D01*
X015671Y018784D01*
X015717Y018894D01*
X015717Y018900D01*
X015820Y019004D01*
X023313Y019004D01*
X023905Y018412D01*
X023905Y018412D01*
X024177Y018302D02*
X006401Y018302D01*
X006444Y018203D02*
X024177Y018203D01*
X024177Y018105D02*
X006465Y018105D01*
X006465Y018004D02*
X006017Y018004D01*
X006017Y017555D01*
X006084Y017566D01*
X006159Y017590D01*
X006229Y017626D01*
X006292Y017672D01*
X006348Y017728D01*
X006394Y017792D01*
X006430Y017862D01*
X006454Y017937D01*
X006465Y018004D01*
X006445Y017908D02*
X024226Y017908D01*
X024185Y018006D02*
X006017Y018006D01*
X006017Y017908D02*
X005917Y017908D01*
X005917Y017809D02*
X006017Y017809D01*
X006017Y017711D02*
X005917Y017711D01*
X005917Y017612D02*
X006017Y017612D01*
X006202Y017612D02*
X015758Y017612D01*
X015717Y017514D02*
X005290Y017514D01*
X005389Y017612D02*
X005732Y017612D01*
X005603Y017711D02*
X005451Y017711D01*
X005491Y017809D02*
X005530Y017809D01*
X005917Y018105D02*
X006017Y018105D01*
X006017Y018203D02*
X005917Y018203D01*
X005917Y018302D02*
X006017Y018302D01*
X006017Y018400D02*
X005917Y018400D01*
X005917Y018499D02*
X006017Y018499D01*
X005739Y018499D02*
X004285Y018499D01*
X004384Y018400D02*
X004650Y018400D01*
X004551Y018302D02*
X004448Y018302D01*
X004446Y017800D02*
X004509Y017648D01*
X004661Y017496D01*
X004859Y017414D01*
X005078Y017415D02*
X015717Y017415D01*
X015853Y017711D02*
X006331Y017711D01*
X006403Y017809D02*
X020842Y017809D01*
X020667Y017711D02*
X016180Y017711D01*
X015578Y018696D02*
X023621Y018696D01*
X023523Y018794D02*
X015675Y018794D01*
X015716Y018893D02*
X023424Y018893D01*
X023326Y018991D02*
X015808Y018991D01*
X015396Y019287D02*
X002217Y019287D01*
X002217Y019385D02*
X015495Y019385D01*
X015505Y019395D02*
X015505Y019395D01*
X015619Y019484D02*
X002217Y019484D01*
X002217Y019188D02*
X015227Y019188D01*
X015148Y019090D02*
X002217Y019090D01*
X002217Y018991D02*
X015117Y018991D01*
X015117Y018893D02*
X002217Y018893D01*
X002217Y018794D02*
X015158Y018794D01*
X015255Y018696D02*
X002217Y018696D01*
X003859Y017514D02*
X004074Y017514D01*
X004643Y017514D01*
X004544Y017612D02*
X004289Y017612D01*
X004273Y017596D02*
X004424Y017748D01*
X004446Y017800D01*
X004483Y017711D02*
X004387Y017711D01*
X004273Y017596D02*
X004074Y017514D01*
X005382Y018302D02*
X005532Y018302D01*
X005490Y018203D02*
X005448Y018203D01*
X005606Y018400D02*
X005284Y018400D01*
X005334Y016430D02*
X005625Y016430D01*
X005526Y016332D02*
X005432Y016332D01*
X005479Y016233D02*
X005480Y016233D01*
X005434Y015839D02*
X005524Y015839D01*
X005623Y015741D02*
X005336Y015741D01*
X004835Y015741D02*
X004548Y015741D01*
X004647Y015839D02*
X004737Y015839D01*
X004691Y016233D02*
X004693Y016233D01*
X004739Y016332D02*
X004645Y016332D01*
X004546Y016430D02*
X004837Y016430D01*
X004050Y016430D02*
X003759Y016430D01*
X003857Y016332D02*
X003952Y016332D01*
X003905Y016233D02*
X003904Y016233D01*
X003860Y015839D02*
X003949Y015839D01*
X004048Y015741D02*
X003761Y015741D01*
X003260Y015741D02*
X002974Y015741D01*
X003072Y015839D02*
X003162Y015839D01*
X003116Y016233D02*
X003118Y016233D01*
X003164Y016332D02*
X003070Y016332D01*
X002971Y016430D02*
X003263Y016430D01*
X002475Y016430D02*
X002217Y016430D01*
X002217Y016332D02*
X002377Y016332D01*
X002330Y016233D02*
X002217Y016233D01*
X002217Y016135D02*
X002303Y016135D01*
X002303Y016036D02*
X002217Y016036D01*
X002217Y015938D02*
X002330Y015938D01*
X002375Y015839D02*
X002217Y015839D01*
X002217Y015741D02*
X002473Y015741D01*
X002217Y015642D02*
X020126Y015642D01*
X020126Y015544D02*
X002217Y015544D01*
X002217Y015445D02*
X020126Y015445D01*
X020126Y015347D02*
X002217Y015347D01*
X002217Y015248D02*
X020163Y015248D01*
X020203Y015150D02*
X002217Y015150D01*
X002217Y015051D02*
X020244Y015051D01*
X020329Y014953D02*
X002217Y014953D01*
X002217Y014854D02*
X020427Y014854D01*
X020576Y014756D02*
X002217Y014756D01*
X002217Y014460D02*
X010199Y014460D01*
X010137Y014362D02*
X002217Y014362D01*
X002217Y014263D02*
X010117Y014263D01*
X010129Y014165D02*
X002217Y014165D01*
X002217Y014066D02*
X010180Y014066D01*
X010323Y013968D02*
X002217Y013968D01*
X002217Y013869D02*
X011104Y013869D01*
X011203Y013771D02*
X002217Y013771D01*
X002217Y013672D02*
X011301Y013672D01*
X011325Y013574D02*
X002217Y013574D01*
X002217Y013475D02*
X011371Y013475D01*
X011501Y013377D02*
X002217Y013377D01*
X006123Y015741D02*
X006410Y015741D01*
X006312Y015839D02*
X006222Y015839D01*
X006266Y016233D02*
X006267Y016233D01*
X006220Y016332D02*
X006314Y016332D01*
X006412Y016430D02*
X006121Y016430D01*
X006909Y016430D02*
X007200Y016430D01*
X007101Y016332D02*
X007007Y016332D01*
X007053Y016233D02*
X007055Y016233D01*
X007009Y015839D02*
X007099Y015839D01*
X007197Y015741D02*
X006911Y015741D01*
X007698Y015741D02*
X007985Y015741D01*
X007886Y015839D02*
X007797Y015839D01*
X007841Y016233D02*
X007842Y016233D01*
X007889Y016332D02*
X007794Y016332D01*
X007696Y016430D02*
X007987Y016430D01*
X008483Y016430D02*
X008774Y016430D01*
X008676Y016332D02*
X008582Y016332D01*
X008628Y016233D02*
X008630Y016233D01*
X008584Y015839D02*
X008674Y015839D01*
X008772Y015741D02*
X008485Y015741D01*
X010510Y013968D02*
X011006Y013968D01*
X019876Y016430D02*
X022057Y016430D01*
X021943Y016529D02*
X019990Y016529D01*
X020054Y016627D02*
X021879Y016627D01*
X021791Y016726D02*
X020095Y016726D01*
X020098Y016824D02*
X021693Y016824D01*
X021594Y016923D02*
X020093Y016923D01*
X020053Y017021D02*
X020683Y017021D01*
X021251Y017021D02*
X021496Y017021D01*
X021907Y017317D02*
X028159Y017317D01*
X028218Y017258D02*
X028542Y017124D01*
X028892Y017124D01*
X029215Y017258D01*
X029463Y017505D01*
X029597Y017829D01*
X029597Y018179D01*
X029463Y018502D01*
X029215Y018750D01*
X028892Y018884D01*
X028542Y018884D01*
X028218Y018750D01*
X027971Y018502D01*
X027837Y018179D01*
X027837Y017829D01*
X027971Y017505D01*
X028218Y017258D01*
X028314Y017218D02*
X022506Y017218D01*
X022625Y017120D02*
X030717Y017120D01*
X030717Y017218D02*
X029120Y017218D01*
X029274Y017317D02*
X030717Y017317D01*
X030717Y017415D02*
X029373Y017415D01*
X029466Y017514D02*
X030717Y017514D01*
X030717Y017612D02*
X029507Y017612D01*
X029548Y017711D02*
X030717Y017711D01*
X030717Y017809D02*
X029589Y017809D01*
X029597Y017908D02*
X030717Y017908D01*
X030717Y018006D02*
X029597Y018006D01*
X029597Y018105D02*
X030717Y018105D01*
X030717Y018203D02*
X029586Y018203D01*
X029546Y018302D02*
X030717Y018302D01*
X030717Y018400D02*
X029505Y018400D01*
X029464Y018499D02*
X030717Y018499D01*
X030717Y018597D02*
X029368Y018597D01*
X029269Y018696D02*
X030717Y018696D01*
X030717Y018794D02*
X029107Y018794D01*
X028326Y018794D02*
X026217Y018794D01*
X026217Y018696D02*
X028164Y018696D01*
X028066Y018597D02*
X026217Y018597D01*
X026217Y018554D02*
X026217Y018913D01*
X026204Y018991D01*
X030717Y018991D01*
X030717Y018893D02*
X026217Y018893D01*
X026204Y018991D02*
X026180Y019066D01*
X026144Y019136D01*
X026098Y019199D01*
X026042Y019255D01*
X025979Y019301D01*
X025909Y019337D01*
X025834Y019361D01*
X025767Y019372D01*
X025767Y018554D01*
X026217Y018554D01*
X026217Y018454D02*
X025767Y018454D01*
X025767Y017635D01*
X025834Y017646D01*
X025909Y017670D01*
X025979Y017706D01*
X026042Y017752D01*
X026098Y017808D01*
X026144Y017872D01*
X026180Y017942D01*
X026204Y018017D01*
X026217Y018094D01*
X026217Y018454D01*
X026217Y018400D02*
X027929Y018400D01*
X027888Y018302D02*
X026217Y018302D01*
X026217Y018203D02*
X027847Y018203D01*
X027837Y018105D02*
X026217Y018105D01*
X026201Y018006D02*
X027837Y018006D01*
X027837Y017908D02*
X026163Y017908D01*
X026099Y017809D02*
X027845Y017809D01*
X027886Y017711D02*
X025985Y017711D01*
X025767Y017711D02*
X025667Y017711D01*
X025667Y017809D02*
X025767Y017809D01*
X025767Y017908D02*
X025667Y017908D01*
X025667Y018006D02*
X025767Y018006D01*
X025767Y018105D02*
X025667Y018105D01*
X025667Y018203D02*
X025767Y018203D01*
X025767Y018302D02*
X025667Y018302D01*
X025667Y018400D02*
X025767Y018400D01*
X025767Y018499D02*
X027969Y018499D01*
X027926Y017612D02*
X024869Y017612D01*
X025057Y017711D02*
X025448Y017711D01*
X025334Y017809D02*
X025156Y017809D01*
X025208Y017908D02*
X025271Y017908D01*
X024564Y017612D02*
X021355Y017612D01*
X021266Y017711D02*
X024376Y017711D01*
X024277Y017809D02*
X021091Y017809D01*
X020578Y017612D02*
X020412Y017612D01*
X020228Y017120D02*
X019987Y017120D01*
X021710Y017514D02*
X027967Y017514D01*
X028061Y017415D02*
X021809Y017415D01*
X022006Y017218D02*
X022065Y017218D01*
X022690Y017021D02*
X030717Y017021D01*
X030717Y016923D02*
X022731Y016923D01*
X022736Y016824D02*
X030717Y016824D01*
X030717Y016726D02*
X022733Y016726D01*
X022692Y016627D02*
X030717Y016627D01*
X030717Y016529D02*
X022628Y016529D01*
X022514Y016430D02*
X030717Y016430D01*
X030717Y019090D02*
X026168Y019090D01*
X026106Y019188D02*
X030717Y019188D01*
X030717Y019287D02*
X025999Y019287D01*
X025767Y019287D02*
X025667Y019287D01*
X025667Y019188D02*
X025767Y019188D01*
X025767Y019090D02*
X025667Y019090D01*
X025667Y018991D02*
X025767Y018991D01*
X025767Y018893D02*
X025667Y018893D01*
X025667Y018794D02*
X025767Y018794D01*
X025767Y018696D02*
X025667Y018696D01*
X025667Y018597D02*
X025767Y018597D01*
X025266Y019090D02*
X025212Y019090D01*
X025166Y019188D02*
X025327Y019188D01*
X025435Y019287D02*
X025067Y019287D01*
X024893Y019385D02*
X030717Y019385D01*
X030717Y019484D02*
X023515Y019484D01*
X023639Y019385D02*
X024541Y019385D01*
X024366Y019287D02*
X023737Y019287D01*
X023836Y019188D02*
X024268Y019188D01*
X024222Y019090D02*
X023934Y019090D01*
X024033Y018991D02*
X024181Y018991D01*
X024177Y018893D02*
X024131Y018893D01*
X020664Y013968D02*
X020045Y013968D01*
X019969Y013869D02*
X020577Y013869D01*
X022549Y008550D02*
X002217Y008550D01*
X002217Y008452D02*
X022390Y008452D01*
X022333Y008353D02*
X002217Y008353D01*
X002217Y008255D02*
X021215Y008255D01*
X021116Y008156D02*
X002217Y008156D01*
X002217Y008058D02*
X002796Y008058D01*
X002736Y007959D02*
X002217Y007959D01*
X002217Y007861D02*
X002717Y007861D01*
X002469Y007762D02*
X002217Y007762D01*
X002217Y007664D02*
X002370Y007664D01*
X002328Y007565D02*
X002217Y007565D01*
X002217Y007467D02*
X002303Y007467D01*
X002303Y007368D02*
X002217Y007368D01*
X002217Y007270D02*
X002332Y007270D01*
X002381Y007171D02*
X002217Y007171D01*
X002217Y007073D02*
X002480Y007073D01*
X002707Y006974D02*
X002217Y006974D01*
X002217Y006876D02*
X002707Y006876D01*
X002707Y006777D02*
X002217Y006777D01*
X002217Y006679D02*
X002707Y006679D01*
X002707Y006580D02*
X002217Y006580D01*
X002217Y006482D02*
X002707Y006482D01*
X002707Y006383D02*
X002217Y006383D01*
X002217Y006285D02*
X002707Y006285D01*
X002707Y006186D02*
X002217Y006186D01*
X002217Y006088D02*
X002707Y006088D01*
X002784Y005989D02*
X002217Y005989D01*
X002217Y005891D02*
X002883Y005891D01*
X002981Y005792D02*
X002217Y005792D01*
X002217Y005694D02*
X003080Y005694D01*
X003178Y005595D02*
X002217Y005595D01*
X002217Y005497D02*
X003277Y005497D01*
X003375Y005398D02*
X002217Y005398D01*
X002217Y005300D02*
X003474Y005300D01*
X003572Y005201D02*
X002217Y005201D01*
X002217Y005103D02*
X003671Y005103D01*
X003769Y005004D02*
X002217Y005004D01*
X002217Y004906D02*
X005440Y004906D01*
X005793Y004906D02*
X009268Y004906D01*
X009169Y005004D02*
X005879Y005004D01*
X005917Y005103D02*
X008971Y005103D01*
X010142Y006876D02*
X005092Y006876D01*
X004993Y006974D02*
X010125Y006974D01*
X010117Y007073D02*
X009957Y007073D01*
X009990Y007086D02*
X010052Y007128D01*
X010105Y007181D01*
X010147Y007243D01*
X010175Y007312D01*
X010190Y007386D01*
X010190Y007394D01*
X009839Y007394D01*
X009839Y007043D01*
X009847Y007043D01*
X009921Y007058D01*
X009990Y007086D01*
X010096Y007171D02*
X010141Y007171D01*
X010158Y007270D02*
X010208Y007270D01*
X010187Y007368D02*
X010539Y007368D01*
X010605Y007467D02*
X010189Y007467D01*
X010190Y007460D02*
X010175Y007534D01*
X010147Y007603D01*
X010105Y007665D01*
X010052Y007718D01*
X009990Y007760D01*
X009921Y007788D01*
X009847Y007803D01*
X009839Y007803D01*
X009839Y007452D01*
X010190Y007452D01*
X010190Y007460D01*
X010162Y007565D02*
X024131Y007565D01*
X024133Y007664D02*
X010106Y007664D01*
X009984Y007762D02*
X021198Y007762D01*
X021112Y007861D02*
X003317Y007861D01*
X003298Y007959D02*
X021077Y007959D01*
X021077Y008058D02*
X003237Y008058D01*
X003766Y007762D02*
X004043Y007762D01*
X003945Y007664D02*
X003864Y007664D01*
X004553Y007762D02*
X004831Y007762D01*
X004732Y007664D02*
X004651Y007664D01*
X005340Y007762D02*
X005618Y007762D01*
X005520Y007664D02*
X005439Y007664D01*
X005477Y007270D02*
X005482Y007270D01*
X005531Y007171D02*
X005428Y007171D01*
X005329Y007073D02*
X005629Y007073D01*
X006117Y007073D02*
X006417Y007073D01*
X006318Y007171D02*
X006215Y007171D01*
X006264Y007270D02*
X006269Y007270D01*
X006307Y007664D02*
X006226Y007664D01*
X006128Y007762D02*
X006406Y007762D01*
X006915Y007762D02*
X007193Y007762D01*
X007095Y007664D02*
X007014Y007664D01*
X007051Y007270D02*
X007057Y007270D01*
X007106Y007171D02*
X007003Y007171D01*
X006904Y007073D02*
X007204Y007073D01*
X007691Y007073D02*
X007991Y007073D01*
X007893Y007171D02*
X007790Y007171D01*
X007839Y007270D02*
X007844Y007270D01*
X007882Y007664D02*
X007801Y007664D01*
X007703Y007762D02*
X007980Y007762D01*
X008490Y007762D02*
X008768Y007762D01*
X008669Y007664D02*
X008588Y007664D01*
X008626Y007270D02*
X008631Y007270D01*
X008680Y007171D02*
X008577Y007171D01*
X008479Y007073D02*
X008779Y007073D01*
X009266Y007073D02*
X009663Y007073D01*
X009781Y007073D02*
X009839Y007073D01*
X009839Y007171D02*
X009781Y007171D01*
X009781Y007270D02*
X009839Y007270D01*
X009839Y007368D02*
X009781Y007368D01*
X009781Y007467D02*
X009839Y007467D01*
X009839Y007565D02*
X009781Y007565D01*
X009781Y007664D02*
X009839Y007664D01*
X009839Y007762D02*
X009781Y007762D01*
X009636Y007762D02*
X009277Y007762D01*
X009376Y007664D02*
X009514Y007664D01*
X009458Y007565D02*
X009418Y007565D01*
X009414Y007270D02*
X009462Y007270D01*
X009524Y007171D02*
X009365Y007171D01*
X011028Y007467D02*
X024033Y007467D01*
X023934Y007368D02*
X011094Y007368D01*
X014917Y004807D02*
X002217Y004807D01*
X002217Y004709D02*
X014917Y004709D01*
X014951Y004610D02*
X002217Y004610D01*
X002217Y004512D02*
X015034Y004512D01*
X015399Y004512D02*
X021362Y004512D01*
X021460Y004413D02*
X002217Y004413D01*
X002217Y004315D02*
X021559Y004315D01*
X021657Y004216D02*
X002217Y004216D01*
X002217Y004118D02*
X021756Y004118D01*
X021854Y004019D02*
X002217Y004019D01*
X002217Y003921D02*
X021953Y003921D01*
X022051Y003822D02*
X002217Y003822D01*
X002217Y003724D02*
X025646Y003724D01*
X025721Y003625D02*
X002217Y003625D01*
X015482Y004610D02*
X021263Y004610D01*
X021518Y008255D02*
X022317Y008255D01*
X028912Y003625D02*
X030717Y003625D01*
X030717Y003527D02*
X029150Y003527D01*
X029287Y003428D02*
X030717Y003428D01*
X030717Y003330D02*
X029385Y003330D01*
X029471Y003231D02*
X030717Y003231D01*
X030717Y003133D02*
X029512Y003133D01*
X029553Y003034D02*
X030717Y003034D01*
X030717Y002936D02*
X029594Y002936D01*
X029597Y002837D02*
X030717Y002837D01*
X030717Y002739D02*
X029597Y002739D01*
X029597Y002640D02*
X030717Y002640D01*
X030717Y002542D02*
X029581Y002542D01*
X029540Y002443D02*
X030717Y002443D01*
X030717Y002345D02*
X029500Y002345D01*
X029454Y002246D02*
X030717Y002246D01*
X030717Y002148D02*
X029355Y002148D01*
X029257Y002049D02*
X030717Y002049D01*
X030717Y001951D02*
X029077Y001951D01*
D22*
X025617Y012504D02*
X025617Y014504D01*
X026717Y015604D01*
M02*
