G75*
G70*
%OFA0B0*%
%FSLAX24Y24*%
%IPPOS*%
%LPD*%
%AMOC8*
5,1,8,0,0,1.08239X$1,22.5*
%
%ADD10C,0.0030*%
%ADD11C,0.0000*%
%ADD12C,0.0040*%
%ADD13C,0.0020*%
%ADD14C,0.0080*%
%ADD15R,0.0059X0.0118*%
%ADD16R,0.0118X0.0118*%
%ADD17C,0.0050*%
%ADD18C,0.0001*%
%ADD19C,0.0039*%
%ADD20C,0.0060*%
%ADD21C,0.0118*%
%ADD22C,0.0100*%
%ADD23C,0.0056*%
%ADD24C,0.0010*%
D10*
X002807Y003519D02*
X002807Y003712D01*
X002807Y003615D02*
X003097Y003615D01*
X003097Y003813D02*
X002807Y004007D01*
X002807Y003813D02*
X003097Y004007D01*
X004094Y003958D02*
X004094Y003862D01*
X004143Y003813D01*
X004191Y003813D01*
X004240Y003862D01*
X004240Y003958D01*
X004288Y004007D01*
X004336Y004007D01*
X004385Y003958D01*
X004385Y003862D01*
X004336Y003813D01*
X004385Y003712D02*
X004191Y003712D01*
X004094Y003615D01*
X004191Y003519D01*
X004385Y003519D01*
X004240Y003519D02*
X004240Y003712D01*
X004094Y003958D02*
X004143Y004007D01*
X004143Y004108D02*
X004191Y004108D01*
X004240Y004156D01*
X004240Y004253D01*
X004288Y004301D01*
X004336Y004301D01*
X004385Y004253D01*
X004385Y004156D01*
X004336Y004108D01*
X004143Y004108D02*
X004094Y004156D01*
X004094Y004253D01*
X004143Y004301D01*
X004143Y004403D02*
X004336Y004403D01*
X004385Y004451D01*
X004385Y004548D01*
X004336Y004596D01*
X004143Y004596D01*
X004094Y004548D01*
X004094Y004451D01*
X004143Y004403D01*
X004143Y004697D02*
X004336Y004697D01*
X004385Y004746D01*
X004385Y004842D01*
X004336Y004891D01*
X004143Y004891D02*
X004094Y004842D01*
X004094Y004746D01*
X004143Y004697D01*
X004052Y004769D02*
X003761Y004769D01*
X003761Y004914D01*
X003810Y004962D01*
X003907Y004962D01*
X003955Y004914D01*
X003955Y004769D01*
X003955Y004865D02*
X004052Y004962D01*
X004052Y005063D02*
X003761Y005063D01*
X004052Y005257D01*
X003761Y005257D01*
X003858Y005358D02*
X003761Y005455D01*
X004052Y005455D01*
X004052Y005551D02*
X004052Y005358D01*
X005320Y004499D02*
X005320Y004403D01*
X005320Y004451D02*
X005610Y004451D01*
X005610Y004403D02*
X005610Y004499D01*
X005562Y004301D02*
X005610Y004253D01*
X005610Y004156D01*
X005562Y004108D01*
X005562Y004007D02*
X005610Y003958D01*
X005610Y003862D01*
X005562Y003813D01*
X005465Y003862D02*
X005465Y003958D01*
X005513Y004007D01*
X005562Y004007D01*
X005465Y003862D02*
X005416Y003813D01*
X005368Y003813D01*
X005320Y003862D01*
X005320Y003958D01*
X005368Y004007D01*
X005368Y004108D02*
X005416Y004108D01*
X005465Y004156D01*
X005465Y004253D01*
X005513Y004301D01*
X005562Y004301D01*
X005368Y004301D02*
X005320Y004253D01*
X005320Y004156D01*
X005368Y004108D01*
X005368Y003712D02*
X005465Y003712D01*
X005513Y003664D01*
X005513Y003519D01*
X005513Y003615D02*
X005610Y003712D01*
X005610Y003519D02*
X005320Y003519D01*
X005320Y003664D01*
X005368Y003712D01*
X006532Y003712D02*
X006823Y003519D01*
X006823Y003712D02*
X006532Y003519D01*
X006532Y003813D02*
X006532Y003958D01*
X006581Y004007D01*
X006629Y004007D01*
X006677Y003958D01*
X006677Y003813D01*
X006532Y003813D02*
X006823Y003813D01*
X006823Y003958D01*
X006774Y004007D01*
X006726Y004007D01*
X006677Y003958D01*
X006871Y004108D02*
X006871Y004301D01*
X006774Y004403D02*
X006823Y004451D01*
X006823Y004548D01*
X006774Y004596D01*
X006581Y004596D01*
X006532Y004548D01*
X006532Y004451D01*
X006581Y004403D01*
X006774Y004403D01*
X006823Y004697D02*
X006532Y004697D01*
X006823Y004891D01*
X006532Y004891D01*
X007811Y004007D02*
X008102Y003813D01*
X008102Y003712D02*
X008005Y003615D01*
X008005Y003664D02*
X008005Y003519D01*
X008102Y003519D02*
X007811Y003519D01*
X007811Y003664D01*
X007860Y003712D01*
X007957Y003712D01*
X008005Y003664D01*
X007811Y003813D02*
X008102Y004007D01*
X009011Y003958D02*
X009011Y003862D01*
X009060Y003813D01*
X009253Y003813D01*
X009302Y003862D01*
X009302Y003958D01*
X009253Y004007D01*
X009060Y004007D01*
X009011Y003958D01*
X009205Y003910D02*
X009302Y004007D01*
X009302Y003712D02*
X009108Y003712D01*
X009011Y003615D01*
X009108Y003519D01*
X009302Y003519D01*
X009157Y003519D02*
X009157Y003712D01*
X010311Y003712D02*
X010408Y003615D01*
X010311Y003519D01*
X010602Y003519D01*
X010602Y003712D02*
X010311Y003712D01*
X010360Y003813D02*
X010553Y003813D01*
X010602Y003862D01*
X010602Y003958D01*
X010553Y004007D01*
X010360Y004007D01*
X010311Y003958D01*
X010311Y003862D01*
X010360Y003813D01*
X010311Y004108D02*
X010311Y004301D01*
X010311Y004205D02*
X010602Y004205D01*
X010661Y004619D02*
X010661Y004764D01*
X010710Y004812D01*
X010807Y004812D01*
X010855Y004764D01*
X010855Y004619D01*
X010855Y004715D02*
X010952Y004812D01*
X010952Y004913D02*
X010661Y004913D01*
X010952Y005107D01*
X010661Y005107D01*
X010710Y005208D02*
X010661Y005256D01*
X010661Y005353D01*
X010710Y005401D01*
X010758Y005401D01*
X010952Y005208D01*
X010952Y005401D01*
X010952Y004619D02*
X010661Y004619D01*
X011561Y004301D02*
X011561Y004108D01*
X011561Y004205D02*
X011852Y004205D01*
X011803Y004007D02*
X011852Y003958D01*
X011852Y003862D01*
X011803Y003813D01*
X011610Y003813D01*
X011561Y003862D01*
X011561Y003958D01*
X011610Y004007D01*
X011658Y003712D02*
X011852Y003712D01*
X011707Y003712D02*
X011707Y003519D01*
X011658Y003519D02*
X011561Y003615D01*
X011658Y003712D01*
X011658Y003519D02*
X011852Y003519D01*
X013357Y003617D02*
X013357Y003714D01*
X013406Y003762D01*
X013454Y003762D01*
X013503Y003714D01*
X013551Y003762D01*
X013599Y003762D01*
X013648Y003714D01*
X013648Y003617D01*
X013599Y003569D01*
X013599Y003467D02*
X013648Y003419D01*
X013648Y003322D01*
X013599Y003274D01*
X013406Y003274D01*
X013357Y003322D01*
X013357Y003419D01*
X013406Y003467D01*
X013599Y003467D01*
X013648Y003467D02*
X013551Y003371D01*
X013406Y003569D02*
X013357Y003617D01*
X013503Y003665D02*
X013503Y003714D01*
X014634Y005354D02*
X014731Y005354D01*
X014780Y005403D01*
X014881Y005403D02*
X014929Y005354D01*
X015026Y005354D01*
X015074Y005403D01*
X015074Y005451D01*
X015026Y005499D01*
X014881Y005499D01*
X014881Y005403D01*
X014881Y005499D02*
X014977Y005596D01*
X015074Y005644D01*
X014780Y005596D02*
X014731Y005644D01*
X014634Y005644D01*
X014586Y005596D01*
X014586Y005403D01*
X014634Y005354D01*
X015024Y006473D02*
X015218Y006473D01*
X015266Y006521D01*
X015266Y006618D01*
X015218Y006667D01*
X015218Y006768D02*
X015266Y006816D01*
X015266Y006913D01*
X015218Y006961D01*
X015121Y006961D01*
X015073Y006913D01*
X015073Y006864D01*
X015121Y006768D01*
X014976Y006768D01*
X014976Y006961D01*
X015024Y006667D02*
X014976Y006618D01*
X014976Y006521D01*
X015024Y006473D01*
X014072Y007129D02*
X013781Y007129D01*
X013781Y007274D01*
X013830Y007323D01*
X013927Y007323D01*
X013975Y007274D01*
X013975Y007129D01*
X013975Y007226D02*
X014072Y007323D01*
X014072Y007424D02*
X014023Y007424D01*
X013830Y007618D01*
X013781Y007618D01*
X013781Y007424D01*
X013781Y008479D02*
X013781Y008624D01*
X013830Y008673D01*
X013927Y008673D01*
X013975Y008624D01*
X013975Y008479D01*
X014072Y008479D02*
X013781Y008479D01*
X013975Y008576D02*
X014072Y008673D01*
X014023Y008774D02*
X013927Y008774D01*
X013927Y008919D01*
X013975Y008968D01*
X014023Y008968D01*
X014072Y008919D01*
X014072Y008822D01*
X014023Y008774D01*
X013927Y008774D02*
X013830Y008871D01*
X013781Y008968D01*
X015911Y009012D02*
X015960Y008963D01*
X016008Y008963D01*
X016057Y009012D01*
X016057Y009108D01*
X016105Y009157D01*
X016153Y009157D01*
X016202Y009108D01*
X016202Y009012D01*
X016153Y008963D01*
X016105Y008963D01*
X016057Y009012D01*
X016057Y009108D02*
X016008Y009157D01*
X015960Y009157D01*
X015911Y009108D01*
X015911Y009012D01*
X015960Y008862D02*
X016057Y008862D01*
X016105Y008814D01*
X016105Y008669D01*
X016105Y008765D02*
X016202Y008862D01*
X016202Y008669D02*
X015911Y008669D01*
X015911Y008814D01*
X015960Y008862D01*
X017011Y008907D02*
X017011Y008713D01*
X017157Y008713D01*
X017108Y008810D01*
X017108Y008858D01*
X017157Y008907D01*
X017253Y008907D01*
X017302Y008858D01*
X017302Y008762D01*
X017253Y008713D01*
X017253Y008612D02*
X017011Y008612D01*
X017011Y008419D02*
X017253Y008419D01*
X017302Y008467D01*
X017302Y008564D01*
X017253Y008612D01*
X018232Y008817D02*
X018280Y008769D01*
X018377Y008769D01*
X018425Y008817D01*
X018526Y008817D02*
X018575Y008769D01*
X018671Y008769D01*
X018720Y008817D01*
X018720Y008865D01*
X018671Y008914D01*
X018575Y008914D01*
X018526Y008962D01*
X018526Y009011D01*
X018575Y009059D01*
X018671Y009059D01*
X018720Y009011D01*
X018720Y008962D01*
X018671Y008914D01*
X018575Y008914D02*
X018526Y008865D01*
X018526Y008817D01*
X018425Y009011D02*
X018377Y009059D01*
X018280Y009059D01*
X018232Y009011D01*
X018232Y008817D01*
X018252Y009369D02*
X017961Y009369D01*
X018252Y009369D02*
X018252Y009562D01*
X018252Y009663D02*
X018058Y009857D01*
X018010Y009857D01*
X017961Y009808D01*
X017961Y009712D01*
X018010Y009663D01*
X018252Y009663D02*
X018252Y009857D01*
X019882Y009009D02*
X019882Y008815D01*
X019978Y008719D01*
X020075Y008815D01*
X020075Y009009D01*
X020176Y009009D02*
X020321Y009009D01*
X020370Y008961D01*
X020370Y008864D01*
X020321Y008815D01*
X020176Y008815D01*
X020176Y008719D02*
X020176Y009009D01*
X020273Y008815D02*
X020370Y008719D01*
X020471Y008719D02*
X020664Y008719D01*
X020568Y008719D02*
X020568Y009009D01*
X020471Y008912D01*
X018070Y006359D02*
X018070Y006311D01*
X017876Y006117D01*
X017876Y006069D01*
X017775Y006117D02*
X017727Y006069D01*
X017630Y006069D01*
X017582Y006117D01*
X017582Y006311D01*
X017630Y006359D01*
X017727Y006359D01*
X017775Y006311D01*
X017876Y006359D02*
X018070Y006359D01*
X018582Y006309D02*
X018582Y006019D01*
X018582Y006115D02*
X018727Y006115D01*
X018775Y006164D01*
X018775Y006261D01*
X018727Y006309D01*
X018582Y006309D01*
X018678Y006115D02*
X018775Y006019D01*
X018876Y006019D02*
X019070Y006019D01*
X018973Y006019D02*
X018973Y006309D01*
X018876Y006212D01*
X019171Y006261D02*
X019219Y006309D01*
X019316Y006309D01*
X019364Y006261D01*
X019171Y006067D01*
X019219Y006019D01*
X019316Y006019D01*
X019364Y006067D01*
X019364Y006261D01*
X019171Y006261D02*
X019171Y006067D01*
X020257Y006019D02*
X020257Y006309D01*
X020402Y006309D01*
X020450Y006261D01*
X020450Y006164D01*
X020402Y006115D01*
X020257Y006115D01*
X020353Y006115D02*
X020450Y006019D01*
X020551Y006019D02*
X020745Y006019D01*
X020648Y006019D02*
X020648Y006309D01*
X020551Y006212D01*
X020846Y006212D02*
X020943Y006309D01*
X020943Y006019D01*
X021039Y006019D02*
X020846Y006019D01*
X020842Y004889D02*
X020842Y004599D01*
X021036Y004599D01*
X020939Y004744D02*
X020842Y004744D01*
X020741Y004695D02*
X020741Y004647D01*
X020693Y004599D01*
X020596Y004599D01*
X020548Y004647D01*
X020596Y004744D02*
X020693Y004744D01*
X020741Y004695D01*
X020741Y004841D02*
X020693Y004889D01*
X020596Y004889D01*
X020548Y004841D01*
X020548Y004792D01*
X020596Y004744D01*
X020447Y004889D02*
X020253Y004889D01*
X020253Y004599D01*
X020447Y004599D01*
X020350Y004744D02*
X020253Y004744D01*
X020152Y004744D02*
X020104Y004695D01*
X019958Y004695D01*
X019958Y004599D02*
X019958Y004889D01*
X020104Y004889D01*
X020152Y004841D01*
X020152Y004744D01*
X020055Y004695D02*
X020152Y004599D01*
X020842Y004889D02*
X021036Y004889D01*
X021137Y004889D02*
X021331Y004889D01*
X021234Y004889D02*
X021234Y004599D01*
X024076Y003479D02*
X024261Y003294D01*
X024261Y003541D01*
X024446Y003479D02*
X024076Y003479D01*
X024138Y003173D02*
X024076Y003111D01*
X024076Y002987D01*
X024138Y002926D01*
X024384Y002926D01*
X024446Y002987D01*
X024446Y003111D01*
X024384Y003173D01*
X025770Y002333D02*
X025770Y002086D01*
X025832Y002024D01*
X025956Y002024D01*
X026017Y002086D01*
X026139Y002024D02*
X026386Y002024D01*
X026262Y002024D02*
X026262Y002394D01*
X026139Y002271D01*
X026017Y002333D02*
X025956Y002394D01*
X025832Y002394D01*
X025770Y002333D01*
X026507Y002394D02*
X026507Y002209D01*
X026630Y002271D01*
X026692Y002271D01*
X026754Y002209D01*
X026754Y002086D01*
X026692Y002024D01*
X026569Y002024D01*
X026507Y002086D01*
X026507Y002394D02*
X026754Y002394D01*
X021081Y002141D02*
X021032Y002189D01*
X020935Y002189D01*
X020887Y002141D01*
X020786Y002044D02*
X020592Y002044D01*
X020737Y002189D01*
X020737Y001899D01*
X020887Y001899D02*
X021081Y002092D01*
X021081Y002141D01*
X021081Y001899D02*
X020887Y001899D01*
X020491Y001947D02*
X020443Y001899D01*
X020346Y001899D01*
X020298Y001947D01*
X020346Y002044D02*
X020443Y002044D01*
X020491Y001995D01*
X020491Y001947D01*
X020346Y002044D02*
X020298Y002092D01*
X020298Y002141D01*
X020346Y002189D01*
X020443Y002189D01*
X020491Y002141D01*
X020197Y002189D02*
X020003Y002189D01*
X020100Y002189D02*
X020100Y001899D01*
X016921Y005319D02*
X016970Y005367D01*
X016970Y005561D01*
X016921Y005609D01*
X016825Y005609D01*
X016776Y005561D01*
X016776Y005512D01*
X016825Y005464D01*
X016970Y005464D01*
X016921Y005319D02*
X016825Y005319D01*
X016776Y005367D01*
X016675Y005319D02*
X016578Y005415D01*
X016627Y005415D02*
X016482Y005415D01*
X016482Y005319D02*
X016482Y005609D01*
X016627Y005609D01*
X016675Y005561D01*
X016675Y005464D01*
X016627Y005415D01*
X016202Y009769D02*
X015911Y009769D01*
X016202Y009769D02*
X016202Y009962D01*
X016202Y010063D02*
X016202Y010257D01*
X016202Y010160D02*
X015911Y010160D01*
X016008Y010063D01*
X014226Y011854D02*
X014129Y011854D01*
X014081Y011903D01*
X013980Y011903D02*
X013931Y011854D01*
X013834Y011854D01*
X013786Y011903D01*
X013786Y012096D01*
X013834Y012144D01*
X013931Y012144D01*
X013980Y012096D01*
X014081Y012096D02*
X014129Y012144D01*
X014226Y012144D01*
X014274Y012096D01*
X014274Y012048D01*
X014226Y011999D01*
X014274Y011951D01*
X014274Y011903D01*
X014226Y011854D01*
X014226Y011999D02*
X014177Y011999D01*
X015020Y012336D02*
X015082Y012274D01*
X015206Y012274D01*
X015267Y012336D01*
X015389Y012274D02*
X015636Y012274D01*
X015512Y012274D02*
X015512Y012644D01*
X015389Y012521D01*
X015267Y012583D02*
X015206Y012644D01*
X015082Y012644D01*
X015020Y012583D01*
X015020Y012336D01*
X015757Y012336D02*
X015757Y012398D01*
X015819Y012459D01*
X015942Y012459D01*
X016004Y012398D01*
X016004Y012336D01*
X015942Y012274D01*
X015819Y012274D01*
X015757Y012336D01*
X015819Y012459D02*
X015757Y012521D01*
X015757Y012583D01*
X015819Y012644D01*
X015942Y012644D01*
X016004Y012583D01*
X016004Y012521D01*
X015942Y012459D01*
X014631Y013430D02*
X014438Y013430D01*
X014631Y013624D01*
X014631Y013672D01*
X014583Y013721D01*
X014486Y013721D01*
X014438Y013672D01*
X014337Y013672D02*
X014288Y013721D01*
X014191Y013721D01*
X014143Y013672D01*
X014143Y013479D01*
X014191Y013430D01*
X014288Y013430D01*
X014337Y013479D01*
X014501Y015383D02*
X014501Y015480D01*
X014501Y015431D02*
X014792Y015431D01*
X014792Y015383D02*
X014792Y015480D01*
X014743Y015579D02*
X014550Y015579D01*
X014501Y015628D01*
X014501Y015724D01*
X014550Y015773D01*
X014598Y015874D02*
X014501Y015971D01*
X014792Y015971D01*
X014792Y015874D02*
X014792Y016068D01*
X014743Y015773D02*
X014792Y015724D01*
X014792Y015628D01*
X014743Y015579D01*
X010972Y017535D02*
X010681Y017535D01*
X010681Y017680D01*
X010730Y017728D01*
X010827Y017728D01*
X010875Y017680D01*
X010875Y017535D01*
X010875Y017631D02*
X010972Y017728D01*
X010972Y017829D02*
X010972Y018023D01*
X010972Y017926D02*
X010681Y017926D01*
X010778Y017829D01*
X010827Y018124D02*
X010827Y018269D01*
X010875Y018318D01*
X010923Y018318D01*
X010972Y018269D01*
X010972Y018172D01*
X010923Y018124D01*
X010827Y018124D01*
X010730Y018221D01*
X010681Y018318D01*
X012843Y018860D02*
X012891Y018812D01*
X012988Y018812D01*
X013037Y018860D01*
X013138Y018812D02*
X013331Y018812D01*
X013234Y018812D02*
X013234Y019102D01*
X013138Y019005D01*
X013037Y019053D02*
X012988Y019102D01*
X012891Y019102D01*
X012843Y019053D01*
X012843Y018860D01*
X007502Y018308D02*
X007453Y018308D01*
X007260Y018501D01*
X007211Y018501D01*
X007211Y018308D01*
X007211Y018110D02*
X007502Y018110D01*
X007502Y018013D02*
X007502Y018207D01*
X007308Y018013D02*
X007211Y018110D01*
X007260Y017912D02*
X007357Y017912D01*
X007405Y017864D01*
X007405Y017719D01*
X007405Y017815D02*
X007502Y017912D01*
X007502Y017719D02*
X007211Y017719D01*
X007211Y017864D01*
X007260Y017912D01*
X009400Y013983D02*
X009338Y013922D01*
X009338Y013675D01*
X009400Y013613D01*
X009523Y013613D01*
X009585Y013675D01*
X009706Y013613D02*
X009953Y013613D01*
X009830Y013613D02*
X009830Y013983D01*
X009706Y013860D01*
X009585Y013922D02*
X009523Y013983D01*
X009400Y013983D01*
X010075Y013798D02*
X010321Y013798D01*
X010260Y013613D02*
X010260Y013983D01*
X010075Y013798D01*
X008695Y009558D02*
X008757Y009497D01*
X008757Y009373D01*
X008695Y009312D01*
X008757Y009190D02*
X008757Y008943D01*
X008757Y009067D02*
X008387Y009067D01*
X008510Y008943D01*
X008449Y008822D02*
X008387Y008760D01*
X008387Y008637D01*
X008449Y008575D01*
X008695Y008575D01*
X008757Y008637D01*
X008757Y008760D01*
X008695Y008822D01*
X008449Y009312D02*
X008387Y009373D01*
X008387Y009497D01*
X008449Y009558D01*
X008510Y009558D01*
X008572Y009497D01*
X008634Y009558D01*
X008695Y009558D01*
X008572Y009497D02*
X008572Y009435D01*
X008558Y009393D02*
X008558Y009586D01*
X008558Y009489D02*
X008268Y009489D01*
X008364Y009393D01*
X024717Y013023D02*
X024765Y012975D01*
X024959Y012975D01*
X025007Y013023D01*
X025007Y013120D01*
X024959Y013168D01*
X025007Y013270D02*
X025007Y013463D01*
X025007Y013366D02*
X024717Y013366D01*
X024814Y013270D01*
X024765Y013168D02*
X024717Y013120D01*
X024717Y013023D01*
X024765Y013564D02*
X024717Y013613D01*
X024717Y013709D01*
X024765Y013758D01*
X024959Y013564D01*
X025007Y013613D01*
X025007Y013709D01*
X024959Y013758D01*
X024765Y013758D01*
X024765Y013564D02*
X024959Y013564D01*
X025598Y014349D02*
X025598Y014639D01*
X025743Y014639D01*
X025791Y014591D01*
X025791Y014494D01*
X025743Y014445D01*
X025598Y014445D01*
X025694Y014445D02*
X025791Y014349D01*
X025892Y014349D02*
X026086Y014349D01*
X025989Y014349D02*
X025989Y014639D01*
X025892Y014542D01*
X026187Y014494D02*
X026381Y014494D01*
X026332Y014639D02*
X026187Y014494D01*
X026332Y014349D02*
X026332Y014639D01*
X027451Y014277D02*
X027451Y014035D01*
X027499Y013986D01*
X027596Y013986D01*
X027644Y014035D01*
X027644Y014277D01*
X027746Y014132D02*
X027891Y014132D01*
X027939Y014083D01*
X027939Y014035D01*
X027891Y013986D01*
X027794Y013986D01*
X027746Y014035D01*
X027746Y014132D01*
X027842Y014228D01*
X027939Y014277D01*
X028086Y013903D02*
X028038Y013855D01*
X028038Y013662D01*
X028086Y013613D01*
X028183Y013613D01*
X028231Y013662D01*
X028333Y013662D02*
X028381Y013613D01*
X028478Y013613D01*
X028526Y013662D01*
X028526Y013855D01*
X028478Y013903D01*
X028381Y013903D01*
X028333Y013855D01*
X028333Y013807D01*
X028381Y013758D01*
X028526Y013758D01*
X028231Y013855D02*
X028183Y013903D01*
X028086Y013903D01*
X027872Y015035D02*
X027581Y015035D01*
X027581Y015180D01*
X027630Y015228D01*
X027727Y015228D01*
X027775Y015180D01*
X027775Y015035D01*
X027775Y015131D02*
X027872Y015228D01*
X027872Y015329D02*
X027872Y015523D01*
X027872Y015426D02*
X027581Y015426D01*
X027678Y015329D01*
X027630Y015624D02*
X027581Y015672D01*
X027581Y015769D01*
X027630Y015818D01*
X027678Y015818D01*
X027872Y015624D01*
X027872Y015818D01*
X024807Y015658D02*
X024807Y015464D01*
X024614Y015658D01*
X024565Y015658D01*
X024517Y015609D01*
X024517Y015513D01*
X024565Y015464D01*
X024517Y015266D02*
X024807Y015266D01*
X024807Y015170D02*
X024807Y015363D01*
X024614Y015170D02*
X024517Y015266D01*
X024565Y015068D02*
X024517Y015020D01*
X024517Y014923D01*
X024565Y014875D01*
X024759Y014875D01*
X024807Y014923D01*
X024807Y015020D01*
X024759Y015068D01*
X026536Y012403D02*
X026488Y012355D01*
X026488Y012162D01*
X026536Y012113D01*
X026633Y012113D01*
X026681Y012162D01*
X026783Y012113D02*
X026976Y012113D01*
X026879Y012113D02*
X026879Y012403D01*
X026783Y012307D01*
X026681Y012355D02*
X026633Y012403D01*
X026536Y012403D01*
X027077Y012307D02*
X027174Y012403D01*
X027174Y012113D01*
X027077Y012113D02*
X027271Y012113D01*
X029098Y011989D02*
X029098Y011699D01*
X029098Y011795D02*
X029243Y011795D01*
X029291Y011844D01*
X029291Y011941D01*
X029243Y011989D01*
X029098Y011989D01*
X029194Y011795D02*
X029291Y011699D01*
X029392Y011699D02*
X029586Y011699D01*
X029489Y011699D02*
X029489Y011989D01*
X029392Y011892D01*
X029687Y011941D02*
X029735Y011989D01*
X029832Y011989D01*
X029881Y011941D01*
X029881Y011892D01*
X029832Y011844D01*
X029881Y011795D01*
X029881Y011747D01*
X029832Y011699D01*
X029735Y011699D01*
X029687Y011747D01*
X029784Y011844D02*
X029832Y011844D01*
X030661Y011865D02*
X030758Y011962D01*
X030952Y011962D01*
X030903Y012063D02*
X030952Y012112D01*
X030952Y012208D01*
X030903Y012257D01*
X030807Y012257D01*
X030758Y012208D01*
X030758Y012160D01*
X030807Y012063D01*
X030661Y012063D01*
X030661Y012257D01*
X030807Y011962D02*
X030807Y011769D01*
X030758Y011769D02*
X030661Y011865D01*
X030758Y011769D02*
X030952Y011769D01*
X030952Y013019D02*
X030758Y013019D01*
X030661Y013115D01*
X030758Y013212D01*
X030952Y013212D01*
X030807Y013212D02*
X030807Y013019D01*
X030807Y013313D02*
X030661Y013458D01*
X030952Y013458D01*
X030807Y013507D02*
X030807Y013313D01*
X028403Y010139D02*
X028218Y010139D01*
X028218Y009769D01*
X028403Y009769D01*
X028465Y009830D01*
X028465Y010077D01*
X028403Y010139D01*
X028097Y010139D02*
X028097Y009769D01*
X027850Y010139D01*
X027850Y009769D01*
X027729Y009830D02*
X027667Y009769D01*
X027543Y009769D01*
X027482Y009830D01*
X027482Y010077D01*
X027543Y010139D01*
X027667Y010139D01*
X027729Y010077D01*
X027729Y009954D02*
X027605Y009954D01*
X027729Y009954D02*
X027729Y009830D01*
X027667Y009139D02*
X027482Y009139D01*
X027482Y008769D01*
X027482Y008892D02*
X027667Y008892D01*
X027729Y008954D01*
X027729Y009077D01*
X027667Y009139D01*
X027850Y009077D02*
X027850Y009016D01*
X027912Y008954D01*
X028035Y008954D01*
X028097Y008892D01*
X028097Y008830D01*
X028035Y008769D01*
X027912Y008769D01*
X027850Y008830D01*
X027729Y008769D02*
X027605Y008892D01*
X027850Y009077D02*
X027912Y009139D01*
X028035Y009139D01*
X028097Y009077D01*
X028218Y009139D02*
X028465Y009139D01*
X028342Y009139D02*
X028342Y008769D01*
X028335Y008189D02*
X028335Y007819D01*
X028090Y007880D02*
X028028Y007819D01*
X027905Y007819D01*
X027843Y007880D01*
X027722Y007819D02*
X027475Y007819D01*
X027475Y008189D01*
X027722Y008189D01*
X027843Y008127D02*
X027905Y008189D01*
X028028Y008189D01*
X028090Y008127D01*
X028212Y008189D02*
X028458Y008189D01*
X028090Y007942D02*
X028028Y008004D01*
X027905Y008004D01*
X027843Y008066D01*
X027843Y008127D01*
X027598Y008004D02*
X027475Y008004D01*
X027354Y008189D02*
X027107Y008189D01*
X027230Y008189D02*
X027230Y007819D01*
X028090Y007880D02*
X028090Y007942D01*
X029732Y006452D02*
X029793Y006514D01*
X029917Y006514D01*
X029979Y006452D01*
X029979Y006391D01*
X029917Y006329D01*
X029979Y006267D01*
X029979Y006205D01*
X029917Y006144D01*
X029793Y006144D01*
X029732Y006205D01*
X029855Y006329D02*
X029917Y006329D01*
X030100Y006267D02*
X030223Y006144D01*
X030347Y006267D01*
X030347Y006514D01*
X030100Y006514D02*
X030100Y006267D01*
D11*
X001967Y001504D02*
X001967Y019754D01*
X030967Y019754D01*
X030967Y001504D01*
X001967Y001504D01*
X020376Y015504D02*
X020378Y015552D01*
X020384Y015600D01*
X020394Y015647D01*
X020407Y015693D01*
X020425Y015738D01*
X020445Y015782D01*
X020470Y015824D01*
X020498Y015863D01*
X020528Y015900D01*
X020562Y015934D01*
X020599Y015966D01*
X020637Y015995D01*
X020678Y016020D01*
X020721Y016042D01*
X020766Y016060D01*
X020812Y016074D01*
X020859Y016085D01*
X020907Y016092D01*
X020955Y016095D01*
X021003Y016094D01*
X021051Y016089D01*
X021099Y016080D01*
X021145Y016068D01*
X021190Y016051D01*
X021234Y016031D01*
X021276Y016008D01*
X021316Y015981D01*
X021354Y015951D01*
X021389Y015918D01*
X021421Y015882D01*
X021451Y015844D01*
X021477Y015803D01*
X021499Y015760D01*
X021519Y015716D01*
X021534Y015671D01*
X021546Y015624D01*
X021554Y015576D01*
X021558Y015528D01*
X021558Y015480D01*
X021554Y015432D01*
X021546Y015384D01*
X021534Y015337D01*
X021519Y015292D01*
X021499Y015248D01*
X021477Y015205D01*
X021451Y015164D01*
X021421Y015126D01*
X021389Y015090D01*
X021354Y015057D01*
X021316Y015027D01*
X021276Y015000D01*
X021234Y014977D01*
X021190Y014957D01*
X021145Y014940D01*
X021099Y014928D01*
X021051Y014919D01*
X021003Y014914D01*
X020955Y014913D01*
X020907Y014916D01*
X020859Y014923D01*
X020812Y014934D01*
X020766Y014948D01*
X020721Y014966D01*
X020678Y014988D01*
X020637Y015013D01*
X020599Y015042D01*
X020562Y015074D01*
X020528Y015108D01*
X020498Y015145D01*
X020470Y015184D01*
X020445Y015226D01*
X020425Y015270D01*
X020407Y015315D01*
X020394Y015361D01*
X020384Y015408D01*
X020378Y015456D01*
X020376Y015504D01*
X026567Y013610D02*
X027374Y013610D01*
X026961Y013452D02*
X026961Y013787D01*
X028861Y014633D02*
X028877Y014602D01*
X028902Y014554D01*
X029003Y014539D01*
X029032Y014539D01*
X029034Y014540D01*
X029036Y014540D01*
X029040Y014540D01*
X029044Y014543D01*
X029046Y014547D01*
X029051Y014557D01*
X029043Y014571D01*
X029024Y014605D01*
X029011Y014628D01*
X028994Y014657D01*
X028982Y014687D01*
X028938Y014795D01*
X028923Y014881D01*
X028930Y014973D01*
X028938Y015067D01*
X028921Y015138D01*
X028908Y015195D01*
X028895Y015248D01*
X028885Y015290D01*
X028900Y015329D01*
X028912Y015361D01*
X028919Y015404D01*
X028926Y015449D01*
X028939Y015528D01*
X028954Y015616D01*
X028997Y015691D01*
X029051Y015782D01*
X029124Y015831D01*
X029405Y015831D01*
X029453Y015829D01*
X029510Y015826D01*
X029564Y015823D01*
X029611Y015822D01*
X029653Y015821D01*
X029804Y015818D01*
X029880Y015816D01*
X029945Y015724D01*
X029989Y015661D01*
X030030Y015596D01*
X030037Y015502D01*
X030039Y015477D01*
X030040Y015455D01*
X030041Y015435D01*
X030043Y015385D01*
X030045Y015349D01*
X030055Y015320D01*
X030073Y015266D01*
X030054Y015183D01*
X030040Y015122D01*
X030018Y015030D01*
X030017Y014836D01*
X030016Y014723D01*
X029957Y014586D01*
X029936Y014549D01*
X029931Y014540D01*
X029932Y014534D01*
X029934Y014530D01*
X029940Y014521D01*
X029993Y014521D01*
X030087Y014555D01*
X030099Y014587D01*
X030109Y014615D01*
X030126Y014703D01*
X030129Y014830D01*
X030130Y014847D01*
X030130Y014864D01*
X030130Y014880D01*
X030132Y014964D01*
X030133Y015050D01*
X030152Y015076D01*
X030162Y015091D01*
X030199Y015109D01*
X030237Y015128D01*
X030317Y015167D01*
X030416Y015215D01*
X030403Y015288D01*
X030402Y015291D01*
X030402Y015294D01*
X030400Y015299D01*
X030394Y015327D01*
X030378Y015394D01*
X030412Y015416D01*
X030446Y015439D01*
X030468Y015493D01*
X030472Y015561D01*
X030476Y015634D01*
X030456Y015700D01*
X030423Y015728D01*
X030413Y015736D01*
X030420Y015765D01*
X030427Y015795D01*
X030431Y015811D01*
X030436Y015828D01*
X030439Y015846D01*
X030451Y015919D01*
X030451Y015952D01*
X030438Y015967D01*
X030429Y015979D01*
X030415Y015980D01*
X030391Y015970D01*
X030386Y015968D01*
X030381Y015967D01*
X030376Y015967D01*
X030333Y015967D01*
X030315Y016070D01*
X030304Y016132D01*
X030301Y016148D01*
X030298Y016163D01*
X030296Y016173D01*
X030271Y016275D01*
X030065Y016414D01*
X030001Y016416D01*
X029942Y016418D01*
X029906Y016434D01*
X029861Y016480D01*
X029819Y016522D01*
X029705Y016584D01*
X029616Y016584D01*
X029603Y016581D01*
X029593Y016576D01*
X029573Y016564D01*
X029562Y016553D01*
X029554Y016543D01*
X029543Y016532D01*
X029538Y016527D01*
X029514Y016527D01*
X029501Y016529D01*
X029485Y016533D01*
X029463Y016540D01*
X029443Y016548D01*
X029425Y016556D01*
X029400Y016567D01*
X029378Y016577D01*
X029335Y016577D01*
X029317Y016569D01*
X029299Y016554D01*
X029286Y016544D01*
X029275Y016534D01*
X029265Y016525D01*
X029230Y016493D01*
X029208Y016474D01*
X029169Y016481D01*
X029152Y016483D01*
X029132Y016485D01*
X029092Y016485D01*
X029022Y016483D01*
X029008Y016456D01*
X029005Y016450D01*
X028999Y016445D01*
X028992Y016438D01*
X028975Y016421D01*
X028952Y016398D01*
X028956Y016357D01*
X028957Y016352D01*
X028954Y016347D01*
X028949Y016341D01*
X028935Y016326D01*
X028908Y016313D01*
X028890Y016313D01*
X028878Y016314D01*
X028871Y016314D01*
X028864Y016314D01*
X028829Y016314D01*
X028815Y016310D01*
X028808Y016301D01*
X028806Y016297D01*
X028804Y016290D01*
X028808Y016280D01*
X028812Y016271D01*
X028825Y016240D01*
X028815Y016223D01*
X028810Y016214D01*
X028798Y016209D01*
X028779Y016208D01*
X028720Y016203D01*
X028648Y016176D01*
X028629Y016150D01*
X028623Y016142D01*
X028623Y016135D01*
X028624Y016131D01*
X028631Y016097D01*
X028599Y016033D01*
X028570Y015976D01*
X028542Y015919D01*
X028524Y015882D01*
X028529Y015861D01*
X028530Y015855D01*
X028532Y015848D01*
X028533Y015842D01*
X028542Y015806D01*
X028551Y015769D01*
X028530Y015726D01*
X028517Y015700D01*
X028526Y015669D01*
X028533Y015642D01*
X028543Y015605D01*
X028549Y015581D01*
X028522Y015566D01*
X028514Y015562D01*
X028512Y015556D01*
X028511Y015552D01*
X028507Y015537D01*
X028521Y015518D01*
X028539Y015494D01*
X028559Y015467D01*
X028585Y015434D01*
X028577Y015409D01*
X028558Y015352D01*
X028573Y015239D01*
X028665Y015180D01*
X028670Y015176D01*
X028679Y015171D01*
X028691Y015165D01*
X028734Y015140D01*
X028825Y015088D01*
X028829Y015046D01*
X028831Y015023D01*
X028831Y015001D01*
X028830Y014976D01*
X028829Y014936D01*
X028828Y014890D01*
X028838Y014821D01*
X028844Y014782D01*
X028848Y014751D01*
X028851Y014724D01*
X028857Y014667D01*
X028861Y014633D01*
X028087Y018004D02*
X028089Y018054D01*
X028095Y018104D01*
X028105Y018153D01*
X028119Y018201D01*
X028136Y018248D01*
X028157Y018293D01*
X028182Y018337D01*
X028210Y018378D01*
X028242Y018417D01*
X028276Y018454D01*
X028313Y018488D01*
X028353Y018518D01*
X028395Y018545D01*
X028439Y018569D01*
X028485Y018590D01*
X028532Y018606D01*
X028580Y018619D01*
X028630Y018628D01*
X028679Y018633D01*
X028730Y018634D01*
X028780Y018631D01*
X028829Y018624D01*
X028878Y018613D01*
X028926Y018598D01*
X028972Y018580D01*
X029017Y018558D01*
X029060Y018532D01*
X029101Y018503D01*
X029140Y018471D01*
X029176Y018436D01*
X029208Y018398D01*
X029238Y018358D01*
X029265Y018315D01*
X029288Y018271D01*
X029307Y018225D01*
X029323Y018177D01*
X029335Y018128D01*
X029343Y018079D01*
X029347Y018029D01*
X029347Y017979D01*
X029343Y017929D01*
X029335Y017880D01*
X029323Y017831D01*
X029307Y017783D01*
X029288Y017737D01*
X029265Y017693D01*
X029238Y017650D01*
X029208Y017610D01*
X029176Y017572D01*
X029140Y017537D01*
X029101Y017505D01*
X029060Y017476D01*
X029017Y017450D01*
X028972Y017428D01*
X028926Y017410D01*
X028878Y017395D01*
X028829Y017384D01*
X028780Y017377D01*
X028730Y017374D01*
X028679Y017375D01*
X028630Y017380D01*
X028580Y017389D01*
X028532Y017402D01*
X028485Y017418D01*
X028439Y017439D01*
X028395Y017463D01*
X028353Y017490D01*
X028313Y017520D01*
X028276Y017554D01*
X028242Y017591D01*
X028210Y017630D01*
X028182Y017671D01*
X028157Y017715D01*
X028136Y017760D01*
X028119Y017807D01*
X028105Y017855D01*
X028095Y017904D01*
X028089Y017954D01*
X028087Y018004D01*
X031691Y009504D02*
X031693Y009537D01*
X031699Y009569D01*
X031708Y009600D01*
X031721Y009630D01*
X031738Y009658D01*
X031758Y009684D01*
X031781Y009708D01*
X031806Y009728D01*
X031834Y009746D01*
X031863Y009760D01*
X031894Y009770D01*
X031926Y009777D01*
X031959Y009780D01*
X031992Y009779D01*
X032024Y009774D01*
X032055Y009765D01*
X032086Y009753D01*
X032114Y009737D01*
X032141Y009718D01*
X032165Y009696D01*
X032186Y009671D01*
X032205Y009644D01*
X032220Y009615D01*
X032231Y009585D01*
X032239Y009553D01*
X032243Y009520D01*
X032243Y009488D01*
X032239Y009455D01*
X032231Y009423D01*
X032220Y009393D01*
X032205Y009364D01*
X032186Y009337D01*
X032165Y009312D01*
X032141Y009290D01*
X032114Y009271D01*
X032086Y009255D01*
X032055Y009243D01*
X032024Y009234D01*
X031992Y009229D01*
X031959Y009228D01*
X031926Y009231D01*
X031894Y009238D01*
X031863Y009248D01*
X031834Y009262D01*
X031806Y009280D01*
X031781Y009300D01*
X031758Y009324D01*
X031738Y009350D01*
X031721Y009378D01*
X031708Y009408D01*
X031699Y009439D01*
X031693Y009471D01*
X031691Y009504D01*
X031691Y007504D02*
X031693Y007537D01*
X031699Y007569D01*
X031708Y007600D01*
X031721Y007630D01*
X031738Y007658D01*
X031758Y007684D01*
X031781Y007708D01*
X031806Y007728D01*
X031834Y007746D01*
X031863Y007760D01*
X031894Y007770D01*
X031926Y007777D01*
X031959Y007780D01*
X031992Y007779D01*
X032024Y007774D01*
X032055Y007765D01*
X032086Y007753D01*
X032114Y007737D01*
X032141Y007718D01*
X032165Y007696D01*
X032186Y007671D01*
X032205Y007644D01*
X032220Y007615D01*
X032231Y007585D01*
X032239Y007553D01*
X032243Y007520D01*
X032243Y007488D01*
X032239Y007455D01*
X032231Y007423D01*
X032220Y007393D01*
X032205Y007364D01*
X032186Y007337D01*
X032165Y007312D01*
X032141Y007290D01*
X032114Y007271D01*
X032086Y007255D01*
X032055Y007243D01*
X032024Y007234D01*
X031992Y007229D01*
X031959Y007228D01*
X031926Y007231D01*
X031894Y007238D01*
X031863Y007248D01*
X031834Y007262D01*
X031806Y007280D01*
X031781Y007300D01*
X031758Y007324D01*
X031738Y007350D01*
X031721Y007378D01*
X031708Y007408D01*
X031699Y007439D01*
X031693Y007471D01*
X031691Y007504D01*
X028087Y002754D02*
X028089Y002804D01*
X028095Y002854D01*
X028105Y002903D01*
X028119Y002951D01*
X028136Y002998D01*
X028157Y003043D01*
X028182Y003087D01*
X028210Y003128D01*
X028242Y003167D01*
X028276Y003204D01*
X028313Y003238D01*
X028353Y003268D01*
X028395Y003295D01*
X028439Y003319D01*
X028485Y003340D01*
X028532Y003356D01*
X028580Y003369D01*
X028630Y003378D01*
X028679Y003383D01*
X028730Y003384D01*
X028780Y003381D01*
X028829Y003374D01*
X028878Y003363D01*
X028926Y003348D01*
X028972Y003330D01*
X029017Y003308D01*
X029060Y003282D01*
X029101Y003253D01*
X029140Y003221D01*
X029176Y003186D01*
X029208Y003148D01*
X029238Y003108D01*
X029265Y003065D01*
X029288Y003021D01*
X029307Y002975D01*
X029323Y002927D01*
X029335Y002878D01*
X029343Y002829D01*
X029347Y002779D01*
X029347Y002729D01*
X029343Y002679D01*
X029335Y002630D01*
X029323Y002581D01*
X029307Y002533D01*
X029288Y002487D01*
X029265Y002443D01*
X029238Y002400D01*
X029208Y002360D01*
X029176Y002322D01*
X029140Y002287D01*
X029101Y002255D01*
X029060Y002226D01*
X029017Y002200D01*
X028972Y002178D01*
X028926Y002160D01*
X028878Y002145D01*
X028829Y002134D01*
X028780Y002127D01*
X028730Y002124D01*
X028679Y002125D01*
X028630Y002130D01*
X028580Y002139D01*
X028532Y002152D01*
X028485Y002168D01*
X028439Y002189D01*
X028395Y002213D01*
X028353Y002240D01*
X028313Y002270D01*
X028276Y002304D01*
X028242Y002341D01*
X028210Y002380D01*
X028182Y002421D01*
X028157Y002465D01*
X028136Y002510D01*
X028119Y002557D01*
X028105Y002605D01*
X028095Y002654D01*
X028089Y002704D01*
X028087Y002754D01*
D12*
X025691Y004872D02*
X025691Y005026D01*
X025691Y004949D02*
X025230Y004949D01*
X025230Y004872D02*
X025230Y005026D01*
X025307Y005179D02*
X025614Y005179D01*
X025691Y005256D01*
X025691Y005409D01*
X025614Y005486D01*
X025614Y005639D02*
X025691Y005716D01*
X025691Y005870D01*
X025614Y005946D01*
X025307Y005946D01*
X025230Y005870D01*
X025230Y005716D01*
X025307Y005639D01*
X025384Y005639D01*
X025461Y005716D01*
X025461Y005946D01*
X025307Y005486D02*
X025230Y005409D01*
X025230Y005256D01*
X025307Y005179D01*
X023047Y005724D02*
X022586Y005724D01*
X022586Y005954D01*
X022663Y006031D01*
X022816Y006031D01*
X022893Y005954D01*
X022893Y005724D01*
X022893Y005877D02*
X023047Y006031D01*
X023047Y006184D02*
X022740Y006491D01*
X022663Y006491D01*
X022586Y006414D01*
X022586Y006261D01*
X022663Y006184D01*
X023047Y006184D02*
X023047Y006491D01*
X023006Y008024D02*
X022853Y008024D01*
X022776Y008100D01*
X022623Y008024D02*
X022469Y008177D01*
X022546Y008177D02*
X022316Y008177D01*
X022316Y008024D02*
X022316Y008484D01*
X022546Y008484D01*
X022623Y008407D01*
X022623Y008254D01*
X022546Y008177D01*
X022776Y008407D02*
X022853Y008484D01*
X023006Y008484D01*
X023083Y008407D01*
X023083Y008331D01*
X023006Y008254D01*
X023083Y008177D01*
X023083Y008100D01*
X023006Y008024D01*
X023006Y008254D02*
X022930Y008254D01*
X018754Y012274D02*
X018447Y012274D01*
X018294Y012274D02*
X018140Y012427D01*
X018217Y012427D02*
X017987Y012427D01*
X017987Y012274D02*
X017987Y012734D01*
X018217Y012734D01*
X018294Y012657D01*
X018294Y012504D01*
X018217Y012427D01*
X018447Y012581D02*
X018601Y012734D01*
X018601Y012274D01*
X015082Y014204D02*
X015082Y014484D01*
X014942Y014344D01*
X015129Y014344D01*
X015759Y015004D02*
X015912Y015004D01*
X015836Y015004D02*
X015836Y015464D01*
X015912Y015464D02*
X015759Y015464D01*
X016066Y015387D02*
X016066Y015080D01*
X016143Y015004D01*
X016296Y015004D01*
X016373Y015080D01*
X016526Y015004D02*
X016833Y015311D01*
X016833Y015387D01*
X016756Y015464D01*
X016603Y015464D01*
X016526Y015387D01*
X016373Y015387D02*
X016296Y015464D01*
X016143Y015464D01*
X016066Y015387D01*
X016526Y015004D02*
X016833Y015004D01*
X017051Y016904D02*
X017238Y016904D01*
X017145Y016904D02*
X017145Y017184D01*
X017051Y017090D01*
X016387Y017094D02*
X016200Y016907D01*
X016387Y016907D01*
X016387Y017094D02*
X016387Y017141D01*
X016340Y017188D01*
X016247Y017188D01*
X016200Y017141D01*
X015477Y017137D02*
X015477Y017090D01*
X015430Y017044D01*
X015477Y016997D01*
X015477Y016950D01*
X015430Y016904D01*
X015337Y016904D01*
X015290Y016950D01*
X015384Y017044D02*
X015430Y017044D01*
X015477Y017137D02*
X015430Y017184D01*
X015337Y017184D01*
X015290Y017137D01*
X014238Y016904D02*
X014051Y016904D01*
X014145Y016904D02*
X014145Y017184D01*
X014051Y017090D01*
X013387Y017094D02*
X013387Y017141D01*
X013340Y017188D01*
X013247Y017188D01*
X013200Y017141D01*
X013387Y017094D02*
X013200Y016907D01*
X013387Y016907D01*
X012477Y016950D02*
X012430Y016904D01*
X012337Y016904D01*
X012290Y016950D01*
X012384Y017044D02*
X012430Y017044D01*
X012477Y016997D01*
X012477Y016950D01*
X012430Y017044D02*
X012477Y017090D01*
X012477Y017137D01*
X012430Y017184D01*
X012337Y017184D01*
X012290Y017137D01*
X012082Y014484D02*
X011942Y014344D01*
X012129Y014344D01*
X012082Y014204D02*
X012082Y014484D01*
X008394Y013349D02*
X008361Y013305D01*
X008191Y013091D01*
X008054Y012888D01*
X008054Y012850D01*
X008092Y012839D01*
X008202Y012801D01*
X008301Y012768D01*
X008355Y012746D01*
X008388Y012746D01*
X008334Y012686D01*
X008251Y012680D01*
X008196Y012691D01*
X008021Y012740D01*
X007922Y012768D01*
X007785Y012828D01*
X007714Y012867D01*
X007676Y012883D01*
X007670Y012845D01*
X007703Y012801D01*
X007698Y012801D01*
X007676Y012784D01*
X007659Y012757D01*
X007637Y012746D01*
X007604Y012751D01*
X007571Y012784D01*
X007550Y012845D01*
X007522Y012916D01*
X007522Y013234D01*
X007539Y013300D01*
X007566Y013376D01*
X007593Y013420D01*
X007637Y013459D01*
X007665Y013470D01*
X007714Y013442D01*
X007758Y013442D01*
X007802Y013398D01*
X007840Y013338D01*
X007895Y013217D01*
X007966Y013102D01*
X007999Y013047D01*
X008081Y013130D01*
X008153Y013234D01*
X008213Y013311D01*
X008268Y013354D01*
X008323Y013376D01*
X008355Y013382D01*
X008388Y013365D01*
X008394Y013349D01*
X008295Y013645D02*
X008191Y013590D01*
X008081Y013596D01*
X007950Y013623D01*
X007906Y013640D01*
X007758Y013788D01*
X007582Y013996D01*
X007522Y014111D01*
X007522Y014117D02*
X007544Y014171D01*
X007588Y014210D01*
X007615Y014215D01*
X007637Y014292D01*
X007714Y014402D01*
X007791Y014495D01*
X007895Y014522D01*
X007966Y014511D01*
X008076Y014451D01*
X008158Y014347D01*
X008235Y014270D01*
X008268Y014127D01*
X008334Y014023D01*
X008355Y013864D01*
X008355Y013738D01*
X008295Y013645D01*
X008202Y013705D02*
X008147Y013711D01*
X007988Y013760D01*
X007862Y013853D01*
X007752Y013996D01*
X007709Y014056D01*
X007709Y014193D01*
X007730Y014259D01*
X007857Y014380D01*
X007988Y014380D01*
X008065Y014270D01*
X008131Y014155D01*
X008175Y014018D01*
X008224Y013886D01*
X008229Y013755D01*
X008202Y013705D01*
X007698Y013316D02*
X007665Y013300D01*
X007654Y013234D01*
X007654Y013037D01*
X007709Y013031D01*
X007895Y012927D01*
X007862Y012993D01*
X007846Y013075D01*
X007807Y013146D01*
X007763Y013223D01*
X007709Y013278D01*
X007698Y013316D01*
X006930Y013371D02*
X006919Y013327D01*
X006886Y013283D01*
X006848Y013256D01*
X006787Y013239D01*
X006733Y013239D01*
X006645Y013250D01*
X006157Y013360D01*
X006097Y013376D01*
X005965Y013442D01*
X005894Y013492D01*
X005839Y013579D01*
X005817Y013645D01*
X005812Y013678D01*
X005812Y014539D01*
X005834Y014599D01*
X005888Y014670D01*
X005910Y014692D01*
X006102Y014692D01*
X006480Y014599D01*
X006480Y013700D01*
X006667Y013656D01*
X006700Y013645D01*
X006738Y013650D01*
X006755Y013672D01*
X006755Y014462D01*
X006744Y014533D01*
X006930Y014456D01*
X006930Y013371D01*
X006744Y013075D02*
X006930Y012998D01*
X006930Y011913D01*
X006919Y011869D01*
X006886Y011825D01*
X006848Y011797D01*
X006787Y011781D01*
X006733Y011781D01*
X006645Y011792D01*
X006157Y011902D01*
X006097Y011918D01*
X005965Y011984D01*
X005894Y012033D01*
X005839Y012121D01*
X005817Y012187D01*
X005812Y012220D01*
X005812Y013080D01*
X005834Y013141D01*
X005888Y013212D01*
X005910Y013234D01*
X006102Y013234D01*
X006480Y013141D01*
X006480Y012242D01*
X006667Y012198D01*
X006700Y012187D01*
X006738Y012192D01*
X006755Y012214D01*
X006755Y013004D01*
X006744Y013075D01*
X006311Y012768D02*
X006075Y012828D01*
X006004Y012828D01*
X005987Y012812D01*
X005982Y012790D01*
X005982Y012401D01*
X005998Y012368D01*
X006036Y012346D01*
X006080Y012329D01*
X006305Y012291D01*
X006311Y012296D01*
X006311Y012768D01*
X007577Y012412D02*
X007643Y012521D01*
X007692Y012549D01*
X007714Y012549D01*
X007763Y012527D01*
X007802Y012494D01*
X007846Y012428D01*
X007966Y012187D01*
X008016Y012061D01*
X008037Y011962D01*
X008043Y011929D01*
X008043Y011891D01*
X008092Y011874D01*
X008191Y011841D01*
X008279Y011814D01*
X008317Y011792D01*
X008339Y011781D01*
X008350Y011759D01*
X008334Y011732D01*
X008301Y011710D01*
X008262Y011710D01*
X008218Y011721D01*
X008114Y011770D01*
X008037Y011803D01*
X007966Y011814D01*
X007900Y011830D01*
X007813Y011858D01*
X007747Y011885D01*
X007703Y011913D01*
X007703Y011869D01*
X007610Y011869D01*
X007610Y011918D01*
X007577Y011962D01*
X007533Y012006D01*
X007560Y012055D01*
X007560Y012253D01*
X007577Y012412D01*
X007670Y012340D02*
X007698Y012406D01*
X007709Y012422D01*
X007725Y012417D01*
X007747Y012390D01*
X007791Y012302D01*
X007840Y012231D01*
X007867Y012132D01*
X007895Y012061D01*
X007900Y012017D01*
X007900Y011951D01*
X007698Y012050D01*
X007670Y012061D01*
X007670Y012340D01*
X006645Y011611D02*
X006404Y011671D01*
X006256Y011671D01*
X006245Y011666D01*
X006190Y011551D01*
X006168Y011392D01*
X006168Y011501D01*
X006146Y011589D01*
X006119Y011655D01*
X006036Y011737D01*
X005982Y011759D01*
X005707Y011825D01*
X005664Y011841D01*
X005570Y011841D01*
X005516Y011819D01*
X005455Y011787D01*
X005428Y011743D01*
X005411Y011677D01*
X005411Y010432D01*
X005521Y010432D01*
X005620Y010410D01*
X006201Y010268D01*
X006513Y010191D01*
X006760Y010125D01*
X006892Y010082D01*
X006925Y010049D01*
X006925Y010032D01*
X006804Y009944D01*
X006047Y009637D01*
X005565Y010153D01*
X005499Y010230D01*
X005461Y010284D01*
X005411Y010356D01*
X005411Y010010D01*
X005433Y010005D01*
X005466Y009988D01*
X005494Y009966D01*
X005877Y009577D01*
X005532Y009440D01*
X005505Y009440D01*
X005477Y009424D01*
X005444Y009440D01*
X005411Y009440D01*
X005411Y008837D01*
X005472Y008897D01*
X006234Y009210D01*
X006831Y008574D01*
X006930Y008437D01*
X006930Y008760D01*
X006842Y008810D01*
X006398Y009265D01*
X006831Y009440D01*
X006870Y009440D01*
X006930Y009407D01*
X006930Y011310D01*
X006897Y011414D01*
X006864Y011480D01*
X006771Y011562D01*
X006705Y011573D01*
X006645Y011611D01*
X006656Y011183D02*
X006332Y011266D01*
X006316Y011266D01*
X006278Y011238D01*
X006261Y011194D01*
X006261Y010696D01*
X006744Y010569D01*
X006744Y011101D01*
X006733Y011123D01*
X006689Y011162D01*
X006656Y011183D01*
X006064Y011282D02*
X006064Y010734D01*
X005598Y010849D01*
X005598Y011353D01*
X005625Y011403D01*
X005713Y011408D01*
X006004Y011332D01*
X006042Y011315D01*
X006064Y011282D01*
X008987Y011774D02*
X009140Y011774D01*
X009063Y011774D02*
X009063Y012234D01*
X008987Y012234D02*
X009140Y012234D01*
X009294Y012157D02*
X009294Y011850D01*
X009370Y011774D01*
X009524Y011774D01*
X009601Y011850D01*
X009754Y012004D02*
X010061Y012004D01*
X009984Y011774D02*
X009984Y012234D01*
X009754Y012004D01*
X009601Y012157D02*
X009524Y012234D01*
X009370Y012234D01*
X009294Y012157D01*
X006311Y013755D02*
X006305Y013749D01*
X006080Y013788D01*
X006036Y013804D01*
X005998Y013826D01*
X005982Y013859D01*
X005982Y014248D01*
X005987Y014270D01*
X006004Y014286D01*
X006075Y014286D01*
X006311Y014226D01*
X006311Y013755D01*
X000747Y008501D02*
X000747Y008194D01*
X000440Y008501D01*
X000363Y008501D01*
X000286Y008425D01*
X000286Y008271D01*
X000363Y008194D01*
X000363Y008041D02*
X000286Y007964D01*
X000286Y007734D01*
X000747Y007734D01*
X000747Y007964D01*
X000670Y008041D01*
X000593Y008041D01*
X000516Y007964D01*
X000516Y007734D01*
X000286Y007581D02*
X000747Y007274D01*
X000747Y007581D02*
X000286Y007274D01*
X000516Y007964D02*
X000440Y008041D01*
X000363Y008041D01*
X023736Y017524D02*
X023736Y017754D01*
X023813Y017831D01*
X023890Y017831D01*
X023966Y017754D01*
X023966Y017524D01*
X023736Y017524D02*
X024197Y017524D01*
X024197Y017754D01*
X024120Y017831D01*
X024043Y017831D01*
X023966Y017754D01*
X023966Y017984D02*
X023966Y018291D01*
X023890Y018291D02*
X024197Y018291D01*
X024197Y017984D02*
X023890Y017984D01*
X023736Y018138D01*
X023890Y018291D01*
X023736Y018444D02*
X023736Y018751D01*
X023736Y018598D02*
X024197Y018598D01*
X023966Y018905D02*
X023966Y019212D01*
X023813Y019058D02*
X024120Y019058D01*
X026236Y019175D02*
X026236Y018944D01*
X026697Y018944D01*
X026697Y019175D01*
X026620Y019251D01*
X026313Y019251D01*
X026236Y019175D01*
X026236Y018791D02*
X026697Y018791D01*
X026236Y018484D01*
X026697Y018484D01*
X026620Y018331D02*
X026466Y018331D01*
X026466Y018177D01*
X026313Y018024D02*
X026620Y018024D01*
X026697Y018100D01*
X026697Y018254D01*
X026620Y018331D01*
X026313Y018331D02*
X026236Y018254D01*
X026236Y018100D01*
X026313Y018024D01*
X027058Y017381D02*
X027058Y017294D01*
X027058Y017121D02*
X027058Y016774D01*
X026971Y016774D02*
X027145Y016774D01*
X027402Y016860D02*
X027488Y016774D01*
X027402Y016860D02*
X027402Y017207D01*
X027488Y017121D02*
X027315Y017121D01*
X027058Y017121D02*
X026971Y017121D01*
X026802Y017121D02*
X026541Y016947D01*
X026802Y016774D01*
X026541Y016774D02*
X026541Y017294D01*
X026286Y017121D02*
X026026Y017121D01*
X026026Y016600D01*
X026026Y016774D02*
X026286Y016774D01*
X026373Y016860D01*
X026373Y017034D01*
X026286Y017121D01*
X025857Y017034D02*
X025857Y016860D01*
X025770Y016774D01*
X025510Y016774D01*
X025340Y016774D02*
X025166Y016774D01*
X025253Y016774D02*
X025253Y017121D01*
X025166Y017121D01*
X024997Y017121D02*
X024737Y016947D01*
X024997Y016774D01*
X024737Y016774D02*
X024737Y017294D01*
X025253Y017294D02*
X025253Y017381D01*
X025510Y017121D02*
X025770Y017121D01*
X025857Y017034D01*
X025510Y017121D02*
X025510Y016600D01*
X027659Y017121D02*
X027832Y017121D01*
X027745Y017207D02*
X027745Y016860D01*
X027832Y016774D01*
X028002Y016774D02*
X028263Y016774D01*
X028349Y016860D01*
X028263Y016947D01*
X028089Y016947D01*
X028002Y017034D01*
X028089Y017121D01*
X028349Y017121D01*
X028605Y016860D02*
X028605Y016774D01*
X028692Y016774D01*
X028692Y016860D01*
X028605Y016860D01*
X028692Y016774D02*
X028518Y016600D01*
X029377Y016774D02*
X029551Y016774D01*
X029464Y016774D02*
X029464Y017294D01*
X029377Y017294D01*
X029721Y017294D02*
X029808Y017294D01*
X029808Y016774D01*
X029721Y016774D02*
X029895Y016774D01*
X030065Y016860D02*
X030065Y017034D01*
X030152Y017121D01*
X030412Y017121D01*
X030412Y016774D02*
X030152Y016774D01*
X030065Y016860D01*
D13*
X006207Y017021D02*
X006170Y016985D01*
X006207Y017021D02*
X006207Y017095D01*
X006170Y017131D01*
X006097Y017131D01*
X006060Y017095D01*
X006060Y017058D01*
X006097Y016985D01*
X005986Y016985D01*
X005986Y017131D01*
X005986Y017206D02*
X006133Y017206D01*
X006207Y017279D01*
X006133Y017352D01*
X005986Y017352D01*
X006097Y016910D02*
X006097Y016764D01*
X006023Y016837D02*
X006170Y016837D01*
X005207Y016764D02*
X004986Y016764D01*
X005060Y016837D01*
X004986Y016910D01*
X005207Y016910D01*
X005207Y016985D02*
X005060Y016985D01*
X004986Y017058D01*
X005060Y017131D01*
X005207Y017131D01*
X005097Y017131D02*
X005097Y016985D01*
X004986Y017206D02*
X004986Y017352D01*
X004986Y017279D02*
X005207Y017279D01*
X003957Y017316D02*
X003920Y017352D01*
X003773Y017352D01*
X003736Y017316D01*
X003736Y017206D01*
X003957Y017206D01*
X003957Y017316D01*
X003957Y017131D02*
X003736Y017131D01*
X003736Y016985D02*
X003957Y017131D01*
X003957Y016985D02*
X003736Y016985D01*
X003773Y016910D02*
X003736Y016874D01*
X003736Y016800D01*
X003773Y016764D01*
X003920Y016764D01*
X003957Y016800D01*
X003957Y016874D01*
X003920Y016910D01*
X003847Y016910D01*
X003847Y016837D01*
D14*
X003717Y017504D02*
X004217Y017504D01*
X004467Y017754D01*
X004717Y017504D01*
X005217Y017504D01*
X005467Y017754D01*
X005717Y017504D01*
X006217Y017504D01*
X006467Y017754D01*
X006467Y018254D01*
X006217Y018504D01*
X005717Y018504D01*
X005467Y018254D01*
X005217Y018504D01*
X004717Y018504D01*
X004467Y018254D01*
X004217Y018504D01*
X003717Y018504D01*
X003467Y018254D01*
X003467Y017754D01*
X003717Y017504D01*
X002684Y016517D02*
X013080Y016517D01*
X013080Y006990D01*
X002684Y006990D01*
X000194Y009480D01*
X000194Y014027D01*
X002684Y016517D01*
X011677Y016204D02*
X011677Y014804D01*
X014257Y014804D01*
X014257Y016204D01*
X011677Y016204D01*
X012228Y017732D02*
X012662Y017732D01*
X012228Y017732D02*
X012071Y017889D01*
X012071Y018519D01*
X012228Y018677D01*
X012662Y018677D01*
X013449Y018677D02*
X014040Y018677D01*
X014040Y017732D01*
X013449Y017732D01*
X014982Y017939D02*
X015140Y017781D01*
X015573Y017781D01*
X014982Y017939D02*
X014982Y018569D01*
X015140Y018726D01*
X015573Y018726D01*
X016360Y018726D02*
X016951Y018726D01*
X016951Y017781D01*
X016360Y017781D01*
X017257Y016204D02*
X014677Y016204D01*
X014677Y014804D01*
X017257Y014804D01*
X017257Y016204D01*
X014040Y013358D02*
X013449Y013358D01*
X014040Y013358D02*
X014040Y012413D01*
X013449Y012413D01*
X012662Y012413D02*
X012228Y012413D01*
X012071Y012571D01*
X012071Y013201D01*
X012228Y013358D01*
X012662Y013358D01*
X016784Y008201D02*
X016784Y007807D01*
X017650Y007807D02*
X017650Y008201D01*
X022415Y011214D02*
X022415Y011529D01*
X022652Y011529D01*
X023282Y011529D02*
X023518Y011529D01*
X023518Y011214D01*
X028717Y010254D02*
X028717Y009754D01*
X028967Y009504D01*
X028717Y009254D01*
X028717Y008754D01*
X028967Y008504D01*
X028717Y008254D01*
X028717Y007754D01*
X028967Y007504D01*
X028717Y007254D01*
X028717Y006754D01*
X028967Y006504D01*
X029467Y006504D01*
X029717Y006754D01*
X029717Y007254D01*
X029467Y007504D01*
X029717Y007754D01*
X029717Y008254D01*
X029467Y008504D01*
X029717Y008754D01*
X029717Y009254D01*
X029467Y009504D01*
X029717Y009754D01*
X029717Y010254D01*
X029467Y010504D01*
X028967Y010504D01*
X028717Y010254D01*
D15*
X011953Y002695D03*
X011480Y002695D03*
X010703Y002695D03*
X010230Y002695D03*
X009453Y002695D03*
X008980Y002695D03*
X008203Y002695D03*
X007730Y002695D03*
X006953Y002695D03*
X006480Y002695D03*
X005703Y002695D03*
X005230Y002695D03*
X004453Y002695D03*
X003980Y002695D03*
X003203Y002695D03*
X002730Y002695D03*
D16*
X002967Y002695D03*
X004217Y002695D03*
X005467Y002695D03*
X006717Y002695D03*
X007967Y002695D03*
X009217Y002695D03*
X010467Y002695D03*
X011717Y002695D03*
D17*
X014024Y003504D02*
X014026Y003587D01*
X014032Y003670D01*
X014042Y003752D01*
X014057Y003834D01*
X014075Y003915D01*
X014097Y003995D01*
X014123Y004074D01*
X014153Y004152D01*
X014187Y004228D01*
X014224Y004302D01*
X014265Y004374D01*
X014309Y004445D01*
X014357Y004513D01*
X014408Y004578D01*
X014463Y004641D01*
X014520Y004701D01*
X014580Y004758D01*
X014643Y004813D01*
X014708Y004864D01*
X014776Y004912D01*
X014847Y004956D01*
X014919Y004997D01*
X014993Y005034D01*
X015069Y005068D01*
X015147Y005098D01*
X015226Y005124D01*
X015306Y005146D01*
X015387Y005164D01*
X015469Y005179D01*
X015551Y005189D01*
X015634Y005195D01*
X015717Y005197D01*
X015800Y005195D01*
X015883Y005189D01*
X015965Y005179D01*
X016047Y005164D01*
X016128Y005146D01*
X016208Y005124D01*
X016287Y005098D01*
X016365Y005068D01*
X016441Y005034D01*
X016515Y004997D01*
X016587Y004956D01*
X016658Y004912D01*
X016726Y004864D01*
X016791Y004813D01*
X016854Y004758D01*
X016914Y004701D01*
X016971Y004641D01*
X017026Y004578D01*
X017077Y004513D01*
X017125Y004445D01*
X017169Y004374D01*
X017210Y004302D01*
X017247Y004228D01*
X017281Y004152D01*
X017311Y004074D01*
X017337Y003995D01*
X017359Y003915D01*
X017377Y003834D01*
X017392Y003752D01*
X017402Y003670D01*
X017408Y003587D01*
X017410Y003504D01*
X017408Y003421D01*
X017402Y003338D01*
X017392Y003256D01*
X017377Y003174D01*
X017359Y003093D01*
X017337Y003013D01*
X017311Y002934D01*
X017281Y002856D01*
X017247Y002780D01*
X017210Y002706D01*
X017169Y002634D01*
X017125Y002563D01*
X017077Y002495D01*
X017026Y002430D01*
X016971Y002367D01*
X016914Y002307D01*
X016854Y002250D01*
X016791Y002195D01*
X016726Y002144D01*
X016658Y002096D01*
X016587Y002052D01*
X016515Y002011D01*
X016441Y001974D01*
X016365Y001940D01*
X016287Y001910D01*
X016208Y001884D01*
X016128Y001862D01*
X016047Y001844D01*
X015965Y001829D01*
X015883Y001819D01*
X015800Y001813D01*
X015717Y001811D01*
X015634Y001813D01*
X015551Y001819D01*
X015469Y001829D01*
X015387Y001844D01*
X015306Y001862D01*
X015226Y001884D01*
X015147Y001910D01*
X015069Y001940D01*
X014993Y001974D01*
X014919Y002011D01*
X014847Y002052D01*
X014776Y002096D01*
X014708Y002144D01*
X014643Y002195D01*
X014580Y002250D01*
X014520Y002307D01*
X014463Y002367D01*
X014408Y002430D01*
X014357Y002495D01*
X014309Y002563D01*
X014265Y002634D01*
X014224Y002706D01*
X014187Y002780D01*
X014153Y002856D01*
X014123Y002934D01*
X014097Y003013D01*
X014075Y003093D01*
X014057Y003174D01*
X014042Y003256D01*
X014032Y003338D01*
X014026Y003421D01*
X014024Y003504D01*
X013827Y003504D02*
X013829Y003597D01*
X013836Y003689D01*
X013847Y003781D01*
X013863Y003873D01*
X013884Y003963D01*
X013908Y004053D01*
X013937Y004141D01*
X013971Y004227D01*
X014008Y004312D01*
X014050Y004395D01*
X014096Y004476D01*
X014146Y004554D01*
X014199Y004630D01*
X014256Y004703D01*
X014317Y004773D01*
X014381Y004840D01*
X014448Y004904D01*
X014518Y004965D01*
X014591Y005022D01*
X014667Y005075D01*
X014745Y005125D01*
X014826Y005171D01*
X014909Y005213D01*
X014994Y005250D01*
X015080Y005284D01*
X015168Y005313D01*
X015258Y005337D01*
X015348Y005358D01*
X015440Y005374D01*
X015532Y005385D01*
X015624Y005392D01*
X015717Y005394D01*
X015810Y005392D01*
X015902Y005385D01*
X015994Y005374D01*
X016086Y005358D01*
X016176Y005337D01*
X016266Y005313D01*
X016354Y005284D01*
X016440Y005250D01*
X016525Y005213D01*
X016608Y005171D01*
X016689Y005125D01*
X016767Y005075D01*
X016843Y005022D01*
X016916Y004965D01*
X016986Y004904D01*
X017053Y004840D01*
X017117Y004773D01*
X017178Y004703D01*
X017235Y004630D01*
X017288Y004554D01*
X017338Y004476D01*
X017384Y004395D01*
X017426Y004312D01*
X017463Y004227D01*
X017497Y004141D01*
X017526Y004053D01*
X017550Y003963D01*
X017571Y003873D01*
X017587Y003781D01*
X017598Y003689D01*
X017605Y003597D01*
X017607Y003504D01*
X017605Y003411D01*
X017598Y003319D01*
X017587Y003227D01*
X017571Y003135D01*
X017550Y003045D01*
X017526Y002955D01*
X017497Y002867D01*
X017463Y002781D01*
X017426Y002696D01*
X017384Y002613D01*
X017338Y002532D01*
X017288Y002454D01*
X017235Y002378D01*
X017178Y002305D01*
X017117Y002235D01*
X017053Y002168D01*
X016986Y002104D01*
X016916Y002043D01*
X016843Y001986D01*
X016767Y001933D01*
X016689Y001883D01*
X016608Y001837D01*
X016525Y001795D01*
X016440Y001758D01*
X016354Y001724D01*
X016266Y001695D01*
X016176Y001671D01*
X016086Y001650D01*
X015994Y001634D01*
X015902Y001623D01*
X015810Y001616D01*
X015717Y001614D01*
X015624Y001616D01*
X015532Y001623D01*
X015440Y001634D01*
X015348Y001650D01*
X015258Y001671D01*
X015168Y001695D01*
X015080Y001724D01*
X014994Y001758D01*
X014909Y001795D01*
X014826Y001837D01*
X014745Y001883D01*
X014667Y001933D01*
X014591Y001986D01*
X014518Y002043D01*
X014448Y002104D01*
X014381Y002168D01*
X014317Y002235D01*
X014256Y002305D01*
X014199Y002378D01*
X014146Y002454D01*
X014096Y002532D01*
X014050Y002613D01*
X014008Y002696D01*
X013971Y002781D01*
X013937Y002867D01*
X013908Y002955D01*
X013884Y003045D01*
X013863Y003135D01*
X013847Y003227D01*
X013836Y003319D01*
X013829Y003411D01*
X013827Y003504D01*
X019446Y003601D02*
X019446Y003207D01*
X019545Y003207D01*
X019545Y002616D01*
X020273Y002616D01*
X020273Y002538D01*
X021060Y002538D01*
X021060Y002616D01*
X021789Y002616D01*
X021789Y004191D01*
X021060Y004191D01*
X021060Y004270D01*
X020273Y004270D01*
X020273Y004191D01*
X019545Y004191D01*
X019545Y003601D01*
X019446Y003601D01*
X020273Y004112D02*
X020273Y004191D01*
X020273Y004112D02*
X021060Y004112D01*
X021060Y004191D01*
X020195Y003404D02*
X020197Y003447D01*
X020203Y003489D01*
X020213Y003531D01*
X020226Y003572D01*
X020243Y003612D01*
X020264Y003649D01*
X020288Y003685D01*
X020315Y003718D01*
X020345Y003749D01*
X020378Y003777D01*
X020413Y003802D01*
X020450Y003823D01*
X020489Y003841D01*
X020529Y003855D01*
X020571Y003866D01*
X020613Y003873D01*
X020656Y003876D01*
X020699Y003875D01*
X020742Y003870D01*
X020784Y003861D01*
X020825Y003849D01*
X020865Y003833D01*
X020903Y003813D01*
X020939Y003790D01*
X020973Y003763D01*
X021005Y003734D01*
X021033Y003702D01*
X021059Y003667D01*
X021081Y003631D01*
X021100Y003592D01*
X021115Y003552D01*
X021127Y003511D01*
X021135Y003468D01*
X021139Y003425D01*
X021139Y003383D01*
X021135Y003340D01*
X021127Y003297D01*
X021115Y003256D01*
X021100Y003216D01*
X021081Y003177D01*
X021059Y003141D01*
X021033Y003106D01*
X021005Y003074D01*
X020973Y003045D01*
X020939Y003018D01*
X020903Y002995D01*
X020865Y002975D01*
X020825Y002959D01*
X020784Y002947D01*
X020742Y002938D01*
X020699Y002933D01*
X020656Y002932D01*
X020613Y002935D01*
X020571Y002942D01*
X020529Y002953D01*
X020489Y002967D01*
X020450Y002985D01*
X020413Y003006D01*
X020378Y003031D01*
X020345Y003059D01*
X020315Y003090D01*
X020288Y003123D01*
X020264Y003159D01*
X020243Y003196D01*
X020226Y003236D01*
X020213Y003277D01*
X020203Y003319D01*
X020197Y003361D01*
X020195Y003404D01*
X020076Y003404D02*
X020078Y003452D01*
X020084Y003500D01*
X020094Y003547D01*
X020107Y003593D01*
X020125Y003638D01*
X020145Y003682D01*
X020170Y003724D01*
X020198Y003763D01*
X020228Y003800D01*
X020262Y003834D01*
X020299Y003866D01*
X020337Y003895D01*
X020378Y003920D01*
X020421Y003942D01*
X020466Y003960D01*
X020512Y003974D01*
X020559Y003985D01*
X020607Y003992D01*
X020655Y003995D01*
X020703Y003994D01*
X020751Y003989D01*
X020799Y003980D01*
X020845Y003968D01*
X020890Y003951D01*
X020934Y003931D01*
X020976Y003908D01*
X021016Y003881D01*
X021054Y003851D01*
X021089Y003818D01*
X021121Y003782D01*
X021151Y003744D01*
X021177Y003703D01*
X021199Y003660D01*
X021219Y003616D01*
X021234Y003571D01*
X021246Y003524D01*
X021254Y003476D01*
X021258Y003428D01*
X021258Y003380D01*
X021254Y003332D01*
X021246Y003284D01*
X021234Y003237D01*
X021219Y003192D01*
X021199Y003148D01*
X021177Y003105D01*
X021151Y003064D01*
X021121Y003026D01*
X021089Y002990D01*
X021054Y002957D01*
X021016Y002927D01*
X020976Y002900D01*
X020934Y002877D01*
X020890Y002857D01*
X020845Y002840D01*
X020799Y002828D01*
X020751Y002819D01*
X020703Y002814D01*
X020655Y002813D01*
X020607Y002816D01*
X020559Y002823D01*
X020512Y002834D01*
X020466Y002848D01*
X020421Y002866D01*
X020378Y002888D01*
X020337Y002913D01*
X020299Y002942D01*
X020262Y002974D01*
X020228Y003008D01*
X020198Y003045D01*
X020170Y003084D01*
X020145Y003126D01*
X020125Y003170D01*
X020107Y003215D01*
X020094Y003261D01*
X020084Y003308D01*
X020078Y003356D01*
X020076Y003404D01*
X020273Y002695D02*
X020273Y002616D01*
X020273Y002695D02*
X021060Y002695D01*
X021060Y002616D01*
X025101Y004596D02*
X025101Y007411D01*
X026833Y007411D01*
X026833Y004596D01*
X025101Y004596D01*
X026675Y004754D02*
X026677Y004762D01*
X026682Y004769D01*
X026689Y004773D01*
X026697Y004774D01*
X026705Y004771D01*
X026711Y004766D01*
X026715Y004758D01*
X026715Y004750D01*
X026711Y004742D01*
X026705Y004737D01*
X026697Y004734D01*
X026689Y004735D01*
X026682Y004739D01*
X026677Y004746D01*
X026675Y004754D01*
X028397Y006499D02*
X028472Y006574D01*
X028472Y006649D01*
X028397Y006724D01*
X028021Y006724D01*
X028021Y006649D02*
X028021Y006799D01*
X028021Y006959D02*
X028021Y007184D01*
X028096Y007259D01*
X028246Y007259D01*
X028322Y007184D01*
X028322Y006959D01*
X028472Y006959D02*
X028021Y006959D01*
X028096Y007419D02*
X028021Y007495D01*
X028021Y007645D01*
X028096Y007720D01*
X028171Y007720D01*
X028246Y007645D01*
X028322Y007720D01*
X028397Y007720D01*
X028472Y007645D01*
X028472Y007495D01*
X028397Y007419D01*
X028246Y007570D02*
X028246Y007645D01*
X029962Y012004D02*
X029964Y012035D01*
X029970Y012066D01*
X029979Y012096D01*
X029992Y012125D01*
X030009Y012151D01*
X030029Y012176D01*
X030051Y012198D01*
X030076Y012217D01*
X030103Y012232D01*
X030132Y012245D01*
X030162Y012253D01*
X030193Y012258D01*
X030225Y012259D01*
X030256Y012256D01*
X030287Y012249D01*
X030316Y012239D01*
X030344Y012225D01*
X030371Y012207D01*
X030395Y012187D01*
X030416Y012164D01*
X030434Y012138D01*
X030449Y012111D01*
X030460Y012081D01*
X030468Y012051D01*
X030472Y012020D01*
X030472Y011988D01*
X030468Y011957D01*
X030460Y011927D01*
X030449Y011897D01*
X030434Y011870D01*
X030416Y011844D01*
X030395Y011821D01*
X030371Y011801D01*
X030345Y011783D01*
X030316Y011769D01*
X030287Y011759D01*
X030256Y011752D01*
X030225Y011749D01*
X030193Y011750D01*
X030162Y011755D01*
X030132Y011763D01*
X030103Y011776D01*
X030076Y011791D01*
X030051Y011810D01*
X030029Y011832D01*
X030009Y011857D01*
X029992Y011883D01*
X029979Y011912D01*
X029970Y011942D01*
X029964Y011973D01*
X029962Y012004D01*
X029962Y013254D02*
X029964Y013285D01*
X029970Y013316D01*
X029979Y013346D01*
X029992Y013375D01*
X030009Y013401D01*
X030029Y013426D01*
X030051Y013448D01*
X030076Y013467D01*
X030103Y013482D01*
X030132Y013495D01*
X030162Y013503D01*
X030193Y013508D01*
X030225Y013509D01*
X030256Y013506D01*
X030287Y013499D01*
X030316Y013489D01*
X030344Y013475D01*
X030371Y013457D01*
X030395Y013437D01*
X030416Y013414D01*
X030434Y013388D01*
X030449Y013361D01*
X030460Y013331D01*
X030468Y013301D01*
X030472Y013270D01*
X030472Y013238D01*
X030468Y013207D01*
X030460Y013177D01*
X030449Y013147D01*
X030434Y013120D01*
X030416Y013094D01*
X030395Y013071D01*
X030371Y013051D01*
X030345Y013033D01*
X030316Y013019D01*
X030287Y013009D01*
X030256Y013002D01*
X030225Y012999D01*
X030193Y013000D01*
X030162Y013005D01*
X030132Y013013D01*
X030103Y013026D01*
X030076Y013041D01*
X030051Y013060D01*
X030029Y013082D01*
X030009Y013107D01*
X029992Y013133D01*
X029979Y013162D01*
X029970Y013192D01*
X029964Y013223D01*
X029962Y013254D01*
X027354Y013374D02*
X026567Y013374D01*
X026567Y013610D01*
X026567Y013846D01*
X027354Y013846D01*
X027354Y013374D01*
X004683Y018749D02*
X004382Y018749D01*
X004533Y018749D02*
X004533Y019199D01*
X004382Y019049D01*
X004222Y019124D02*
X004222Y018974D01*
X004147Y018899D01*
X003922Y018899D01*
X003922Y018749D02*
X003922Y019199D01*
X004147Y019199D01*
X004222Y019124D01*
X003762Y019199D02*
X003612Y019199D01*
X003687Y019199D02*
X003687Y018824D01*
X003612Y018749D01*
X003537Y018749D01*
X003462Y018824D01*
D18*
X028524Y015883D02*
X030445Y015883D01*
X030445Y015884D02*
X028525Y015884D01*
X028525Y015885D02*
X030445Y015885D01*
X030445Y015886D02*
X028526Y015886D01*
X028526Y015887D02*
X030446Y015887D01*
X030446Y015888D02*
X028527Y015888D01*
X028527Y015889D02*
X030446Y015889D01*
X030446Y015890D02*
X028528Y015890D01*
X028528Y015891D02*
X030446Y015891D01*
X030446Y015892D02*
X028529Y015892D01*
X028529Y015893D02*
X030447Y015893D01*
X030447Y015894D02*
X028530Y015894D01*
X028530Y015895D02*
X030447Y015895D01*
X030447Y015896D02*
X028531Y015896D01*
X028531Y015897D02*
X030447Y015897D01*
X030447Y015898D02*
X028532Y015898D01*
X028532Y015899D02*
X030448Y015899D01*
X030448Y015900D02*
X028532Y015900D01*
X028533Y015901D02*
X030448Y015901D01*
X030448Y015902D02*
X028533Y015902D01*
X028534Y015903D02*
X030448Y015903D01*
X030448Y015904D02*
X028534Y015904D01*
X028535Y015905D02*
X030449Y015905D01*
X030449Y015906D02*
X028535Y015906D01*
X028536Y015907D02*
X030449Y015907D01*
X030449Y015908D02*
X028536Y015908D01*
X028537Y015909D02*
X030449Y015909D01*
X030449Y015910D02*
X028537Y015910D01*
X028538Y015911D02*
X030450Y015911D01*
X030450Y015912D02*
X028538Y015912D01*
X028539Y015913D02*
X030450Y015913D01*
X030450Y015914D02*
X028539Y015914D01*
X028540Y015915D02*
X030450Y015915D01*
X030450Y015916D02*
X028540Y015916D01*
X028541Y015917D02*
X030451Y015917D01*
X030451Y015918D02*
X028541Y015918D01*
X028542Y015919D02*
X030451Y015919D01*
X030451Y015920D02*
X028542Y015920D01*
X028543Y015921D02*
X030451Y015921D01*
X030451Y015922D02*
X028543Y015922D01*
X028544Y015923D02*
X030451Y015923D01*
X030451Y015924D02*
X028544Y015924D01*
X028545Y015925D02*
X030451Y015925D01*
X030451Y015926D02*
X028545Y015926D01*
X028546Y015927D02*
X030451Y015927D01*
X030451Y015928D02*
X028546Y015928D01*
X028547Y015929D02*
X030451Y015929D01*
X030451Y015930D02*
X028547Y015930D01*
X028548Y015931D02*
X030451Y015931D01*
X030451Y015932D02*
X028548Y015932D01*
X028549Y015933D02*
X030451Y015933D01*
X030451Y015934D02*
X028549Y015934D01*
X028550Y015935D02*
X030451Y015935D01*
X030451Y015936D02*
X028550Y015936D01*
X028551Y015937D02*
X030451Y015937D01*
X030451Y015938D02*
X028551Y015938D01*
X028552Y015939D02*
X030451Y015939D01*
X030451Y015940D02*
X028552Y015940D01*
X028553Y015941D02*
X030451Y015941D01*
X030451Y015942D02*
X028553Y015942D01*
X028554Y015943D02*
X030451Y015943D01*
X030451Y015944D02*
X028554Y015944D01*
X028555Y015945D02*
X030451Y015945D01*
X030451Y015946D02*
X028555Y015946D01*
X028556Y015947D02*
X030451Y015947D01*
X030451Y015948D02*
X028556Y015948D01*
X028557Y015949D02*
X030451Y015949D01*
X030451Y015950D02*
X028557Y015950D01*
X028558Y015951D02*
X030451Y015951D01*
X030451Y015952D02*
X028558Y015952D01*
X028559Y015953D02*
X030451Y015953D01*
X030450Y015954D02*
X028559Y015954D01*
X028560Y015955D02*
X030449Y015955D01*
X030448Y015956D02*
X028560Y015956D01*
X028561Y015957D02*
X030447Y015957D01*
X030447Y015958D02*
X028561Y015958D01*
X028562Y015959D02*
X030446Y015959D01*
X030445Y015960D02*
X028562Y015960D01*
X028563Y015961D02*
X030444Y015961D01*
X030443Y015962D02*
X028563Y015962D01*
X028564Y015963D02*
X030442Y015963D01*
X030441Y015964D02*
X028564Y015964D01*
X028565Y015965D02*
X030441Y015965D01*
X030440Y015966D02*
X028565Y015966D01*
X028566Y015967D02*
X030439Y015967D01*
X030438Y015968D02*
X030385Y015968D01*
X030388Y015969D02*
X030437Y015969D01*
X030436Y015970D02*
X030390Y015970D01*
X030392Y015971D02*
X030436Y015971D01*
X030435Y015972D02*
X030395Y015972D01*
X030397Y015973D02*
X030434Y015973D01*
X030433Y015974D02*
X030400Y015974D01*
X030402Y015975D02*
X030432Y015975D01*
X030431Y015976D02*
X030404Y015976D01*
X030407Y015977D02*
X030430Y015977D01*
X030430Y015978D02*
X030409Y015978D01*
X030412Y015979D02*
X030428Y015979D01*
X030417Y015980D02*
X030414Y015980D01*
X030333Y015968D02*
X028566Y015968D01*
X028567Y015969D02*
X030333Y015969D01*
X030332Y015970D02*
X028567Y015970D01*
X028568Y015971D02*
X030332Y015971D01*
X030332Y015972D02*
X028568Y015972D01*
X028569Y015973D02*
X030332Y015973D01*
X030332Y015974D02*
X028569Y015974D01*
X028570Y015975D02*
X030332Y015975D01*
X030331Y015976D02*
X028570Y015976D01*
X028571Y015977D02*
X030331Y015977D01*
X030331Y015978D02*
X028571Y015978D01*
X028572Y015979D02*
X030331Y015979D01*
X030331Y015980D02*
X028572Y015980D01*
X028573Y015981D02*
X030331Y015981D01*
X030330Y015982D02*
X028573Y015982D01*
X028574Y015983D02*
X030330Y015983D01*
X030330Y015984D02*
X028574Y015984D01*
X028575Y015985D02*
X030330Y015985D01*
X030330Y015986D02*
X028575Y015986D01*
X028576Y015987D02*
X030329Y015987D01*
X030329Y015988D02*
X028576Y015988D01*
X028577Y015989D02*
X030329Y015989D01*
X030329Y015990D02*
X028577Y015990D01*
X028578Y015991D02*
X030329Y015991D01*
X030329Y015992D02*
X028578Y015992D01*
X028579Y015993D02*
X030328Y015993D01*
X030328Y015994D02*
X028579Y015994D01*
X028580Y015995D02*
X030328Y015995D01*
X030328Y015996D02*
X028580Y015996D01*
X028581Y015997D02*
X030328Y015997D01*
X030328Y015998D02*
X028581Y015998D01*
X028582Y015999D02*
X030327Y015999D01*
X030327Y016000D02*
X028582Y016000D01*
X028583Y016001D02*
X030327Y016001D01*
X030327Y016002D02*
X028583Y016002D01*
X028584Y016003D02*
X030327Y016003D01*
X030326Y016004D02*
X028584Y016004D01*
X028585Y016005D02*
X030326Y016005D01*
X030326Y016006D02*
X028585Y016006D01*
X028586Y016007D02*
X030326Y016007D01*
X030326Y016008D02*
X028586Y016008D01*
X028587Y016009D02*
X030326Y016009D01*
X030325Y016010D02*
X028587Y016010D01*
X028588Y016011D02*
X030325Y016011D01*
X030325Y016012D02*
X028588Y016012D01*
X028589Y016013D02*
X030325Y016013D01*
X030325Y016014D02*
X028589Y016014D01*
X028590Y016015D02*
X030325Y016015D01*
X030324Y016016D02*
X028590Y016016D01*
X028591Y016017D02*
X030324Y016017D01*
X030324Y016018D02*
X028591Y016018D01*
X028592Y016019D02*
X030324Y016019D01*
X030324Y016020D02*
X028592Y016020D01*
X028593Y016021D02*
X030323Y016021D01*
X030323Y016022D02*
X028593Y016022D01*
X028594Y016023D02*
X030323Y016023D01*
X030323Y016024D02*
X028594Y016024D01*
X028595Y016025D02*
X030323Y016025D01*
X030323Y016026D02*
X028595Y016026D01*
X028596Y016027D02*
X030322Y016027D01*
X030322Y016028D02*
X028596Y016028D01*
X028597Y016029D02*
X030322Y016029D01*
X030322Y016030D02*
X028597Y016030D01*
X028598Y016031D02*
X030322Y016031D01*
X030322Y016032D02*
X028598Y016032D01*
X028599Y016033D02*
X030321Y016033D01*
X030321Y016034D02*
X028599Y016034D01*
X028600Y016035D02*
X030321Y016035D01*
X030321Y016036D02*
X028600Y016036D01*
X028601Y016037D02*
X030321Y016037D01*
X030320Y016038D02*
X028601Y016038D01*
X028602Y016039D02*
X030320Y016039D01*
X030320Y016040D02*
X028602Y016040D01*
X028603Y016041D02*
X030320Y016041D01*
X030320Y016042D02*
X028603Y016042D01*
X028604Y016043D02*
X030320Y016043D01*
X030319Y016044D02*
X028604Y016044D01*
X028605Y016045D02*
X030319Y016045D01*
X030319Y016046D02*
X028605Y016046D01*
X028606Y016047D02*
X030319Y016047D01*
X030319Y016048D02*
X028606Y016048D01*
X028607Y016049D02*
X030319Y016049D01*
X030318Y016050D02*
X028607Y016050D01*
X028608Y016051D02*
X030318Y016051D01*
X030318Y016052D02*
X028608Y016052D01*
X028609Y016053D02*
X030318Y016053D01*
X030318Y016054D02*
X028609Y016054D01*
X028610Y016055D02*
X030317Y016055D01*
X030317Y016056D02*
X028610Y016056D01*
X028611Y016057D02*
X030317Y016057D01*
X030317Y016058D02*
X028611Y016058D01*
X028612Y016059D02*
X030317Y016059D01*
X030317Y016060D02*
X028612Y016060D01*
X028613Y016061D02*
X030316Y016061D01*
X030316Y016062D02*
X028613Y016062D01*
X028614Y016063D02*
X030316Y016063D01*
X030316Y016064D02*
X028614Y016064D01*
X028615Y016065D02*
X030316Y016065D01*
X030316Y016066D02*
X028615Y016066D01*
X028616Y016067D02*
X030315Y016067D01*
X030315Y016068D02*
X028616Y016068D01*
X028617Y016069D02*
X030315Y016069D01*
X030315Y016070D02*
X028617Y016070D01*
X028618Y016071D02*
X030315Y016071D01*
X030314Y016072D02*
X028618Y016072D01*
X028619Y016073D02*
X030314Y016073D01*
X030314Y016074D02*
X028619Y016074D01*
X028620Y016075D02*
X030314Y016075D01*
X030314Y016076D02*
X028620Y016076D01*
X028621Y016077D02*
X030314Y016077D01*
X030313Y016078D02*
X028621Y016078D01*
X028622Y016079D02*
X030313Y016079D01*
X030313Y016080D02*
X028622Y016080D01*
X028623Y016081D02*
X030313Y016081D01*
X030313Y016082D02*
X028623Y016082D01*
X028624Y016083D02*
X030313Y016083D01*
X030312Y016084D02*
X028624Y016084D01*
X028625Y016085D02*
X030312Y016085D01*
X030312Y016086D02*
X028625Y016086D01*
X028626Y016087D02*
X030312Y016087D01*
X030312Y016088D02*
X028626Y016088D01*
X028627Y016089D02*
X030311Y016089D01*
X030311Y016090D02*
X028627Y016090D01*
X028628Y016091D02*
X030311Y016091D01*
X030311Y016092D02*
X028628Y016092D01*
X028629Y016093D02*
X030311Y016093D01*
X030311Y016094D02*
X028629Y016094D01*
X028630Y016095D02*
X030310Y016095D01*
X030310Y016096D02*
X028630Y016096D01*
X028631Y016097D02*
X030310Y016097D01*
X030310Y016098D02*
X028631Y016098D01*
X028631Y016099D02*
X030310Y016099D01*
X030310Y016100D02*
X028631Y016100D01*
X028631Y016101D02*
X030309Y016101D01*
X030309Y016102D02*
X028630Y016102D01*
X028630Y016103D02*
X030309Y016103D01*
X030309Y016104D02*
X028630Y016104D01*
X028630Y016105D02*
X030309Y016105D01*
X030308Y016106D02*
X028629Y016106D01*
X028629Y016107D02*
X030308Y016107D01*
X030308Y016108D02*
X028629Y016108D01*
X028629Y016109D02*
X030308Y016109D01*
X030308Y016110D02*
X028629Y016110D01*
X028628Y016111D02*
X030308Y016111D01*
X030307Y016112D02*
X028628Y016112D01*
X028628Y016113D02*
X030307Y016113D01*
X030307Y016114D02*
X028628Y016114D01*
X028627Y016115D02*
X030307Y016115D01*
X030307Y016116D02*
X028627Y016116D01*
X028627Y016117D02*
X030307Y016117D01*
X030306Y016118D02*
X028627Y016118D01*
X028627Y016119D02*
X030306Y016119D01*
X030306Y016120D02*
X028626Y016120D01*
X028626Y016121D02*
X030306Y016121D01*
X030306Y016122D02*
X028626Y016122D01*
X028626Y016123D02*
X030305Y016123D01*
X030305Y016124D02*
X028625Y016124D01*
X028625Y016125D02*
X030305Y016125D01*
X030305Y016126D02*
X028625Y016126D01*
X028625Y016127D02*
X030305Y016127D01*
X030305Y016128D02*
X028625Y016128D01*
X028624Y016129D02*
X030304Y016129D01*
X030304Y016130D02*
X028624Y016130D01*
X028624Y016131D02*
X030304Y016131D01*
X030304Y016132D02*
X028624Y016132D01*
X028623Y016133D02*
X030304Y016133D01*
X030304Y016134D02*
X028623Y016134D01*
X028623Y016135D02*
X030303Y016135D01*
X030303Y016136D02*
X028623Y016136D01*
X028623Y016137D02*
X030303Y016137D01*
X030303Y016138D02*
X028623Y016138D01*
X030303Y016138D01*
X030302Y016139D02*
X028623Y016139D01*
X028623Y016140D02*
X030302Y016140D01*
X030302Y016141D02*
X028623Y016141D01*
X028623Y016142D02*
X030302Y016142D01*
X030302Y016143D02*
X028624Y016143D01*
X028625Y016144D02*
X030302Y016144D01*
X030301Y016145D02*
X028626Y016145D01*
X028626Y016146D02*
X030301Y016146D01*
X030301Y016147D02*
X028627Y016147D01*
X028628Y016148D02*
X030301Y016148D01*
X030301Y016149D02*
X028629Y016149D01*
X028629Y016150D02*
X030300Y016150D01*
X030300Y016151D02*
X028630Y016151D01*
X028631Y016152D02*
X030300Y016152D01*
X030300Y016153D02*
X028632Y016153D01*
X028632Y016154D02*
X030300Y016154D01*
X030300Y016155D02*
X028633Y016155D01*
X028634Y016156D02*
X030299Y016156D01*
X030299Y016157D02*
X028635Y016157D01*
X028635Y016158D02*
X030299Y016158D01*
X030299Y016159D02*
X028636Y016159D01*
X028637Y016160D02*
X030299Y016160D01*
X030299Y016161D02*
X028637Y016161D01*
X028638Y016162D02*
X030298Y016162D01*
X030298Y016163D02*
X028639Y016163D01*
X028640Y016164D02*
X030298Y016164D01*
X030298Y016165D02*
X028640Y016165D01*
X028641Y016166D02*
X030297Y016166D01*
X030297Y016167D02*
X028642Y016167D01*
X028643Y016168D02*
X030297Y016168D01*
X030297Y016169D02*
X028643Y016169D01*
X028644Y016170D02*
X030296Y016170D01*
X030296Y016171D02*
X028645Y016171D01*
X028646Y016172D02*
X030296Y016172D01*
X030296Y016173D02*
X028646Y016173D01*
X028647Y016174D02*
X030296Y016174D01*
X030295Y016175D02*
X028648Y016175D01*
X028650Y016176D02*
X030295Y016176D01*
X030295Y016177D02*
X028652Y016177D01*
X028655Y016178D02*
X030295Y016178D01*
X030294Y016179D02*
X028658Y016179D01*
X028660Y016180D02*
X030294Y016180D01*
X030294Y016181D02*
X028663Y016181D01*
X028665Y016182D02*
X030294Y016182D01*
X030293Y016183D02*
X028668Y016183D01*
X028671Y016184D02*
X030293Y016184D01*
X030293Y016185D02*
X028673Y016185D01*
X028676Y016186D02*
X030293Y016186D01*
X030292Y016187D02*
X028678Y016187D01*
X028681Y016188D02*
X030292Y016188D01*
X030292Y016189D02*
X028684Y016189D01*
X028686Y016190D02*
X030292Y016190D01*
X030291Y016191D02*
X028689Y016191D01*
X028692Y016192D02*
X030291Y016192D01*
X030291Y016193D02*
X028694Y016193D01*
X028697Y016194D02*
X030291Y016194D01*
X030291Y016195D02*
X028699Y016195D01*
X028702Y016196D02*
X030290Y016196D01*
X030290Y016197D02*
X028705Y016197D01*
X028707Y016198D02*
X030290Y016198D01*
X030290Y016199D02*
X028710Y016199D01*
X028712Y016200D02*
X030289Y016200D01*
X030289Y016201D02*
X028715Y016201D01*
X028718Y016202D02*
X030289Y016202D01*
X030289Y016203D02*
X028722Y016203D01*
X028735Y016204D02*
X030288Y016204D01*
X030288Y016205D02*
X028749Y016205D01*
X028762Y016206D02*
X030288Y016206D01*
X030288Y016207D02*
X028775Y016207D01*
X028788Y016208D02*
X030287Y016208D01*
X030287Y016209D02*
X028798Y016209D01*
X028801Y016210D02*
X030287Y016210D01*
X030287Y016211D02*
X028803Y016211D01*
X028805Y016212D02*
X030286Y016212D01*
X030286Y016213D02*
X028808Y016213D01*
X028810Y016214D02*
X030286Y016214D01*
X030286Y016215D02*
X028811Y016215D01*
X028811Y016216D02*
X030286Y016216D01*
X030285Y016217D02*
X028812Y016217D01*
X028812Y016218D02*
X030285Y016218D01*
X030285Y016219D02*
X028813Y016219D01*
X028814Y016220D02*
X030285Y016220D01*
X030284Y016221D02*
X028814Y016221D01*
X028815Y016222D02*
X030284Y016222D01*
X030284Y016223D02*
X028815Y016223D01*
X028816Y016224D02*
X030284Y016224D01*
X030283Y016225D02*
X028817Y016225D01*
X028817Y016226D02*
X030283Y016226D01*
X030283Y016227D02*
X028818Y016227D01*
X028818Y016228D02*
X030283Y016228D01*
X030282Y016229D02*
X028819Y016229D01*
X028820Y016230D02*
X030282Y016230D01*
X030282Y016231D02*
X028820Y016231D01*
X028821Y016232D02*
X030282Y016232D01*
X030281Y016233D02*
X028821Y016233D01*
X028822Y016234D02*
X030281Y016234D01*
X030281Y016235D02*
X028822Y016235D01*
X028823Y016236D02*
X030281Y016236D01*
X030281Y016237D02*
X028824Y016237D01*
X028824Y016238D02*
X030280Y016238D01*
X030280Y016239D02*
X028825Y016239D01*
X028825Y016240D02*
X030280Y016240D01*
X030280Y016241D02*
X028825Y016241D01*
X028825Y016242D02*
X030279Y016242D01*
X030279Y016243D02*
X028824Y016243D01*
X028824Y016244D02*
X030279Y016244D01*
X030279Y016245D02*
X028823Y016245D01*
X028823Y016246D02*
X030278Y016246D01*
X030278Y016247D02*
X028822Y016247D01*
X028822Y016248D02*
X030278Y016248D01*
X030278Y016249D02*
X028822Y016249D01*
X028821Y016250D02*
X030277Y016250D01*
X030277Y016251D02*
X028821Y016251D01*
X028820Y016252D02*
X030277Y016252D01*
X030277Y016253D02*
X028820Y016253D01*
X028819Y016254D02*
X030276Y016254D01*
X030276Y016255D02*
X028819Y016255D01*
X028818Y016256D02*
X030276Y016256D01*
X030276Y016257D02*
X028818Y016257D01*
X028818Y016258D02*
X030275Y016258D01*
X030275Y016259D02*
X028817Y016259D01*
X028817Y016260D02*
X030275Y016260D01*
X030275Y016261D02*
X028816Y016261D01*
X028816Y016262D02*
X030275Y016262D01*
X030274Y016263D02*
X028815Y016263D01*
X028815Y016264D02*
X030274Y016264D01*
X030274Y016265D02*
X028814Y016265D01*
X028814Y016266D02*
X030274Y016266D01*
X030273Y016267D02*
X028814Y016267D01*
X028813Y016268D02*
X030273Y016268D01*
X030273Y016269D02*
X028813Y016269D01*
X028812Y016270D02*
X030273Y016270D01*
X030272Y016271D02*
X028812Y016271D01*
X028811Y016272D02*
X030272Y016272D01*
X030272Y016273D02*
X028811Y016273D01*
X028810Y016274D02*
X030272Y016274D01*
X030271Y016275D02*
X028810Y016275D01*
X028810Y016276D02*
X030270Y016276D01*
X030269Y016277D02*
X028809Y016277D01*
X028809Y016278D02*
X030267Y016278D01*
X030266Y016279D02*
X028808Y016279D01*
X028808Y016280D02*
X030264Y016280D01*
X030263Y016281D02*
X028807Y016281D01*
X028807Y016282D02*
X030261Y016282D01*
X030260Y016283D02*
X028806Y016283D01*
X028806Y016284D02*
X030258Y016284D01*
X030257Y016285D02*
X028806Y016285D01*
X028805Y016286D02*
X030255Y016286D01*
X030254Y016287D02*
X028805Y016287D01*
X028804Y016288D02*
X030252Y016288D01*
X030251Y016289D02*
X028804Y016289D01*
X028804Y016290D02*
X030249Y016290D01*
X030248Y016291D02*
X028804Y016291D01*
X028804Y016292D02*
X030246Y016292D01*
X030245Y016293D02*
X028805Y016293D01*
X028805Y016294D02*
X030243Y016294D01*
X030242Y016295D02*
X028805Y016295D01*
X028806Y016296D02*
X030240Y016296D01*
X030239Y016297D02*
X028806Y016297D01*
X028807Y016298D02*
X030237Y016298D01*
X030236Y016299D02*
X028808Y016299D01*
X028808Y016300D02*
X030234Y016300D01*
X030233Y016301D02*
X028809Y016301D01*
X028810Y016302D02*
X030231Y016302D01*
X030230Y016303D02*
X028810Y016303D01*
X028811Y016304D02*
X030228Y016304D01*
X030227Y016305D02*
X028811Y016305D01*
X028812Y016306D02*
X030225Y016306D01*
X030224Y016307D02*
X028813Y016307D01*
X028813Y016308D02*
X030222Y016308D01*
X030221Y016309D02*
X028814Y016309D01*
X028815Y016310D02*
X030219Y016310D01*
X030218Y016311D02*
X028819Y016311D01*
X028823Y016312D02*
X030216Y016312D01*
X030215Y016313D02*
X028908Y016313D01*
X028910Y016314D02*
X030213Y016314D01*
X030212Y016315D02*
X028912Y016315D01*
X028914Y016316D02*
X030210Y016316D01*
X030209Y016317D02*
X028916Y016317D01*
X028918Y016318D02*
X030207Y016318D01*
X030206Y016319D02*
X028921Y016319D01*
X028923Y016320D02*
X030204Y016320D01*
X030203Y016321D02*
X028925Y016321D01*
X028927Y016322D02*
X030201Y016322D01*
X030200Y016323D02*
X028929Y016323D01*
X028931Y016324D02*
X030198Y016324D01*
X030197Y016325D02*
X028933Y016325D01*
X028935Y016326D02*
X030195Y016326D01*
X030194Y016327D02*
X028936Y016327D01*
X028937Y016328D02*
X030192Y016328D01*
X030191Y016329D02*
X028938Y016329D01*
X028939Y016330D02*
X030189Y016330D01*
X030188Y016331D02*
X028940Y016331D01*
X028941Y016332D02*
X030187Y016332D01*
X030185Y016333D02*
X028942Y016333D01*
X028942Y016334D02*
X030184Y016334D01*
X030182Y016335D02*
X028943Y016335D01*
X028944Y016336D02*
X030181Y016336D01*
X030179Y016337D02*
X028945Y016337D01*
X028946Y016338D02*
X030178Y016338D01*
X030176Y016339D02*
X028947Y016339D01*
X028948Y016340D02*
X030175Y016340D01*
X030173Y016341D02*
X028949Y016341D01*
X028950Y016342D02*
X030172Y016342D01*
X030170Y016343D02*
X028951Y016343D01*
X028951Y016344D02*
X030169Y016344D01*
X030167Y016345D02*
X028952Y016345D01*
X028953Y016346D02*
X030166Y016346D01*
X030164Y016347D02*
X028954Y016347D01*
X028955Y016348D02*
X030163Y016348D01*
X030161Y016349D02*
X028955Y016349D01*
X028956Y016350D02*
X030160Y016350D01*
X030158Y016351D02*
X028956Y016351D01*
X028956Y016352D02*
X030157Y016352D01*
X030155Y016353D02*
X028956Y016353D01*
X028956Y016354D02*
X030154Y016354D01*
X030152Y016355D02*
X028956Y016355D01*
X028956Y016356D02*
X030151Y016356D01*
X030149Y016357D02*
X028956Y016357D01*
X028956Y016358D02*
X030148Y016358D01*
X030146Y016359D02*
X028956Y016359D01*
X028956Y016360D02*
X030145Y016360D01*
X030143Y016361D02*
X028956Y016361D01*
X028955Y016362D02*
X030142Y016362D01*
X030140Y016363D02*
X028955Y016363D01*
X028955Y016364D02*
X030139Y016364D01*
X030137Y016365D02*
X028955Y016365D01*
X028955Y016366D02*
X030136Y016366D01*
X030134Y016367D02*
X028955Y016367D01*
X028955Y016368D02*
X030133Y016368D01*
X030131Y016369D02*
X028955Y016369D01*
X028955Y016370D02*
X030130Y016370D01*
X030128Y016371D02*
X028955Y016371D01*
X028954Y016372D02*
X030127Y016372D01*
X030125Y016373D02*
X028954Y016373D01*
X028954Y016374D02*
X030124Y016374D01*
X030122Y016375D02*
X028954Y016375D01*
X028954Y016376D02*
X030121Y016376D01*
X030119Y016377D02*
X028954Y016377D01*
X028954Y016378D02*
X030118Y016378D01*
X030116Y016379D02*
X028954Y016379D01*
X028954Y016380D02*
X030115Y016380D01*
X030113Y016381D02*
X028954Y016381D01*
X028953Y016382D02*
X030112Y016382D01*
X030110Y016383D02*
X028953Y016383D01*
X028953Y016384D02*
X030109Y016384D01*
X030108Y016385D02*
X028953Y016385D01*
X028953Y016386D02*
X030106Y016386D01*
X030105Y016387D02*
X028953Y016387D01*
X028953Y016388D02*
X030103Y016388D01*
X030102Y016389D02*
X028953Y016389D01*
X028953Y016390D02*
X030100Y016390D01*
X030099Y016391D02*
X028953Y016391D01*
X028952Y016392D02*
X030097Y016392D01*
X030096Y016393D02*
X028952Y016393D01*
X028952Y016394D02*
X030094Y016394D01*
X030093Y016395D02*
X028952Y016395D01*
X028952Y016396D02*
X030091Y016396D01*
X030090Y016397D02*
X028952Y016397D01*
X028953Y016398D02*
X030088Y016398D01*
X030087Y016399D02*
X028954Y016399D01*
X028955Y016400D02*
X030085Y016400D01*
X030084Y016401D02*
X028956Y016401D01*
X028957Y016402D02*
X030082Y016402D01*
X030081Y016403D02*
X028958Y016403D01*
X028959Y016404D02*
X030079Y016404D01*
X030078Y016405D02*
X028960Y016405D01*
X028961Y016406D02*
X030076Y016406D01*
X030075Y016407D02*
X028962Y016407D01*
X028963Y016408D02*
X030073Y016408D01*
X030072Y016409D02*
X028964Y016409D01*
X028965Y016410D02*
X030070Y016410D01*
X030069Y016411D02*
X028966Y016411D01*
X028966Y016412D02*
X030067Y016412D01*
X030066Y016413D02*
X028967Y016413D01*
X028968Y016414D02*
X030057Y016414D01*
X030022Y016415D02*
X028969Y016415D01*
X028970Y016416D02*
X029988Y016416D01*
X029956Y016417D02*
X028971Y016417D01*
X028972Y016418D02*
X029940Y016418D01*
X029938Y016419D02*
X028973Y016419D01*
X028974Y016420D02*
X029936Y016420D01*
X029934Y016421D02*
X028975Y016421D01*
X028976Y016422D02*
X029932Y016422D01*
X029930Y016423D02*
X028977Y016423D01*
X028978Y016424D02*
X029927Y016424D01*
X029925Y016425D02*
X028979Y016425D01*
X028980Y016426D02*
X029923Y016426D01*
X029921Y016427D02*
X028981Y016427D01*
X028982Y016428D02*
X029919Y016428D01*
X029917Y016429D02*
X028983Y016429D01*
X028984Y016430D02*
X029914Y016430D01*
X029912Y016431D02*
X028985Y016431D01*
X028986Y016432D02*
X029910Y016432D01*
X029908Y016433D02*
X028987Y016433D01*
X028988Y016434D02*
X029906Y016434D01*
X029905Y016435D02*
X028989Y016435D01*
X028990Y016436D02*
X029904Y016436D01*
X029903Y016437D02*
X028991Y016437D01*
X028992Y016438D02*
X029902Y016438D01*
X029901Y016439D02*
X028993Y016439D01*
X028994Y016440D02*
X029900Y016440D01*
X029899Y016441D02*
X028995Y016441D01*
X028996Y016442D02*
X029898Y016442D01*
X029897Y016443D02*
X028997Y016443D01*
X028998Y016444D02*
X029896Y016444D01*
X029895Y016445D02*
X028999Y016445D01*
X029000Y016446D02*
X029894Y016446D01*
X029893Y016447D02*
X029001Y016447D01*
X029002Y016448D02*
X029892Y016448D01*
X029891Y016449D02*
X029003Y016449D01*
X029004Y016450D02*
X029890Y016450D01*
X029889Y016451D02*
X029005Y016451D01*
X029006Y016452D02*
X029888Y016452D01*
X029887Y016453D02*
X029006Y016453D01*
X029007Y016454D02*
X029886Y016454D01*
X029885Y016455D02*
X029007Y016455D01*
X029008Y016456D02*
X029884Y016456D01*
X029883Y016457D02*
X029008Y016457D01*
X029009Y016458D02*
X029882Y016458D01*
X029881Y016459D02*
X029009Y016459D01*
X029010Y016460D02*
X029880Y016460D01*
X029879Y016461D02*
X029010Y016461D01*
X029011Y016462D02*
X029878Y016462D01*
X029877Y016463D02*
X029012Y016463D01*
X029012Y016464D02*
X029876Y016464D01*
X029875Y016465D02*
X029013Y016465D01*
X029013Y016466D02*
X029874Y016466D01*
X029873Y016467D02*
X029014Y016467D01*
X029014Y016468D02*
X029872Y016468D01*
X029871Y016469D02*
X029015Y016469D01*
X029015Y016470D02*
X029870Y016470D01*
X029870Y016471D02*
X029016Y016471D01*
X029016Y016472D02*
X029869Y016472D01*
X029868Y016473D02*
X029017Y016473D01*
X029018Y016474D02*
X029205Y016474D01*
X029208Y016474D02*
X029867Y016474D01*
X029866Y016475D02*
X029210Y016475D01*
X029211Y016476D02*
X029865Y016476D01*
X029864Y016477D02*
X029212Y016477D01*
X029213Y016478D02*
X029863Y016478D01*
X029862Y016479D02*
X029214Y016479D01*
X029215Y016480D02*
X029861Y016480D01*
X029860Y016481D02*
X029217Y016481D01*
X029218Y016482D02*
X029859Y016482D01*
X029858Y016483D02*
X029219Y016483D01*
X029220Y016484D02*
X029857Y016484D01*
X029856Y016485D02*
X029221Y016485D01*
X029222Y016486D02*
X029855Y016486D01*
X029854Y016487D02*
X029223Y016487D01*
X029225Y016488D02*
X029853Y016488D01*
X029852Y016489D02*
X029226Y016489D01*
X029227Y016490D02*
X029851Y016490D01*
X029850Y016491D02*
X029228Y016491D01*
X029229Y016492D02*
X029849Y016492D01*
X029848Y016493D02*
X029230Y016493D01*
X029232Y016494D02*
X029847Y016494D01*
X029846Y016495D02*
X029233Y016495D01*
X029234Y016496D02*
X029845Y016496D01*
X029844Y016497D02*
X029235Y016497D01*
X029236Y016498D02*
X029843Y016498D01*
X029842Y016499D02*
X029237Y016499D01*
X029238Y016500D02*
X029841Y016500D01*
X029840Y016501D02*
X029239Y016501D01*
X029240Y016502D02*
X029839Y016502D01*
X029838Y016503D02*
X029241Y016503D01*
X029243Y016504D02*
X029837Y016504D01*
X029836Y016505D02*
X029244Y016505D01*
X029245Y016506D02*
X029835Y016506D01*
X029834Y016507D02*
X029246Y016507D01*
X029247Y016508D02*
X029833Y016508D01*
X029832Y016509D02*
X029248Y016509D01*
X029249Y016510D02*
X029831Y016510D01*
X029830Y016511D02*
X029250Y016511D01*
X029251Y016512D02*
X029829Y016512D01*
X029828Y016513D02*
X029252Y016513D01*
X029254Y016514D02*
X029827Y016514D01*
X029826Y016515D02*
X029255Y016515D01*
X029256Y016516D02*
X029825Y016516D01*
X029824Y016517D02*
X029257Y016517D01*
X029258Y016518D02*
X029823Y016518D01*
X029822Y016519D02*
X029259Y016519D01*
X029260Y016520D02*
X029821Y016520D01*
X029820Y016521D02*
X029261Y016521D01*
X029262Y016522D02*
X029819Y016522D01*
X029817Y016523D02*
X029263Y016523D01*
X029265Y016524D02*
X029816Y016524D01*
X029814Y016525D02*
X029266Y016525D01*
X029267Y016526D02*
X029812Y016526D01*
X029810Y016527D02*
X029539Y016527D01*
X029540Y016528D02*
X029808Y016528D01*
X029806Y016529D02*
X029541Y016529D01*
X029542Y016530D02*
X029805Y016530D01*
X029803Y016531D02*
X029542Y016531D01*
X029543Y016532D02*
X029801Y016532D01*
X029799Y016533D02*
X029544Y016533D01*
X029545Y016534D02*
X029797Y016534D01*
X029795Y016535D02*
X029546Y016535D01*
X029547Y016536D02*
X029794Y016536D01*
X029792Y016537D02*
X029548Y016537D01*
X029549Y016538D02*
X029790Y016538D01*
X029788Y016539D02*
X029550Y016539D01*
X029551Y016540D02*
X029786Y016540D01*
X029784Y016541D02*
X029552Y016541D01*
X029553Y016542D02*
X029782Y016542D01*
X029781Y016543D02*
X029554Y016543D01*
X029554Y016544D02*
X029779Y016544D01*
X029777Y016545D02*
X029555Y016545D01*
X029556Y016546D02*
X029775Y016546D01*
X029773Y016547D02*
X029557Y016547D01*
X029558Y016548D02*
X029771Y016548D01*
X029770Y016549D02*
X029559Y016549D01*
X029560Y016550D02*
X029768Y016550D01*
X029766Y016551D02*
X029561Y016551D01*
X029562Y016552D02*
X029764Y016552D01*
X029762Y016553D02*
X029563Y016553D01*
X029564Y016554D02*
X029760Y016554D01*
X029759Y016555D02*
X029565Y016555D01*
X029566Y016556D02*
X029757Y016556D01*
X029755Y016557D02*
X029567Y016557D01*
X029567Y016558D02*
X029753Y016558D01*
X029751Y016559D02*
X029568Y016559D01*
X029569Y016560D02*
X029749Y016560D01*
X029748Y016561D02*
X029570Y016561D01*
X029571Y016562D02*
X029746Y016562D01*
X029744Y016563D02*
X029572Y016563D01*
X029573Y016564D02*
X029742Y016564D01*
X029740Y016565D02*
X029575Y016565D01*
X029576Y016566D02*
X029738Y016566D01*
X029737Y016567D02*
X029578Y016567D01*
X029580Y016568D02*
X029735Y016568D01*
X029733Y016569D02*
X029582Y016569D01*
X029583Y016570D02*
X029731Y016570D01*
X029729Y016571D02*
X029585Y016571D01*
X029587Y016572D02*
X029727Y016572D01*
X029726Y016573D02*
X029588Y016573D01*
X029590Y016574D02*
X029724Y016574D01*
X029722Y016575D02*
X029592Y016575D01*
X029594Y016576D02*
X029720Y016576D01*
X029718Y016577D02*
X029595Y016577D01*
X029597Y016578D02*
X029716Y016578D01*
X029714Y016579D02*
X029599Y016579D01*
X029601Y016580D02*
X029713Y016580D01*
X029711Y016581D02*
X029602Y016581D01*
X029606Y016582D02*
X029709Y016582D01*
X029707Y016583D02*
X029610Y016583D01*
X029615Y016584D02*
X029705Y016584D01*
X029511Y016527D02*
X029268Y016527D01*
X029269Y016528D02*
X029505Y016528D01*
X029500Y016529D02*
X029270Y016529D01*
X029271Y016530D02*
X029496Y016530D01*
X029493Y016531D02*
X029272Y016531D01*
X029273Y016532D02*
X029489Y016532D01*
X029486Y016533D02*
X029274Y016533D01*
X029276Y016534D02*
X029482Y016534D01*
X029478Y016535D02*
X029277Y016535D01*
X029278Y016536D02*
X029475Y016536D01*
X029471Y016537D02*
X029279Y016537D01*
X029280Y016538D02*
X029468Y016538D01*
X029464Y016539D02*
X029281Y016539D01*
X029282Y016540D02*
X029461Y016540D01*
X029459Y016541D02*
X029283Y016541D01*
X029284Y016542D02*
X029457Y016542D01*
X029455Y016543D02*
X029285Y016543D01*
X029287Y016544D02*
X029452Y016544D01*
X029450Y016545D02*
X029288Y016545D01*
X029289Y016546D02*
X029448Y016546D01*
X029446Y016547D02*
X029290Y016547D01*
X029291Y016548D02*
X029443Y016548D01*
X029441Y016549D02*
X029293Y016549D01*
X029294Y016550D02*
X029439Y016550D01*
X029436Y016551D02*
X029295Y016551D01*
X029296Y016552D02*
X029434Y016552D01*
X029432Y016553D02*
X029298Y016553D01*
X029299Y016554D02*
X029430Y016554D01*
X029427Y016555D02*
X029300Y016555D01*
X029301Y016556D02*
X029425Y016556D01*
X029423Y016557D02*
X029302Y016557D01*
X029304Y016558D02*
X029420Y016558D01*
X029418Y016559D02*
X029305Y016559D01*
X029306Y016560D02*
X029416Y016560D01*
X029414Y016561D02*
X029307Y016561D01*
X029308Y016562D02*
X029411Y016562D01*
X029409Y016563D02*
X029310Y016563D01*
X029311Y016564D02*
X029407Y016564D01*
X029404Y016565D02*
X029312Y016565D01*
X029313Y016566D02*
X029402Y016566D01*
X029400Y016567D02*
X029315Y016567D01*
X029316Y016568D02*
X029398Y016568D01*
X029395Y016569D02*
X029317Y016569D01*
X029319Y016570D02*
X029393Y016570D01*
X029391Y016571D02*
X029322Y016571D01*
X029324Y016572D02*
X029388Y016572D01*
X029386Y016573D02*
X029327Y016573D01*
X029329Y016574D02*
X029384Y016574D01*
X029382Y016575D02*
X029332Y016575D01*
X029334Y016576D02*
X029379Y016576D01*
X029199Y016475D02*
X029018Y016475D01*
X029019Y016476D02*
X029193Y016476D01*
X029188Y016477D02*
X029019Y016477D01*
X029020Y016478D02*
X029182Y016478D01*
X029176Y016479D02*
X029020Y016479D01*
X029021Y016480D02*
X029171Y016480D01*
X029165Y016481D02*
X029021Y016481D01*
X029022Y016482D02*
X029159Y016482D01*
X029153Y016483D02*
X029035Y016483D01*
X029069Y016484D02*
X029142Y016484D01*
X028887Y016313D02*
X028826Y016313D01*
X028524Y015882D02*
X030445Y015882D01*
X030445Y015881D02*
X028525Y015881D01*
X028525Y015880D02*
X030444Y015880D01*
X030444Y015879D02*
X028525Y015879D01*
X028525Y015878D02*
X030444Y015878D01*
X030444Y015877D02*
X028525Y015877D01*
X028526Y015876D02*
X030444Y015876D01*
X030444Y015875D02*
X028526Y015875D01*
X028526Y015874D02*
X030443Y015874D01*
X030443Y015873D02*
X028526Y015873D01*
X028526Y015872D02*
X030443Y015872D01*
X030443Y015871D02*
X028527Y015871D01*
X028527Y015870D02*
X030443Y015870D01*
X030443Y015869D02*
X028527Y015869D01*
X028527Y015868D02*
X030442Y015868D01*
X030442Y015867D02*
X028527Y015867D01*
X028528Y015866D02*
X030442Y015866D01*
X030442Y015865D02*
X028528Y015865D01*
X028528Y015864D02*
X030442Y015864D01*
X030441Y015863D02*
X028528Y015863D01*
X028529Y015862D02*
X030441Y015862D01*
X030441Y015861D02*
X028529Y015861D01*
X028529Y015860D02*
X030441Y015860D01*
X030441Y015859D02*
X028529Y015859D01*
X028529Y015858D02*
X030441Y015858D01*
X030440Y015857D02*
X028530Y015857D01*
X028530Y015856D02*
X030440Y015856D01*
X030440Y015855D02*
X028530Y015855D01*
X028530Y015854D02*
X030440Y015854D01*
X030440Y015853D02*
X028530Y015853D01*
X028531Y015852D02*
X030440Y015852D01*
X030439Y015851D02*
X028531Y015851D01*
X028531Y015850D02*
X030439Y015850D01*
X030439Y015849D02*
X028531Y015849D01*
X028532Y015848D02*
X030439Y015848D01*
X030439Y015847D02*
X028532Y015847D01*
X028532Y015846D02*
X030439Y015846D01*
X030438Y015845D02*
X028532Y015845D01*
X028533Y015844D02*
X030438Y015844D01*
X030438Y015843D02*
X028533Y015843D01*
X028533Y015842D02*
X030438Y015842D01*
X030438Y015841D02*
X028533Y015841D01*
X028534Y015840D02*
X030438Y015840D01*
X030437Y015839D02*
X028534Y015839D01*
X028534Y015838D02*
X030437Y015838D01*
X030437Y015837D02*
X028534Y015837D01*
X028535Y015836D02*
X030437Y015836D01*
X030437Y015835D02*
X028535Y015835D01*
X028535Y015834D02*
X030437Y015834D01*
X030436Y015833D02*
X028535Y015833D01*
X028536Y015832D02*
X030436Y015832D01*
X030436Y015831D02*
X028536Y015831D01*
X028536Y015830D02*
X029123Y015830D01*
X029122Y015829D02*
X028536Y015829D01*
X028536Y015828D02*
X029120Y015828D01*
X029119Y015827D02*
X028537Y015827D01*
X028537Y015826D02*
X029117Y015826D01*
X029116Y015825D02*
X028537Y015825D01*
X028537Y015824D02*
X029114Y015824D01*
X029113Y015823D02*
X028538Y015823D01*
X028538Y015822D02*
X029111Y015822D01*
X029110Y015821D02*
X028538Y015821D01*
X028538Y015820D02*
X029108Y015820D01*
X029107Y015819D02*
X028539Y015819D01*
X028539Y015818D02*
X029105Y015818D01*
X029104Y015817D02*
X028539Y015817D01*
X028539Y015816D02*
X029102Y015816D01*
X029101Y015815D02*
X028540Y015815D01*
X028540Y015814D02*
X029099Y015814D01*
X029098Y015813D02*
X028540Y015813D01*
X028540Y015812D02*
X029096Y015812D01*
X029095Y015811D02*
X028540Y015811D01*
X028541Y015810D02*
X029093Y015810D01*
X029092Y015809D02*
X028541Y015809D01*
X028541Y015808D02*
X029090Y015808D01*
X029089Y015807D02*
X028541Y015807D01*
X028542Y015806D02*
X029087Y015806D01*
X029086Y015805D02*
X028542Y015805D01*
X028542Y015804D02*
X029084Y015804D01*
X029083Y015803D02*
X028542Y015803D01*
X028543Y015802D02*
X029081Y015802D01*
X029080Y015801D02*
X028543Y015801D01*
X028543Y015800D02*
X029078Y015800D01*
X029077Y015799D02*
X028543Y015799D01*
X028544Y015798D02*
X029075Y015798D01*
X029074Y015797D02*
X028544Y015797D01*
X028544Y015796D02*
X029072Y015796D01*
X029071Y015795D02*
X028544Y015795D01*
X028545Y015794D02*
X029069Y015794D01*
X029068Y015793D02*
X028545Y015793D01*
X028545Y015792D02*
X029066Y015792D01*
X029065Y015791D02*
X028545Y015791D01*
X028545Y015790D02*
X029063Y015790D01*
X029062Y015789D02*
X028546Y015789D01*
X028546Y015788D02*
X029060Y015788D01*
X029059Y015787D02*
X028546Y015787D01*
X028546Y015786D02*
X029057Y015786D01*
X029056Y015785D02*
X028547Y015785D01*
X028547Y015784D02*
X029054Y015784D01*
X029053Y015783D02*
X028547Y015783D01*
X028547Y015782D02*
X029051Y015782D01*
X029050Y015781D02*
X028548Y015781D01*
X028548Y015780D02*
X029050Y015780D01*
X029049Y015779D02*
X028548Y015779D01*
X028548Y015778D02*
X029048Y015778D01*
X029048Y015777D02*
X028549Y015777D01*
X028549Y015776D02*
X029047Y015776D01*
X029047Y015775D02*
X028549Y015775D01*
X028549Y015774D02*
X029046Y015774D01*
X029045Y015773D02*
X028550Y015773D01*
X028550Y015772D02*
X029045Y015772D01*
X029044Y015771D02*
X028550Y015771D01*
X028550Y015770D02*
X029044Y015770D01*
X029043Y015769D02*
X028550Y015769D01*
X028550Y015768D02*
X029043Y015768D01*
X029042Y015767D02*
X028550Y015767D01*
X028549Y015766D02*
X029041Y015766D01*
X029041Y015765D02*
X028549Y015765D01*
X028548Y015764D02*
X029040Y015764D01*
X029040Y015763D02*
X028548Y015763D01*
X028547Y015762D02*
X029039Y015762D01*
X029038Y015761D02*
X028547Y015761D01*
X028546Y015760D02*
X029038Y015760D01*
X029037Y015759D02*
X028546Y015759D01*
X028545Y015758D02*
X029037Y015758D01*
X029036Y015757D02*
X028545Y015757D01*
X028544Y015756D02*
X029036Y015756D01*
X029035Y015755D02*
X028544Y015755D01*
X028543Y015754D02*
X029034Y015754D01*
X029034Y015753D02*
X028543Y015753D01*
X028542Y015752D02*
X029033Y015752D01*
X029033Y015751D02*
X028542Y015751D01*
X028541Y015750D02*
X029032Y015750D01*
X029031Y015749D02*
X028541Y015749D01*
X028540Y015748D02*
X029031Y015748D01*
X029030Y015747D02*
X028540Y015747D01*
X028539Y015746D02*
X029030Y015746D01*
X029029Y015745D02*
X028539Y015745D01*
X028538Y015744D02*
X029028Y015744D01*
X029028Y015743D02*
X028538Y015743D01*
X028537Y015742D02*
X029027Y015742D01*
X029027Y015741D02*
X028537Y015741D01*
X028537Y015740D02*
X029026Y015740D01*
X029026Y015739D02*
X028536Y015739D01*
X028536Y015738D02*
X029025Y015738D01*
X029024Y015737D02*
X028535Y015737D01*
X028535Y015736D02*
X029024Y015736D01*
X029023Y015735D02*
X028534Y015735D01*
X028534Y015734D02*
X029023Y015734D01*
X029022Y015733D02*
X028533Y015733D01*
X028533Y015732D02*
X029021Y015732D01*
X029021Y015731D02*
X028532Y015731D01*
X028532Y015730D02*
X029020Y015730D01*
X029020Y015729D02*
X028531Y015729D01*
X028531Y015728D02*
X029019Y015728D01*
X029019Y015727D02*
X028530Y015727D01*
X028530Y015726D02*
X029018Y015726D01*
X029017Y015725D02*
X028529Y015725D01*
X028529Y015724D02*
X029017Y015724D01*
X029016Y015723D02*
X028528Y015723D01*
X028528Y015722D02*
X029016Y015722D01*
X029015Y015721D02*
X028527Y015721D01*
X028527Y015720D02*
X029014Y015720D01*
X029014Y015719D02*
X028526Y015719D01*
X028526Y015718D02*
X029013Y015718D01*
X029013Y015717D02*
X028525Y015717D01*
X028525Y015716D02*
X029012Y015716D01*
X029011Y015715D02*
X028524Y015715D01*
X028524Y015714D02*
X029011Y015714D01*
X029010Y015713D02*
X028524Y015713D01*
X028523Y015712D02*
X029010Y015712D01*
X029009Y015711D02*
X028523Y015711D01*
X028522Y015710D02*
X029009Y015710D01*
X029008Y015709D02*
X028522Y015709D01*
X028521Y015708D02*
X029007Y015708D01*
X029007Y015707D02*
X028521Y015707D01*
X028520Y015706D02*
X029006Y015706D01*
X029006Y015705D02*
X028520Y015705D01*
X028519Y015704D02*
X029005Y015704D01*
X029004Y015703D02*
X028519Y015703D01*
X028518Y015702D02*
X029004Y015702D01*
X029003Y015701D02*
X028518Y015701D01*
X028517Y015700D02*
X029003Y015700D01*
X029002Y015699D02*
X028517Y015699D01*
X028518Y015698D02*
X029001Y015698D01*
X029001Y015697D02*
X028518Y015697D01*
X028518Y015696D02*
X029000Y015696D01*
X029000Y015695D02*
X028519Y015695D01*
X028519Y015694D02*
X028999Y015694D01*
X028999Y015693D02*
X028519Y015693D01*
X028519Y015692D02*
X028998Y015692D01*
X028997Y015691D02*
X028520Y015691D01*
X028520Y015690D02*
X028997Y015690D01*
X028996Y015689D02*
X028520Y015689D01*
X028520Y015688D02*
X028996Y015688D01*
X028995Y015687D02*
X028521Y015687D01*
X028521Y015686D02*
X028994Y015686D01*
X028994Y015685D02*
X028521Y015685D01*
X028522Y015684D02*
X028993Y015684D01*
X028993Y015683D02*
X028522Y015683D01*
X028522Y015682D02*
X028992Y015682D01*
X028992Y015681D02*
X028522Y015681D01*
X028523Y015680D02*
X028991Y015680D01*
X028990Y015679D02*
X028523Y015679D01*
X028523Y015678D02*
X028990Y015678D01*
X028989Y015677D02*
X028524Y015677D01*
X028524Y015676D02*
X028989Y015676D01*
X028988Y015675D02*
X028524Y015675D01*
X028524Y015674D02*
X028987Y015674D01*
X028987Y015673D02*
X028525Y015673D01*
X028525Y015672D02*
X028986Y015672D01*
X028986Y015671D02*
X028525Y015671D01*
X028525Y015670D02*
X028985Y015670D01*
X028985Y015669D02*
X028526Y015669D01*
X028526Y015668D02*
X028984Y015668D01*
X028983Y015667D02*
X028526Y015667D01*
X028527Y015666D02*
X028983Y015666D01*
X028982Y015665D02*
X028527Y015665D01*
X028527Y015664D02*
X028982Y015664D01*
X028981Y015663D02*
X028527Y015663D01*
X028528Y015662D02*
X028980Y015662D01*
X028980Y015661D02*
X028528Y015661D01*
X028528Y015660D02*
X028979Y015660D01*
X028979Y015659D02*
X028529Y015659D01*
X028529Y015658D02*
X028978Y015658D01*
X028977Y015657D02*
X028529Y015657D01*
X028529Y015656D02*
X028977Y015656D01*
X028976Y015655D02*
X028530Y015655D01*
X028530Y015654D02*
X028976Y015654D01*
X028975Y015653D02*
X028530Y015653D01*
X028530Y015652D02*
X028975Y015652D01*
X028974Y015651D02*
X028531Y015651D01*
X028531Y015650D02*
X028973Y015650D01*
X028973Y015649D02*
X028531Y015649D01*
X028532Y015648D02*
X028972Y015648D01*
X028972Y015647D02*
X028532Y015647D01*
X028532Y015646D02*
X028971Y015646D01*
X028970Y015645D02*
X028532Y015645D01*
X028533Y015644D02*
X028970Y015644D01*
X028969Y015643D02*
X028533Y015643D01*
X028533Y015642D02*
X028969Y015642D01*
X028968Y015641D02*
X028534Y015641D01*
X028534Y015640D02*
X028968Y015640D01*
X028967Y015639D02*
X028534Y015639D01*
X028534Y015638D02*
X028966Y015638D01*
X028966Y015637D02*
X028535Y015637D01*
X028535Y015636D02*
X028965Y015636D01*
X028965Y015635D02*
X028535Y015635D01*
X028535Y015634D02*
X028964Y015634D01*
X028963Y015633D02*
X028536Y015633D01*
X028536Y015632D02*
X028963Y015632D01*
X028962Y015631D02*
X028536Y015631D01*
X028537Y015630D02*
X028962Y015630D01*
X028961Y015629D02*
X028537Y015629D01*
X028537Y015628D02*
X028961Y015628D01*
X028960Y015627D02*
X028537Y015627D01*
X028538Y015626D02*
X028959Y015626D01*
X028959Y015625D02*
X028538Y015625D01*
X028538Y015624D02*
X028958Y015624D01*
X028958Y015623D02*
X028538Y015623D01*
X028539Y015622D02*
X028957Y015622D01*
X028956Y015621D02*
X028539Y015621D01*
X028539Y015620D02*
X028956Y015620D01*
X028955Y015619D02*
X028540Y015619D01*
X028540Y015618D02*
X028955Y015618D01*
X028954Y015617D02*
X028540Y015617D01*
X028540Y015616D02*
X028954Y015616D01*
X028953Y015615D02*
X028541Y015615D01*
X028541Y015614D02*
X028953Y015614D01*
X028953Y015613D02*
X028541Y015613D01*
X028542Y015612D02*
X028953Y015612D01*
X028953Y015611D02*
X028542Y015611D01*
X028542Y015610D02*
X028953Y015610D01*
X028952Y015609D02*
X028542Y015609D01*
X028543Y015608D02*
X028952Y015608D01*
X028952Y015607D02*
X028543Y015607D01*
X028543Y015606D02*
X028952Y015606D01*
X028952Y015605D02*
X028543Y015605D01*
X028544Y015604D02*
X028952Y015604D01*
X028951Y015603D02*
X028544Y015603D01*
X028544Y015602D02*
X028951Y015602D01*
X028951Y015601D02*
X028544Y015601D01*
X028545Y015600D02*
X028951Y015600D01*
X028951Y015599D02*
X028545Y015599D01*
X028545Y015598D02*
X028951Y015598D01*
X028950Y015597D02*
X028545Y015597D01*
X028545Y015596D02*
X028950Y015596D01*
X028950Y015595D02*
X028546Y015595D01*
X028546Y015594D02*
X028950Y015594D01*
X028950Y015593D02*
X028546Y015593D01*
X028546Y015592D02*
X028950Y015592D01*
X028949Y015591D02*
X028546Y015591D01*
X028547Y015590D02*
X028949Y015590D01*
X028949Y015589D02*
X028547Y015589D01*
X028547Y015588D02*
X028949Y015588D01*
X028949Y015587D02*
X028547Y015587D01*
X028547Y015586D02*
X028949Y015586D01*
X028948Y015585D02*
X028548Y015585D01*
X028548Y015584D02*
X028948Y015584D01*
X028948Y015583D02*
X028548Y015583D01*
X028548Y015582D02*
X028948Y015582D01*
X028948Y015581D02*
X028549Y015581D01*
X028547Y015580D02*
X028948Y015580D01*
X028947Y015579D02*
X028545Y015579D01*
X028543Y015578D02*
X028947Y015578D01*
X028947Y015577D02*
X028541Y015577D01*
X028540Y015576D02*
X028947Y015576D01*
X028947Y015575D02*
X028538Y015575D01*
X028536Y015574D02*
X028947Y015574D01*
X028946Y015573D02*
X028534Y015573D01*
X028532Y015572D02*
X028946Y015572D01*
X028946Y015571D02*
X028531Y015571D01*
X028529Y015570D02*
X028946Y015570D01*
X028946Y015569D02*
X028527Y015569D01*
X028525Y015568D02*
X028946Y015568D01*
X028945Y015567D02*
X028523Y015567D01*
X028522Y015566D02*
X028945Y015566D01*
X028945Y015565D02*
X028520Y015565D01*
X028518Y015564D02*
X028945Y015564D01*
X028945Y015563D02*
X028516Y015563D01*
X028514Y015562D02*
X028945Y015562D01*
X028944Y015561D02*
X028514Y015561D01*
X028513Y015560D02*
X028944Y015560D01*
X028944Y015559D02*
X028513Y015559D01*
X028512Y015558D02*
X028944Y015558D01*
X028944Y015557D02*
X028512Y015557D01*
X028512Y015556D02*
X028944Y015556D01*
X028944Y015555D02*
X028511Y015555D01*
X028511Y015554D02*
X028943Y015554D01*
X028943Y015553D02*
X028511Y015553D01*
X028511Y015552D02*
X028943Y015552D01*
X028943Y015551D02*
X028511Y015551D01*
X028510Y015550D02*
X028943Y015550D01*
X028943Y015549D02*
X028510Y015549D01*
X028510Y015548D02*
X028942Y015548D01*
X028942Y015547D02*
X028510Y015547D01*
X028509Y015546D02*
X028942Y015546D01*
X028942Y015545D02*
X028509Y015545D01*
X028509Y015544D02*
X028942Y015544D01*
X028942Y015543D02*
X028509Y015543D01*
X028509Y015542D02*
X028941Y015542D01*
X028941Y015541D02*
X028508Y015541D01*
X028508Y015540D02*
X028941Y015540D01*
X028941Y015539D02*
X028508Y015539D01*
X028508Y015538D02*
X028941Y015538D01*
X028941Y015537D02*
X028507Y015537D01*
X028508Y015536D02*
X028940Y015536D01*
X028940Y015535D02*
X028508Y015535D01*
X028509Y015534D02*
X028940Y015534D01*
X028940Y015533D02*
X028510Y015533D01*
X028511Y015532D02*
X028940Y015532D01*
X028940Y015531D02*
X028511Y015531D01*
X028512Y015530D02*
X028939Y015530D01*
X028939Y015529D02*
X028513Y015529D01*
X028514Y015528D02*
X028939Y015528D01*
X028939Y015527D02*
X028514Y015527D01*
X028515Y015526D02*
X028939Y015526D01*
X028939Y015525D02*
X028516Y015525D01*
X028516Y015524D02*
X028938Y015524D01*
X028938Y015523D02*
X028517Y015523D01*
X028518Y015522D02*
X028938Y015522D01*
X028938Y015521D02*
X028519Y015521D01*
X028519Y015520D02*
X028938Y015520D01*
X028938Y015519D02*
X028520Y015519D01*
X028521Y015518D02*
X028937Y015518D01*
X028937Y015517D02*
X028522Y015517D01*
X028522Y015516D02*
X028937Y015516D01*
X028937Y015515D02*
X028523Y015515D01*
X028524Y015514D02*
X028937Y015514D01*
X028937Y015513D02*
X028525Y015513D01*
X028525Y015512D02*
X028936Y015512D01*
X028936Y015511D02*
X028526Y015511D01*
X028527Y015510D02*
X028936Y015510D01*
X028936Y015509D02*
X028528Y015509D01*
X028528Y015508D02*
X028936Y015508D01*
X028936Y015507D02*
X028529Y015507D01*
X028530Y015506D02*
X028935Y015506D01*
X028935Y015505D02*
X028531Y015505D01*
X028531Y015504D02*
X028935Y015504D01*
X028935Y015503D02*
X028532Y015503D01*
X028533Y015502D02*
X028935Y015502D01*
X028935Y015501D02*
X028534Y015501D01*
X028534Y015500D02*
X028934Y015500D01*
X028934Y015499D02*
X028535Y015499D01*
X028536Y015498D02*
X028934Y015498D01*
X028934Y015497D02*
X028537Y015497D01*
X028537Y015496D02*
X028934Y015496D01*
X028934Y015495D02*
X028538Y015495D01*
X028539Y015494D02*
X028934Y015494D01*
X028933Y015493D02*
X028540Y015493D01*
X028540Y015492D02*
X028933Y015492D01*
X028933Y015491D02*
X028541Y015491D01*
X028542Y015490D02*
X028933Y015490D01*
X028933Y015489D02*
X028543Y015489D01*
X028543Y015488D02*
X028933Y015488D01*
X028932Y015487D02*
X028544Y015487D01*
X028545Y015486D02*
X028932Y015486D01*
X028932Y015485D02*
X028546Y015485D01*
X028546Y015484D02*
X028932Y015484D01*
X028932Y015483D02*
X028547Y015483D01*
X028548Y015482D02*
X028932Y015482D01*
X028931Y015481D02*
X028549Y015481D01*
X028549Y015480D02*
X028931Y015480D01*
X028931Y015479D02*
X028550Y015479D01*
X028551Y015478D02*
X028931Y015478D01*
X028931Y015477D02*
X028552Y015477D01*
X028552Y015476D02*
X028931Y015476D01*
X028930Y015475D02*
X028553Y015475D01*
X028554Y015474D02*
X028930Y015474D01*
X028930Y015473D02*
X028555Y015473D01*
X028555Y015472D02*
X028930Y015472D01*
X028930Y015471D02*
X028556Y015471D01*
X028557Y015470D02*
X028930Y015470D01*
X028929Y015469D02*
X028558Y015469D01*
X028558Y015468D02*
X028929Y015468D01*
X028929Y015467D02*
X028559Y015467D01*
X028560Y015466D02*
X028929Y015466D01*
X028929Y015465D02*
X028561Y015465D01*
X028561Y015464D02*
X028929Y015464D01*
X028928Y015463D02*
X028562Y015463D01*
X028563Y015462D02*
X028928Y015462D01*
X028928Y015461D02*
X028564Y015461D01*
X028564Y015460D02*
X028928Y015460D01*
X028928Y015459D02*
X028565Y015459D01*
X028566Y015458D02*
X028928Y015458D01*
X028927Y015457D02*
X028567Y015457D01*
X028567Y015456D02*
X028927Y015456D01*
X028927Y015455D02*
X028568Y015455D01*
X028569Y015454D02*
X028927Y015454D01*
X028927Y015453D02*
X028570Y015453D01*
X028570Y015452D02*
X028927Y015452D01*
X028926Y015451D02*
X028571Y015451D01*
X028572Y015450D02*
X028926Y015450D01*
X028926Y015449D02*
X028573Y015449D01*
X028573Y015448D02*
X028926Y015448D01*
X028926Y015447D02*
X028574Y015447D01*
X028575Y015446D02*
X028926Y015446D01*
X028925Y015445D02*
X028576Y015445D01*
X028576Y015444D02*
X028925Y015444D01*
X028925Y015443D02*
X028577Y015443D01*
X028578Y015442D02*
X028925Y015442D01*
X028925Y015441D02*
X028579Y015441D01*
X028580Y015440D02*
X028925Y015440D01*
X028924Y015439D02*
X028580Y015439D01*
X028581Y015438D02*
X028924Y015438D01*
X028924Y015437D02*
X028582Y015437D01*
X028583Y015436D02*
X028924Y015436D01*
X028924Y015435D02*
X028583Y015435D01*
X028584Y015434D02*
X028924Y015434D01*
X028924Y015433D02*
X028584Y015433D01*
X028584Y015432D02*
X028923Y015432D01*
X028923Y015431D02*
X028584Y015431D01*
X028583Y015430D02*
X028923Y015430D01*
X028923Y015429D02*
X028583Y015429D01*
X028583Y015428D02*
X028923Y015428D01*
X028923Y015427D02*
X028582Y015427D01*
X028582Y015426D02*
X028922Y015426D01*
X028922Y015425D02*
X028582Y015425D01*
X028581Y015424D02*
X028922Y015424D01*
X028922Y015423D02*
X028581Y015423D01*
X028581Y015422D02*
X028922Y015422D01*
X028922Y015421D02*
X028580Y015421D01*
X028580Y015420D02*
X028921Y015420D01*
X028921Y015419D02*
X028580Y015419D01*
X028580Y015418D02*
X028921Y015418D01*
X028921Y015417D02*
X028579Y015417D01*
X028579Y015416D02*
X028921Y015416D01*
X028921Y015415D02*
X028579Y015415D01*
X028578Y015414D02*
X028920Y015414D01*
X028920Y015413D02*
X028578Y015413D01*
X028578Y015412D02*
X028920Y015412D01*
X028920Y015411D02*
X028577Y015411D01*
X028577Y015410D02*
X028920Y015410D01*
X028920Y015409D02*
X028577Y015409D01*
X028576Y015408D02*
X028919Y015408D01*
X028919Y015407D02*
X028576Y015407D01*
X028576Y015406D02*
X028919Y015406D01*
X028919Y015405D02*
X028575Y015405D01*
X028575Y015404D02*
X028919Y015404D01*
X028919Y015403D02*
X028575Y015403D01*
X028574Y015402D02*
X028918Y015402D01*
X028918Y015401D02*
X028574Y015401D01*
X028574Y015400D02*
X028918Y015400D01*
X028918Y015399D02*
X028573Y015399D01*
X028573Y015398D02*
X028918Y015398D01*
X028918Y015397D02*
X028573Y015397D01*
X028572Y015396D02*
X028917Y015396D01*
X028917Y015395D02*
X028572Y015395D01*
X028572Y015394D02*
X028917Y015394D01*
X028917Y015393D02*
X028571Y015393D01*
X028571Y015392D02*
X028917Y015392D01*
X028917Y015391D02*
X028571Y015391D01*
X028570Y015390D02*
X028916Y015390D01*
X028916Y015389D02*
X028570Y015389D01*
X028570Y015388D02*
X028916Y015388D01*
X028916Y015387D02*
X028569Y015387D01*
X028569Y015386D02*
X028916Y015386D01*
X028916Y015385D02*
X028569Y015385D01*
X028568Y015384D02*
X028915Y015384D01*
X028915Y015383D02*
X028568Y015383D01*
X028568Y015382D02*
X028915Y015382D01*
X028915Y015381D02*
X028567Y015381D01*
X028567Y015380D02*
X028915Y015380D01*
X028915Y015379D02*
X028567Y015379D01*
X028566Y015378D02*
X028914Y015378D01*
X028914Y015377D02*
X028566Y015377D01*
X028566Y015376D02*
X028914Y015376D01*
X028914Y015375D02*
X028565Y015375D01*
X028565Y015374D02*
X028914Y015374D01*
X028914Y015373D02*
X028565Y015373D01*
X028565Y015372D02*
X028913Y015372D01*
X028913Y015371D02*
X028564Y015371D01*
X028564Y015370D02*
X028913Y015370D01*
X028913Y015369D02*
X028564Y015369D01*
X028563Y015368D02*
X028913Y015368D01*
X028913Y015367D02*
X028563Y015367D01*
X028563Y015366D02*
X028912Y015366D01*
X028912Y015365D02*
X028562Y015365D01*
X028562Y015364D02*
X028912Y015364D01*
X028912Y015363D02*
X028562Y015363D01*
X028561Y015362D02*
X028912Y015362D01*
X028912Y015361D02*
X028561Y015361D01*
X028561Y015360D02*
X028911Y015360D01*
X028911Y015359D02*
X028560Y015359D01*
X028560Y015358D02*
X028911Y015358D01*
X028910Y015357D02*
X028560Y015357D01*
X028559Y015356D02*
X028910Y015356D01*
X028909Y015355D02*
X028559Y015355D01*
X028559Y015354D02*
X028909Y015354D01*
X028909Y015353D02*
X028558Y015353D01*
X028558Y015352D02*
X028908Y015352D01*
X028908Y015351D02*
X028558Y015351D01*
X028558Y015350D02*
X028908Y015350D01*
X028907Y015349D02*
X028558Y015349D01*
X028558Y015348D02*
X028907Y015348D01*
X028906Y015347D02*
X028558Y015347D01*
X028559Y015346D02*
X028906Y015346D01*
X028906Y015345D02*
X028559Y015345D01*
X028559Y015344D02*
X028905Y015344D01*
X028905Y015343D02*
X028559Y015343D01*
X028559Y015342D02*
X028905Y015342D01*
X028904Y015341D02*
X028559Y015341D01*
X028559Y015340D02*
X028904Y015340D01*
X028904Y015339D02*
X028559Y015339D01*
X028560Y015338D02*
X028903Y015338D01*
X028903Y015337D02*
X028560Y015337D01*
X028560Y015336D02*
X028902Y015336D01*
X028902Y015335D02*
X028560Y015335D01*
X028560Y015334D02*
X028902Y015334D01*
X028901Y015333D02*
X028560Y015333D01*
X028560Y015332D02*
X028901Y015332D01*
X028901Y015331D02*
X028561Y015331D01*
X028561Y015330D02*
X028900Y015330D01*
X028900Y015329D02*
X028561Y015329D01*
X028561Y015328D02*
X028900Y015328D01*
X028899Y015327D02*
X028561Y015327D01*
X028561Y015326D02*
X028899Y015326D01*
X028898Y015325D02*
X028561Y015325D01*
X028561Y015324D02*
X028898Y015324D01*
X028898Y015323D02*
X028562Y015323D01*
X028562Y015322D02*
X028897Y015322D01*
X028897Y015321D02*
X028562Y015321D01*
X028562Y015320D02*
X028897Y015320D01*
X028896Y015319D02*
X028562Y015319D01*
X028562Y015318D02*
X028896Y015318D01*
X028895Y015317D02*
X028562Y015317D01*
X028563Y015316D02*
X028895Y015316D01*
X028895Y015315D02*
X028563Y015315D01*
X028563Y015314D02*
X028894Y015314D01*
X028894Y015313D02*
X028563Y015313D01*
X028563Y015312D02*
X028894Y015312D01*
X028893Y015311D02*
X028563Y015311D01*
X028563Y015310D02*
X028893Y015310D01*
X028893Y015309D02*
X028563Y015309D01*
X028564Y015308D02*
X028892Y015308D01*
X028892Y015307D02*
X028564Y015307D01*
X028564Y015306D02*
X028891Y015306D01*
X028891Y015305D02*
X028564Y015305D01*
X028564Y015304D02*
X028891Y015304D01*
X028890Y015303D02*
X028564Y015303D01*
X028564Y015302D02*
X028890Y015302D01*
X028890Y015301D02*
X028565Y015301D01*
X028565Y015300D02*
X028889Y015300D01*
X028889Y015299D02*
X028565Y015299D01*
X028565Y015298D02*
X028889Y015298D01*
X028888Y015297D02*
X028565Y015297D01*
X028565Y015296D02*
X028888Y015296D01*
X028887Y015295D02*
X028565Y015295D01*
X028565Y015294D02*
X028887Y015294D01*
X028887Y015293D02*
X028566Y015293D01*
X028566Y015292D02*
X028886Y015292D01*
X028886Y015291D02*
X028566Y015291D01*
X028566Y015290D02*
X028886Y015290D01*
X028886Y015289D02*
X028566Y015289D01*
X028566Y015288D02*
X028886Y015288D01*
X028886Y015287D02*
X028566Y015287D01*
X028567Y015286D02*
X028886Y015286D01*
X028886Y015285D02*
X028567Y015285D01*
X028567Y015284D02*
X028887Y015284D01*
X028887Y015283D02*
X028567Y015283D01*
X028567Y015282D02*
X028887Y015282D01*
X028887Y015281D02*
X028567Y015281D01*
X028567Y015280D02*
X028888Y015280D01*
X028888Y015279D02*
X028567Y015279D01*
X028568Y015278D02*
X028888Y015278D01*
X028888Y015277D02*
X028568Y015277D01*
X028568Y015276D02*
X028889Y015276D01*
X028889Y015275D02*
X028568Y015275D01*
X028568Y015274D02*
X028889Y015274D01*
X028889Y015273D02*
X028568Y015273D01*
X028568Y015272D02*
X028890Y015272D01*
X028890Y015271D02*
X028569Y015271D01*
X028569Y015270D02*
X028890Y015270D01*
X028890Y015269D02*
X028569Y015269D01*
X028569Y015268D02*
X028891Y015268D01*
X028891Y015267D02*
X028569Y015267D01*
X028569Y015266D02*
X028891Y015266D01*
X028891Y015265D02*
X028569Y015265D01*
X028569Y015264D02*
X028891Y015264D01*
X028892Y015263D02*
X028570Y015263D01*
X028570Y015262D02*
X028892Y015262D01*
X028892Y015261D02*
X028570Y015261D01*
X028570Y015260D02*
X028892Y015260D01*
X028893Y015259D02*
X028570Y015259D01*
X028570Y015258D02*
X028893Y015258D01*
X028893Y015257D02*
X028570Y015257D01*
X028571Y015256D02*
X028893Y015256D01*
X028894Y015255D02*
X028571Y015255D01*
X028571Y015254D02*
X028894Y015254D01*
X028894Y015253D02*
X028571Y015253D01*
X028571Y015252D02*
X028894Y015252D01*
X028895Y015251D02*
X028571Y015251D01*
X028571Y015250D02*
X028895Y015250D01*
X028895Y015249D02*
X028571Y015249D01*
X028572Y015248D02*
X028895Y015248D01*
X028895Y015247D02*
X028572Y015247D01*
X028572Y015246D02*
X028896Y015246D01*
X028896Y015245D02*
X028572Y015245D01*
X028572Y015244D02*
X028896Y015244D01*
X028896Y015243D02*
X028572Y015243D01*
X028572Y015242D02*
X028897Y015242D01*
X028897Y015241D02*
X028573Y015241D01*
X028573Y015240D02*
X028897Y015240D01*
X028897Y015239D02*
X028573Y015239D01*
X028574Y015238D02*
X028898Y015238D01*
X028898Y015237D02*
X028576Y015237D01*
X028577Y015236D02*
X028898Y015236D01*
X028898Y015235D02*
X028579Y015235D01*
X028580Y015234D02*
X028899Y015234D01*
X028899Y015233D02*
X028582Y015233D01*
X028583Y015232D02*
X028899Y015232D01*
X028899Y015231D02*
X028585Y015231D01*
X028586Y015230D02*
X028899Y015230D01*
X028900Y015229D02*
X028588Y015229D01*
X028589Y015228D02*
X028900Y015228D01*
X028900Y015227D02*
X028591Y015227D01*
X028593Y015226D02*
X028900Y015226D01*
X028901Y015225D02*
X028594Y015225D01*
X028596Y015224D02*
X028901Y015224D01*
X028901Y015223D02*
X028597Y015223D01*
X028599Y015222D02*
X028901Y015222D01*
X028902Y015221D02*
X028600Y015221D01*
X028602Y015220D02*
X028902Y015220D01*
X028902Y015219D02*
X028603Y015219D01*
X028605Y015218D02*
X028902Y015218D01*
X028903Y015217D02*
X028607Y015217D01*
X028608Y015216D02*
X028903Y015216D01*
X028903Y015215D02*
X028610Y015215D01*
X028611Y015214D02*
X028903Y015214D01*
X028903Y015213D02*
X028613Y015213D01*
X028614Y015212D02*
X028904Y015212D01*
X028904Y015211D02*
X028616Y015211D01*
X028617Y015210D02*
X028904Y015210D01*
X028904Y015209D02*
X028619Y015209D01*
X028621Y015208D02*
X028905Y015208D01*
X028905Y015207D02*
X028622Y015207D01*
X028624Y015206D02*
X028905Y015206D01*
X028905Y015205D02*
X028625Y015205D01*
X028627Y015204D02*
X028906Y015204D01*
X028906Y015203D02*
X028628Y015203D01*
X028630Y015202D02*
X028906Y015202D01*
X028906Y015201D02*
X028631Y015201D01*
X028633Y015200D02*
X028907Y015200D01*
X028907Y015199D02*
X028635Y015199D01*
X028636Y015198D02*
X028907Y015198D01*
X028907Y015197D02*
X028638Y015197D01*
X028639Y015196D02*
X028907Y015196D01*
X028908Y015195D02*
X028641Y015195D01*
X028642Y015194D02*
X028908Y015194D01*
X028908Y015193D02*
X028644Y015193D01*
X028645Y015192D02*
X028908Y015192D01*
X028909Y015191D02*
X028647Y015191D01*
X028649Y015190D02*
X028909Y015190D01*
X028909Y015189D02*
X028650Y015189D01*
X028652Y015188D02*
X028909Y015188D01*
X028910Y015187D02*
X028653Y015187D01*
X028655Y015186D02*
X028910Y015186D01*
X028910Y015185D02*
X028656Y015185D01*
X028658Y015184D02*
X028910Y015184D01*
X028911Y015183D02*
X028659Y015183D01*
X028661Y015182D02*
X028911Y015182D01*
X028911Y015181D02*
X028662Y015181D01*
X028664Y015180D02*
X028911Y015180D01*
X028911Y015179D02*
X028666Y015179D01*
X028667Y015178D02*
X028912Y015178D01*
X028912Y015177D02*
X028668Y015177D01*
X028670Y015176D02*
X028912Y015176D01*
X028912Y015175D02*
X028672Y015175D01*
X028673Y015174D02*
X028913Y015174D01*
X028913Y015173D02*
X028675Y015173D01*
X028677Y015172D02*
X028913Y015172D01*
X028913Y015171D02*
X028679Y015171D01*
X028681Y015170D02*
X028914Y015170D01*
X028914Y015169D02*
X028682Y015169D01*
X028684Y015168D02*
X028914Y015168D01*
X028914Y015167D02*
X028686Y015167D01*
X028688Y015166D02*
X028915Y015166D01*
X028915Y015165D02*
X028689Y015165D01*
X028691Y015164D02*
X028915Y015164D01*
X028915Y015163D02*
X028693Y015163D01*
X028695Y015162D02*
X028915Y015162D01*
X028916Y015161D02*
X028696Y015161D01*
X028698Y015160D02*
X028916Y015160D01*
X028916Y015159D02*
X028700Y015159D01*
X028702Y015158D02*
X028916Y015158D01*
X028917Y015157D02*
X028703Y015157D01*
X028705Y015156D02*
X028917Y015156D01*
X028917Y015155D02*
X028707Y015155D01*
X028709Y015154D02*
X028917Y015154D01*
X028918Y015153D02*
X028710Y015153D01*
X028712Y015152D02*
X028918Y015152D01*
X028918Y015151D02*
X028714Y015151D01*
X028716Y015150D02*
X028918Y015150D01*
X028918Y015149D02*
X028717Y015149D01*
X028719Y015148D02*
X028919Y015148D01*
X028919Y015147D02*
X028721Y015147D01*
X028723Y015146D02*
X028919Y015146D01*
X028919Y015145D02*
X028724Y015145D01*
X028726Y015144D02*
X028920Y015144D01*
X028920Y015143D02*
X028728Y015143D01*
X028730Y015142D02*
X028920Y015142D01*
X028920Y015141D02*
X028731Y015141D01*
X028733Y015140D02*
X028921Y015140D01*
X028921Y015139D02*
X028735Y015139D01*
X028737Y015138D02*
X028921Y015138D01*
X028921Y015137D02*
X028738Y015137D01*
X028740Y015136D02*
X028922Y015136D01*
X028922Y015135D02*
X028742Y015135D01*
X028744Y015134D02*
X028922Y015134D01*
X028922Y015133D02*
X028745Y015133D01*
X028747Y015132D02*
X028922Y015132D01*
X028923Y015131D02*
X028749Y015131D01*
X028751Y015130D02*
X028923Y015130D01*
X028923Y015129D02*
X028752Y015129D01*
X028754Y015128D02*
X028923Y015128D01*
X028924Y015127D02*
X028756Y015127D01*
X028758Y015126D02*
X028924Y015126D01*
X028924Y015125D02*
X028759Y015125D01*
X028761Y015124D02*
X028924Y015124D01*
X028925Y015123D02*
X028763Y015123D01*
X028765Y015123D02*
X028925Y015123D01*
X028925Y015122D02*
X028766Y015122D01*
X028768Y015121D02*
X028925Y015121D01*
X028926Y015120D02*
X028770Y015120D01*
X028772Y015119D02*
X028926Y015119D01*
X028926Y015118D02*
X028773Y015118D01*
X028775Y015117D02*
X028926Y015117D01*
X028926Y015116D02*
X028777Y015116D01*
X028779Y015115D02*
X028927Y015115D01*
X028927Y015114D02*
X028780Y015114D01*
X028782Y015113D02*
X028927Y015113D01*
X028927Y015112D02*
X028784Y015112D01*
X028786Y015111D02*
X028928Y015111D01*
X028928Y015110D02*
X028787Y015110D01*
X028789Y015109D02*
X028928Y015109D01*
X028928Y015108D02*
X028791Y015108D01*
X028793Y015107D02*
X028929Y015107D01*
X028929Y015106D02*
X028794Y015106D01*
X028796Y015105D02*
X028929Y015105D01*
X028929Y015104D02*
X028798Y015104D01*
X028800Y015103D02*
X028930Y015103D01*
X028930Y015102D02*
X028801Y015102D01*
X028803Y015101D02*
X028930Y015101D01*
X028930Y015100D02*
X028805Y015100D01*
X028807Y015099D02*
X028930Y015099D01*
X028931Y015098D02*
X028808Y015098D01*
X028810Y015097D02*
X028931Y015097D01*
X028931Y015096D02*
X028812Y015096D01*
X028814Y015095D02*
X028931Y015095D01*
X028932Y015094D02*
X028815Y015094D01*
X028817Y015093D02*
X028932Y015093D01*
X028932Y015092D02*
X028819Y015092D01*
X028821Y015091D02*
X028932Y015091D01*
X028933Y015090D02*
X028822Y015090D01*
X028824Y015089D02*
X028933Y015089D01*
X028933Y015088D02*
X028825Y015088D01*
X028825Y015087D02*
X028933Y015087D01*
X028934Y015086D02*
X028825Y015086D01*
X028826Y015085D02*
X028934Y015085D01*
X028934Y015084D02*
X028826Y015084D01*
X028826Y015083D02*
X028934Y015083D01*
X028935Y015082D02*
X028826Y015082D01*
X028826Y015081D02*
X028935Y015081D01*
X028935Y015080D02*
X028826Y015080D01*
X028826Y015079D02*
X028935Y015079D01*
X028935Y015078D02*
X028826Y015078D01*
X028826Y015077D02*
X028936Y015077D01*
X028936Y015076D02*
X028826Y015076D01*
X028827Y015075D02*
X028936Y015075D01*
X028936Y015074D02*
X028827Y015074D01*
X028827Y015073D02*
X028937Y015073D01*
X028937Y015072D02*
X028827Y015072D01*
X028827Y015071D02*
X028937Y015071D01*
X028937Y015070D02*
X028827Y015070D01*
X028827Y015069D02*
X028938Y015069D01*
X028938Y015068D02*
X028827Y015068D01*
X028827Y015067D02*
X028938Y015067D01*
X028938Y015066D02*
X028827Y015066D01*
X028827Y015065D02*
X028938Y015065D01*
X028938Y015064D02*
X028828Y015064D01*
X028828Y015063D02*
X028938Y015063D01*
X028938Y015062D02*
X028828Y015062D01*
X028828Y015061D02*
X028937Y015061D01*
X028937Y015060D02*
X028828Y015060D01*
X028828Y015059D02*
X028937Y015059D01*
X028937Y015058D02*
X028828Y015058D01*
X028828Y015057D02*
X028937Y015057D01*
X028937Y015056D02*
X028828Y015056D01*
X028828Y015055D02*
X028937Y015055D01*
X028937Y015054D02*
X028829Y015054D01*
X028829Y015053D02*
X028937Y015053D01*
X028937Y015052D02*
X028829Y015052D01*
X028829Y015051D02*
X028937Y015051D01*
X028937Y015050D02*
X028829Y015050D01*
X028829Y015049D02*
X028936Y015049D01*
X028936Y015048D02*
X028829Y015048D01*
X028829Y015047D02*
X028936Y015047D01*
X028936Y015046D02*
X028829Y015046D01*
X028829Y015045D02*
X028936Y015045D01*
X028936Y015044D02*
X028829Y015044D01*
X028830Y015043D02*
X028936Y015043D01*
X028936Y015042D02*
X028830Y015042D01*
X028830Y015041D02*
X028936Y015041D01*
X028936Y015040D02*
X028830Y015040D01*
X028830Y015039D02*
X028936Y015039D01*
X028936Y015038D02*
X028830Y015038D01*
X028830Y015037D02*
X028936Y015037D01*
X028935Y015036D02*
X028830Y015036D01*
X028830Y015035D02*
X028935Y015035D01*
X028935Y015034D02*
X028830Y015034D01*
X028830Y015033D02*
X028935Y015033D01*
X028935Y015032D02*
X028831Y015032D01*
X028831Y015031D02*
X028935Y015031D01*
X028935Y015030D02*
X028831Y015030D01*
X028831Y015029D02*
X028935Y015029D01*
X028935Y015028D02*
X028831Y015028D01*
X028831Y015027D02*
X028935Y015027D01*
X028935Y015026D02*
X028831Y015026D01*
X028831Y015025D02*
X028935Y015025D01*
X028934Y015024D02*
X028831Y015024D01*
X028831Y015023D02*
X028934Y015023D01*
X028934Y015022D02*
X028831Y015022D01*
X028831Y015021D02*
X028934Y015021D01*
X028934Y015020D02*
X028831Y015020D01*
X028831Y015019D02*
X028934Y015019D01*
X028934Y015018D02*
X028831Y015018D01*
X028831Y015017D02*
X028934Y015017D01*
X028934Y015016D02*
X028831Y015016D01*
X028831Y015015D02*
X028934Y015015D01*
X028934Y015014D02*
X028831Y015014D01*
X028831Y015013D02*
X028934Y015013D01*
X028933Y015012D02*
X028831Y015012D01*
X028831Y015011D02*
X028933Y015011D01*
X028933Y015010D02*
X028831Y015010D01*
X028831Y015009D02*
X028933Y015009D01*
X028933Y015008D02*
X028831Y015008D01*
X028831Y015007D02*
X028933Y015007D01*
X028933Y015006D02*
X028831Y015006D01*
X028831Y015005D02*
X028933Y015005D01*
X028933Y015004D02*
X028831Y015004D01*
X028831Y015003D02*
X028933Y015003D01*
X028933Y015002D02*
X028831Y015002D01*
X028831Y015001D02*
X028933Y015001D01*
X028933Y015000D02*
X028831Y015000D01*
X028831Y014999D02*
X028932Y014999D01*
X028932Y014998D02*
X028831Y014998D01*
X028831Y014997D02*
X028932Y014997D01*
X028932Y014996D02*
X028831Y014996D01*
X028831Y014995D02*
X028932Y014995D01*
X028932Y014994D02*
X028831Y014994D01*
X028831Y014993D02*
X028932Y014993D01*
X028932Y014992D02*
X028831Y014992D01*
X028831Y014991D02*
X028932Y014991D01*
X028932Y014990D02*
X028831Y014990D01*
X028831Y014989D02*
X028932Y014989D01*
X028932Y014988D02*
X028831Y014988D01*
X028830Y014987D02*
X028931Y014987D01*
X028931Y014986D02*
X028830Y014986D01*
X028830Y014985D02*
X028931Y014985D01*
X028931Y014984D02*
X028830Y014984D01*
X028830Y014983D02*
X028931Y014983D01*
X028931Y014982D02*
X028830Y014982D01*
X028830Y014981D02*
X028931Y014981D01*
X028931Y014980D02*
X028830Y014980D01*
X028830Y014979D02*
X028931Y014979D01*
X028931Y014978D02*
X028830Y014978D01*
X028830Y014977D02*
X028931Y014977D01*
X028931Y014976D02*
X028830Y014976D01*
X028830Y014975D02*
X028930Y014975D01*
X028930Y014974D02*
X028830Y014974D01*
X028830Y014973D02*
X028930Y014973D01*
X028930Y014972D02*
X028830Y014972D01*
X028830Y014971D02*
X028930Y014971D01*
X028930Y014970D02*
X028830Y014970D01*
X028830Y014969D02*
X028930Y014969D01*
X028930Y014968D02*
X028830Y014968D01*
X028830Y014967D02*
X028930Y014967D01*
X028930Y014966D02*
X028830Y014966D01*
X028830Y014965D02*
X028930Y014965D01*
X028930Y014964D02*
X028830Y014964D01*
X028830Y014963D02*
X028930Y014963D01*
X028929Y014962D02*
X028830Y014962D01*
X028830Y014961D02*
X028929Y014961D01*
X028929Y014960D02*
X028830Y014960D01*
X028830Y014959D02*
X028929Y014959D01*
X028929Y014958D02*
X028830Y014958D01*
X028830Y014957D02*
X028929Y014957D01*
X028929Y014956D02*
X028830Y014956D01*
X028830Y014955D02*
X028929Y014955D01*
X028929Y014954D02*
X028830Y014954D01*
X028830Y014953D02*
X028929Y014953D01*
X028929Y014952D02*
X028830Y014952D01*
X028830Y014951D02*
X028929Y014951D01*
X028928Y014950D02*
X028830Y014950D01*
X028829Y014949D02*
X028928Y014949D01*
X028928Y014948D02*
X028829Y014948D01*
X028829Y014947D02*
X028928Y014947D01*
X028928Y014946D02*
X028829Y014946D01*
X028829Y014945D02*
X028928Y014945D01*
X028928Y014944D02*
X028829Y014944D01*
X028829Y014943D02*
X028928Y014943D01*
X028928Y014942D02*
X028829Y014942D01*
X028829Y014941D02*
X028928Y014941D01*
X028928Y014940D02*
X028829Y014940D01*
X028829Y014939D02*
X028928Y014939D01*
X028927Y014938D02*
X028829Y014938D01*
X028829Y014937D02*
X028927Y014937D01*
X028927Y014936D02*
X028829Y014936D01*
X028829Y014935D02*
X028927Y014935D01*
X028927Y014934D02*
X028829Y014934D01*
X028829Y014933D02*
X028927Y014933D01*
X028927Y014932D02*
X028829Y014932D01*
X028829Y014931D02*
X028927Y014931D01*
X028927Y014930D02*
X028829Y014930D01*
X028829Y014929D02*
X028927Y014929D01*
X028927Y014928D02*
X028829Y014928D01*
X028829Y014927D02*
X028927Y014927D01*
X028927Y014926D02*
X028829Y014926D01*
X028829Y014925D02*
X028926Y014925D01*
X028926Y014924D02*
X028829Y014924D01*
X028829Y014923D02*
X028926Y014923D01*
X028926Y014922D02*
X028829Y014922D01*
X028829Y014921D02*
X028926Y014921D01*
X028926Y014920D02*
X028829Y014920D01*
X028829Y014919D02*
X028926Y014919D01*
X028926Y014918D02*
X028829Y014918D01*
X028829Y014917D02*
X028926Y014917D01*
X028926Y014916D02*
X028829Y014916D01*
X028829Y014915D02*
X028926Y014915D01*
X028926Y014914D02*
X028829Y014914D01*
X028828Y014913D02*
X028925Y014913D01*
X028925Y014912D02*
X028828Y014912D01*
X028828Y014911D02*
X028925Y014911D01*
X028925Y014910D02*
X028828Y014910D01*
X028828Y014909D02*
X028925Y014909D01*
X028925Y014908D02*
X028828Y014908D01*
X028828Y014907D02*
X028925Y014907D01*
X028925Y014906D02*
X028828Y014906D01*
X028828Y014905D02*
X028925Y014905D01*
X028925Y014904D02*
X028828Y014904D01*
X028828Y014903D02*
X028925Y014903D01*
X028925Y014902D02*
X028828Y014902D01*
X028828Y014901D02*
X028925Y014901D01*
X028924Y014900D02*
X028828Y014900D01*
X028828Y014899D02*
X028924Y014899D01*
X028924Y014898D02*
X028828Y014898D01*
X028828Y014897D02*
X028924Y014897D01*
X028924Y014896D02*
X028828Y014896D01*
X028828Y014895D02*
X028924Y014895D01*
X028924Y014894D02*
X028828Y014894D01*
X028828Y014893D02*
X028924Y014893D01*
X028924Y014892D02*
X028828Y014892D01*
X028828Y014891D02*
X028924Y014891D01*
X028924Y014890D02*
X028828Y014890D01*
X028828Y014889D02*
X028924Y014889D01*
X028923Y014888D02*
X028828Y014888D01*
X028828Y014887D02*
X028923Y014887D01*
X028923Y014886D02*
X028828Y014886D01*
X028829Y014885D02*
X028923Y014885D01*
X028923Y014884D02*
X028829Y014884D01*
X028829Y014883D02*
X028923Y014883D01*
X028923Y014882D02*
X028829Y014882D01*
X028829Y014881D02*
X028923Y014881D01*
X028923Y014880D02*
X028829Y014880D01*
X028829Y014879D02*
X028923Y014879D01*
X028924Y014878D02*
X028830Y014878D01*
X028830Y014877D02*
X028924Y014877D01*
X028924Y014876D02*
X028830Y014876D01*
X028830Y014875D02*
X028924Y014875D01*
X028924Y014874D02*
X028830Y014874D01*
X028830Y014873D02*
X028924Y014873D01*
X028925Y014872D02*
X028831Y014872D01*
X028831Y014871D02*
X028925Y014871D01*
X028925Y014870D02*
X028831Y014870D01*
X028831Y014869D02*
X028925Y014869D01*
X028925Y014868D02*
X028831Y014868D01*
X028831Y014867D02*
X028926Y014867D01*
X028926Y014866D02*
X028831Y014866D01*
X028832Y014865D02*
X028926Y014865D01*
X028926Y014864D02*
X028832Y014864D01*
X028832Y014863D02*
X028926Y014863D01*
X028926Y014862D02*
X028832Y014862D01*
X028832Y014861D02*
X028927Y014861D01*
X028927Y014860D02*
X028832Y014860D01*
X028833Y014859D02*
X028927Y014859D01*
X028927Y014858D02*
X028833Y014858D01*
X028833Y014857D02*
X028927Y014857D01*
X028927Y014856D02*
X028833Y014856D01*
X028833Y014855D02*
X028928Y014855D01*
X028928Y014854D02*
X028833Y014854D01*
X028833Y014853D02*
X028928Y014853D01*
X028928Y014852D02*
X028834Y014852D01*
X028834Y014851D02*
X028928Y014851D01*
X028929Y014850D02*
X028834Y014850D01*
X028834Y014849D02*
X028929Y014849D01*
X028929Y014848D02*
X028834Y014848D01*
X028834Y014847D02*
X028929Y014847D01*
X028929Y014846D02*
X028834Y014846D01*
X028835Y014845D02*
X028929Y014845D01*
X028930Y014844D02*
X028835Y014844D01*
X028835Y014843D02*
X028930Y014843D01*
X028930Y014842D02*
X028835Y014842D01*
X028835Y014841D02*
X028930Y014841D01*
X028930Y014840D02*
X028835Y014840D01*
X028836Y014839D02*
X028931Y014839D01*
X028931Y014838D02*
X028836Y014838D01*
X028836Y014837D02*
X028931Y014837D01*
X028931Y014836D02*
X028836Y014836D01*
X028836Y014835D02*
X028931Y014835D01*
X028931Y014834D02*
X028836Y014834D01*
X028836Y014833D02*
X028932Y014833D01*
X028932Y014832D02*
X028837Y014832D01*
X028837Y014831D02*
X028932Y014831D01*
X028932Y014830D02*
X028837Y014830D01*
X028837Y014829D02*
X028932Y014829D01*
X028933Y014828D02*
X028837Y014828D01*
X028837Y014827D02*
X028933Y014827D01*
X028933Y014826D02*
X028837Y014826D01*
X028838Y014825D02*
X028933Y014825D01*
X028933Y014824D02*
X028838Y014824D01*
X028838Y014823D02*
X028933Y014823D01*
X028934Y014822D02*
X028838Y014822D01*
X028838Y014821D02*
X028934Y014821D01*
X028934Y014820D02*
X028838Y014820D01*
X028839Y014819D02*
X028934Y014819D01*
X028934Y014818D02*
X028839Y014818D01*
X028839Y014817D02*
X028935Y014817D01*
X028935Y014816D02*
X028839Y014816D01*
X028839Y014815D02*
X028935Y014815D01*
X028935Y014814D02*
X028839Y014814D01*
X028839Y014813D02*
X028935Y014813D01*
X028935Y014812D02*
X028840Y014812D01*
X028840Y014811D02*
X028936Y014811D01*
X028936Y014810D02*
X028840Y014810D01*
X028840Y014809D02*
X028936Y014809D01*
X028936Y014808D02*
X028840Y014808D01*
X028840Y014807D02*
X028936Y014807D01*
X028937Y014806D02*
X028840Y014806D01*
X028841Y014805D02*
X028937Y014805D01*
X028937Y014804D02*
X028841Y014804D01*
X028841Y014803D02*
X028937Y014803D01*
X028937Y014802D02*
X028841Y014802D01*
X028841Y014801D02*
X028937Y014801D01*
X028938Y014800D02*
X028841Y014800D01*
X028842Y014799D02*
X028938Y014799D01*
X028938Y014798D02*
X028842Y014798D01*
X028842Y014797D02*
X028938Y014797D01*
X028938Y014796D02*
X028842Y014796D01*
X028842Y014795D02*
X028939Y014795D01*
X028939Y014794D02*
X028842Y014794D01*
X028842Y014793D02*
X028939Y014793D01*
X028940Y014792D02*
X028843Y014792D01*
X028843Y014791D02*
X028940Y014791D01*
X028941Y014790D02*
X028843Y014790D01*
X028843Y014789D02*
X028941Y014789D01*
X028941Y014788D02*
X028843Y014788D01*
X028843Y014787D02*
X028942Y014787D01*
X028942Y014786D02*
X028843Y014786D01*
X028844Y014785D02*
X028943Y014785D01*
X028943Y014784D02*
X028844Y014784D01*
X028844Y014783D02*
X028943Y014783D01*
X028944Y014782D02*
X028844Y014782D01*
X028844Y014781D02*
X028944Y014781D01*
X028945Y014780D02*
X028844Y014780D01*
X028844Y014779D02*
X028945Y014779D01*
X028945Y014778D02*
X028845Y014778D01*
X028845Y014777D02*
X028946Y014777D01*
X028946Y014776D02*
X028845Y014776D01*
X028845Y014775D02*
X028947Y014775D01*
X028947Y014774D02*
X028845Y014774D01*
X028845Y014773D02*
X028947Y014773D01*
X028948Y014772D02*
X028845Y014772D01*
X028845Y014771D02*
X028948Y014771D01*
X028949Y014770D02*
X028845Y014770D01*
X028846Y014769D02*
X028949Y014769D01*
X028949Y014768D02*
X028846Y014768D01*
X028846Y014767D02*
X028950Y014767D01*
X028950Y014766D02*
X028846Y014766D01*
X028846Y014765D02*
X028951Y014765D01*
X028951Y014764D02*
X028846Y014764D01*
X028846Y014763D02*
X028952Y014763D01*
X028952Y014762D02*
X028846Y014762D01*
X028846Y014761D02*
X028952Y014761D01*
X028953Y014760D02*
X028847Y014760D01*
X028847Y014759D02*
X028953Y014759D01*
X028954Y014758D02*
X028847Y014758D01*
X028847Y014757D02*
X028954Y014757D01*
X028954Y014756D02*
X028847Y014756D01*
X028847Y014755D02*
X028955Y014755D01*
X028955Y014754D02*
X028847Y014754D01*
X028847Y014753D02*
X028956Y014753D01*
X028956Y014752D02*
X028847Y014752D01*
X028848Y014751D02*
X028956Y014751D01*
X028957Y014750D02*
X028848Y014750D01*
X028848Y014749D02*
X028957Y014749D01*
X028958Y014748D02*
X028848Y014748D01*
X028848Y014747D02*
X028958Y014747D01*
X028958Y014746D02*
X028848Y014746D01*
X028848Y014745D02*
X028959Y014745D01*
X028959Y014744D02*
X028848Y014744D01*
X028848Y014743D02*
X028960Y014743D01*
X028960Y014742D02*
X028849Y014742D01*
X028849Y014741D02*
X028960Y014741D01*
X028961Y014740D02*
X028849Y014740D01*
X028849Y014739D02*
X028961Y014739D01*
X028962Y014738D02*
X028849Y014738D01*
X028849Y014737D02*
X028962Y014737D01*
X028962Y014736D02*
X028849Y014736D01*
X028849Y014735D02*
X028963Y014735D01*
X028963Y014734D02*
X028849Y014734D01*
X028850Y014733D02*
X028964Y014733D01*
X028964Y014732D02*
X028850Y014732D01*
X028850Y014731D02*
X028964Y014731D01*
X028965Y014730D02*
X028850Y014730D01*
X028850Y014729D02*
X028965Y014729D01*
X028966Y014728D02*
X028850Y014728D01*
X028850Y014727D02*
X028966Y014727D01*
X028966Y014726D02*
X028850Y014726D01*
X028850Y014725D02*
X028967Y014725D01*
X028967Y014724D02*
X028851Y014724D01*
X028851Y014723D02*
X028968Y014723D01*
X028968Y014722D02*
X028851Y014722D01*
X028851Y014721D02*
X028968Y014721D01*
X028969Y014720D02*
X028851Y014720D01*
X028851Y014719D02*
X028969Y014719D01*
X028970Y014718D02*
X028851Y014718D01*
X028851Y014717D02*
X028970Y014717D01*
X028970Y014716D02*
X028851Y014716D01*
X028852Y014715D02*
X028971Y014715D01*
X028971Y014714D02*
X028852Y014714D01*
X028852Y014713D02*
X028972Y014713D01*
X028972Y014712D02*
X028852Y014712D01*
X028852Y014711D02*
X028973Y014711D01*
X028973Y014710D02*
X028852Y014710D01*
X028852Y014709D02*
X028973Y014709D01*
X028974Y014708D02*
X028852Y014708D01*
X028853Y014707D02*
X028974Y014707D01*
X028975Y014706D02*
X028853Y014706D01*
X028853Y014705D02*
X028975Y014705D01*
X028975Y014704D02*
X028853Y014704D01*
X028853Y014703D02*
X028976Y014703D01*
X028976Y014702D02*
X028853Y014702D01*
X028853Y014701D02*
X028977Y014701D01*
X028977Y014700D02*
X028853Y014700D01*
X028853Y014699D02*
X028977Y014699D01*
X028978Y014698D02*
X028854Y014698D01*
X028854Y014697D02*
X028978Y014697D01*
X028979Y014696D02*
X028854Y014696D01*
X028854Y014695D02*
X028979Y014695D01*
X028979Y014694D02*
X028854Y014694D01*
X028854Y014693D02*
X028980Y014693D01*
X028980Y014692D02*
X028854Y014692D01*
X028854Y014691D02*
X028981Y014691D01*
X028981Y014690D02*
X028854Y014690D01*
X028855Y014689D02*
X028981Y014689D01*
X028982Y014688D02*
X028855Y014688D01*
X028855Y014687D02*
X028982Y014687D01*
X028983Y014686D02*
X028855Y014686D01*
X028855Y014685D02*
X028983Y014685D01*
X028983Y014684D02*
X028855Y014684D01*
X028855Y014683D02*
X028984Y014683D01*
X028984Y014682D02*
X028855Y014682D01*
X028855Y014681D02*
X028985Y014681D01*
X028985Y014680D02*
X028856Y014680D01*
X028856Y014679D02*
X028985Y014679D01*
X028986Y014678D02*
X028856Y014678D01*
X028856Y014677D02*
X028986Y014677D01*
X028987Y014676D02*
X028856Y014676D01*
X028856Y014675D02*
X028987Y014675D01*
X028987Y014674D02*
X028856Y014674D01*
X028856Y014673D02*
X028988Y014673D01*
X028988Y014672D02*
X028857Y014672D01*
X028857Y014671D02*
X028989Y014671D01*
X028989Y014670D02*
X028857Y014670D01*
X028857Y014669D02*
X028989Y014669D01*
X028990Y014668D02*
X028857Y014668D01*
X028857Y014667D02*
X028990Y014667D01*
X028991Y014666D02*
X028857Y014666D01*
X028857Y014665D02*
X028991Y014665D01*
X028991Y014664D02*
X028857Y014664D01*
X028858Y014663D02*
X028992Y014663D01*
X028992Y014662D02*
X028858Y014662D01*
X028858Y014661D02*
X028993Y014661D01*
X028993Y014660D02*
X028858Y014660D01*
X028858Y014659D02*
X028993Y014659D01*
X028994Y014658D02*
X028858Y014658D01*
X028858Y014657D02*
X028994Y014657D01*
X028995Y014656D02*
X028858Y014656D01*
X028858Y014655D02*
X028995Y014655D01*
X028996Y014654D02*
X028859Y014654D01*
X028859Y014653D02*
X028996Y014653D01*
X028997Y014652D02*
X028859Y014652D01*
X028859Y014651D02*
X028998Y014651D01*
X028998Y014650D02*
X028859Y014650D01*
X028859Y014649D02*
X028999Y014649D01*
X028999Y014648D02*
X028859Y014648D01*
X028859Y014647D02*
X029000Y014647D01*
X029000Y014646D02*
X028859Y014646D01*
X028860Y014645D02*
X029001Y014645D01*
X029002Y014644D02*
X028860Y014644D01*
X028860Y014643D02*
X029002Y014643D01*
X029003Y014642D02*
X028860Y014642D01*
X028860Y014641D02*
X029003Y014641D01*
X029004Y014640D02*
X028860Y014640D01*
X028860Y014639D02*
X029004Y014639D01*
X029005Y014638D02*
X028860Y014638D01*
X028860Y014637D02*
X029006Y014637D01*
X029006Y014636D02*
X028861Y014636D01*
X028861Y014635D02*
X029007Y014635D01*
X029007Y014634D02*
X028861Y014634D01*
X028861Y014633D02*
X029008Y014633D01*
X029008Y014632D02*
X028862Y014632D01*
X028862Y014631D02*
X029009Y014631D01*
X029009Y014630D02*
X028863Y014630D01*
X028863Y014629D02*
X029010Y014629D01*
X029011Y014628D02*
X028864Y014628D01*
X028864Y014627D02*
X029011Y014627D01*
X029012Y014626D02*
X028865Y014626D01*
X028865Y014625D02*
X029012Y014625D01*
X029013Y014624D02*
X028866Y014624D01*
X028866Y014623D02*
X029013Y014623D01*
X029014Y014622D02*
X028867Y014622D01*
X028867Y014621D02*
X029015Y014621D01*
X029015Y014620D02*
X028868Y014620D01*
X028868Y014619D02*
X029016Y014619D01*
X029016Y014618D02*
X028869Y014618D01*
X028869Y014617D02*
X029017Y014617D01*
X029017Y014616D02*
X028870Y014616D01*
X028870Y014615D02*
X029018Y014615D01*
X029019Y014614D02*
X028871Y014614D01*
X028871Y014613D02*
X029019Y014613D01*
X029020Y014612D02*
X028872Y014612D01*
X028872Y014611D02*
X029020Y014611D01*
X029021Y014610D02*
X028873Y014610D01*
X028874Y014609D02*
X029021Y014609D01*
X029022Y014608D02*
X028874Y014608D01*
X028875Y014607D02*
X029023Y014607D01*
X029023Y014606D02*
X028875Y014606D01*
X028876Y014605D02*
X029024Y014605D01*
X029024Y014604D02*
X028876Y014604D01*
X028877Y014603D02*
X029025Y014603D01*
X029025Y014602D02*
X028877Y014602D01*
X028878Y014601D02*
X029026Y014601D01*
X029026Y014600D02*
X028878Y014600D01*
X028879Y014599D02*
X029027Y014599D01*
X029028Y014598D02*
X028879Y014598D01*
X028880Y014597D02*
X029028Y014597D01*
X029029Y014596D02*
X028880Y014596D01*
X028881Y014595D02*
X029029Y014595D01*
X029030Y014594D02*
X028881Y014594D01*
X028882Y014593D02*
X029030Y014593D01*
X029031Y014592D02*
X028882Y014592D01*
X028883Y014591D02*
X029032Y014591D01*
X029032Y014590D02*
X028883Y014590D01*
X028884Y014589D02*
X029033Y014589D01*
X029033Y014588D02*
X028885Y014588D01*
X028885Y014587D02*
X029034Y014587D01*
X029034Y014586D02*
X028886Y014586D01*
X028886Y014585D02*
X029035Y014585D01*
X029035Y014584D02*
X028887Y014584D01*
X028887Y014583D02*
X029036Y014583D01*
X029037Y014582D02*
X028888Y014582D01*
X028888Y014581D02*
X029037Y014581D01*
X029038Y014580D02*
X028889Y014580D01*
X028889Y014579D02*
X029038Y014579D01*
X029039Y014578D02*
X028890Y014578D01*
X028890Y014577D02*
X029039Y014577D01*
X029040Y014576D02*
X028891Y014576D01*
X028891Y014575D02*
X029041Y014575D01*
X029041Y014574D02*
X028892Y014574D01*
X028892Y014573D02*
X029042Y014573D01*
X029042Y014572D02*
X028893Y014572D01*
X028894Y014571D02*
X029043Y014571D01*
X029043Y014570D02*
X028894Y014570D01*
X028895Y014569D02*
X029044Y014569D01*
X029044Y014568D02*
X028895Y014568D01*
X028896Y014567D02*
X029045Y014567D01*
X029046Y014566D02*
X028896Y014566D01*
X028897Y014565D02*
X029046Y014565D01*
X029047Y014564D02*
X028897Y014564D01*
X028898Y014563D02*
X029047Y014563D01*
X029048Y014562D02*
X028898Y014562D01*
X028899Y014561D02*
X029048Y014561D01*
X029049Y014560D02*
X028899Y014560D01*
X028900Y014559D02*
X029049Y014559D01*
X029050Y014558D02*
X028900Y014558D01*
X028901Y014557D02*
X029050Y014557D01*
X029050Y014556D02*
X028901Y014556D01*
X028902Y014555D02*
X029050Y014555D01*
X029049Y014554D02*
X028905Y014554D01*
X028911Y014553D02*
X029049Y014553D01*
X029048Y014552D02*
X028918Y014552D01*
X028925Y014551D02*
X029048Y014551D01*
X029047Y014550D02*
X028931Y014550D01*
X028938Y014549D02*
X029047Y014549D01*
X029046Y014548D02*
X028945Y014548D01*
X028951Y014547D02*
X029046Y014547D01*
X029045Y014546D02*
X028958Y014546D01*
X028965Y014545D02*
X029045Y014545D01*
X029044Y014544D02*
X028971Y014544D01*
X028978Y014543D02*
X029044Y014543D01*
X029043Y014542D02*
X028985Y014542D01*
X028992Y014541D02*
X029041Y014541D01*
X029038Y014540D02*
X028998Y014540D01*
X029931Y014540D02*
X030047Y014540D01*
X030049Y014541D02*
X029931Y014541D01*
X029932Y014542D02*
X030052Y014542D01*
X030055Y014543D02*
X029933Y014543D01*
X029933Y014544D02*
X030058Y014544D01*
X030061Y014545D02*
X029934Y014545D01*
X029934Y014546D02*
X030063Y014546D01*
X030066Y014547D02*
X029935Y014547D01*
X029935Y014548D02*
X030069Y014548D01*
X030072Y014549D02*
X029936Y014549D01*
X029937Y014550D02*
X030075Y014550D01*
X030077Y014551D02*
X029937Y014551D01*
X029938Y014552D02*
X030080Y014552D01*
X030083Y014553D02*
X029938Y014553D01*
X029939Y014554D02*
X030086Y014554D01*
X030087Y014555D02*
X029939Y014555D01*
X029940Y014556D02*
X030088Y014556D01*
X030088Y014557D02*
X029941Y014557D01*
X029941Y014558D02*
X030089Y014558D01*
X030089Y014559D02*
X029942Y014559D01*
X029942Y014560D02*
X030089Y014560D01*
X030090Y014561D02*
X029943Y014561D01*
X029944Y014562D02*
X030090Y014562D01*
X030090Y014563D02*
X029944Y014563D01*
X029945Y014564D02*
X030091Y014564D01*
X030091Y014565D02*
X029945Y014565D01*
X029946Y014566D02*
X030091Y014566D01*
X030092Y014567D02*
X029946Y014567D01*
X029947Y014568D02*
X030092Y014568D01*
X030093Y014569D02*
X029948Y014569D01*
X029948Y014570D02*
X030093Y014570D01*
X030093Y014571D02*
X029949Y014571D01*
X029949Y014572D02*
X030094Y014572D01*
X030094Y014573D02*
X029950Y014573D01*
X029950Y014574D02*
X030094Y014574D01*
X030095Y014575D02*
X029951Y014575D01*
X029952Y014576D02*
X030095Y014576D01*
X030095Y014577D02*
X029952Y014577D01*
X029953Y014578D02*
X030096Y014578D01*
X030096Y014579D02*
X029953Y014579D01*
X029954Y014580D02*
X030097Y014580D01*
X030097Y014581D02*
X029955Y014581D01*
X029955Y014582D02*
X030097Y014582D01*
X030098Y014583D02*
X029956Y014583D01*
X029956Y014584D02*
X030098Y014584D01*
X030098Y014585D02*
X029957Y014585D01*
X029957Y014586D02*
X030099Y014586D01*
X030099Y014587D02*
X029958Y014587D01*
X029958Y014588D02*
X030099Y014588D01*
X030100Y014589D02*
X029959Y014589D01*
X029959Y014590D02*
X030100Y014590D01*
X030101Y014591D02*
X029960Y014591D01*
X029960Y014592D02*
X030101Y014592D01*
X030101Y014593D02*
X029960Y014593D01*
X029961Y014594D02*
X030102Y014594D01*
X030102Y014595D02*
X029961Y014595D01*
X029962Y014596D02*
X030102Y014596D01*
X030103Y014597D02*
X029962Y014597D01*
X029963Y014598D02*
X030103Y014598D01*
X030103Y014599D02*
X029963Y014599D01*
X029963Y014600D02*
X030104Y014600D01*
X030104Y014601D02*
X029964Y014601D01*
X029964Y014602D02*
X030105Y014602D01*
X030105Y014603D02*
X029965Y014603D01*
X029965Y014604D02*
X030105Y014604D01*
X030106Y014605D02*
X029966Y014605D01*
X029966Y014606D02*
X030106Y014606D01*
X030106Y014607D02*
X029966Y014607D01*
X029967Y014608D02*
X030107Y014608D01*
X030107Y014609D02*
X029967Y014609D01*
X029968Y014610D02*
X030107Y014610D01*
X030108Y014611D02*
X029968Y014611D01*
X029969Y014612D02*
X030108Y014612D01*
X030109Y014613D02*
X029969Y014613D01*
X029969Y014614D02*
X030109Y014614D01*
X030109Y014615D02*
X029970Y014615D01*
X029970Y014616D02*
X030109Y014616D01*
X030110Y014617D02*
X029971Y014617D01*
X029971Y014618D02*
X030110Y014618D01*
X030110Y014619D02*
X029972Y014619D01*
X029972Y014620D02*
X030110Y014620D01*
X030110Y014621D02*
X029972Y014621D01*
X029973Y014622D02*
X030111Y014622D01*
X030111Y014623D02*
X029973Y014623D01*
X029974Y014624D02*
X030111Y014624D01*
X030111Y014625D02*
X029974Y014625D01*
X029975Y014626D02*
X030111Y014626D01*
X030112Y014627D02*
X029975Y014627D01*
X029975Y014628D02*
X030112Y014628D01*
X030112Y014629D02*
X029976Y014629D01*
X029976Y014630D02*
X030112Y014630D01*
X030112Y014631D02*
X029977Y014631D01*
X029977Y014632D02*
X030112Y014632D01*
X030113Y014633D02*
X029978Y014633D01*
X029978Y014634D02*
X030113Y014634D01*
X030113Y014635D02*
X029978Y014635D01*
X029979Y014636D02*
X030113Y014636D01*
X030113Y014637D02*
X029979Y014637D01*
X029980Y014638D02*
X030114Y014638D01*
X030114Y014639D02*
X029980Y014639D01*
X029981Y014640D02*
X030114Y014640D01*
X030114Y014641D02*
X029981Y014641D01*
X029981Y014642D02*
X030114Y014642D01*
X030115Y014643D02*
X029982Y014643D01*
X029982Y014644D02*
X030115Y014644D01*
X030115Y014645D02*
X029983Y014645D01*
X029983Y014646D02*
X030115Y014646D01*
X030115Y014647D02*
X029984Y014647D01*
X029984Y014648D02*
X030115Y014648D01*
X030116Y014649D02*
X029984Y014649D01*
X029985Y014650D02*
X030116Y014650D01*
X030116Y014651D02*
X029985Y014651D01*
X029986Y014652D02*
X030116Y014652D01*
X030116Y014653D02*
X029986Y014653D01*
X029987Y014654D02*
X030117Y014654D01*
X030117Y014655D02*
X029987Y014655D01*
X029987Y014656D02*
X030117Y014656D01*
X030117Y014657D02*
X029988Y014657D01*
X029988Y014658D02*
X030117Y014658D01*
X030118Y014659D02*
X029989Y014659D01*
X029989Y014660D02*
X030118Y014660D01*
X030118Y014661D02*
X029990Y014661D01*
X029990Y014662D02*
X030118Y014662D01*
X030118Y014663D02*
X029990Y014663D01*
X029991Y014664D02*
X030118Y014664D01*
X030119Y014665D02*
X029991Y014665D01*
X029992Y014666D02*
X030119Y014666D01*
X030119Y014667D02*
X029992Y014667D01*
X029993Y014668D02*
X030119Y014668D01*
X030119Y014669D02*
X029993Y014669D01*
X029993Y014670D02*
X030120Y014670D01*
X030120Y014671D02*
X029994Y014671D01*
X029994Y014672D02*
X030120Y014672D01*
X030120Y014673D02*
X029995Y014673D01*
X029995Y014674D02*
X030120Y014674D01*
X030121Y014675D02*
X029996Y014675D01*
X029996Y014676D02*
X030121Y014676D01*
X030121Y014677D02*
X029996Y014677D01*
X029997Y014678D02*
X030121Y014678D01*
X030121Y014679D02*
X029997Y014679D01*
X029998Y014680D02*
X030122Y014680D01*
X030122Y014681D02*
X029998Y014681D01*
X029999Y014682D02*
X030122Y014682D01*
X030122Y014683D02*
X029999Y014683D01*
X029999Y014684D02*
X030122Y014684D01*
X030122Y014685D02*
X030000Y014685D01*
X030000Y014686D02*
X030123Y014686D01*
X030123Y014687D02*
X030001Y014687D01*
X030001Y014688D02*
X030123Y014688D01*
X030123Y014689D02*
X030002Y014689D01*
X030002Y014690D02*
X030123Y014690D01*
X030124Y014691D02*
X030002Y014691D01*
X030003Y014692D02*
X030124Y014692D01*
X030124Y014693D02*
X030003Y014693D01*
X030004Y014694D02*
X030124Y014694D01*
X030124Y014695D02*
X030004Y014695D01*
X030005Y014696D02*
X030125Y014696D01*
X030125Y014697D02*
X030005Y014697D01*
X030005Y014698D02*
X030125Y014698D01*
X030125Y014699D02*
X030006Y014699D01*
X030006Y014700D02*
X030125Y014700D01*
X030125Y014701D02*
X030007Y014701D01*
X030007Y014702D02*
X030126Y014702D01*
X030126Y014703D02*
X030008Y014703D01*
X030008Y014704D02*
X030126Y014704D01*
X030126Y014705D02*
X030008Y014705D01*
X030009Y014706D02*
X030126Y014706D01*
X030126Y014707D02*
X030009Y014707D01*
X030010Y014708D02*
X030126Y014708D01*
X030126Y014709D02*
X030010Y014709D01*
X030011Y014710D02*
X030126Y014710D01*
X030126Y014711D02*
X030011Y014711D01*
X030011Y014712D02*
X030126Y014712D01*
X030126Y014713D02*
X030012Y014713D01*
X030012Y014714D02*
X030126Y014714D01*
X030126Y014715D02*
X030013Y014715D01*
X030013Y014716D02*
X030126Y014716D01*
X030126Y014717D02*
X030014Y014717D01*
X030014Y014718D02*
X030126Y014718D01*
X030126Y014719D02*
X030014Y014719D01*
X030015Y014720D02*
X030126Y014720D01*
X030126Y014721D02*
X030015Y014721D01*
X030016Y014722D02*
X030126Y014722D01*
X030126Y014723D02*
X030016Y014723D01*
X030016Y014724D02*
X030126Y014724D01*
X030127Y014725D02*
X030016Y014725D01*
X030016Y014726D02*
X030127Y014726D01*
X030127Y014727D02*
X030016Y014727D01*
X030016Y014728D02*
X030127Y014728D01*
X030127Y014729D02*
X030016Y014729D01*
X030016Y014730D02*
X030127Y014730D01*
X030127Y014731D02*
X030016Y014731D01*
X030016Y014732D02*
X030127Y014732D01*
X030127Y014733D02*
X030016Y014733D01*
X030016Y014734D02*
X030127Y014734D01*
X030127Y014735D02*
X030016Y014735D01*
X030016Y014736D02*
X030127Y014736D01*
X030127Y014737D02*
X030016Y014737D01*
X030016Y014738D02*
X030127Y014738D01*
X030127Y014739D02*
X030016Y014739D01*
X030016Y014740D02*
X030127Y014740D01*
X030127Y014741D02*
X030016Y014741D01*
X030016Y014742D02*
X030127Y014742D01*
X030127Y014743D02*
X030016Y014743D01*
X030016Y014744D02*
X030127Y014744D01*
X030127Y014745D02*
X030016Y014745D01*
X030016Y014746D02*
X030127Y014746D01*
X030127Y014747D02*
X030016Y014747D01*
X030016Y014748D02*
X030127Y014748D01*
X030127Y014749D02*
X030016Y014749D01*
X030016Y014750D02*
X030127Y014750D01*
X030127Y014751D02*
X030016Y014751D01*
X030016Y014752D02*
X030127Y014752D01*
X030127Y014753D02*
X030016Y014753D01*
X030016Y014754D02*
X030127Y014754D01*
X030127Y014755D02*
X030016Y014755D01*
X030016Y014756D02*
X030127Y014756D01*
X030127Y014757D02*
X030016Y014757D01*
X030016Y014758D02*
X030127Y014758D01*
X030127Y014759D02*
X030016Y014759D01*
X030016Y014760D02*
X030127Y014760D01*
X030127Y014761D02*
X030016Y014761D01*
X030016Y014762D02*
X030127Y014762D01*
X030128Y014763D02*
X030016Y014763D01*
X030016Y014764D02*
X030128Y014764D01*
X030128Y014765D02*
X030016Y014765D01*
X030016Y014766D02*
X030128Y014766D01*
X030128Y014767D02*
X030016Y014767D01*
X030016Y014768D02*
X030128Y014768D01*
X030128Y014769D02*
X030016Y014769D01*
X030016Y014770D02*
X030128Y014770D01*
X030128Y014771D02*
X030016Y014771D01*
X030016Y014772D02*
X030128Y014772D01*
X030128Y014773D02*
X030016Y014773D01*
X030016Y014774D02*
X030128Y014774D01*
X030128Y014775D02*
X030016Y014775D01*
X030016Y014776D02*
X030128Y014776D01*
X030128Y014777D02*
X030016Y014777D01*
X030016Y014778D02*
X030128Y014778D01*
X030128Y014779D02*
X030017Y014779D01*
X030017Y014780D02*
X030128Y014780D01*
X030128Y014781D02*
X030017Y014781D01*
X030017Y014782D02*
X030128Y014782D01*
X030128Y014783D02*
X030017Y014783D01*
X030017Y014784D02*
X030128Y014784D01*
X030128Y014785D02*
X030017Y014785D01*
X030017Y014786D02*
X030128Y014786D01*
X030128Y014787D02*
X030017Y014787D01*
X030017Y014788D02*
X030128Y014788D01*
X030128Y014789D02*
X030017Y014789D01*
X030017Y014790D02*
X030128Y014790D01*
X030128Y014791D02*
X030017Y014791D01*
X030017Y014792D02*
X030128Y014792D01*
X030128Y014793D02*
X030017Y014793D01*
X030017Y014794D02*
X030128Y014794D01*
X030128Y014795D02*
X030017Y014795D01*
X030017Y014796D02*
X030128Y014796D01*
X030128Y014797D02*
X030017Y014797D01*
X030017Y014798D02*
X030128Y014798D01*
X030128Y014799D02*
X030017Y014799D01*
X030017Y014800D02*
X030128Y014800D01*
X030129Y014801D02*
X030017Y014801D01*
X030017Y014802D02*
X030129Y014802D01*
X030129Y014803D02*
X030017Y014803D01*
X030017Y014804D02*
X030129Y014804D01*
X030129Y014805D02*
X030017Y014805D01*
X030017Y014806D02*
X030129Y014806D01*
X030129Y014807D02*
X030017Y014807D01*
X030017Y014808D02*
X030129Y014808D01*
X030129Y014809D02*
X030017Y014809D01*
X030017Y014810D02*
X030129Y014810D01*
X030129Y014811D02*
X030017Y014811D01*
X030017Y014812D02*
X030129Y014812D01*
X030129Y014813D02*
X030017Y014813D01*
X030017Y014814D02*
X030129Y014814D01*
X030129Y014815D02*
X030017Y014815D01*
X030017Y014816D02*
X030129Y014816D01*
X030129Y014817D02*
X030017Y014817D01*
X030017Y014818D02*
X030129Y014818D01*
X030129Y014819D02*
X030017Y014819D01*
X030017Y014820D02*
X030129Y014820D01*
X030129Y014821D02*
X030017Y014821D01*
X030017Y014822D02*
X030129Y014822D01*
X030129Y014823D02*
X030017Y014823D01*
X030017Y014824D02*
X030129Y014824D01*
X030129Y014825D02*
X030017Y014825D01*
X030017Y014826D02*
X030129Y014826D01*
X030129Y014827D02*
X030017Y014827D01*
X030017Y014828D02*
X030129Y014828D01*
X030129Y014829D02*
X030017Y014829D01*
X030017Y014830D02*
X030129Y014830D01*
X030129Y014831D02*
X030017Y014831D01*
X030017Y014832D02*
X030129Y014832D01*
X030129Y014833D02*
X030017Y014833D01*
X030017Y014834D02*
X030129Y014834D01*
X030129Y014835D02*
X030017Y014835D01*
X030017Y014836D02*
X030129Y014836D01*
X030129Y014837D02*
X030017Y014837D01*
X030017Y014838D02*
X030129Y014838D01*
X030129Y014839D02*
X030017Y014839D01*
X030017Y014840D02*
X030129Y014840D01*
X030129Y014841D02*
X030017Y014841D01*
X030017Y014842D02*
X030130Y014842D01*
X030130Y014843D02*
X030017Y014843D01*
X030017Y014844D02*
X030130Y014844D01*
X030130Y014845D02*
X030017Y014845D01*
X030017Y014846D02*
X030130Y014846D01*
X030130Y014847D02*
X030017Y014847D01*
X030017Y014848D02*
X030130Y014848D01*
X030130Y014849D02*
X030017Y014849D01*
X030017Y014850D02*
X030130Y014850D01*
X030130Y014851D02*
X030017Y014851D01*
X030017Y014852D02*
X030130Y014852D01*
X030130Y014853D02*
X030017Y014853D01*
X030017Y014854D02*
X030130Y014854D01*
X030130Y014855D02*
X030017Y014855D01*
X030017Y014856D02*
X030130Y014856D01*
X030130Y014857D02*
X030017Y014857D01*
X030017Y014858D02*
X030130Y014858D01*
X030130Y014859D02*
X030017Y014859D01*
X030017Y014860D02*
X030130Y014860D01*
X030130Y014861D02*
X030017Y014861D01*
X030017Y014862D02*
X030130Y014862D01*
X030130Y014863D02*
X030017Y014863D01*
X030017Y014864D02*
X030130Y014864D01*
X030130Y014865D02*
X030017Y014865D01*
X030017Y014866D02*
X030130Y014866D01*
X030130Y014867D02*
X030017Y014867D01*
X030017Y014868D02*
X030130Y014868D01*
X030130Y014869D02*
X030017Y014869D01*
X030017Y014870D02*
X030130Y014870D01*
X030130Y014871D02*
X030017Y014871D01*
X030017Y014872D02*
X030130Y014872D01*
X030130Y014873D02*
X030017Y014873D01*
X030017Y014874D02*
X030130Y014874D01*
X030130Y014875D02*
X030017Y014875D01*
X030017Y014876D02*
X030130Y014876D01*
X030130Y014877D02*
X030017Y014877D01*
X030017Y014878D02*
X030130Y014878D01*
X030130Y014879D02*
X030017Y014879D01*
X030017Y014880D02*
X030130Y014880D01*
X030130Y014881D02*
X030017Y014881D01*
X030017Y014882D02*
X030130Y014882D01*
X030130Y014883D02*
X030017Y014883D01*
X030017Y014884D02*
X030130Y014884D01*
X030130Y014885D02*
X030017Y014885D01*
X030017Y014886D02*
X030130Y014886D01*
X030130Y014887D02*
X030017Y014887D01*
X030017Y014888D02*
X030130Y014888D01*
X030130Y014889D02*
X030017Y014889D01*
X030017Y014890D02*
X030130Y014890D01*
X030131Y014891D02*
X030017Y014891D01*
X030017Y014892D02*
X030131Y014892D01*
X030131Y014893D02*
X030017Y014893D01*
X030017Y014894D02*
X030131Y014894D01*
X030131Y014895D02*
X030017Y014895D01*
X030017Y014896D02*
X030131Y014896D01*
X030131Y014897D02*
X030017Y014897D01*
X030017Y014898D02*
X030131Y014898D01*
X030131Y014899D02*
X030017Y014899D01*
X030017Y014900D02*
X030131Y014900D01*
X030131Y014901D02*
X030017Y014901D01*
X030017Y014902D02*
X030131Y014902D01*
X030131Y014903D02*
X030017Y014903D01*
X030017Y014904D02*
X030131Y014904D01*
X030131Y014905D02*
X030017Y014905D01*
X030017Y014906D02*
X030131Y014906D01*
X030131Y014907D02*
X030017Y014907D01*
X030017Y014908D02*
X030131Y014908D01*
X030131Y014909D02*
X030017Y014909D01*
X030017Y014910D02*
X030131Y014910D01*
X030131Y014911D02*
X030017Y014911D01*
X030017Y014912D02*
X030131Y014912D01*
X030131Y014913D02*
X030017Y014913D01*
X030017Y014914D02*
X030131Y014914D01*
X030131Y014915D02*
X030017Y014915D01*
X030017Y014916D02*
X030131Y014916D01*
X030131Y014917D02*
X030017Y014917D01*
X030017Y014918D02*
X030131Y014918D01*
X030131Y014919D02*
X030017Y014919D01*
X030017Y014920D02*
X030131Y014920D01*
X030131Y014921D02*
X030017Y014921D01*
X030017Y014922D02*
X030131Y014922D01*
X030131Y014923D02*
X030017Y014923D01*
X030017Y014924D02*
X030131Y014924D01*
X030131Y014925D02*
X030017Y014925D01*
X030017Y014926D02*
X030131Y014926D01*
X030131Y014927D02*
X030017Y014927D01*
X030017Y014928D02*
X030131Y014928D01*
X030131Y014929D02*
X030017Y014929D01*
X030017Y014930D02*
X030131Y014930D01*
X030131Y014931D02*
X030017Y014931D01*
X030017Y014932D02*
X030131Y014932D01*
X030131Y014933D02*
X030017Y014933D01*
X030017Y014934D02*
X030131Y014934D01*
X030131Y014935D02*
X030018Y014935D01*
X030018Y014936D02*
X030131Y014936D01*
X030131Y014937D02*
X030018Y014937D01*
X030018Y014938D02*
X030131Y014938D01*
X030131Y014939D02*
X030018Y014939D01*
X030018Y014940D02*
X030131Y014940D01*
X030131Y014941D02*
X030018Y014941D01*
X030018Y014942D02*
X030131Y014942D01*
X030131Y014943D02*
X030018Y014943D01*
X030018Y014944D02*
X030131Y014944D01*
X030131Y014945D02*
X030018Y014945D01*
X030018Y014946D02*
X030131Y014946D01*
X030131Y014947D02*
X030018Y014947D01*
X030018Y014948D02*
X030131Y014948D01*
X030131Y014949D02*
X030018Y014949D01*
X030018Y014950D02*
X030131Y014950D01*
X030131Y014951D02*
X030018Y014951D01*
X030018Y014952D02*
X030132Y014952D01*
X030132Y014953D02*
X030018Y014953D01*
X030018Y014954D02*
X030132Y014954D01*
X030132Y014955D02*
X030018Y014955D01*
X030018Y014956D02*
X030132Y014956D01*
X030132Y014957D02*
X030018Y014957D01*
X030018Y014958D02*
X030132Y014958D01*
X030132Y014959D02*
X030018Y014959D01*
X030018Y014960D02*
X030132Y014960D01*
X030132Y014961D02*
X030018Y014961D01*
X030018Y014962D02*
X030132Y014962D01*
X030132Y014963D02*
X030018Y014963D01*
X030018Y014964D02*
X030132Y014964D01*
X030132Y014965D02*
X030018Y014965D01*
X030018Y014966D02*
X030132Y014966D01*
X030132Y014967D02*
X030018Y014967D01*
X030018Y014968D02*
X030132Y014968D01*
X030132Y014969D02*
X030018Y014969D01*
X030018Y014970D02*
X030132Y014970D01*
X030132Y014971D02*
X030018Y014971D01*
X030018Y014972D02*
X030132Y014972D01*
X030132Y014973D02*
X030018Y014973D01*
X030018Y014974D02*
X030132Y014974D01*
X030132Y014975D02*
X030018Y014975D01*
X030018Y014976D02*
X030132Y014976D01*
X030132Y014977D02*
X030018Y014977D01*
X030018Y014978D02*
X030132Y014978D01*
X030132Y014979D02*
X030018Y014979D01*
X030018Y014980D02*
X030132Y014980D01*
X030132Y014981D02*
X030018Y014981D01*
X030018Y014982D02*
X030132Y014982D01*
X030132Y014983D02*
X030018Y014983D01*
X030018Y014984D02*
X030132Y014984D01*
X030132Y014985D02*
X030018Y014985D01*
X030018Y014986D02*
X030132Y014986D01*
X030132Y014987D02*
X030018Y014987D01*
X030018Y014988D02*
X030132Y014988D01*
X030132Y014989D02*
X030018Y014989D01*
X030018Y014990D02*
X030132Y014990D01*
X030132Y014991D02*
X030018Y014991D01*
X030018Y014992D02*
X030132Y014992D01*
X030132Y014993D02*
X030018Y014993D01*
X030018Y014994D02*
X030132Y014994D01*
X030132Y014995D02*
X030018Y014995D01*
X030018Y014996D02*
X030132Y014996D01*
X030132Y014997D02*
X030018Y014997D01*
X030018Y014998D02*
X030132Y014998D01*
X030132Y014999D02*
X030018Y014999D01*
X030018Y015000D02*
X030132Y015000D01*
X030132Y015001D02*
X030018Y015001D01*
X030018Y015002D02*
X030132Y015002D01*
X030132Y015003D02*
X030018Y015003D01*
X030018Y015004D02*
X030132Y015004D01*
X030132Y015005D02*
X030018Y015005D01*
X030018Y015006D02*
X030132Y015006D01*
X030132Y015007D02*
X030018Y015007D01*
X030018Y015008D02*
X030133Y015008D01*
X030133Y015009D02*
X030018Y015009D01*
X030018Y015010D02*
X030133Y015010D01*
X030133Y015011D02*
X030018Y015011D01*
X030018Y015012D02*
X030133Y015012D01*
X030133Y015013D02*
X030018Y015013D01*
X030018Y015014D02*
X030133Y015014D01*
X030133Y015015D02*
X030018Y015015D01*
X030018Y015016D02*
X030133Y015016D01*
X030133Y015017D02*
X030018Y015017D01*
X030018Y015018D02*
X030133Y015018D01*
X030133Y015019D02*
X030018Y015019D01*
X030018Y015020D02*
X030133Y015020D01*
X030133Y015021D02*
X030018Y015021D01*
X030018Y015022D02*
X030133Y015022D01*
X030133Y015023D02*
X030018Y015023D01*
X030018Y015024D02*
X030133Y015024D01*
X030133Y015025D02*
X030018Y015025D01*
X030018Y015026D02*
X030133Y015026D01*
X030133Y015027D02*
X030018Y015027D01*
X030018Y015028D02*
X030133Y015028D01*
X030133Y015029D02*
X030018Y015029D01*
X030018Y015030D02*
X030133Y015030D01*
X030133Y015031D02*
X030018Y015031D01*
X030019Y015032D02*
X030133Y015032D01*
X030133Y015033D02*
X030019Y015033D01*
X030019Y015034D02*
X030133Y015034D01*
X030133Y015035D02*
X030019Y015035D01*
X030019Y015036D02*
X030133Y015036D01*
X030133Y015037D02*
X030020Y015037D01*
X030020Y015038D02*
X030133Y015038D01*
X030133Y015039D02*
X030020Y015039D01*
X030020Y015040D02*
X030133Y015040D01*
X030133Y015041D02*
X030021Y015041D01*
X030021Y015042D02*
X030133Y015042D01*
X030133Y015043D02*
X030021Y015043D01*
X030021Y015044D02*
X030133Y015044D01*
X030133Y015045D02*
X030022Y015045D01*
X030022Y015046D02*
X030133Y015046D01*
X030133Y015047D02*
X030022Y015047D01*
X030022Y015048D02*
X030133Y015048D01*
X030133Y015049D02*
X030022Y015049D01*
X030023Y015050D02*
X030133Y015050D01*
X030134Y015051D02*
X030023Y015051D01*
X030023Y015052D02*
X030134Y015052D01*
X030135Y015053D02*
X030023Y015053D01*
X030024Y015054D02*
X030136Y015054D01*
X030137Y015055D02*
X030024Y015055D01*
X030024Y015056D02*
X030137Y015056D01*
X030138Y015057D02*
X030024Y015057D01*
X030025Y015058D02*
X030139Y015058D01*
X030139Y015059D02*
X030025Y015059D01*
X030025Y015060D02*
X030140Y015060D01*
X030141Y015061D02*
X030025Y015061D01*
X030026Y015062D02*
X030141Y015062D01*
X030142Y015063D02*
X030026Y015063D01*
X030026Y015064D02*
X030143Y015064D01*
X030143Y015065D02*
X030026Y015065D01*
X030026Y015066D02*
X030144Y015066D01*
X030145Y015067D02*
X030027Y015067D01*
X030027Y015068D02*
X030146Y015068D01*
X030146Y015069D02*
X030027Y015069D01*
X030027Y015070D02*
X030147Y015070D01*
X030148Y015071D02*
X030028Y015071D01*
X030028Y015072D02*
X030148Y015072D01*
X030149Y015073D02*
X030028Y015073D01*
X030028Y015074D02*
X030150Y015074D01*
X030150Y015075D02*
X030029Y015075D01*
X030029Y015076D02*
X030151Y015076D01*
X030152Y015077D02*
X030029Y015077D01*
X030029Y015078D02*
X030153Y015078D01*
X030153Y015079D02*
X030029Y015079D01*
X030030Y015080D02*
X030154Y015080D01*
X030155Y015081D02*
X030030Y015081D01*
X030030Y015082D02*
X030155Y015082D01*
X030156Y015083D02*
X030030Y015083D01*
X030031Y015084D02*
X030157Y015084D01*
X030157Y015085D02*
X030031Y015085D01*
X030031Y015086D02*
X030158Y015086D01*
X030159Y015087D02*
X030031Y015087D01*
X030032Y015088D02*
X030159Y015088D01*
X030160Y015089D02*
X030032Y015089D01*
X030032Y015090D02*
X030161Y015090D01*
X030162Y015091D02*
X030032Y015091D01*
X030032Y015092D02*
X030163Y015092D01*
X030165Y015093D02*
X030033Y015093D01*
X030033Y015094D02*
X030167Y015094D01*
X030169Y015095D02*
X030033Y015095D01*
X030033Y015096D02*
X030171Y015096D01*
X030173Y015097D02*
X030034Y015097D01*
X030034Y015098D02*
X030175Y015098D01*
X030177Y015099D02*
X030034Y015099D01*
X030034Y015100D02*
X030179Y015100D01*
X030181Y015101D02*
X030035Y015101D01*
X030035Y015102D02*
X030183Y015102D01*
X030185Y015103D02*
X030035Y015103D01*
X030035Y015104D02*
X030187Y015104D01*
X030189Y015105D02*
X030036Y015105D01*
X030036Y015106D02*
X030191Y015106D01*
X030193Y015107D02*
X030036Y015107D01*
X030036Y015108D02*
X030195Y015108D01*
X030198Y015109D02*
X030036Y015109D01*
X030037Y015110D02*
X030200Y015110D01*
X030202Y015111D02*
X030037Y015111D01*
X030037Y015112D02*
X030204Y015112D01*
X030206Y015113D02*
X030037Y015113D01*
X030038Y015114D02*
X030208Y015114D01*
X030210Y015115D02*
X030038Y015115D01*
X030038Y015116D02*
X030212Y015116D01*
X030214Y015117D02*
X030038Y015117D01*
X030039Y015118D02*
X030216Y015118D01*
X030218Y015119D02*
X030039Y015119D01*
X030039Y015120D02*
X030220Y015120D01*
X030222Y015121D02*
X030039Y015121D01*
X030039Y015122D02*
X030224Y015122D01*
X030226Y015123D02*
X030040Y015123D01*
X030228Y015123D01*
X030230Y015124D02*
X030040Y015124D01*
X030040Y015125D02*
X030233Y015125D01*
X030235Y015126D02*
X030041Y015126D01*
X030041Y015127D02*
X030237Y015127D01*
X030239Y015128D02*
X030041Y015128D01*
X030041Y015129D02*
X030241Y015129D01*
X030243Y015130D02*
X030042Y015130D01*
X030042Y015131D02*
X030245Y015131D01*
X030247Y015132D02*
X030042Y015132D01*
X030042Y015133D02*
X030249Y015133D01*
X030251Y015134D02*
X030042Y015134D01*
X030043Y015135D02*
X030253Y015135D01*
X030255Y015136D02*
X030043Y015136D01*
X030043Y015137D02*
X030257Y015137D01*
X030259Y015138D02*
X030043Y015138D01*
X030044Y015139D02*
X030261Y015139D01*
X030263Y015140D02*
X030044Y015140D01*
X030044Y015141D02*
X030265Y015141D01*
X030267Y015142D02*
X030044Y015142D01*
X030045Y015143D02*
X030270Y015143D01*
X030272Y015144D02*
X030045Y015144D01*
X030045Y015145D02*
X030274Y015145D01*
X030276Y015146D02*
X030045Y015146D01*
X030045Y015147D02*
X030278Y015147D01*
X030280Y015148D02*
X030046Y015148D01*
X030046Y015149D02*
X030282Y015149D01*
X030284Y015150D02*
X030046Y015150D01*
X030046Y015151D02*
X030286Y015151D01*
X030288Y015152D02*
X030047Y015152D01*
X030047Y015153D02*
X030290Y015153D01*
X030292Y015154D02*
X030047Y015154D01*
X030047Y015155D02*
X030294Y015155D01*
X030296Y015156D02*
X030048Y015156D01*
X030048Y015157D02*
X030298Y015157D01*
X030300Y015158D02*
X030048Y015158D01*
X030048Y015159D02*
X030302Y015159D01*
X030304Y015160D02*
X030048Y015160D01*
X030049Y015161D02*
X030307Y015161D01*
X030309Y015162D02*
X030049Y015162D01*
X030049Y015163D02*
X030311Y015163D01*
X030313Y015164D02*
X030049Y015164D01*
X030050Y015165D02*
X030315Y015165D01*
X030317Y015166D02*
X030050Y015166D01*
X030050Y015167D02*
X030319Y015167D01*
X030321Y015168D02*
X030050Y015168D01*
X030051Y015169D02*
X030323Y015169D01*
X030325Y015170D02*
X030051Y015170D01*
X030051Y015171D02*
X030327Y015171D01*
X030329Y015172D02*
X030051Y015172D01*
X030052Y015173D02*
X030331Y015173D01*
X030333Y015174D02*
X030052Y015174D01*
X030052Y015175D02*
X030335Y015175D01*
X030337Y015176D02*
X030052Y015176D01*
X030052Y015177D02*
X030339Y015177D01*
X030341Y015178D02*
X030053Y015178D01*
X030053Y015179D02*
X030343Y015179D01*
X030345Y015180D02*
X030053Y015180D01*
X030053Y015181D02*
X030348Y015181D01*
X030350Y015182D02*
X030054Y015182D01*
X030054Y015183D02*
X030352Y015183D01*
X030354Y015184D02*
X030054Y015184D01*
X030054Y015185D02*
X030356Y015185D01*
X030358Y015186D02*
X030055Y015186D01*
X030055Y015187D02*
X030360Y015187D01*
X030362Y015188D02*
X030055Y015188D01*
X030055Y015189D02*
X030364Y015189D01*
X030366Y015190D02*
X030055Y015190D01*
X030056Y015191D02*
X030368Y015191D01*
X030370Y015192D02*
X030056Y015192D01*
X030056Y015193D02*
X030372Y015193D01*
X030374Y015194D02*
X030056Y015194D01*
X030057Y015195D02*
X030376Y015195D01*
X030378Y015196D02*
X030057Y015196D01*
X030057Y015197D02*
X030380Y015197D01*
X030382Y015198D02*
X030057Y015198D01*
X030058Y015199D02*
X030384Y015199D01*
X030386Y015200D02*
X030058Y015200D01*
X030058Y015201D02*
X030389Y015201D01*
X030391Y015202D02*
X030058Y015202D01*
X030059Y015203D02*
X030393Y015203D01*
X030395Y015204D02*
X030059Y015204D01*
X030059Y015205D02*
X030397Y015205D01*
X030399Y015206D02*
X030059Y015206D01*
X030059Y015207D02*
X030401Y015207D01*
X030403Y015208D02*
X030060Y015208D01*
X030060Y015209D02*
X030405Y015209D01*
X030407Y015210D02*
X030060Y015210D01*
X030060Y015211D02*
X030409Y015211D01*
X030411Y015212D02*
X030061Y015212D01*
X030061Y015213D02*
X030413Y015213D01*
X030415Y015214D02*
X030061Y015214D01*
X030061Y015215D02*
X030416Y015215D01*
X030416Y015216D02*
X030062Y015216D01*
X030062Y015217D02*
X030416Y015217D01*
X030416Y015218D02*
X030062Y015218D01*
X030062Y015219D02*
X030416Y015219D01*
X030415Y015220D02*
X030063Y015220D01*
X030063Y015221D02*
X030415Y015221D01*
X030415Y015222D02*
X030063Y015222D01*
X030063Y015223D02*
X030415Y015223D01*
X030415Y015224D02*
X030063Y015224D01*
X030064Y015225D02*
X030414Y015225D01*
X030414Y015226D02*
X030064Y015226D01*
X030064Y015227D02*
X030414Y015227D01*
X030414Y015228D02*
X030064Y015228D01*
X030065Y015229D02*
X030414Y015229D01*
X030414Y015230D02*
X030065Y015230D01*
X030065Y015231D02*
X030413Y015231D01*
X030413Y015232D02*
X030065Y015232D01*
X030066Y015233D02*
X030413Y015233D01*
X030413Y015234D02*
X030066Y015234D01*
X030066Y015235D02*
X030413Y015235D01*
X030412Y015236D02*
X030066Y015236D01*
X030067Y015237D02*
X030412Y015237D01*
X030412Y015238D02*
X030067Y015238D01*
X030067Y015239D02*
X030412Y015239D01*
X030412Y015240D02*
X030067Y015240D01*
X030067Y015241D02*
X030411Y015241D01*
X030411Y015242D02*
X030068Y015242D01*
X030068Y015243D02*
X030411Y015243D01*
X030411Y015244D02*
X030068Y015244D01*
X030068Y015245D02*
X030411Y015245D01*
X030411Y015246D02*
X030069Y015246D01*
X030069Y015247D02*
X030410Y015247D01*
X030410Y015248D02*
X030069Y015248D01*
X030069Y015249D02*
X030410Y015249D01*
X030410Y015250D02*
X030070Y015250D01*
X030070Y015251D02*
X030410Y015251D01*
X030409Y015252D02*
X030070Y015252D01*
X030070Y015253D02*
X030409Y015253D01*
X030409Y015254D02*
X030071Y015254D01*
X030071Y015255D02*
X030409Y015255D01*
X030409Y015256D02*
X030071Y015256D01*
X030071Y015257D02*
X030409Y015257D01*
X030408Y015258D02*
X030071Y015258D01*
X030072Y015259D02*
X030408Y015259D01*
X030408Y015260D02*
X030072Y015260D01*
X030072Y015261D02*
X030408Y015261D01*
X030408Y015262D02*
X030072Y015262D01*
X030073Y015263D02*
X030407Y015263D01*
X030407Y015264D02*
X030073Y015264D01*
X030073Y015265D02*
X030407Y015265D01*
X030407Y015266D02*
X030073Y015266D01*
X030073Y015267D02*
X030407Y015267D01*
X030406Y015268D02*
X030072Y015268D01*
X030072Y015269D02*
X030406Y015269D01*
X030406Y015270D02*
X030072Y015270D01*
X030071Y015271D02*
X030406Y015271D01*
X030406Y015272D02*
X030071Y015272D01*
X030071Y015273D02*
X030406Y015273D01*
X030405Y015274D02*
X030070Y015274D01*
X030070Y015275D02*
X030405Y015275D01*
X030405Y015276D02*
X030070Y015276D01*
X030069Y015277D02*
X030405Y015277D01*
X030405Y015278D02*
X030069Y015278D01*
X030069Y015279D02*
X030404Y015279D01*
X030404Y015280D02*
X030068Y015280D01*
X030068Y015281D02*
X030404Y015281D01*
X030404Y015282D02*
X030068Y015282D01*
X030067Y015283D02*
X030404Y015283D01*
X030404Y015284D02*
X030067Y015284D01*
X030067Y015285D02*
X030403Y015285D01*
X030403Y015286D02*
X030066Y015286D01*
X030066Y015287D02*
X030403Y015287D01*
X030403Y015288D02*
X030066Y015288D01*
X030065Y015289D02*
X030403Y015289D01*
X030402Y015290D02*
X030065Y015290D01*
X030064Y015291D02*
X030402Y015291D01*
X030402Y015292D02*
X030064Y015292D01*
X030064Y015293D02*
X030402Y015293D01*
X030402Y015294D02*
X030063Y015294D01*
X030063Y015295D02*
X030401Y015295D01*
X030401Y015296D02*
X030063Y015296D01*
X030062Y015297D02*
X030401Y015297D01*
X030401Y015298D02*
X030062Y015298D01*
X030062Y015299D02*
X030400Y015299D01*
X030400Y015300D02*
X030061Y015300D01*
X030061Y015301D02*
X030400Y015301D01*
X030400Y015302D02*
X030061Y015302D01*
X030060Y015303D02*
X030399Y015303D01*
X030399Y015304D02*
X030060Y015304D01*
X030060Y015305D02*
X030399Y015305D01*
X030399Y015306D02*
X030059Y015306D01*
X030059Y015307D02*
X030399Y015307D01*
X030398Y015308D02*
X030059Y015308D01*
X030058Y015309D02*
X030398Y015309D01*
X030398Y015310D02*
X030058Y015310D01*
X030058Y015311D02*
X030398Y015311D01*
X030397Y015312D02*
X030057Y015312D01*
X030057Y015313D02*
X030397Y015313D01*
X030397Y015314D02*
X030057Y015314D01*
X030056Y015315D02*
X030397Y015315D01*
X030396Y015316D02*
X030056Y015316D01*
X030056Y015317D02*
X030396Y015317D01*
X030396Y015318D02*
X030055Y015318D01*
X030055Y015319D02*
X030396Y015319D01*
X030395Y015320D02*
X030055Y015320D01*
X030054Y015321D02*
X030395Y015321D01*
X030395Y015322D02*
X030054Y015322D01*
X030054Y015323D02*
X030395Y015323D01*
X030395Y015324D02*
X030053Y015324D01*
X030053Y015325D02*
X030394Y015325D01*
X030394Y015326D02*
X030053Y015326D01*
X030052Y015327D02*
X030394Y015327D01*
X030394Y015328D02*
X030052Y015328D01*
X030052Y015329D02*
X030393Y015329D01*
X030393Y015330D02*
X030051Y015330D01*
X030051Y015331D02*
X030393Y015331D01*
X030393Y015332D02*
X030051Y015332D01*
X030050Y015333D02*
X030392Y015333D01*
X030392Y015334D02*
X030050Y015334D01*
X030050Y015335D02*
X030392Y015335D01*
X030392Y015336D02*
X030049Y015336D01*
X030049Y015337D02*
X030392Y015337D01*
X030391Y015338D02*
X030049Y015338D01*
X030048Y015339D02*
X030391Y015339D01*
X030391Y015340D02*
X030048Y015340D01*
X030048Y015341D02*
X030391Y015341D01*
X030390Y015342D02*
X030047Y015342D01*
X030047Y015343D02*
X030390Y015343D01*
X030390Y015344D02*
X030047Y015344D01*
X030046Y015345D02*
X030390Y015345D01*
X030389Y015346D02*
X030046Y015346D01*
X030046Y015347D02*
X030389Y015347D01*
X030389Y015348D02*
X030045Y015348D01*
X030045Y015349D02*
X030389Y015349D01*
X030388Y015350D02*
X030045Y015350D01*
X030045Y015351D02*
X030388Y015351D01*
X030388Y015352D02*
X030045Y015352D01*
X030045Y015353D02*
X030388Y015353D01*
X030388Y015354D02*
X030045Y015354D01*
X030045Y015355D02*
X030387Y015355D01*
X030387Y015356D02*
X030045Y015356D01*
X030045Y015357D02*
X030387Y015357D01*
X030387Y015358D02*
X030045Y015358D01*
X030045Y015359D02*
X030386Y015359D01*
X030386Y015360D02*
X030045Y015360D01*
X030045Y015361D02*
X030386Y015361D01*
X030386Y015362D02*
X030044Y015362D01*
X030044Y015363D02*
X030385Y015363D01*
X030385Y015364D02*
X030044Y015364D01*
X030044Y015365D02*
X030385Y015365D01*
X030385Y015366D02*
X030044Y015366D01*
X030044Y015367D02*
X030384Y015367D01*
X030384Y015368D02*
X030044Y015368D01*
X030044Y015369D02*
X030384Y015369D01*
X030384Y015370D02*
X030044Y015370D01*
X030044Y015371D02*
X030384Y015371D01*
X030383Y015372D02*
X030044Y015372D01*
X030044Y015373D02*
X030383Y015373D01*
X030383Y015374D02*
X030044Y015374D01*
X030044Y015375D02*
X030383Y015375D01*
X030382Y015376D02*
X030044Y015376D01*
X030044Y015377D02*
X030382Y015377D01*
X030382Y015378D02*
X030044Y015378D01*
X030044Y015379D02*
X030382Y015379D01*
X030381Y015380D02*
X030044Y015380D01*
X030044Y015381D02*
X030381Y015381D01*
X030381Y015382D02*
X030043Y015382D01*
X030043Y015383D02*
X030381Y015383D01*
X030380Y015384D02*
X030043Y015384D01*
X030043Y015385D02*
X030380Y015385D01*
X030380Y015386D02*
X030043Y015386D01*
X030043Y015387D02*
X030380Y015387D01*
X030379Y015388D02*
X030043Y015388D01*
X030043Y015389D02*
X030379Y015389D01*
X030379Y015390D02*
X030043Y015390D01*
X030043Y015391D02*
X030379Y015391D01*
X030379Y015392D02*
X030043Y015392D01*
X030043Y015393D02*
X030378Y015393D01*
X030379Y015394D02*
X030043Y015394D01*
X030043Y015395D02*
X030380Y015395D01*
X030382Y015396D02*
X030043Y015396D01*
X030043Y015397D02*
X030383Y015397D01*
X030385Y015398D02*
X030043Y015398D01*
X030043Y015399D02*
X030386Y015399D01*
X030388Y015400D02*
X030043Y015400D01*
X030042Y015401D02*
X030389Y015401D01*
X030391Y015402D02*
X030042Y015402D01*
X030042Y015403D02*
X030392Y015403D01*
X030394Y015404D02*
X030042Y015404D01*
X030042Y015405D02*
X030395Y015405D01*
X030397Y015406D02*
X030042Y015406D01*
X030042Y015407D02*
X030398Y015407D01*
X030400Y015408D02*
X030042Y015408D01*
X030042Y015409D02*
X030401Y015409D01*
X030403Y015410D02*
X030042Y015410D01*
X030042Y015411D02*
X030404Y015411D01*
X030406Y015412D02*
X030042Y015412D01*
X030042Y015413D02*
X030407Y015413D01*
X030409Y015414D02*
X030042Y015414D01*
X030042Y015415D02*
X030410Y015415D01*
X030412Y015416D02*
X030042Y015416D01*
X030042Y015417D02*
X030413Y015417D01*
X030415Y015418D02*
X030042Y015418D01*
X030042Y015419D02*
X030416Y015419D01*
X030418Y015420D02*
X030041Y015420D01*
X030041Y015421D02*
X030419Y015421D01*
X030421Y015422D02*
X030041Y015422D01*
X030041Y015423D02*
X030422Y015423D01*
X030424Y015424D02*
X030041Y015424D01*
X030041Y015425D02*
X030425Y015425D01*
X030427Y015426D02*
X030041Y015426D01*
X030041Y015427D02*
X030428Y015427D01*
X030430Y015428D02*
X030041Y015428D01*
X030041Y015429D02*
X030431Y015429D01*
X030433Y015430D02*
X030041Y015430D01*
X030041Y015431D02*
X030435Y015431D01*
X030436Y015432D02*
X030041Y015432D01*
X030041Y015433D02*
X030438Y015433D01*
X030439Y015434D02*
X030041Y015434D01*
X030041Y015435D02*
X030441Y015435D01*
X030442Y015436D02*
X030041Y015436D01*
X030041Y015437D02*
X030444Y015437D01*
X030445Y015438D02*
X030041Y015438D01*
X030041Y015439D02*
X030446Y015439D01*
X030447Y015440D02*
X030040Y015440D01*
X030040Y015441D02*
X030447Y015441D01*
X030447Y015442D02*
X030040Y015442D01*
X030040Y015443D02*
X030448Y015443D01*
X030448Y015444D02*
X030040Y015444D01*
X030040Y015445D02*
X030449Y015445D01*
X030449Y015446D02*
X030040Y015446D01*
X030040Y015447D02*
X030449Y015447D01*
X030450Y015448D02*
X030040Y015448D01*
X030040Y015449D02*
X030450Y015449D01*
X030451Y015450D02*
X030040Y015450D01*
X030040Y015451D02*
X030451Y015451D01*
X030452Y015452D02*
X030040Y015452D01*
X030040Y015453D02*
X030452Y015453D01*
X030452Y015454D02*
X030040Y015454D01*
X030040Y015455D02*
X030453Y015455D01*
X030453Y015456D02*
X030040Y015456D01*
X030040Y015457D02*
X030454Y015457D01*
X030454Y015458D02*
X030040Y015458D01*
X030040Y015459D02*
X030454Y015459D01*
X030455Y015460D02*
X030039Y015460D01*
X030039Y015461D02*
X030455Y015461D01*
X030456Y015462D02*
X030039Y015462D01*
X030039Y015463D02*
X030456Y015463D01*
X030457Y015464D02*
X030039Y015464D01*
X030039Y015465D02*
X030457Y015465D01*
X030457Y015466D02*
X030039Y015466D01*
X030039Y015467D02*
X030458Y015467D01*
X030458Y015468D02*
X030039Y015468D01*
X030039Y015469D02*
X030459Y015469D01*
X030459Y015470D02*
X030039Y015470D01*
X030039Y015471D02*
X030459Y015471D01*
X030460Y015472D02*
X030039Y015472D01*
X030039Y015473D02*
X030460Y015473D01*
X030461Y015474D02*
X030039Y015474D01*
X030039Y015475D02*
X030461Y015475D01*
X030461Y015476D02*
X030039Y015476D01*
X030039Y015477D02*
X030462Y015477D01*
X030462Y015478D02*
X030039Y015478D01*
X030039Y015479D02*
X030463Y015479D01*
X030463Y015480D02*
X030038Y015480D01*
X030038Y015481D02*
X030464Y015481D01*
X030464Y015482D02*
X030038Y015482D01*
X030038Y015483D02*
X030464Y015483D01*
X030465Y015484D02*
X030038Y015484D01*
X030038Y015485D02*
X030465Y015485D01*
X030466Y015486D02*
X030038Y015486D01*
X030038Y015487D02*
X030466Y015487D01*
X030466Y015488D02*
X030038Y015488D01*
X030038Y015489D02*
X030467Y015489D01*
X030467Y015490D02*
X030038Y015490D01*
X030038Y015491D02*
X030468Y015491D01*
X030468Y015492D02*
X030038Y015492D01*
X030037Y015493D02*
X030468Y015493D01*
X030468Y015494D02*
X030037Y015494D01*
X030037Y015495D02*
X030468Y015495D01*
X030468Y015496D02*
X030037Y015496D01*
X030037Y015497D02*
X030469Y015497D01*
X030469Y015498D02*
X030037Y015498D01*
X030037Y015499D02*
X030469Y015499D01*
X030469Y015500D02*
X030037Y015500D01*
X030037Y015501D02*
X030469Y015501D01*
X030469Y015502D02*
X030037Y015502D01*
X030037Y015503D02*
X030469Y015503D01*
X030469Y015504D02*
X030037Y015504D01*
X030037Y015505D02*
X030469Y015505D01*
X030469Y015506D02*
X030036Y015506D01*
X030036Y015507D02*
X030469Y015507D01*
X030469Y015508D02*
X030036Y015508D01*
X030036Y015509D02*
X030469Y015509D01*
X030469Y015510D02*
X030036Y015510D01*
X030036Y015511D02*
X030469Y015511D01*
X030469Y015512D02*
X030036Y015512D01*
X030036Y015513D02*
X030469Y015513D01*
X030469Y015514D02*
X030036Y015514D01*
X030036Y015515D02*
X030469Y015515D01*
X030470Y015516D02*
X030036Y015516D01*
X030036Y015517D02*
X030470Y015517D01*
X030470Y015518D02*
X030036Y015518D01*
X030036Y015519D02*
X030470Y015519D01*
X030470Y015520D02*
X030035Y015520D01*
X030035Y015521D02*
X030470Y015521D01*
X030470Y015522D02*
X030035Y015522D01*
X030035Y015523D02*
X030470Y015523D01*
X030470Y015524D02*
X030035Y015524D01*
X030035Y015525D02*
X030470Y015525D01*
X030470Y015526D02*
X030035Y015526D01*
X030035Y015527D02*
X030470Y015527D01*
X030470Y015528D02*
X030035Y015528D01*
X030035Y015529D02*
X030470Y015529D01*
X030470Y015530D02*
X030035Y015530D01*
X030035Y015531D02*
X030470Y015531D01*
X030470Y015532D02*
X030035Y015532D01*
X030034Y015533D02*
X030470Y015533D01*
X030470Y015534D02*
X030034Y015534D01*
X030034Y015535D02*
X030471Y015535D01*
X030471Y015536D02*
X030034Y015536D01*
X030034Y015537D02*
X030471Y015537D01*
X030471Y015538D02*
X030034Y015538D01*
X030034Y015539D02*
X030471Y015539D01*
X030471Y015540D02*
X030034Y015540D01*
X030034Y015541D02*
X030471Y015541D01*
X030471Y015542D02*
X030034Y015542D01*
X030034Y015543D02*
X030471Y015543D01*
X030471Y015544D02*
X030034Y015544D01*
X030034Y015545D02*
X030471Y015545D01*
X030471Y015546D02*
X030034Y015546D01*
X030033Y015547D02*
X030471Y015547D01*
X030471Y015548D02*
X030033Y015548D01*
X030033Y015549D02*
X030471Y015549D01*
X030471Y015550D02*
X030033Y015550D01*
X030033Y015551D02*
X030471Y015551D01*
X030471Y015552D02*
X030033Y015552D01*
X030033Y015553D02*
X030471Y015553D01*
X030471Y015554D02*
X030033Y015554D01*
X030033Y015555D02*
X030472Y015555D01*
X030472Y015556D02*
X030033Y015556D01*
X030033Y015557D02*
X030472Y015557D01*
X030472Y015558D02*
X030033Y015558D01*
X030033Y015559D02*
X030472Y015559D01*
X030472Y015560D02*
X030032Y015560D01*
X030032Y015561D02*
X030472Y015561D01*
X030472Y015562D02*
X030032Y015562D01*
X030032Y015563D02*
X030472Y015563D01*
X030472Y015564D02*
X030032Y015564D01*
X030032Y015565D02*
X030472Y015565D01*
X030472Y015566D02*
X030032Y015566D01*
X030032Y015567D02*
X030472Y015567D01*
X030472Y015568D02*
X030032Y015568D01*
X030032Y015569D02*
X030472Y015569D01*
X030472Y015570D02*
X030032Y015570D01*
X030032Y015571D02*
X030472Y015571D01*
X030472Y015572D02*
X030032Y015572D01*
X030032Y015573D02*
X030472Y015573D01*
X030473Y015574D02*
X030031Y015574D01*
X030031Y015575D02*
X030473Y015575D01*
X030473Y015576D02*
X030031Y015576D01*
X030031Y015577D02*
X030473Y015577D01*
X030473Y015578D02*
X030031Y015578D01*
X030031Y015579D02*
X030473Y015579D01*
X030473Y015580D02*
X030031Y015580D01*
X030031Y015581D02*
X030473Y015581D01*
X030473Y015582D02*
X030031Y015582D01*
X030031Y015583D02*
X030473Y015583D01*
X030473Y015584D02*
X030031Y015584D01*
X030031Y015585D02*
X030473Y015585D01*
X030473Y015586D02*
X030031Y015586D01*
X030030Y015587D02*
X030473Y015587D01*
X030473Y015588D02*
X030030Y015588D01*
X030030Y015589D02*
X030473Y015589D01*
X030473Y015590D02*
X030030Y015590D01*
X030030Y015591D02*
X030473Y015591D01*
X030473Y015592D02*
X030030Y015592D01*
X030030Y015593D02*
X030474Y015593D01*
X030474Y015594D02*
X030030Y015594D01*
X030030Y015595D02*
X030474Y015595D01*
X030474Y015596D02*
X030030Y015596D01*
X030029Y015597D02*
X030474Y015597D01*
X030474Y015598D02*
X030029Y015598D01*
X030028Y015599D02*
X030474Y015599D01*
X030474Y015600D02*
X030027Y015600D01*
X030027Y015601D02*
X030474Y015601D01*
X030474Y015602D02*
X030026Y015602D01*
X030026Y015603D02*
X030474Y015603D01*
X030474Y015604D02*
X030025Y015604D01*
X030024Y015605D02*
X030474Y015605D01*
X030474Y015606D02*
X030024Y015606D01*
X030023Y015607D02*
X030474Y015607D01*
X030474Y015608D02*
X030022Y015608D01*
X030022Y015609D02*
X030474Y015609D01*
X030474Y015610D02*
X030021Y015610D01*
X030020Y015611D02*
X030475Y015611D01*
X030475Y015612D02*
X030020Y015612D01*
X030019Y015613D02*
X030475Y015613D01*
X030475Y015614D02*
X030019Y015614D01*
X030018Y015615D02*
X030475Y015615D01*
X030475Y015616D02*
X030017Y015616D01*
X030017Y015617D02*
X030475Y015617D01*
X030475Y015618D02*
X030016Y015618D01*
X030015Y015619D02*
X030475Y015619D01*
X030475Y015620D02*
X030015Y015620D01*
X030014Y015621D02*
X030475Y015621D01*
X030475Y015622D02*
X030014Y015622D01*
X030013Y015623D02*
X030475Y015623D01*
X030475Y015624D02*
X030012Y015624D01*
X030012Y015625D02*
X030475Y015625D01*
X030475Y015626D02*
X030011Y015626D01*
X030010Y015627D02*
X030475Y015627D01*
X030475Y015628D02*
X030010Y015628D01*
X030009Y015629D02*
X030475Y015629D01*
X030476Y015630D02*
X030009Y015630D01*
X030008Y015631D02*
X030476Y015631D01*
X030476Y015632D02*
X030007Y015632D01*
X030007Y015633D02*
X030476Y015633D01*
X030476Y015634D02*
X030006Y015634D01*
X030005Y015635D02*
X030476Y015635D01*
X030475Y015636D02*
X030005Y015636D01*
X030004Y015637D02*
X030475Y015637D01*
X030475Y015638D02*
X030004Y015638D01*
X030003Y015639D02*
X030474Y015639D01*
X030474Y015640D02*
X030002Y015640D01*
X030002Y015641D02*
X030474Y015641D01*
X030474Y015642D02*
X030001Y015642D01*
X030000Y015643D02*
X030473Y015643D01*
X030473Y015644D02*
X030000Y015644D01*
X029999Y015645D02*
X030473Y015645D01*
X030472Y015646D02*
X029999Y015646D01*
X029998Y015647D02*
X030472Y015647D01*
X030472Y015648D02*
X029997Y015648D01*
X029997Y015649D02*
X030471Y015649D01*
X030471Y015650D02*
X029996Y015650D01*
X029995Y015651D02*
X030471Y015651D01*
X030471Y015652D02*
X029995Y015652D01*
X029994Y015653D02*
X030470Y015653D01*
X030470Y015654D02*
X029993Y015654D01*
X029993Y015655D02*
X030470Y015655D01*
X030469Y015656D02*
X029992Y015656D01*
X029992Y015657D02*
X030469Y015657D01*
X030469Y015658D02*
X029991Y015658D01*
X029990Y015659D02*
X030468Y015659D01*
X030468Y015660D02*
X029990Y015660D01*
X029989Y015661D02*
X030468Y015661D01*
X030468Y015662D02*
X029988Y015662D01*
X029988Y015663D02*
X030467Y015663D01*
X030467Y015664D02*
X029987Y015664D01*
X029986Y015665D02*
X030467Y015665D01*
X030466Y015666D02*
X029986Y015666D01*
X029985Y015667D02*
X030466Y015667D01*
X030466Y015668D02*
X029984Y015668D01*
X029984Y015669D02*
X030466Y015669D01*
X030465Y015670D02*
X029983Y015670D01*
X029982Y015671D02*
X030465Y015671D01*
X030465Y015672D02*
X029981Y015672D01*
X029981Y015673D02*
X030464Y015673D01*
X030464Y015674D02*
X029980Y015674D01*
X029979Y015675D02*
X030464Y015675D01*
X030463Y015676D02*
X029979Y015676D01*
X029978Y015677D02*
X030463Y015677D01*
X030463Y015678D02*
X029977Y015678D01*
X029977Y015679D02*
X030463Y015679D01*
X030462Y015680D02*
X029976Y015680D01*
X029975Y015681D02*
X030462Y015681D01*
X030462Y015682D02*
X029974Y015682D01*
X029974Y015683D02*
X030461Y015683D01*
X030461Y015684D02*
X029973Y015684D01*
X029972Y015685D02*
X030461Y015685D01*
X030461Y015686D02*
X029972Y015686D01*
X029971Y015687D02*
X030460Y015687D01*
X030460Y015688D02*
X029970Y015688D01*
X029970Y015689D02*
X030460Y015689D01*
X030459Y015690D02*
X029969Y015690D01*
X029968Y015691D02*
X030459Y015691D01*
X030459Y015692D02*
X029967Y015692D01*
X029967Y015693D02*
X030458Y015693D01*
X030458Y015694D02*
X029966Y015694D01*
X029965Y015695D02*
X030458Y015695D01*
X030458Y015696D02*
X029965Y015696D01*
X029964Y015697D02*
X030457Y015697D01*
X030457Y015698D02*
X029963Y015698D01*
X029963Y015699D02*
X030457Y015699D01*
X030456Y015700D02*
X029962Y015700D01*
X029961Y015701D02*
X030455Y015701D01*
X030454Y015702D02*
X029960Y015702D01*
X029960Y015703D02*
X030453Y015703D01*
X030452Y015704D02*
X029959Y015704D01*
X029958Y015705D02*
X030450Y015705D01*
X030449Y015706D02*
X029958Y015706D01*
X029957Y015707D02*
X030448Y015707D01*
X030447Y015708D02*
X029956Y015708D01*
X029956Y015709D02*
X030445Y015709D01*
X030444Y015710D02*
X029955Y015710D01*
X029954Y015711D02*
X030443Y015711D01*
X030442Y015712D02*
X029953Y015712D01*
X029953Y015713D02*
X030441Y015713D01*
X030439Y015714D02*
X029952Y015714D01*
X029951Y015715D02*
X030438Y015715D01*
X030437Y015716D02*
X029951Y015716D01*
X029950Y015717D02*
X030436Y015717D01*
X030435Y015718D02*
X029949Y015718D01*
X029949Y015719D02*
X030433Y015719D01*
X030432Y015720D02*
X029948Y015720D01*
X029947Y015721D02*
X030431Y015721D01*
X030430Y015722D02*
X029946Y015722D01*
X029946Y015723D02*
X030428Y015723D01*
X030427Y015724D02*
X029945Y015724D01*
X029944Y015725D02*
X030426Y015725D01*
X030425Y015726D02*
X029944Y015726D01*
X029943Y015727D02*
X030424Y015727D01*
X030422Y015728D02*
X029942Y015728D01*
X029942Y015729D02*
X030421Y015729D01*
X030420Y015730D02*
X029941Y015730D01*
X029940Y015731D02*
X030419Y015731D01*
X030418Y015732D02*
X029939Y015732D01*
X029939Y015733D02*
X030416Y015733D01*
X030415Y015734D02*
X029938Y015734D01*
X029937Y015735D02*
X030414Y015735D01*
X030413Y015736D02*
X029937Y015736D01*
X029936Y015737D02*
X030413Y015737D01*
X030413Y015738D02*
X029935Y015738D01*
X029934Y015739D02*
X030414Y015739D01*
X030414Y015740D02*
X029934Y015740D01*
X029933Y015741D02*
X030414Y015741D01*
X030414Y015742D02*
X029932Y015742D01*
X029932Y015743D02*
X030415Y015743D01*
X030415Y015744D02*
X029931Y015744D01*
X029930Y015745D02*
X030415Y015745D01*
X030415Y015746D02*
X029930Y015746D01*
X029929Y015747D02*
X030416Y015747D01*
X030416Y015748D02*
X029928Y015748D01*
X029927Y015749D02*
X030416Y015749D01*
X030416Y015750D02*
X029927Y015750D01*
X029926Y015751D02*
X030417Y015751D01*
X030417Y015752D02*
X029925Y015752D01*
X029925Y015753D02*
X030417Y015753D01*
X030417Y015754D02*
X029924Y015754D01*
X029923Y015755D02*
X030418Y015755D01*
X030418Y015756D02*
X029922Y015756D01*
X029922Y015757D02*
X030418Y015757D01*
X030418Y015758D02*
X029921Y015758D01*
X029920Y015759D02*
X030419Y015759D01*
X030419Y015760D02*
X029920Y015760D01*
X029919Y015761D02*
X030419Y015761D01*
X030419Y015762D02*
X029918Y015762D01*
X029917Y015763D02*
X030420Y015763D01*
X030420Y015764D02*
X029917Y015764D01*
X029916Y015765D02*
X030420Y015765D01*
X030420Y015766D02*
X029915Y015766D01*
X029915Y015767D02*
X030421Y015767D01*
X030421Y015768D02*
X029914Y015768D01*
X029913Y015769D02*
X030421Y015769D01*
X030421Y015770D02*
X029913Y015770D01*
X029912Y015771D02*
X030422Y015771D01*
X030422Y015772D02*
X029911Y015772D01*
X029910Y015773D02*
X030422Y015773D01*
X030422Y015774D02*
X029910Y015774D01*
X029909Y015775D02*
X030422Y015775D01*
X030423Y015776D02*
X029908Y015776D01*
X029908Y015777D02*
X030423Y015777D01*
X030423Y015778D02*
X029907Y015778D01*
X029906Y015779D02*
X030423Y015779D01*
X030424Y015780D02*
X029905Y015780D01*
X029905Y015781D02*
X030424Y015781D01*
X030424Y015782D02*
X029904Y015782D01*
X029903Y015783D02*
X030424Y015783D01*
X030425Y015784D02*
X029903Y015784D01*
X029902Y015785D02*
X030425Y015785D01*
X030425Y015786D02*
X029901Y015786D01*
X029901Y015787D02*
X030425Y015787D01*
X030426Y015788D02*
X029900Y015788D01*
X029899Y015789D02*
X030426Y015789D01*
X030426Y015790D02*
X029898Y015790D01*
X029898Y015791D02*
X030426Y015791D01*
X030427Y015792D02*
X029897Y015792D01*
X029896Y015793D02*
X030427Y015793D01*
X030427Y015794D02*
X029896Y015794D01*
X029895Y015795D02*
X030427Y015795D01*
X030428Y015796D02*
X029894Y015796D01*
X029893Y015797D02*
X030428Y015797D01*
X030428Y015798D02*
X029893Y015798D01*
X029892Y015799D02*
X030428Y015799D01*
X030429Y015800D02*
X029891Y015800D01*
X029891Y015801D02*
X030429Y015801D01*
X030429Y015802D02*
X029890Y015802D01*
X029889Y015803D02*
X030429Y015803D01*
X030430Y015804D02*
X029888Y015804D01*
X029888Y015805D02*
X030430Y015805D01*
X030430Y015806D02*
X029887Y015806D01*
X029886Y015807D02*
X030430Y015807D01*
X030431Y015808D02*
X029886Y015808D01*
X029885Y015809D02*
X030431Y015809D01*
X030431Y015810D02*
X029884Y015810D01*
X029884Y015811D02*
X030431Y015811D01*
X030432Y015812D02*
X029883Y015812D01*
X029882Y015813D02*
X030432Y015813D01*
X030432Y015814D02*
X029881Y015814D01*
X029881Y015815D02*
X030432Y015815D01*
X030433Y015816D02*
X029880Y015816D01*
X029859Y015817D02*
X030433Y015817D01*
X030433Y015818D02*
X029805Y015818D01*
X029757Y015819D02*
X030433Y015819D01*
X030434Y015820D02*
X029709Y015820D01*
X029661Y015821D02*
X030434Y015821D01*
X030434Y015822D02*
X029610Y015822D01*
X029567Y015823D02*
X030434Y015823D01*
X030435Y015824D02*
X029547Y015824D01*
X029530Y015825D02*
X030435Y015825D01*
X030435Y015826D02*
X029513Y015826D01*
X029495Y015827D02*
X030435Y015827D01*
X030436Y015828D02*
X029477Y015828D01*
X029459Y015829D02*
X030436Y015829D01*
X030436Y015830D02*
X029433Y015830D01*
X029931Y014539D02*
X030044Y014539D01*
X030041Y014538D02*
X029931Y014538D01*
X029932Y014537D02*
X030038Y014537D01*
X030035Y014536D02*
X029932Y014536D01*
X029932Y014535D02*
X030033Y014535D01*
X030030Y014534D02*
X029932Y014534D01*
X029933Y014533D02*
X030027Y014533D01*
X030024Y014532D02*
X029933Y014532D01*
X029934Y014531D02*
X030022Y014531D01*
X030019Y014530D02*
X029934Y014530D01*
X029935Y014529D02*
X030016Y014529D01*
X030013Y014528D02*
X029936Y014528D01*
X029936Y014527D02*
X030010Y014527D01*
X030008Y014526D02*
X029937Y014526D01*
X029937Y014525D02*
X030005Y014525D01*
X030002Y014524D02*
X029938Y014524D01*
X029938Y014523D02*
X029999Y014523D01*
X029996Y014522D02*
X029939Y014522D01*
X029940Y014521D02*
X029994Y014521D01*
D19*
X017660Y015504D02*
X017664Y015666D01*
X017676Y015828D01*
X017696Y015989D01*
X017724Y016149D01*
X017759Y016308D01*
X017802Y016464D01*
X017853Y016618D01*
X017912Y016770D01*
X017978Y016918D01*
X018050Y017063D01*
X018130Y017204D01*
X018217Y017341D01*
X018311Y017474D01*
X018411Y017602D01*
X018517Y017725D01*
X018629Y017842D01*
X018746Y017954D01*
X018869Y018060D01*
X018997Y018160D01*
X019130Y018254D01*
X019267Y018341D01*
X019408Y018421D01*
X019553Y018493D01*
X019701Y018559D01*
X019853Y018618D01*
X020007Y018669D01*
X020163Y018712D01*
X020322Y018747D01*
X020482Y018775D01*
X020643Y018795D01*
X020805Y018807D01*
X020967Y018811D01*
X021129Y018807D01*
X021291Y018795D01*
X021452Y018775D01*
X021612Y018747D01*
X021771Y018712D01*
X021927Y018669D01*
X022081Y018618D01*
X022233Y018559D01*
X022381Y018493D01*
X022526Y018421D01*
X022667Y018341D01*
X022804Y018254D01*
X022937Y018160D01*
X023065Y018060D01*
X023188Y017954D01*
X023305Y017842D01*
X023417Y017725D01*
X023523Y017602D01*
X023623Y017474D01*
X023717Y017341D01*
X023804Y017204D01*
X023884Y017063D01*
X023956Y016918D01*
X024022Y016770D01*
X024081Y016618D01*
X024132Y016464D01*
X024175Y016308D01*
X024210Y016149D01*
X024238Y015989D01*
X024258Y015828D01*
X024270Y015666D01*
X024274Y015504D01*
X024270Y015342D01*
X024258Y015180D01*
X024238Y015019D01*
X024210Y014859D01*
X024175Y014700D01*
X024132Y014544D01*
X024081Y014390D01*
X024022Y014238D01*
X023956Y014090D01*
X023884Y013945D01*
X023804Y013804D01*
X023717Y013667D01*
X023623Y013534D01*
X023523Y013406D01*
X023417Y013283D01*
X023305Y013166D01*
X023188Y013054D01*
X023065Y012948D01*
X022937Y012848D01*
X022804Y012754D01*
X022667Y012667D01*
X022526Y012587D01*
X022381Y012515D01*
X022233Y012449D01*
X022081Y012390D01*
X021927Y012339D01*
X021771Y012296D01*
X021612Y012261D01*
X021452Y012233D01*
X021291Y012213D01*
X021129Y012201D01*
X020967Y012197D01*
X020805Y012201D01*
X020643Y012213D01*
X020482Y012233D01*
X020322Y012261D01*
X020163Y012296D01*
X020007Y012339D01*
X019853Y012390D01*
X019701Y012449D01*
X019553Y012515D01*
X019408Y012587D01*
X019267Y012667D01*
X019130Y012754D01*
X018997Y012848D01*
X018869Y012948D01*
X018746Y013054D01*
X018629Y013166D01*
X018517Y013283D01*
X018411Y013406D01*
X018311Y013534D01*
X018217Y013667D01*
X018130Y013804D01*
X018050Y013945D01*
X017978Y014090D01*
X017912Y014238D01*
X017853Y014390D01*
X017802Y014544D01*
X017759Y014700D01*
X017724Y014859D01*
X017696Y015019D01*
X017676Y015180D01*
X017664Y015342D01*
X017660Y015504D01*
D20*
X007226Y014681D02*
X007226Y008453D01*
X005137Y008453D02*
X005137Y014681D01*
D21*
X016961Y007925D03*
D22*
X020059Y007433D02*
X020906Y007433D01*
X020906Y007669D01*
X020906Y008338D02*
X020906Y008575D01*
X020059Y008575D01*
D23*
X027276Y013728D03*
D24*
X022844Y012109D02*
X022844Y011959D01*
X022794Y011959D02*
X022894Y011959D01*
X022794Y012059D02*
X022844Y012109D01*
X022747Y012084D02*
X022747Y011984D01*
X022722Y011959D01*
X022672Y011959D01*
X022647Y011984D01*
X022647Y012084D01*
X022672Y012109D01*
X022722Y012109D01*
X022747Y012084D01*
X022697Y012009D02*
X022747Y011959D01*
X016824Y017555D02*
X016824Y017580D01*
X016924Y017680D01*
X016924Y017705D01*
X016824Y017705D01*
X016727Y017705D02*
X016727Y017555D01*
X016677Y017555D02*
X016777Y017555D01*
X016677Y017655D02*
X016727Y017705D01*
X016630Y017680D02*
X016605Y017705D01*
X016555Y017705D01*
X016530Y017680D01*
X016530Y017580D01*
X016555Y017555D01*
X016605Y017555D01*
X016630Y017580D01*
M02*
