G75*
G70*
%OFA0B0*%
%FSLAX24Y24*%
%IPPOS*%
%LPD*%
%AMOC8*
5,1,8,0,0,1.08239X$1,22.5*
%
%ADD10C,0.1320*%
%ADD11C,0.0620*%
%ADD12C,0.1241*%
%ADD13C,0.0560*%
%ADD14C,0.0760*%
%ADD15OC8,0.0620*%
%ADD16C,0.0800*%
%ADD17C,0.0611*%
%ADD18R,0.0800X0.0800*%
%ADD19C,0.0800*%
%ADD20C,0.0320*%
%ADD21C,0.0300*%
D10*
X028717Y002754D03*
X028717Y018004D03*
D11*
X022286Y016823D03*
X020967Y017374D03*
X019648Y016823D03*
X019648Y014185D03*
X020967Y013634D03*
X022286Y014185D03*
D12*
X020967Y015504D03*
D13*
X009810Y016084D03*
X009023Y016084D03*
X008235Y016084D03*
X007448Y016084D03*
X006660Y016084D03*
X005873Y016084D03*
X005086Y016084D03*
X004298Y016084D03*
X003511Y016084D03*
X002723Y016084D03*
X002723Y007423D03*
X003511Y007423D03*
X004298Y007423D03*
X005086Y007423D03*
X005873Y007423D03*
X006660Y007423D03*
X007448Y007423D03*
X008235Y007423D03*
X009023Y007423D03*
X009810Y007423D03*
D14*
X015205Y002716D03*
X016228Y002716D03*
D15*
X030217Y012004D03*
X030217Y013254D03*
D16*
X029217Y010004D03*
X029217Y009004D03*
X029217Y008004D03*
X005967Y018054D03*
X004967Y017954D03*
X003967Y018054D03*
D17*
X031967Y009504D03*
X031967Y007504D03*
D18*
X029217Y007004D03*
D19*
X025717Y018134D02*
X025717Y018874D01*
X024717Y018874D02*
X024717Y018134D01*
D20*
X027617Y013854D03*
X026817Y012154D03*
X025317Y011554D03*
X024717Y012154D03*
X024217Y009654D03*
X025517Y008954D03*
X026317Y007754D03*
X026192Y006854D03*
X026492Y006554D03*
X025442Y006754D03*
X024717Y007454D03*
X024217Y007954D03*
X022617Y008254D03*
X022917Y006654D03*
X022217Y006154D03*
X026092Y005654D03*
X027617Y006154D03*
X028317Y005754D03*
X027717Y005154D03*
X026317Y004254D03*
X025917Y003854D03*
X015217Y004754D03*
X015017Y006654D03*
X011617Y006054D03*
X010817Y006054D03*
X010717Y005554D03*
X010117Y006054D03*
X009217Y005554D03*
X010417Y007054D03*
X010817Y007254D03*
X010117Y009654D03*
X004517Y006354D03*
X003717Y006454D03*
X004217Y005654D03*
X005617Y005154D03*
X003017Y007854D03*
X011617Y013654D03*
X010417Y014254D03*
X016017Y017454D03*
X015417Y018954D03*
D21*
X005467Y001904D03*
X007967Y001904D03*
X009217Y001904D03*
X010467Y001904D03*
X011717Y001904D03*
X021367Y008004D03*
X019217Y009254D03*
X018717Y010254D03*
X017217Y011754D03*
X013367Y012254D03*
X013867Y017454D03*
X025317Y012754D03*
X025617Y012504D03*
X025617Y011804D03*
X026117Y011104D03*
X026617Y011804D03*
X027367Y012504D03*
X027717Y012504D03*
X028217Y012504D03*
X028717Y012504D03*
X028917Y012254D03*
X026967Y012804D03*
X028967Y014004D03*
X028617Y014104D03*
X028217Y014104D03*
X026967Y014404D03*
X025767Y015504D03*
X026717Y015604D03*
X029467Y014004D03*
X029967Y014004D03*
X030467Y014004D03*
M02*
